<svg width="512" height="512" viewBox="0 0 512 512" fill="none" xmlns="http://www.w3.org/2000/svg">
<g clip-path="url(#clip0_5_4753)">
<path d="M190.734 497.764C280.306 457.102 362.894 475.591 406.059 456.007C449.223 436.409 528.612 370.446 438.485 171.876C348.359 -26.6951 213.191 -0.497754 165.703 21.0489C-56.6187 121.956 32.0853 569.771 190.734 497.764Z" fill="#EFEFEF"/>
<path d="M261.333 49.7778H289.778V64.0001H261.333V49.7778Z" fill="#A4AFC1"/>
<path d="M179.556 49.7778H208V64.0001H179.556V49.7778Z" fill="#A4AFC1"/>
<path d="M229.333 0H243.556V28.4444H229.333V0Z" fill="#A4AFC1"/>
<path d="M428.402 170.667C416.64 170.667 407.069 161.095 407.069 149.333C407.069 137.572 416.64 128 428.402 128C440.164 128 449.735 137.572 449.735 149.333C449.735 161.095 440.164 170.667 428.402 170.667ZM428.402 142.222C424.477 142.222 421.291 145.408 421.291 149.333C421.291 153.259 424.477 156.444 428.402 156.444C432.327 156.444 435.513 153.259 435.513 149.333C435.513 145.408 432.327 142.222 428.402 142.222Z" fill="#A4AFC1"/>
<path d="M373.333 206.222V110.222C373.333 102.372 366.962 96 359.111 96H110.222C102.372 96 96 102.372 96 110.222V359.111C96 366.962 102.372 373.333 110.222 373.333H206.222H373.333V206.222Z" fill="#F3F3F1"/>
<path d="M288 202.667L234.667 160L181.333 202.667V96H288V202.667Z" fill="#2FDF84"/>
<path d="M411.705 268.402C417.493 262.926 417.365 248.135 411.733 242.489C406.101 236.857 391.31 236.715 385.849 242.517L352.171 278.286C350.165 280.434 347.179 281.358 344.32 280.732L250.325 260.821C248.107 260.338 245.788 261.006 244.181 262.628C240.37 266.453 241.138 272.839 245.774 275.641L310.357 309.831C314.866 312.548 315.747 318.734 312.163 322.603L271.943 365.938L249.714 356.224C246.585 354.859 242.93 355.541 240.512 357.959C237.184 361.287 237.596 366.82 241.394 369.607L265.643 387.47C266.681 388.224 267.577 389.148 268.331 390.172L284.857 412.828C287.63 416.626 293.148 417.067 296.476 413.724C298.894 411.307 299.591 407.652 298.211 404.508L288.498 382.265L331.762 342.059C335.602 338.503 341.746 339.342 344.491 343.808L380.274 409.97C383.09 414.549 389.433 415.289 393.23 411.492C394.88 409.842 395.548 407.452 395.022 405.191L373.419 310.201C372.736 307.3 373.646 304.242 375.836 302.208L411.705 268.402Z" fill="#2FDF84"/>
<path d="M128 359.111V110.222C128 102.372 134.372 96 142.222 96H110.222C102.372 96 96 102.372 96 110.222V359.111C96 366.962 102.372 373.333 110.222 373.333H142.222C134.372 373.333 128 366.962 128 359.111Z" fill="#D5DBE1"/>
<path d="M213.333 96H181.333V202.667L213.333 177.067V96Z" fill="#00B871"/>
<path d="M266.667 160L250.667 172.8L288 202.667V177.067L266.667 160Z" fill="#00B871"/>
<path d="M376.32 280.747C379.179 281.372 382.165 280.448 384.171 278.3L414.179 246.414C413.525 244.907 412.743 243.513 411.733 242.489C406.101 236.857 391.31 236.715 385.849 242.517L354.261 276.068L376.32 280.747Z" fill="#00B871"/>
<path d="M245.746 275.641L310.329 309.831C314.837 312.548 315.719 318.734 312.135 322.603L281.003 356.153C281.23 356.224 281.472 356.139 281.685 356.224L303.915 365.938L344.135 322.603C347.719 318.734 346.837 312.548 342.329 309.831L277.746 275.641C274.276 273.55 272.967 269.426 274.148 265.884L250.311 260.836C248.092 260.352 245.774 261.02 244.167 262.642C240.341 266.453 241.124 272.853 245.746 275.641Z" fill="#00B871"/>
<path d="M376.462 343.836C373.717 339.371 367.573 338.532 363.733 342.087L350.279 354.588L380.245 409.998C383.061 414.578 389.404 415.317 393.202 411.52C394.851 409.87 395.52 407.481 394.994 405.22L384.355 358.414L376.462 343.836Z" fill="#00B871"/>
<path d="M288.484 382.293L289.408 381.44L273.365 369.636C271.9 368.555 271.104 367.033 270.663 365.412L249.685 356.238C246.556 354.873 242.901 355.556 240.484 357.973C237.156 361.301 237.568 366.82 241.365 369.621L265.614 387.484C266.652 388.238 267.548 389.163 268.302 390.187L284.828 412.843C287.602 416.654 293.12 417.081 296.448 413.739C298.866 411.321 299.563 407.666 298.183 404.523L288.484 382.293Z" fill="#00B871"/>
<path d="M291.029 426.667C290.546 426.667 290.076 426.652 289.593 426.61C284.245 426.197 279.353 423.467 276.196 419.129L259.669 396.487L235.022 378.226C230.713 375.04 227.996 370.148 227.598 364.814C227.2 359.481 229.134 354.233 232.917 350.45C238.478 344.875 246.699 343.31 253.952 346.468L269.241 353.152L302.222 317.596L240.74 285.056C235.193 281.728 231.893 276.636 231.182 270.805C230.471 264.96 232.448 259.243 236.601 255.09C240.768 250.894 246.77 249.131 252.572 250.396L345.273 270.037L378.069 235.207C382.549 230.457 389.845 227.669 398.108 227.556C406.997 227.228 414.45 230.13 419.271 234.951C424.092 239.772 426.78 247.495 426.667 256.128C426.553 264.391 423.765 271.687 419.029 276.153V276.167L384.085 309.092L405.419 402.844C406.798 408.676 405.063 414.763 400.768 419.058C396.644 423.196 390.94 425.202 385.138 424.491C379.321 423.808 374.229 420.565 371.171 415.573L336.768 351.986L301.298 384.967L307.982 400.284C311.14 407.495 309.561 415.744 304 421.319C300.544 424.747 295.879 426.667 291.029 426.667ZM384.597 407.609C384.597 407.623 384.597 407.637 384.611 407.666L384.597 407.609ZM337.365 329.202C338.233 329.202 339.1 329.259 339.968 329.387C345.614 330.155 350.578 333.397 353.564 338.261L379.918 386.958L363.008 312.604C361.472 306.091 363.577 299.108 368.54 294.457L404.324 260.736C405.774 258.759 405.66 251.876 404.153 249.984C402.375 248.59 395.435 248.505 393.5 249.984L359.95 285.639C355.442 290.489 348.572 292.651 342.03 291.186L268.373 275.584L315.349 300.444C320.768 303.701 324.053 308.651 324.85 314.34C325.646 320.028 323.883 325.689 319.986 329.899L279.751 373.248C276.665 376.576 271.801 377.586 267.662 375.765L271.971 378.937C273.92 380.388 275.584 382.08 276.978 383.972L278.528 386.105C277.006 382.066 278.059 377.486 281.244 374.514L324.508 334.293C328.021 330.98 332.615 329.202 337.365 329.202ZM383.132 309.973C383.132 309.988 383.132 309.988 383.132 309.973V309.973ZM383.772 307.769V307.812C383.787 307.797 383.772 307.783 383.772 307.769ZM248.107 271.275H248.149H248.107ZM346.496 270.293H346.524C346.51 270.308 346.496 270.308 346.496 270.293Z" fill="black"/>
<path d="M206.222 384H110.222C96.4977 384 85.3333 372.836 85.3333 359.111V110.222C85.3333 96.4978 96.4977 85.3334 110.222 85.3334H359.111C372.835 85.3334 384 96.4978 384 110.222V206.222H362.667V110.222C362.667 108.26 361.074 106.667 359.111 106.667H110.222C108.259 106.667 106.667 108.26 106.667 110.222V359.111C106.667 361.074 108.259 362.667 110.222 362.667H206.222V384Z" fill="black"/>
<path d="M288 213.333C285.625 213.333 283.264 212.537 281.33 210.987L234.667 173.653L188.003 210.987C184.789 213.575 180.409 214.059 176.725 212.267C173.013 210.503 170.667 206.763 170.667 202.667V96C170.667 90.112 175.445 85.3334 181.333 85.3334H288C293.888 85.3334 298.667 90.112 298.667 96V202.667C298.667 206.763 296.32 210.503 292.622 212.281C291.157 212.992 289.564 213.333 288 213.333ZM234.667 149.333C237.027 149.333 239.388 150.116 241.337 151.68L277.333 180.48V106.667H192V180.466L227.996 151.666C229.945 150.116 232.306 149.333 234.667 149.333Z" fill="black"/>
</g>
<defs>
<clipPath id="clip0_5_4753">
<rect width="512" height="512" fill="white"/>
</clipPath>
</defs>
</svg>
