<svg width="512" height="512" viewBox="0 0 512 512" fill="none" xmlns="http://www.w3.org/2000/svg">
<path d="M115.399 79.1324C89.728 174.094 22.8978 226.005 10.5244 271.772C-1.84888 317.54 -1.52178 420.75 208.996 477.668C419.513 534.585 485.362 413.653 498.958 363.307C562.688 127.616 160.868 -89.0596 115.399 79.1324Z" fill="#EFEFEF"/>
<path d="M435.541 174.222C423.78 174.222 414.208 164.651 414.208 152.889C414.208 141.127 423.78 131.556 435.541 131.556C447.303 131.556 456.875 141.127 456.875 152.889C456.875 164.651 447.303 174.222 435.541 174.222ZM435.541 145.778C431.616 145.778 428.43 148.978 428.43 152.889C428.43 156.8 431.616 160 435.541 160C439.467 160 442.652 156.8 442.652 152.889C442.652 148.978 439.467 145.778 435.541 145.778Z" fill="#A4AFC1"/>
<path d="M36.8672 71.26L46.9238 61.2034L67.0371 81.3166L56.9804 91.3733L36.8672 71.26Z" fill="#A4AFC1"/>
<path d="M34.3531 139.15L54.4664 119.037L64.523 129.093L44.4098 149.207L34.3531 139.15Z" fill="#A4AFC1"/>
<path d="M92.1707 81.3219L112.284 61.2086L122.341 71.2653L102.227 91.3785L92.1707 81.3219Z" fill="#A4AFC1"/>
<path d="M295.111 216.889V373.333H320H376.889H401.778C409.629 373.333 416 366.962 416 359.111V216.889H295.111Z" fill="#F3F3F1"/>
<path d="M238.222 138.667H85.3334V373.333H252.444V152.889C252.444 145.038 246.073 138.667 238.222 138.667Z" fill="#2FDF84"/>
<path d="M348.444 401.778C362.19 401.778 373.333 390.635 373.333 376.889C373.333 363.143 362.19 352 348.444 352C334.699 352 323.556 363.143 323.556 376.889C323.556 390.635 334.699 401.778 348.444 401.778Z" fill="#F3F3F1"/>
<path d="M206.222 401.778C219.968 401.778 231.111 390.635 231.111 376.889C231.111 363.143 219.968 352 206.222 352C192.477 352 181.333 363.143 181.333 376.889C181.333 390.635 192.477 401.778 206.222 401.778Z" fill="#F3F3F1"/>
<path d="M120.889 401.778C134.635 401.778 145.778 390.635 145.778 376.889C145.778 363.143 134.635 352 120.889 352C107.143 352 96 363.143 96 376.889C96 390.635 107.143 401.778 120.889 401.778Z" fill="#F3F3F1"/>
<path d="M344.889 259.556H416V309.333H344.889V259.556Z" fill="#2FDF84"/>
<path d="M309.333 138.667H295.111V216.889H387.556C387.556 173.682 352.541 138.667 309.333 138.667Z" fill="#2FDF84"/>
<path d="M295.111 216.889V373.333H320H327.111V216.889H295.111Z" fill="#D5DBE1"/>
<path d="M85.3334 138.667H117.333V373.333H85.3334V138.667Z" fill="#00B871"/>
<path d="M355.556 376.889C355.556 369.266 359.054 362.539 364.444 357.973C360.107 354.304 354.574 352 348.444 352C334.692 352 323.556 363.15 323.556 376.889C323.556 390.628 334.692 401.778 348.444 401.778C354.574 401.778 360.107 399.474 364.444 395.804C359.054 391.239 355.556 384.512 355.556 376.889Z" fill="#D5DBE1"/>
<path d="M213.333 376.889C213.333 369.266 216.832 362.539 222.222 357.973C217.884 354.304 212.352 352 206.222 352C192.484 352 181.333 363.15 181.333 376.889C181.333 390.628 192.484 401.778 206.222 401.778C212.352 401.778 217.884 399.474 222.222 395.804C216.832 391.239 213.333 384.512 213.333 376.889Z" fill="#D5DBE1"/>
<path d="M128 376.889C128 369.266 131.499 362.539 136.889 357.973C132.551 354.304 127.019 352 120.889 352C107.15 352 96 363.15 96 376.889C96 390.628 107.15 401.778 120.889 401.778C127.019 401.778 132.551 399.474 136.889 395.804C131.499 391.239 128 384.512 128 376.889Z" fill="#D5DBE1"/>
<path d="M344.889 259.556H376.889V309.333H344.889V259.556Z" fill="#00B871"/>
<path d="M309.333 138.667H295.111V216.889H327.111V140.772C321.394 139.449 315.463 138.667 309.333 138.667Z" fill="#00B871"/>
<path d="M184.889 181.333H206.222V302.222H184.889V181.333Z" fill="black"/>
<path d="M113.778 181.333H135.111V302.222H113.778V181.333Z" fill="black"/>
<path d="M348.444 412.444C328.846 412.444 312.889 396.501 312.889 376.889C312.889 357.276 328.846 341.333 348.444 341.333C368.043 341.333 384 357.276 384 376.889C384 396.501 368.043 412.444 348.444 412.444ZM348.444 362.667C340.608 362.667 334.222 369.038 334.222 376.889C334.222 384.74 340.608 391.111 348.444 391.111C356.281 391.111 362.667 384.74 362.667 376.889C362.667 369.038 356.281 362.667 348.444 362.667Z" fill="black"/>
<path d="M206.222 412.444C186.624 412.444 170.667 396.501 170.667 376.889C170.667 357.276 186.624 341.333 206.222 341.333C225.821 341.333 241.778 357.276 241.778 376.889C241.778 396.501 225.821 412.444 206.222 412.444ZM206.222 362.667C198.386 362.667 192 369.038 192 376.889C192 384.74 198.386 391.111 206.222 391.111C214.059 391.111 220.445 384.74 220.445 376.889C220.445 369.038 214.059 362.667 206.222 362.667Z" fill="black"/>
<path d="M120.889 412.444C101.291 412.444 85.3334 396.501 85.3334 376.889C85.3334 357.276 101.291 341.333 120.889 341.333C140.487 341.333 156.444 357.276 156.444 376.889C156.444 396.501 140.487 412.444 120.889 412.444ZM120.889 362.667C113.052 362.667 106.667 369.038 106.667 376.889C106.667 384.74 113.052 391.111 120.889 391.111C128.725 391.111 135.111 384.74 135.111 376.889C135.111 369.038 128.725 362.667 120.889 362.667Z" fill="black"/>
<path d="M416 320H344.889C339.001 320 334.222 315.221 334.222 309.333V259.556C334.222 253.668 339.001 248.889 344.889 248.889H416V270.222H355.556V298.667H416V320Z" fill="black"/>
<path d="M149.333 362.667H177.778V384H149.333V362.667Z" fill="black"/>
<path d="M252.445 384H224V362.667H241.778V152.889C241.778 150.926 240.185 149.333 238.222 149.333H85.3334V128H238.222C251.947 128 263.111 139.164 263.111 152.889V373.333C263.111 379.221 258.333 384 252.445 384Z" fill="black"/>
<path d="M401.778 384H376.889V362.667H401.778C403.74 362.667 405.333 361.074 405.333 359.111V227.556H305.778V362.667H320V384H295.111C289.223 384 284.444 379.221 284.444 373.333V216.889C284.444 211.001 289.223 206.222 295.111 206.222H416C421.888 206.222 426.667 211.001 426.667 216.889V359.111C426.667 372.836 415.502 384 401.778 384Z" fill="black"/>
<path d="M398.222 216.889H376.889C376.889 179.641 346.581 149.333 309.333 149.333H305.778V216.889H284.444V138.667C284.444 132.779 289.223 128 295.111 128H309.333C358.343 128 398.222 167.879 398.222 216.889Z" fill="black"/>
<path d="M248.889 362.667H291.556V384H248.889V362.667Z" fill="black"/>
</svg>
