<svg width="512" height="512" viewBox="0 0 512 512" fill="none" xmlns="http://www.w3.org/2000/svg">
<path d="M383.744 55.6658C285.383 57.5004 216.889 7.80799 169.486 8.70399C122.084 9.59999 23.0542 38.6986 27.136 256.74C31.2178 474.78 165.717 504.263 217.856 503.296C461.966 498.731 557.924 52.4089 383.744 55.6658Z" fill="#EFEFEF"/>
<path d="M428.402 202.667C416.64 202.667 407.068 193.095 407.068 181.333C407.068 169.572 416.64 160 428.402 160C440.164 160 449.735 169.572 449.735 181.333C449.735 193.095 440.164 202.667 428.402 202.667ZM428.402 174.222C424.491 174.222 421.291 177.408 421.291 181.333C421.291 185.259 424.491 188.444 428.402 188.444C432.313 188.444 435.513 185.259 435.513 181.333C435.513 177.408 432.313 174.222 428.402 174.222Z" fill="#A4AFC1"/>
<path d="M49.7778 0H64V28.4444H49.7778V0Z" fill="#A4AFC1"/>
<path d="M49.7778 81.7778H64V110.222H49.7778V81.7778Z" fill="#A4AFC1"/>
<path d="M0 46.2222H28.4444V60.4444H0V46.2222Z" fill="#A4AFC1"/>
<path d="M81.7778 46.2222H110.222V60.4444H81.7778V46.2222Z" fill="#A4AFC1"/>
<path d="M359.111 216.889V181.333H96V344.889C96 352.74 102.372 359.111 110.222 359.111H359.111V216.889Z" fill="#F3F3F1"/>
<path d="M316.174 103.367C313.671 98.8302 308.907 96 303.716 96H148.153C142.805 96 137.899 99.0009 135.481 103.765L96 181.333H359.111L316.174 103.367Z" fill="#2FDF84"/>
<path d="M411.705 268.402C417.493 262.926 417.365 248.135 411.733 242.489C406.101 236.857 391.31 236.715 385.849 242.517L352.171 278.286C350.165 280.434 347.179 281.358 344.32 280.732L250.325 260.821C248.107 260.338 245.788 261.006 244.181 262.628C240.37 266.453 241.138 272.839 245.774 275.641L310.357 309.831C314.866 312.548 315.748 318.734 312.164 322.603L271.943 365.938L249.714 356.224C246.585 354.859 242.93 355.541 240.512 357.959C237.184 361.287 237.596 366.82 241.394 369.607L265.643 387.47C266.681 388.224 267.577 389.148 268.331 390.172L284.857 412.828C287.63 416.626 293.148 417.067 296.476 413.724C298.894 411.307 299.591 407.652 298.212 404.508L288.498 382.265L331.762 342.059C335.602 338.503 341.746 339.342 344.491 343.808L380.274 409.97C383.09 414.549 389.433 415.289 393.23 411.492C394.88 409.842 395.548 407.452 395.022 405.191L373.419 310.201C372.736 307.3 373.646 304.242 375.836 302.208L411.705 268.402Z" fill="#2FDF84"/>
<path d="M128 344.889V181.333H96V344.889C96 352.74 102.372 359.111 110.222 359.111H142.222C134.372 359.111 128 352.74 128 344.889Z" fill="#D5DBE1"/>
<path d="M180.153 96H148.153C142.805 96 137.899 99.0009 135.481 103.765L96 181.333H128L167.481 103.765C169.913 99.0009 174.805 96 180.153 96Z" fill="#00B871"/>
<path d="M245.746 275.641L310.329 309.831C314.837 312.548 315.719 318.734 312.135 322.603L281.003 356.153C281.23 356.224 281.472 356.139 281.685 356.224L303.915 365.938L344.135 322.603C347.719 318.734 346.837 312.548 342.329 309.831L277.746 275.641C274.276 273.55 272.967 269.426 274.148 265.884L250.311 260.836C248.092 260.352 245.774 261.02 244.167 262.642C240.341 266.453 241.124 272.853 245.746 275.641Z" fill="#00B871"/>
<path d="M376.32 280.747C379.179 281.372 382.165 280.448 384.171 278.3L414.18 246.414C413.525 244.907 412.743 243.513 411.733 242.489C406.101 236.857 391.31 236.715 385.849 242.517L354.261 276.068L376.32 280.747Z" fill="#00B871"/>
<path d="M288.484 382.293L289.408 381.44L273.365 369.636C271.9 368.555 271.104 367.033 270.663 365.412L249.685 356.238C246.556 354.873 242.901 355.556 240.484 357.973C237.156 361.301 237.568 366.82 241.365 369.621L265.614 387.484C266.652 388.238 267.548 389.163 268.302 390.187L284.828 412.843C287.602 416.654 293.12 417.081 296.448 413.739C298.866 411.321 299.563 407.666 298.183 404.523L288.484 382.293Z" fill="#00B871"/>
<path d="M376.462 343.836C373.717 339.371 367.573 338.532 363.733 342.087L350.279 354.588L380.245 409.998C383.061 414.578 389.404 415.317 393.202 411.52C394.852 409.87 395.52 407.481 394.994 405.22L384.356 358.414L376.462 343.836Z" fill="#00B871"/>
<path d="M206.222 369.778H110.222C96.4978 369.778 85.3333 358.613 85.3333 344.889V181.333C85.3333 175.445 90.112 170.667 96 170.667H359.111C364.999 170.667 369.778 175.445 369.778 181.333V216.889H348.444V192H106.667V344.889C106.667 346.852 108.26 348.445 110.222 348.445H206.222V369.778Z" fill="black"/>
<path d="M349.767 186.482L306.816 108.516C306.19 107.364 304.996 106.667 303.701 106.667H148.153C146.816 106.667 145.593 107.406 144.981 108.615L105.5 186.169L86.4995 176.498L125.98 98.9298C130.247 90.5387 138.752 85.3334 148.153 85.3334H303.716C312.789 85.3334 321.152 90.2685 325.518 98.2187L368.469 176.185L349.767 186.482Z" fill="black"/>
<path d="M216.889 96H238.222V181.333H216.889V96Z" fill="black"/>
<path d="M291.044 426.667C290.574 426.667 290.105 426.652 289.621 426.61C284.274 426.197 279.381 423.481 276.224 419.143L259.698 396.487L235.051 378.226C230.727 375.04 228.025 370.148 227.627 364.814C227.228 359.481 229.163 354.233 232.96 350.45C238.521 344.875 246.812 343.339 253.98 346.482L269.269 353.166L302.251 317.611L240.782 285.07C235.221 281.742 231.936 276.651 231.225 270.82C230.5 264.974 232.491 259.257 236.644 255.104C240.853 250.908 246.827 249.159 252.615 250.411L345.316 270.037L378.112 235.207C382.564 230.471 389.874 227.669 398.123 227.556C406.542 226.987 414.464 230.116 419.285 234.951C424.121 239.772 426.809 247.495 426.695 256.142C426.567 264.391 423.78 271.687 419.044 276.167L384.114 309.077L405.433 402.844C406.798 408.704 405.063 414.777 400.782 419.058C396.672 423.196 391.054 425.216 385.166 424.491C379.364 423.808 374.258 420.565 371.2 415.588L336.782 351.972L301.312 384.953L307.996 400.27C311.111 407.353 309.504 415.801 304.028 421.291C300.558 424.747 295.893 426.667 291.044 426.667ZM384.597 407.595C384.612 407.595 384.612 407.609 384.612 407.623L384.597 407.595ZM337.365 329.202C338.233 329.202 339.086 329.259 339.968 329.387C345.614 330.155 350.564 333.383 353.564 338.247L379.918 386.944L363.022 312.59C361.472 306.091 363.577 299.093 368.54 294.443L404.324 260.708C405.788 258.731 405.675 251.847 404.153 249.956C402.375 248.548 395.42 248.476 393.529 249.941L359.964 285.596C355.456 290.432 348.615 292.594 342.044 291.143L268.373 275.541L315.349 300.402C320.782 303.659 324.053 308.608 324.864 314.297C325.675 319.986 323.897 325.646 319.986 329.856L279.765 373.205C276.665 376.533 271.815 377.515 267.676 375.723L267.648 375.708L271.957 378.88C273.877 380.288 275.57 381.98 276.978 383.915L278.514 386.034C277.006 381.995 278.059 377.429 281.23 374.471L324.494 334.251C328.021 330.98 332.615 329.202 337.365 329.202ZM383.772 307.74L383.787 307.783C383.772 307.783 383.772 307.755 383.772 307.74ZM248.107 271.275H248.149H248.107ZM346.496 270.293H346.524C346.51 270.308 346.51 270.308 346.496 270.293Z" fill="black"/>
</svg>
