<svg width="512" height="512" viewBox="0 0 512 512" fill="none" xmlns="http://www.w3.org/2000/svg">
<path d="M190.734 497.764C280.306 457.102 362.894 475.591 406.059 456.007C449.223 436.409 528.612 370.446 438.485 171.876C348.359 -26.6951 213.191 -0.497754 165.703 21.0489C-56.6187 121.956 32.0853 569.771 190.734 497.764Z" fill="#EFEFEF"/>
<path d="M93.9522 40.2697L114.065 20.1564L124.122 30.213L104.009 50.3263L93.9522 40.2697Z" fill="#A4AFC1"/>
<path d="M36.1246 98.0734L56.2379 77.9601L66.2945 88.0167L46.1813 108.13L36.1246 98.0734Z" fill="#A4AFC1"/>
<path d="M36.1274 27.662L46.1841 17.6054L66.2973 37.7186L56.2407 47.7752L36.1274 27.662Z" fill="#A4AFC1"/>
<path d="M401.778 195.555C390.016 195.555 380.444 185.984 380.444 174.222C380.444 162.46 390.016 152.889 401.778 152.889C413.54 152.889 423.111 162.46 423.111 174.222C423.111 185.984 413.54 195.555 401.778 195.555ZM401.778 167.111C397.852 167.111 394.667 170.311 394.667 174.222C394.667 178.133 397.852 181.333 401.778 181.333C405.703 181.333 408.889 178.133 408.889 174.222C408.889 170.311 405.703 167.111 401.778 167.111Z" fill="#A4AFC1"/>
<path d="M103.111 273.778H216.889V373.333H103.111V273.778Z" fill="#2FDF84"/>
<path d="M103.111 188.444H216.889V273.778H103.111V188.444Z" fill="#2FDF84"/>
<path d="M103.111 103.111H216.889V188.444H103.111V103.111Z" fill="#2FDF84"/>
<path d="M216.889 188.444H330.667V273.778H216.889V188.444Z" fill="#2FDF84"/>
<path d="M323.556 330.667H330.667V273.778H216.889V373.333H280.889C304.455 373.333 323.556 354.233 323.556 330.667Z" fill="#2FDF84"/>
<path d="M96 373.333L124.444 416H373.333L416 330.667H323.556C323.556 354.233 304.455 373.333 280.889 373.333H96Z" fill="#F3F3F1"/>
<path d="M103.111 273.778H135.111V373.333H103.111V273.778Z" fill="#00B871"/>
<path d="M103.111 188.444H135.111V273.778H103.111V188.444Z" fill="#00B871"/>
<path d="M103.111 103.111H135.111V188.444H103.111V103.111Z" fill="#00B871"/>
<path d="M216.889 188.444H248.889V273.778H216.889V188.444Z" fill="#00B871"/>
<path d="M216.889 273.778H248.889V373.333H216.889V273.778Z" fill="#00B871"/>
<path d="M355.556 330.667H323.556C323.556 354.233 304.455 373.333 280.889 373.333H312.889C336.455 373.333 355.556 354.233 355.556 330.667Z" fill="#D5DBE1"/>
<path d="M96 373.333L124.444 416H156.444L128 373.333H96Z" fill="#D5DBE1"/>
<path d="M373.333 426.667H124.444C120.875 426.667 117.547 424.889 115.57 421.916L87.1253 379.25C84.9493 375.979 84.736 371.769 86.5991 368.299C88.448 364.828 92.0746 362.667 96 362.667H280.889C298.539 362.667 312.889 348.302 312.889 330.667C312.889 324.779 317.668 320 323.556 320H416C419.698 320 423.125 321.92 425.074 325.049C427.008 328.206 427.193 332.117 425.543 335.417L382.876 420.75C381.07 424.391 377.372 426.667 373.333 426.667ZM130.148 405.333H366.734L398.734 341.333H333.141C328.178 365.653 306.631 384 280.875 384H115.925L130.148 405.333Z" fill="black"/>
<path d="M280.889 384H216.889C211.001 384 206.222 379.221 206.222 373.333V273.778C206.222 267.89 211.001 263.111 216.889 263.111H330.667C336.555 263.111 341.333 267.89 341.333 273.778V330.667H320V284.444H227.556V362.667H280.889V384Z" fill="black"/>
<path d="M241.778 302.222H263.111V341.333H241.778V302.222Z" fill="black"/>
<path d="M280.889 384H216.889C211.001 384 206.222 379.221 206.222 373.333V273.778C206.222 267.89 211.001 263.111 216.889 263.111H330.667C336.555 263.111 341.333 267.89 341.333 273.778V330.667H320V284.444H227.556V362.667H280.889V384Z" fill="black"/>
<path d="M284.444 302.222H305.778V330.667H284.444V302.222Z" fill="black"/>
<path d="M241.778 302.222H263.111V341.333H241.778V302.222Z" fill="black"/>
<path d="M216.889 384H103.111C97.2231 384 92.4444 379.221 92.4444 373.333V273.778C92.4444 267.89 97.2231 263.111 103.111 263.111H216.889C222.777 263.111 227.556 267.89 227.556 273.778V373.333C227.556 379.221 222.777 384 216.889 384ZM113.778 362.667H206.222V284.444H113.778V362.667Z" fill="black"/>
<path d="M128 302.222H149.333V341.333H128V302.222Z" fill="black"/>
<path d="M216.889 384H103.111C97.2231 384 92.4444 379.221 92.4444 373.333V273.778C92.4444 267.89 97.2231 263.111 103.111 263.111H216.889C222.777 263.111 227.556 267.89 227.556 273.778V373.333C227.556 379.221 222.777 384 216.889 384ZM113.778 362.667H206.222V284.444H113.778V362.667Z" fill="black"/>
<path d="M170.667 302.222H192V341.333H170.667V302.222Z" fill="black"/>
<path d="M128 302.222H149.333V341.333H128V302.222Z" fill="black"/>
<path d="M216.889 284.444H103.111C97.2231 284.444 92.4444 279.666 92.4444 273.778V188.444C92.4444 182.556 97.2231 177.778 103.111 177.778H216.889C222.777 177.778 227.556 182.556 227.556 188.444V273.778C227.556 279.666 222.777 284.444 216.889 284.444ZM113.778 263.111H206.222V199.111H113.778V263.111Z" fill="black"/>
<path d="M128 216.889H149.333V245.333H128V216.889Z" fill="black"/>
<path d="M216.889 284.444H103.111C97.2231 284.444 92.4444 279.666 92.4444 273.778V188.444C92.4444 182.556 97.2231 177.778 103.111 177.778H216.889C222.777 177.778 227.556 182.556 227.556 188.444V273.778C227.556 279.666 222.777 284.444 216.889 284.444ZM113.778 263.111H206.222V199.111H113.778V263.111Z" fill="black"/>
<path d="M170.667 216.889H192V245.333H170.667V216.889Z" fill="black"/>
<path d="M128 216.889H149.333V245.333H128V216.889Z" fill="black"/>
<path d="M216.889 199.111H103.111C97.2231 199.111 92.4444 194.332 92.4444 188.444V103.111C92.4444 97.2231 97.2231 92.4445 103.111 92.4445H216.889C222.777 92.4445 227.556 97.2231 227.556 103.111V188.444C227.556 194.332 222.777 199.111 216.889 199.111ZM113.778 177.778H206.222V113.778H113.778V177.778Z" fill="black"/>
<path d="M128 131.556H149.333V160H128V131.556Z" fill="black"/>
<path d="M216.889 199.111H103.111C97.2231 199.111 92.4444 194.332 92.4444 188.444V103.111C92.4444 97.2231 97.2231 92.4445 103.111 92.4445H216.889C222.777 92.4445 227.556 97.2231 227.556 103.111V188.444C227.556 194.332 222.777 199.111 216.889 199.111ZM113.778 177.778H206.222V113.778H113.778V177.778Z" fill="black"/>
<path d="M170.667 131.556H192V160H170.667V131.556Z" fill="black"/>
<path d="M128 131.556H149.333V160H128V131.556Z" fill="black"/>
<path d="M330.667 284.444H216.889C211.001 284.444 206.222 279.666 206.222 273.778V188.444C206.222 182.556 211.001 177.778 216.889 177.778H330.667C336.555 177.778 341.333 182.556 341.333 188.444V273.778C341.333 279.666 336.555 284.444 330.667 284.444ZM227.556 263.111H320V199.111H227.556V263.111Z" fill="black"/>
<path d="M284.444 216.889H305.778V245.333H284.444V216.889Z" fill="black"/>
<path d="M241.778 216.889H263.111V245.333H241.778V216.889Z" fill="black"/>
<path d="M376.889 256H398.222V341.333H376.889V256Z" fill="black"/>
</svg>
