<svg width="512" height="512" viewBox="0 0 512 512" fill="none" xmlns="http://www.w3.org/2000/svg">
<path d="M389.931 55.6658C291.584 57.5004 223.076 7.80799 175.687 8.70399C128.299 9.59999 29.2551 38.6986 33.3369 256.74C37.4187 474.78 171.918 504.263 224.057 503.296C468.153 498.731 564.124 52.4089 389.931 55.6658Z" fill="#EFEFEF"/>
<path d="M419.56 240.88L429.617 230.823L449.73 250.936L439.673 260.993L419.56 240.88Z" fill="#A4AFC1"/>
<path d="M361.742 183.038L371.799 172.981L391.912 193.094L381.856 203.151L361.742 183.038Z" fill="#A4AFC1"/>
<path d="M422.056 193.025L442.169 172.911L452.226 182.968L432.113 203.081L422.056 193.025Z" fill="#A4AFC1"/>
<path d="M249.116 150.215C237.355 150.215 227.783 140.644 227.783 128.882C227.783 117.12 237.355 107.548 249.116 107.548C260.878 107.548 270.45 117.12 270.45 128.882C270.45 140.644 260.878 150.215 249.116 150.215ZM249.116 121.771C245.191 121.771 242.005 124.971 242.005 128.882C242.005 132.793 245.191 135.993 249.116 135.993C253.042 135.993 256.228 132.793 256.228 128.882C256.228 124.971 253.042 121.771 249.116 121.771Z" fill="#A4AFC1"/>
<path d="M96 323.556H416V337.01C416 352.498 406.571 366.436 392.178 372.181C374.343 379.321 362.638 396.572 362.581 415.772V415.986H96V323.556Z" fill="#F3F3F1"/>
<path d="M110.222 152.889V323.556H188.444V224V181.333V152.889H110.222Z" fill="#2FDF84"/>
<path d="M138.667 181.333H202.667V224H138.667V181.333Z" fill="#F3F3F1"/>
<path d="M245.333 280.889H316.444V323.556H245.333V280.889Z" fill="#2FDF84"/>
<path d="M316.444 280.889H387.556V323.556H316.444V280.889Z" fill="#2FDF84"/>
<path d="M245.333 238.222H316.444V280.889H245.333V238.222Z" fill="#2FDF84"/>
<path d="M245.333 195.556H316.444V238.222H245.333V195.556Z" fill="#2FDF84"/>
<path d="M316.444 238.222H387.556V280.889H316.444V238.222Z" fill="#2FDF84"/>
<path d="M96 323.556H128V416H96V323.556Z" fill="#D5DBE1"/>
<path d="M110.222 152.889H142.222V323.556H110.222V152.889Z" fill="#00B871"/>
<path d="M138.667 181.333H170.667V224H138.667V181.333Z" fill="#D5DBE1"/>
<path d="M245.333 280.889H277.333V323.556H245.333V280.889Z" fill="#00B871"/>
<path d="M316.444 280.889H348.444V323.556H316.444V280.889Z" fill="#00B871"/>
<path d="M245.333 238.222H277.333V280.889H245.333V238.222Z" fill="#00B871"/>
<path d="M245.333 195.556H277.333V238.222H245.333V195.556Z" fill="#00B871"/>
<path d="M316.444 238.222H348.444V280.889H316.444V238.222Z" fill="#00B871"/>
<path d="M362.596 426.667H96C90.112 426.667 85.3334 421.888 85.3334 416V323.556C85.3334 317.668 90.112 312.889 96 312.889H416C421.888 312.889 426.667 317.668 426.667 323.556V337.01C426.667 356.978 414.677 374.684 396.146 382.094C382.279 387.655 373.305 400.882 373.262 415.815C373.248 421.689 368.469 426.667 362.596 426.667ZM106.667 405.333H352.91C356.494 385.991 369.564 369.749 388.21 362.297C398.606 358.144 405.333 348.217 405.333 337.024V334.222H106.667V405.333Z" fill="black"/>
<path d="M96 355.556H402.233V376.889H96V355.556Z" fill="black"/>
<path d="M188.445 334.222H110.222C104.334 334.222 99.5557 329.444 99.5557 323.556V152.889C99.5557 147.001 104.334 142.222 110.222 142.222H188.445C194.333 142.222 199.111 147.001 199.111 152.889V181.333H177.778V163.556H120.889V312.889H177.778V224H199.111V323.556C199.111 329.444 194.333 334.222 188.445 334.222Z" fill="black"/>
<path d="M202.667 234.667H138.667C132.779 234.667 128 229.888 128 224V181.333C128 175.445 132.779 170.667 138.667 170.667H202.667C208.555 170.667 213.333 175.445 213.333 181.333V224C213.333 229.888 208.555 234.667 202.667 234.667ZM149.333 213.333H192V192H149.333V213.333Z" fill="black"/>
<path d="M142.222 85.3334H163.556V163.556H142.222V85.3334Z" fill="black"/>
<path d="M316.445 334.222H245.333C239.445 334.222 234.667 329.444 234.667 323.556V280.889C234.667 275.001 239.445 270.222 245.333 270.222H316.445C322.333 270.222 327.111 275.001 327.111 280.889V323.556C327.111 329.444 322.333 334.222 316.445 334.222ZM256 312.889H305.778V291.556H256V312.889Z" fill="black"/>
<path d="M387.556 334.222H316.444C310.556 334.222 305.778 329.444 305.778 323.556V280.889C305.778 275.001 310.556 270.222 316.444 270.222H387.556C393.444 270.222 398.222 275.001 398.222 280.889V323.556C398.222 329.444 393.444 334.222 387.556 334.222ZM327.111 312.889H376.889V291.556H327.111V312.889Z" fill="black"/>
<path d="M316.445 291.556H245.333C239.445 291.556 234.667 286.777 234.667 280.889V238.222C234.667 232.334 239.445 227.556 245.333 227.556H316.445C322.333 227.556 327.111 232.334 327.111 238.222V280.889C327.111 286.777 322.333 291.556 316.445 291.556ZM256 270.222H305.778V248.889H256V270.222Z" fill="black"/>
<path d="M316.445 248.889H245.333C239.445 248.889 234.667 244.11 234.667 238.222V195.556C234.667 189.668 239.445 184.889 245.333 184.889H316.445C322.333 184.889 327.111 189.668 327.111 195.556V238.222C327.111 244.11 322.333 248.889 316.445 248.889ZM256 227.556H305.778V206.222H256V227.556Z" fill="black"/>
<path d="M387.556 291.556H316.444C310.556 291.556 305.778 286.777 305.778 280.889V238.222C305.778 232.334 310.556 227.556 316.444 227.556H387.556C393.444 227.556 398.222 232.334 398.222 238.222V280.889C398.222 286.777 393.444 291.556 387.556 291.556ZM327.111 270.222H376.889V248.889H327.111V270.222Z" fill="black"/>
</svg>
