<svg width="512" height="512" viewBox="0 0 512 512" fill="none" xmlns="http://www.w3.org/2000/svg">
<path d="M496.412 289.493C442.624 207.132 448.341 122.709 422.414 83.0152C396.487 43.3209 319.218 -25.1164 136.647 94.1369C-45.9237 213.39 0.511887 343.026 29.0417 386.674C162.56 591.076 591.687 435.356 496.412 289.493Z" fill="#EFEFEF"/>
<path d="M117.066 41.8971L137.179 21.7838L147.236 31.8405L127.123 51.9537L117.066 41.8971Z" fill="#A4AFC1"/>
<path d="M59.2383 99.7151L79.3515 79.6018L89.4082 89.6585L69.2949 109.772L59.2383 99.7151Z" fill="#A4AFC1"/>
<path d="M59.2554 29.3463L69.312 19.2897L89.4253 39.4029L79.3686 49.4596L59.2554 29.3463Z" fill="#A4AFC1"/>
<path d="M441.33 348.444C429.568 348.444 419.996 338.873 419.996 327.111C419.996 315.349 429.568 305.778 441.33 305.778C453.091 305.778 462.663 315.349 462.663 327.111C462.663 338.873 453.091 348.444 441.33 348.444ZM441.33 320C437.419 320 434.219 323.186 434.219 327.111C434.219 331.036 437.419 334.222 441.33 334.222C445.241 334.222 448.441 331.036 448.441 327.111C448.441 323.186 445.255 320 441.33 320Z" fill="#A4AFC1"/>
<path d="M344.889 239.076V195.556H110.222V359.111H344.889V239.076Z" fill="#F3F3F1"/>
<path d="M96 138.667H359.111V195.556H96V138.667Z" fill="#2FDF84"/>
<path d="M316.444 96H138.667L96 138.667H359.111L316.444 96Z" fill="#2FDF84"/>
<path d="M411.705 268.402C417.493 262.926 417.365 248.135 411.733 242.489C406.101 236.857 391.31 236.715 385.849 242.517L352.171 278.286C350.165 280.434 347.179 281.358 344.32 280.732L250.325 260.821C248.107 260.338 245.788 261.006 244.181 262.628C240.37 266.453 241.138 272.839 245.774 275.641L310.357 309.831C314.866 312.548 315.747 318.734 312.163 322.603L271.943 365.938L249.714 356.224C246.585 354.859 242.93 355.541 240.512 357.959C237.184 361.287 237.596 366.82 241.394 369.607L265.643 387.47C266.681 388.224 267.577 389.148 268.331 390.172L284.857 412.828C287.63 416.626 293.148 417.067 296.476 413.724C298.894 411.307 299.591 407.652 298.211 404.508L288.498 382.265L331.762 342.059C335.602 338.503 341.746 339.342 344.491 343.808L380.274 409.97C383.09 414.549 389.433 415.289 393.23 411.492C394.88 409.842 395.548 407.452 395.022 405.191L373.419 310.201C372.736 307.3 373.646 304.242 375.836 302.208L411.705 268.402Z" fill="#2FDF84"/>
<path d="M110.222 195.556H142.222V359.111H110.222V195.556Z" fill="#D5DBE1"/>
<path d="M96 138.667H128V195.556H96V138.667Z" fill="#00B871"/>
<path d="M138.667 96L96 138.667H128L170.667 96H138.667Z" fill="#00B871"/>
<path d="M376.32 280.747C379.179 281.372 382.165 280.448 384.171 278.3L414.179 246.414C413.525 244.907 412.743 243.513 411.733 242.489C406.101 236.857 391.31 236.715 385.849 242.517L354.261 276.068L376.32 280.747Z" fill="#00B871"/>
<path d="M245.746 275.641L310.329 309.831C314.837 312.548 315.719 318.734 312.135 322.603L281.003 356.153C281.23 356.224 281.472 356.139 281.685 356.224L303.915 365.938L344.135 322.603C347.719 318.734 346.837 312.548 342.329 309.831L277.746 275.641C274.276 273.55 272.967 269.426 274.148 265.884L250.311 260.836C248.092 260.352 245.774 261.02 244.167 262.642C240.341 266.453 241.124 272.853 245.746 275.641Z" fill="#00B871"/>
<path d="M376.462 343.836C373.717 339.371 367.573 338.532 363.733 342.087L350.279 354.588L380.245 409.998C383.061 414.578 389.404 415.317 393.202 411.52C394.851 409.87 395.52 407.481 394.994 405.22L384.355 358.414L376.462 343.836Z" fill="#00B871"/>
<path d="M288.484 382.293L289.408 381.44L273.365 369.636C271.9 368.555 271.104 367.033 270.663 365.412L249.685 356.238C246.556 354.873 242.901 355.556 240.484 357.973C237.156 361.301 237.568 366.82 241.365 369.621L265.614 387.484C266.652 388.238 267.548 389.163 268.302 390.187L284.828 412.843C287.602 416.654 293.12 417.081 296.448 413.739C298.866 411.321 299.563 407.666 298.183 404.523L288.484 382.293Z" fill="#00B871"/>
<path d="M206.222 369.778H110.222C104.334 369.778 99.5554 364.999 99.5554 359.111V195.556C99.5554 189.668 104.334 184.889 110.222 184.889H344.889C350.777 184.889 355.555 189.668 355.555 195.556V239.076H334.222V206.222H120.889V348.444H206.222V369.778Z" fill="black"/>
<path d="M192 220.444H263.111V241.778H192V220.444Z" fill="black"/>
<path d="M359.111 206.222H95.9999C90.1119 206.222 85.3333 201.444 85.3333 195.556V138.667C85.3333 132.779 90.1119 128 95.9999 128H359.111C364.999 128 369.778 132.779 369.778 138.667V195.556C369.778 201.444 364.999 206.222 359.111 206.222ZM106.667 184.889H348.444V149.333H106.667V184.889Z" fill="black"/>
<path d="M351.573 146.204L312.035 106.667H143.09L103.552 146.204L88.4622 131.129L131.129 88.4623C133.12 86.4569 135.836 85.3334 138.667 85.3334H316.444C319.275 85.3334 321.991 86.4569 323.982 88.4623L366.649 131.129L351.573 146.204Z" fill="black"/>
<path d="M291.043 426.667C290.574 426.667 290.105 426.652 289.621 426.61C284.274 426.197 279.381 423.481 276.224 419.143L259.698 396.487L235.051 378.226C230.727 375.04 228.025 370.148 227.626 364.814C227.228 359.481 229.162 354.233 232.96 350.45C238.521 344.875 246.812 343.339 253.98 346.482L269.269 353.166L302.251 317.611L240.782 285.07C235.221 281.742 231.936 276.651 231.225 270.82C230.499 264.974 232.49 259.257 236.643 255.104C240.853 250.908 246.841 249.159 252.615 250.411L345.315 270.037L378.112 235.207C382.563 230.471 389.874 227.669 398.122 227.556C406.599 226.987 414.464 230.116 419.285 234.951C424.121 239.772 426.809 247.495 426.695 256.142C426.567 264.391 423.779 271.687 419.043 276.167L384.114 309.077L405.433 402.844C406.798 408.704 405.063 414.777 400.782 419.058C396.672 423.196 391.011 425.216 385.166 424.491C379.363 423.808 374.258 420.565 371.2 415.588L336.782 351.972L301.312 384.953L307.996 400.27C311.111 407.353 309.504 415.801 304.028 421.291C300.558 424.747 295.893 426.667 291.043 426.667ZM384.597 407.595C384.611 407.595 384.611 407.609 384.611 407.623L384.597 407.595ZM337.365 329.202C338.233 329.202 339.086 329.259 339.968 329.387C345.614 330.155 350.563 333.383 353.564 338.247L379.918 386.944L363.022 312.59C361.472 306.091 363.577 299.093 368.54 294.443L404.323 260.708C405.788 258.731 405.674 251.847 404.153 249.956C402.361 248.548 395.42 248.476 393.529 249.941L359.964 285.596C355.456 290.432 348.586 292.594 342.044 291.143L268.373 275.541L315.349 300.402C320.782 303.659 324.053 308.608 324.864 314.297C325.674 319.986 323.897 325.646 319.986 329.856L279.765 373.205C276.665 376.533 271.801 377.515 267.676 375.723L267.648 375.708L271.957 378.88C273.877 380.288 275.57 381.98 276.978 383.915L278.514 386.034C277.006 381.995 278.058 377.429 281.23 374.471L324.494 334.251C328.021 330.98 332.615 329.202 337.365 329.202ZM383.772 307.74L383.786 307.783C383.772 307.783 383.772 307.755 383.772 307.74ZM248.106 271.275H248.149H248.106ZM346.496 270.293H346.524C346.51 270.308 346.51 270.308 346.496 270.293Z" fill="black"/>
</svg>
