<svg width="512" height="512" viewBox="0 0 512 512" fill="none" xmlns="http://www.w3.org/2000/svg">
<g clip-path="url(#clip0_5_4985)">
<path d="M496.412 289.493C442.624 207.132 448.341 122.709 422.414 83.0152C396.487 43.3209 319.218 -25.1164 136.647 94.1369C-45.9237 213.39 0.511887 343.026 29.0417 386.674C162.56 591.076 591.687 435.356 496.412 289.493Z" fill="#EFEFEF"/>
<path d="M373.333 174.222C361.572 174.222 352 164.651 352 152.889C352 141.127 361.572 131.556 373.333 131.556C385.095 131.556 394.667 141.127 394.667 152.889C394.667 164.651 385.095 174.222 373.333 174.222ZM373.333 145.778C369.408 145.778 366.222 148.978 366.222 152.889C366.222 156.8 369.408 160 373.333 160C377.259 160 380.444 156.8 380.444 152.889C380.444 148.978 377.259 145.778 373.333 145.778Z" fill="#A4AFC1"/>
<path d="M2.50586 10.0703L12.5625 0.0136828L32.6757 20.1269L22.6191 30.1836L2.50586 10.0703Z" fill="#A4AFC1"/>
<path d="M60.3137 67.8452L70.3704 57.7886L90.4836 77.9018L80.427 87.9585L60.3137 67.8452Z" fill="#A4AFC1"/>
<path d="M-0.00415039 77.9359L20.1091 57.8227L30.1657 67.8793L10.0525 87.9925L-0.00415039 77.9359Z" fill="#A4AFC1"/>
<path d="M57.8335 20.1222L77.9468 0.00893302L88.0034 10.0656L67.8901 30.1788L57.8335 20.1222Z" fill="#A4AFC1"/>
<path d="M295.111 224H408.889V323.556H295.111V224Z" fill="#2FDF84"/>
<path d="M295.111 224H408.889V323.556H295.111V224Z" fill="#2FDF84"/>
<path d="M181.333 224H295.111V323.556H181.333V224Z" fill="#2FDF84"/>
<path d="M181.333 124.444H295.111V224H181.333V124.444Z" fill="#2FDF84"/>
<path d="M181.333 124.444H295.111V224H181.333V124.444Z" fill="#2FDF84"/>
<path d="M110.222 152.889H152.889V323.556H110.222V152.889Z" fill="#2FDF84"/>
<path d="M96 323.556H416V337.01C416 352.498 406.571 366.436 392.178 372.181C374.343 379.321 362.638 396.572 362.581 415.772V415.986H96V323.556Z" fill="#F3F3F1"/>
<path d="M295.111 224H327.111V323.556H295.111V224Z" fill="#00B871"/>
<path d="M181.333 224H213.333V323.556H181.333V224Z" fill="#00B871"/>
<path d="M181.333 124.444H213.333V224H181.333V124.444Z" fill="#00B871"/>
<path d="M96 323.556H128V416H96V323.556Z" fill="#D5DBE1"/>
<path d="M408.889 334.222H295.111C289.223 334.222 284.444 329.444 284.444 323.556V224C284.444 218.112 289.223 213.333 295.111 213.333H408.889C414.777 213.333 419.555 218.112 419.555 224V323.556C419.555 329.444 414.777 334.222 408.889 334.222ZM305.778 312.889H398.222V234.667H305.778V312.889Z" fill="black"/>
<path d="M320 252.444H341.333V295.111H320V252.444Z" fill="black"/>
<path d="M408.889 334.222H295.111C289.223 334.222 284.444 329.444 284.444 323.556V224C284.444 218.112 289.223 213.333 295.111 213.333H408.889C414.777 213.333 419.555 218.112 419.555 224V323.556C419.555 329.444 414.777 334.222 408.889 334.222ZM305.778 312.889H398.222V234.667H305.778V312.889Z" fill="black"/>
<path d="M362.667 252.444H384V295.111H362.667V252.444Z" fill="black"/>
<path d="M320 252.444H341.333V295.111H320V252.444Z" fill="black"/>
<path d="M295.111 334.222H181.333C175.445 334.222 170.667 329.444 170.667 323.556V224C170.667 218.112 175.445 213.333 181.333 213.333H295.111C300.999 213.333 305.778 218.112 305.778 224V323.556C305.778 329.444 300.999 334.222 295.111 334.222ZM192 312.889H284.444V234.667H192V312.889Z" fill="black"/>
<path d="M206.222 252.444H227.556V295.111H206.222V252.444Z" fill="black"/>
<path d="M295.111 334.222H181.333C175.445 334.222 170.667 329.444 170.667 323.556V224C170.667 218.112 175.445 213.333 181.333 213.333H295.111C300.999 213.333 305.778 218.112 305.778 224V323.556C305.778 329.444 300.999 334.222 295.111 334.222ZM192 312.889H284.444V234.667H192V312.889Z" fill="black"/>
<path d="M248.889 252.444H270.222V295.111H248.889V252.444Z" fill="black"/>
<path d="M206.222 252.444H227.556V295.111H206.222V252.444Z" fill="black"/>
<path d="M295.111 234.667H181.333C175.445 234.667 170.667 229.888 170.667 224V124.444C170.667 118.556 175.445 113.778 181.333 113.778H295.111C300.999 113.778 305.778 118.556 305.778 124.444V224C305.778 229.888 300.999 234.667 295.111 234.667ZM192 213.333H284.444V135.111H192V213.333Z" fill="black"/>
<path d="M206.222 152.889H227.556V195.556H206.222V152.889Z" fill="black"/>
<path d="M295.111 234.667H181.333C175.445 234.667 170.667 229.888 170.667 224V124.444C170.667 118.556 175.445 113.778 181.333 113.778H295.111C300.999 113.778 305.778 118.556 305.778 124.444V224C305.778 229.888 300.999 234.667 295.111 234.667ZM192 213.333H284.444V135.111H192V213.333Z" fill="black"/>
<path d="M248.889 152.889H270.222V195.556H248.889V152.889Z" fill="black"/>
<path d="M206.222 152.889H227.556V195.556H206.222V152.889Z" fill="black"/>
<path d="M152.889 334.222H110.222C104.334 334.222 99.5554 329.444 99.5554 323.556V152.889C99.5554 147.001 104.334 142.222 110.222 142.222H152.889C158.777 142.222 163.555 147.001 163.555 152.889V323.556C163.555 329.444 158.777 334.222 152.889 334.222ZM120.889 312.889H142.222V163.556H120.889V312.889Z" fill="black"/>
<path d="M120.889 85.3334H142.222V163.556H120.889V85.3334Z" fill="black"/>
<path d="M362.595 426.667H95.9999C90.1119 426.667 85.3333 421.888 85.3333 416V323.556C85.3333 317.668 90.1119 312.889 95.9999 312.889H416C421.888 312.889 426.667 317.668 426.667 323.556V337.01C426.667 356.978 414.677 374.684 396.146 382.094C382.279 387.655 373.305 400.882 373.262 415.815C373.248 421.689 368.469 426.667 362.595 426.667ZM106.667 405.333H352.91C356.494 385.991 369.564 369.749 388.21 362.297C398.606 358.144 405.333 348.217 405.333 337.024V334.222H106.667V405.333Z" fill="black"/>
<path d="M96 355.556H402.233V376.889H96V355.556Z" fill="black"/>
</g>
<defs>
<clipPath id="clip0_5_4985">
<rect width="512" height="512" fill="white"/>
</clipPath>
</defs>
</svg>
