<svg width="512" height="512" viewBox="0 0 512 512" fill="none" xmlns="http://www.w3.org/2000/svg">
<g clip-path="url(#clip0_5_5033)">
<path d="M109.198 79.1324C83.527 174.094 16.6967 226.005 4.3234 271.772C-8.04993 317.54 -7.72283 420.75 202.795 477.668C413.312 534.585 479.161 413.653 492.757 363.307C556.487 127.616 154.667 -89.0596 109.198 79.1324Z" fill="#EFEFEF"/>
<path d="M23.8628 279.309L33.9194 269.252L54.0327 289.366L43.9761 299.422L23.8628 279.309Z" fill="#A4AFC1"/>
<path d="M81.6904 337.126L91.7471 327.07L111.86 347.183L101.804 357.24L81.6904 337.126Z" fill="#A4AFC1"/>
<path d="M21.3101 347.231L41.4233 327.118L51.4799 337.175L31.3667 357.288L21.3101 347.231Z" fill="#A4AFC1"/>
<path d="M428.402 195.556C416.64 195.556 407.068 185.984 407.068 174.222C407.068 162.46 416.64 152.889 428.402 152.889C440.163 152.889 449.735 162.46 449.735 174.222C449.735 185.984 440.163 195.556 428.402 195.556ZM428.402 167.111C424.491 167.111 421.291 170.297 421.291 174.222C421.291 178.148 424.491 181.333 428.402 181.333C432.313 181.333 435.513 178.148 435.513 174.222C435.513 170.297 432.313 167.111 428.402 167.111Z" fill="#A4AFC1"/>
<path d="M227.556 362.852L359.111 291.342V220.444V160L227.641 231.111H227.47L96 160V232.946V291.556L227.556 362.852Z" fill="#F3F3F1"/>
<path d="M411.705 268.402C417.493 262.926 417.365 248.135 411.733 242.489C406.101 236.857 391.31 236.715 385.849 242.517L352.171 278.286C350.165 280.434 347.179 281.358 344.32 280.732L250.325 260.821C248.107 260.338 245.788 261.006 244.181 262.628C240.37 266.453 241.138 272.839 245.774 275.641L310.357 309.831C314.866 312.548 315.747 318.734 312.163 322.603L271.943 365.938L249.714 356.224C246.585 354.859 242.93 355.541 240.512 357.959C237.184 361.287 237.596 366.82 241.394 369.607L265.643 387.47C266.681 388.224 267.577 389.148 268.331 390.172L284.857 412.828C287.63 416.626 293.148 417.067 296.476 413.724C298.894 411.307 299.591 407.652 298.211 404.508L288.498 382.265L331.762 342.059C335.602 338.503 341.746 339.342 344.491 343.808L380.274 409.97C383.09 414.549 389.433 415.289 393.23 411.492C394.88 409.842 395.548 407.452 395.022 405.191L373.419 310.201C372.736 307.3 373.646 304.242 375.836 302.208L411.705 268.402Z" fill="#2FDF84"/>
<path d="M96 160L227.47 96L359.111 160L227.641 231.111L96 160Z" fill="#2FDF84"/>
<path d="M259.47 231.111H259.641L359.111 177.308V160L243.556 222.507L259.47 231.111Z" fill="#D5DBE1"/>
<path d="M128 291.556V232.946V177.308L96 160V232.946V291.556L227.556 362.852L243.527 354.176L128 291.556Z" fill="#D5DBE1"/>
<path d="M245.746 275.641L310.329 309.831C314.838 312.548 315.719 318.734 312.135 322.603L281.003 356.153C281.23 356.224 281.472 356.139 281.686 356.224L303.915 365.938L344.135 322.603C347.719 318.734 346.838 312.548 342.329 309.831L277.746 275.641C274.276 273.55 272.967 269.426 274.148 265.884L250.311 260.836C248.093 260.352 245.774 261.02 244.167 262.642C240.342 266.453 241.124 272.853 245.746 275.641Z" fill="#00B871"/>
<path d="M376.32 280.747C379.179 281.372 382.165 280.448 384.171 278.3L414.179 246.414C413.525 244.907 412.743 243.513 411.733 242.489C406.101 236.857 391.31 236.715 385.849 242.517L354.261 276.068L376.32 280.747Z" fill="#00B871"/>
<path d="M376.462 343.836C373.718 339.371 367.574 338.532 363.734 342.087L350.279 354.588L380.246 409.998C383.062 414.578 389.405 415.317 393.202 411.52C394.852 409.87 395.52 407.481 394.994 405.22L384.356 358.414L376.462 343.836Z" fill="#00B871"/>
<path d="M288.484 382.293L289.408 381.44L273.365 369.636C271.9 368.555 271.104 367.033 270.663 365.412L249.685 356.238C246.556 354.873 242.901 355.556 240.484 357.973C237.156 361.301 237.568 366.82 241.365 369.621L265.614 387.484C266.652 388.238 267.548 389.163 268.302 390.187L284.828 412.843C287.602 416.654 293.12 417.081 296.448 413.739C298.866 411.321 299.563 407.666 298.183 404.523L288.484 382.293Z" fill="#00B871"/>
<path d="M149.333 160L254.151 108.971L227.47 96L96 160L227.641 231.111L254.293 216.704L149.333 160Z" fill="#00B871"/>
<path d="M202.482 361.387L90.9086 300.942C87.4668 299.065 85.3335 295.467 85.3335 291.556V160C85.3335 156.245 87.3104 152.761 90.5388 150.841C93.7815 148.907 97.7779 148.821 101.063 150.613L227.556 219.022L354.048 150.613C357.333 148.836 361.344 148.907 364.573 150.841C367.801 152.761 369.778 156.245 369.778 160V220.444H348.445V177.892L232.704 240.484C229.589 242.162 225.508 242.162 222.393 240.484L106.667 177.892V285.198L212.651 342.613L202.482 361.387Z" fill="black"/>
<path d="M354.447 169.586L227.471 107.861L100.665 169.586L91.3354 150.4L222.806 86.4C225.75 84.9635 229.191 84.9635 232.135 86.4L363.776 150.4L354.447 169.586Z" fill="black"/>
<path d="M167.723 245.177H146.39V195.854C146.39 191.815 148.665 188.131 152.278 186.311L287.303 118.755L296.861 137.842L167.723 202.439V245.177Z" fill="black"/>
<path d="M291.044 426.667C290.575 426.667 290.105 426.652 289.622 426.61C284.274 426.197 279.382 423.481 276.224 419.143L259.698 396.487L235.051 378.226C230.727 375.04 228.025 370.147 227.627 364.814C227.229 359.481 229.163 354.233 232.96 350.45C238.521 344.875 246.799 343.339 253.981 346.482L269.27 353.166L302.251 317.611L240.783 285.07C235.222 281.742 231.936 276.651 231.225 270.819C230.5 264.974 232.491 259.257 236.644 255.104C240.854 250.908 246.855 249.159 252.615 250.411L345.316 270.037L378.112 235.207C382.564 230.471 389.874 227.669 398.123 227.555C406.486 226.987 414.464 230.115 419.286 234.951C424.121 239.772 426.809 247.495 426.695 256.142C426.567 264.391 423.78 271.687 419.044 276.167L384.114 309.077L405.433 402.844C406.799 408.704 405.063 414.777 400.783 419.058C396.672 423.196 391.04 425.216 385.167 424.491C379.364 423.808 374.258 420.565 371.2 415.587L336.783 351.971L301.312 384.953L307.997 400.27C311.111 407.353 309.504 415.801 304.029 421.291C300.559 424.747 295.894 426.667 291.044 426.667ZM384.598 407.595C384.612 407.595 384.612 407.609 384.612 407.623L384.598 407.595ZM337.366 329.202C338.233 329.202 339.087 329.259 339.968 329.387C345.615 330.155 350.564 333.383 353.565 338.247L379.919 386.944L363.023 312.59C361.472 306.091 363.577 299.093 368.541 294.443L404.324 260.707C405.789 258.731 405.675 251.847 404.153 249.955C402.361 248.547 395.407 248.476 393.529 249.941L359.965 285.596C355.456 290.432 348.601 292.594 342.045 291.143L268.374 275.541L315.35 300.402C320.783 303.659 324.054 308.608 324.864 314.297C325.675 319.986 323.897 325.646 319.986 329.856L279.766 373.205C276.665 376.533 271.815 377.515 267.677 375.723L267.648 375.708L271.958 378.88C273.878 380.288 275.57 381.98 276.978 383.915L278.514 386.034C277.007 381.995 278.059 377.429 281.231 374.471L324.495 334.251C328.022 330.979 332.615 329.202 337.366 329.202ZM383.773 307.74L383.787 307.783C383.773 307.783 383.773 307.755 383.773 307.74ZM248.107 271.275H248.15H248.107ZM346.496 270.293H346.525C346.511 270.307 346.511 270.307 346.496 270.293Z" fill="black"/>
</g>
<defs>
<clipPath id="clip0_5_5033">
<rect width="512" height="512" fill="white"/>
</clipPath>
</defs>
</svg>
