<svg width="512" height="512" viewBox="0 0 512 512" fill="none" xmlns="http://www.w3.org/2000/svg">
<g clip-path="url(#clip0_5_5063)">
<path d="M109.198 79.1324C83.527 174.094 16.6967 226.005 4.3234 271.772C-8.04993 317.54 -7.72283 420.75 202.795 477.668C413.312 534.585 479.161 413.653 492.757 363.307C556.487 127.616 154.667 -89.0596 109.198 79.1324Z" fill="#EFEFEF"/>
<path d="M81.105 151.594L101.218 131.481L111.275 141.538L91.1616 161.651L81.105 151.594Z" fill="#A4AFC1"/>
<path d="M23.2817 209.402L43.395 189.289L53.4516 199.346L33.3384 219.459L23.2817 209.402Z" fill="#A4AFC1"/>
<path d="M23.2803 139.015L33.3369 128.959L53.4502 149.072L43.3935 159.129L23.2803 139.015Z" fill="#A4AFC1"/>
<path d="M444.757 259.556C432.995 259.556 423.424 249.984 423.424 238.222C423.424 226.46 432.995 216.889 444.757 216.889C456.519 216.889 466.09 226.46 466.09 238.222C466.09 249.984 456.533 259.556 444.757 259.556ZM444.757 231.111C440.846 231.111 437.646 234.311 437.646 238.222C437.646 242.133 440.846 245.333 444.757 245.333C448.668 245.333 451.868 242.133 451.868 238.222C451.868 234.311 448.682 231.111 444.757 231.111Z" fill="#A4AFC1"/>
<path d="M362.667 209.778H295.111V280.889L377.7 281.187L362.667 209.778Z" fill="#2FDF84"/>
<path d="M406.642 291.712L376.889 280.889H295.111V373.333H327.111H384H416V305.067C416 299.093 412.26 293.746 406.642 291.712Z" fill="#F3F3F1"/>
<path d="M234.667 131.556L177.778 216.889H85.3335V373.333H259.556V167.111H316.445V131.556H234.667Z" fill="#2FDF84"/>
<path d="M355.555 401.778C369.301 401.778 380.444 390.635 380.444 376.889C380.444 363.143 369.301 352 355.555 352C341.81 352 330.667 363.143 330.667 376.889C330.667 390.635 341.81 401.778 355.555 401.778Z" fill="#F3F3F1"/>
<path d="M192 401.778C205.746 401.778 216.889 390.635 216.889 376.889C216.889 363.143 205.746 352 192 352C178.254 352 167.111 363.143 167.111 376.889C167.111 390.635 178.254 401.778 192 401.778Z" fill="#F3F3F1"/>
<path d="M120.889 401.778C134.635 401.778 145.778 390.635 145.778 376.889C145.778 363.143 134.635 352 120.889 352C107.143 352 96 363.143 96 376.889C96 390.635 107.143 401.778 120.889 401.778Z" fill="#F3F3F1"/>
<path d="M327.111 280.889V209.778H295.111V280.889L377.7 281.187L377.671 281.074L327.111 280.889Z" fill="#00B871"/>
<path d="M295.111 280.889H327.111V373.333H295.111V280.889Z" fill="#D5DBE1"/>
<path d="M266.667 131.556H234.667L177.778 216.889H209.778L266.667 131.556Z" fill="#00B871"/>
<path d="M85.3335 216.889H117.333V373.333H85.3335V216.889Z" fill="#00B871"/>
<path d="M362.667 376.889C362.667 369.266 366.165 362.539 371.555 357.973C367.218 354.304 361.685 352 355.555 352C341.817 352 330.667 363.15 330.667 376.889C330.667 390.628 341.817 401.778 355.555 401.778C361.685 401.778 367.218 399.474 371.555 395.804C366.165 391.239 362.667 384.512 362.667 376.889Z" fill="#D5DBE1"/>
<path d="M199.111 376.889C199.111 369.266 202.61 362.539 208 357.973C203.662 354.304 198.13 352 192 352C178.262 352 167.111 363.15 167.111 376.889C167.111 390.628 178.262 401.778 192 401.778C198.13 401.778 203.662 399.474 208 395.804C202.61 391.239 199.111 384.512 199.111 376.889Z" fill="#D5DBE1"/>
<path d="M128 376.889C128 369.266 131.499 362.539 136.889 357.973C132.551 354.304 127.019 352 120.889 352C107.15 352 96 363.15 96 376.889C96 390.628 107.15 401.778 120.889 401.778C127.019 401.778 132.551 399.474 136.889 395.804C131.499 391.239 128 384.512 128 376.889Z" fill="#D5DBE1"/>
<path d="M355.556 412.444C335.943 412.444 320 396.501 320 376.889C320 357.276 335.943 341.333 355.556 341.333C375.168 341.333 391.111 357.276 391.111 376.889C391.111 396.501 375.168 412.444 355.556 412.444ZM355.556 362.667C347.705 362.667 341.333 369.038 341.333 376.889C341.333 384.74 347.705 391.111 355.556 391.111C363.406 391.111 369.778 384.74 369.778 376.889C369.778 369.038 363.406 362.667 355.556 362.667Z" fill="black"/>
<path d="M192 412.444C172.388 412.444 156.445 396.501 156.445 376.889C156.445 357.276 172.388 341.333 192 341.333C211.613 341.333 227.556 357.276 227.556 376.889C227.556 396.501 211.613 412.444 192 412.444ZM192 362.667C184.15 362.667 177.778 369.038 177.778 376.889C177.778 384.74 184.15 391.111 192 391.111C199.851 391.111 206.223 384.74 206.223 376.889C206.223 369.038 199.851 362.667 192 362.667Z" fill="black"/>
<path d="M120.889 412.444C101.277 412.444 85.3335 396.501 85.3335 376.889C85.3335 357.276 101.277 341.333 120.889 341.333C140.501 341.333 156.445 357.276 156.445 376.889C156.445 396.501 140.501 412.444 120.889 412.444ZM120.889 362.667C113.038 362.667 106.667 369.038 106.667 376.889C106.667 384.74 113.038 391.111 120.889 391.111C128.74 391.111 135.111 384.74 135.111 376.889C135.111 369.038 128.74 362.667 120.889 362.667Z" fill="black"/>
<path d="M305.778 291.556H284.445V209.778C284.445 203.89 289.223 199.111 295.111 199.111H362.667C367.702 199.111 372.068 202.638 373.106 207.588L387.328 275.143L366.436 279.538L354.02 220.444H305.778V291.556Z" fill="black"/>
<path d="M416 384H384V362.667H405.334V305.067C405.334 303.588 404.395 302.237 403.001 301.739L375.012 291.556H305.778V362.667H327.111V384H295.111C289.223 384 284.445 379.221 284.445 373.333V280.889C284.445 275.001 289.223 270.222 295.111 270.222H376.889C378.141 270.222 379.364 270.45 380.53 270.862L410.283 281.685C420.082 285.241 426.667 294.642 426.667 305.067V373.333C426.667 379.221 421.888 384 416 384Z" fill="black"/>
<path d="M295.111 384H259.556C253.668 384 248.889 379.221 248.889 373.333V167.111C248.889 161.223 253.668 156.444 259.556 156.444H305.778V142.222H240.37L186.653 222.805C184.676 225.778 181.348 227.556 177.778 227.556H85.3335V206.222H172.075L225.792 125.639C227.769 122.667 231.097 120.889 234.667 120.889H316.445C322.333 120.889 327.111 125.668 327.111 131.556V167.111C327.111 172.999 322.333 177.778 316.445 177.778H270.222V362.667H295.111V384Z" fill="black"/>
<path d="M220.445 362.667H263.111V384H220.445V362.667Z" fill="black"/>
<path d="M85.3335 266.667H106.667V302.222H85.3335V266.667Z" fill="black"/>
<path d="M128 266.667H149.333V302.222H128V266.667Z" fill="black"/>
<path d="M170.667 266.667H192V302.222H170.667V266.667Z" fill="black"/>
<path d="M213.333 238.222H234.667V302.222H213.333V238.222Z" fill="black"/>
</g>
<defs>
<clipPath id="clip0_5_5063">
<rect width="512" height="512" fill="white"/>
</clipPath>
</defs>
</svg>
