<svg width="512" height="512" viewBox="0 0 512 512" fill="none" xmlns="http://www.w3.org/2000/svg">
<path d="M496.412 289.493C442.624 207.132 448.341 122.709 422.414 83.0152C396.487 43.3209 319.218 -25.1164 136.647 94.1369C-45.9237 213.39 0.511887 343.026 29.0417 386.674C162.56 591.076 591.687 435.356 496.412 289.493Z" fill="#EFEFEF"/>
<path d="M473.885 309.333C462.123 309.333 452.551 299.762 452.551 288C452.551 276.238 462.123 266.667 473.885 266.667C485.646 266.667 495.218 276.238 495.218 288C495.218 299.762 485.646 309.333 473.885 309.333ZM473.885 280.889C469.973 280.889 466.773 284.089 466.773 288C466.773 291.911 469.973 295.111 473.885 295.111C477.796 295.111 480.996 291.911 480.996 288C480.996 284.089 477.81 280.889 473.885 280.889Z" fill="#A4AFC1"/>
<path d="M70.8501 75.8164L90.9634 55.7031L101.02 65.7598L80.9067 85.873L70.8501 75.8164Z" fill="#A4AFC1"/>
<path d="M13.0225 133.634L33.1357 113.521L43.1923 123.578L23.0791 143.691L13.0225 133.634Z" fill="#A4AFC1"/>
<path d="M13.0254 63.2372L23.082 53.1806L43.2053 73.3039L33.1487 83.3605L13.0254 63.2372Z" fill="#A4AFC1"/>
<path d="M70.8433 121.065L80.8999 111.008L101.013 131.121L90.9565 141.178L70.8433 121.065Z" fill="#A4AFC1"/>
<path d="M96 309.333V376.889H105.813H404.48H416V309.333H96Z" fill="#F3F3F1"/>
<path d="M376.093 401.778C389.838 401.778 400.981 390.635 400.981 376.889C400.981 363.143 389.838 352 376.093 352C362.347 352 351.204 363.143 351.204 376.889C351.204 390.635 362.347 401.778 376.093 401.778Z" fill="#F3F3F1"/>
<path d="M304.981 401.778C318.727 401.778 329.87 390.635 329.87 376.889C329.87 363.143 318.727 352 304.981 352C291.235 352 280.092 363.143 280.092 376.889C280.092 390.635 291.235 401.778 304.981 401.778Z" fill="#F3F3F1"/>
<path d="M205.426 401.778C219.172 401.778 230.315 390.635 230.315 376.889C230.315 363.143 219.172 352 205.426 352C191.68 352 180.537 363.143 180.537 376.889C180.537 390.635 191.68 401.778 205.426 401.778Z" fill="#F3F3F1"/>
<path d="M134.315 401.778C148.06 401.778 159.204 390.635 159.204 376.889C159.204 363.143 148.06 352 134.315 352C120.569 352 109.426 363.143 109.426 376.889C109.426 390.635 120.569 401.778 134.315 401.778Z" fill="#F3F3F1"/>
<path d="M167.111 309.333H344.889C384.156 309.333 416 277.49 416 238.222C416 198.955 384.156 167.111 344.889 167.111H167.111C127.844 167.111 96 198.955 96 238.222C96 277.49 127.844 309.333 167.111 309.333Z" fill="#2FDF84"/>
<path d="M277.333 138.667H334.222V167.111H277.333V138.667Z" fill="#2FDF84"/>
<path d="M96 309.333V376.889H105.813H128V309.333H96Z" fill="#D5DBE1"/>
<path d="M383.204 376.889C383.204 369.266 386.702 362.539 392.093 357.973C387.755 354.304 382.222 352 376.093 352C362.354 352 351.204 363.15 351.204 376.889C351.204 390.627 362.354 401.778 376.093 401.778C382.222 401.778 387.755 399.474 392.093 395.804C386.702 391.239 383.204 384.512 383.204 376.889Z" fill="#D5DBE1"/>
<path d="M312.092 376.889C312.092 369.266 315.591 362.539 320.981 357.973C316.643 354.304 311.111 352 304.981 352C291.243 352 280.092 363.15 280.092 376.889C280.092 390.627 291.243 401.778 304.981 401.778C311.111 401.778 316.643 399.474 320.981 395.804C315.591 391.239 312.092 384.512 312.092 376.889Z" fill="#D5DBE1"/>
<path d="M212.537 376.889C212.537 369.266 216.036 362.539 221.426 357.973C217.088 354.304 211.556 352 205.426 352C191.687 352 180.537 363.15 180.537 376.889C180.537 390.627 191.687 401.778 205.426 401.778C211.556 401.778 217.088 399.474 221.426 395.804C216.036 391.239 212.537 384.512 212.537 376.889Z" fill="#D5DBE1"/>
<path d="M141.426 376.889C141.426 369.266 144.924 362.539 150.315 357.973C145.977 354.304 140.444 352 134.315 352C120.576 352 109.426 363.15 109.426 376.889C109.426 390.627 120.576 401.778 134.315 401.778C140.444 401.778 145.977 399.474 150.315 395.804C144.924 391.239 141.426 384.512 141.426 376.889Z" fill="#D5DBE1"/>
<path d="M128 238.222C128 198.955 159.844 167.111 199.111 167.111H167.111C127.844 167.111 96 198.955 96 238.222C96 277.49 127.844 309.333 167.111 309.333H199.111C159.844 309.333 128 277.49 128 238.222Z" fill="#00B871"/>
<path d="M277.333 138.667H309.333V167.111H277.333V138.667Z" fill="#00B871"/>
<path d="M376.093 412.444C356.48 412.444 340.537 396.501 340.537 376.889C340.537 357.276 356.48 341.333 376.093 341.333C395.705 341.333 411.648 357.276 411.648 376.889C411.648 396.501 395.705 412.444 376.093 412.444ZM376.093 362.667C368.242 362.667 361.87 369.038 361.87 376.889C361.87 384.74 368.242 391.111 376.093 391.111C383.943 391.111 390.315 384.74 390.315 376.889C390.315 369.038 383.943 362.667 376.093 362.667Z" fill="black"/>
<path d="M304.981 412.444C285.369 412.444 269.426 396.501 269.426 376.889C269.426 357.276 285.369 341.333 304.981 341.333C324.594 341.333 340.537 357.276 340.537 376.889C340.537 396.501 324.594 412.444 304.981 412.444ZM304.981 362.667C297.131 362.667 290.759 369.038 290.759 376.889C290.759 384.74 297.131 391.111 304.981 391.111C312.832 391.111 319.204 384.74 319.204 376.889C319.204 369.038 312.832 362.667 304.981 362.667Z" fill="black"/>
<path d="M205.426 412.444C185.814 412.444 169.871 396.501 169.871 376.889C169.871 357.276 185.814 341.333 205.426 341.333C225.039 341.333 240.982 357.276 240.982 376.889C240.982 396.501 225.039 412.444 205.426 412.444ZM205.426 362.667C197.575 362.667 191.204 369.038 191.204 376.889C191.204 384.74 197.575 391.111 205.426 391.111C213.277 391.111 219.648 384.74 219.648 376.889C219.648 369.038 213.277 362.667 205.426 362.667Z" fill="black"/>
<path d="M134.315 412.444C114.702 412.444 98.7593 396.501 98.7593 376.889C98.7593 357.276 114.702 341.333 134.315 341.333C153.927 341.333 169.87 357.276 169.87 376.889C169.87 396.501 153.927 412.444 134.315 412.444ZM134.315 362.667C126.464 362.667 120.093 369.038 120.093 376.889C120.093 384.74 126.464 391.111 134.315 391.111C142.166 391.111 148.537 384.74 148.537 376.889C148.537 369.038 142.166 362.667 134.315 362.667Z" fill="black"/>
<path d="M416 387.556H404.48V366.222H405.333V320H106.667V376.889H105.813V387.556H96.0002C90.1122 387.556 85.3335 382.777 85.3335 376.889V309.333C85.3335 303.445 90.1122 298.667 96.0002 298.667H416C421.888 298.667 426.667 303.445 426.667 309.333V376.889C426.667 382.777 421.888 387.556 416 387.556Z" fill="black"/>
<path d="M233.813 366.222H276.48V387.556H233.813V366.222Z" fill="black"/>
<path d="M344.889 320H167.111C122.013 320 85.3335 283.321 85.3335 238.222C85.3335 193.124 122.013 156.444 167.111 156.444H344.889C389.988 156.444 426.667 193.124 426.667 238.222C426.667 283.321 389.988 320 344.889 320ZM167.111 177.778C133.774 177.778 106.667 204.885 106.667 238.222C106.667 271.559 133.774 298.667 167.111 298.667H344.889C378.226 298.667 405.333 271.559 405.333 238.222C405.333 204.885 378.226 177.778 344.889 177.778H167.111Z" fill="black"/>
<path d="M334.223 177.778H277.334C271.446 177.778 266.667 172.999 266.667 167.111V138.667C266.667 132.779 271.446 128 277.334 128H334.223C340.111 128 344.889 132.779 344.889 138.667V167.111C344.889 172.999 340.111 177.778 334.223 177.778ZM288 156.444H323.556V149.333H288V156.444Z" fill="black"/>
<path d="M277.333 227.556H362.667V248.889H277.333V227.556Z" fill="black"/>
<path d="M277.333 256H334.222V277.333H277.333V256Z" fill="black"/>
</svg>
