<svg width="512" height="512" viewBox="0 0 512 512" fill="none" xmlns="http://www.w3.org/2000/svg">
<path d="M59.2639 392.86C59.2639 294.485 8.30566 226.93 8.30566 179.527C8.30566 132.124 35.5554 32.5689 253.625 32.5689C471.694 32.5689 503.694 166.5 503.694 218.638C503.708 462.791 59.2639 567.083 59.2639 392.86Z" fill="#EFEFEF"/>
<path d="M85.3398 123.298L105.453 103.184L115.51 113.241L95.3965 133.354L85.3398 123.298Z" fill="#A4AFC1"/>
<path d="M27.5122 181.116L47.6255 161.002L57.6821 171.059L37.5688 191.172L27.5122 181.116Z" fill="#A4AFC1"/>
<path d="M27.5251 110.729L37.5818 100.672L57.695 120.785L47.6384 130.842L27.5251 110.729Z" fill="#A4AFC1"/>
<path d="M430.222 250.667C418.46 250.667 408.889 241.095 408.889 229.333C408.889 217.572 418.46 208 430.222 208C441.984 208 451.556 217.572 451.556 229.333C451.556 241.095 441.984 250.667 430.222 250.667ZM430.222 222.222C426.311 222.222 423.111 225.422 423.111 229.333C423.111 233.244 426.311 236.444 430.222 236.444C434.133 236.444 437.333 233.244 437.333 229.333C437.333 225.422 434.133 222.222 430.222 222.222Z" fill="#A4AFC1"/>
<path d="M96 181.333V373.333H120.889H177.778H295.111V220.444V181.333H96Z" fill="#2FDF84"/>
<path d="M368.057 245.547C364.885 232.889 353.508 224 340.466 224H295.111V280.889H376.889L368.057 245.547Z" fill="#2FDF84"/>
<path d="M376.889 280.889H295.111V373.333H327.111H384H416V305.778L376.889 280.889Z" fill="#F3F3F1"/>
<path d="M355.555 401.778C369.301 401.778 380.444 390.635 380.444 376.889C380.444 363.143 369.301 352 355.555 352C341.81 352 330.667 363.143 330.667 376.889C330.667 390.635 341.81 401.778 355.555 401.778Z" fill="#F3F3F1"/>
<path d="M149.333 401.778C163.079 401.778 174.222 390.635 174.222 376.889C174.222 363.143 163.079 352 149.333 352C135.587 352 124.444 363.143 124.444 376.889C124.444 390.635 135.587 401.778 149.333 401.778Z" fill="#F3F3F1"/>
<path d="M96 181.333V373.333H120.889H128V181.333H96Z" fill="#00B871"/>
<path d="M295.111 224H327.111V280.889H295.111V224Z" fill="#00B871"/>
<path d="M295.111 280.889H327.111V373.333H295.111V280.889Z" fill="#D5DBE1"/>
<path d="M362.667 376.889C362.667 369.266 366.165 362.539 371.555 357.973C367.218 354.304 361.685 352 355.555 352C341.817 352 330.667 363.15 330.667 376.889C330.667 390.628 341.817 401.778 355.555 401.778C361.685 401.778 367.218 399.474 371.555 395.804C366.165 391.239 362.667 384.512 362.667 376.889Z" fill="#D5DBE1"/>
<path d="M156.444 376.889C156.444 369.266 159.943 362.539 165.333 357.973C160.995 354.304 155.463 352 149.333 352C135.595 352 124.444 363.15 124.444 376.889C124.444 390.628 135.595 401.778 149.333 401.778C155.463 401.778 160.995 399.474 165.333 395.804C159.943 391.239 156.444 384.512 156.444 376.889Z" fill="#D5DBE1"/>
<path d="M295.111 384H177.778V362.667H284.444V192H106.667V362.667H120.889V384H95.9999C90.1119 384 85.3333 379.221 85.3333 373.333V181.333C85.3333 175.445 90.1119 170.667 95.9999 170.667H295.111C300.999 170.667 305.778 175.445 305.778 181.333V373.333C305.778 379.221 300.999 384 295.111 384Z" fill="black"/>
<path d="M305.778 295.111H284.444V224C284.444 218.112 289.223 213.333 295.111 213.333H340.451C358.428 213.333 374.03 225.508 378.396 242.958L387.228 278.3L366.535 283.463L357.703 248.121C355.712 240.199 348.615 234.667 340.451 234.667H305.778V295.111Z" fill="black"/>
<path d="M416 384H384V362.667H405.333V311.637L373.774 291.556H305.778V362.667H327.111V384H295.111C289.223 384 284.444 379.221 284.444 373.333V280.889C284.444 275.001 289.223 270.222 295.111 270.222H376.889C378.923 270.222 380.899 270.805 382.606 271.886L421.717 296.775C424.803 298.738 426.667 302.123 426.667 305.778V373.333C426.667 379.221 421.888 384 416 384Z" fill="black"/>
<path d="M355.556 412.444C335.943 412.444 320 396.501 320 376.889C320 357.276 335.943 341.333 355.556 341.333C375.168 341.333 391.111 357.276 391.111 376.889C391.111 396.501 375.168 412.444 355.556 412.444ZM355.556 362.667C347.705 362.667 341.333 369.038 341.333 376.889C341.333 384.74 347.705 391.111 355.556 391.111C363.406 391.111 369.778 384.74 369.778 376.889C369.778 369.038 363.406 362.667 355.556 362.667Z" fill="black"/>
<path d="M149.333 412.444C129.721 412.444 113.778 396.501 113.778 376.889C113.778 357.276 129.721 341.333 149.333 341.333C168.946 341.333 184.889 357.276 184.889 376.889C184.889 396.501 168.946 412.444 149.333 412.444ZM149.333 362.667C141.482 362.667 135.111 369.038 135.111 376.889C135.111 384.74 141.482 391.111 149.333 391.111C157.184 391.111 163.555 384.74 163.555 376.889C163.555 369.038 157.184 362.667 149.333 362.667Z" fill="black"/>
</svg>
