<svg width="512" height="512" viewBox="0 0 512 512" fill="none" xmlns="http://www.w3.org/2000/svg">
<path d="M496.412 289.493C442.624 207.132 448.341 122.709 422.414 83.0151C396.487 43.3209 319.218 -25.1165 136.647 94.1369C-45.9235 213.39 0.512009 343.026 29.0418 386.674C162.56 591.076 591.687 435.356 496.412 289.493Z" fill="#EFEFEF"/>
<path d="M141.947 56.0614L162.06 35.9481L172.116 46.0047L152.003 66.118L141.947 56.0614Z" fill="#A4AFC1"/>
<path d="M84.119 113.879L104.232 93.766L114.289 103.823L94.1757 123.936L84.119 113.879Z" fill="#A4AFC1"/>
<path d="M84.1218 43.4964L94.1785 33.4397L114.292 53.553L104.235 63.6096L84.1218 43.4964Z" fill="#A4AFC1"/>
<path d="M409.088 305.778C397.326 305.778 387.755 296.206 387.755 284.444C387.755 272.683 397.326 263.111 409.088 263.111C420.85 263.111 430.421 272.683 430.421 284.444C430.421 296.206 420.85 305.778 409.088 305.778ZM409.088 277.333C405.163 277.333 401.977 280.519 401.977 284.444C401.977 288.37 405.163 291.556 409.088 291.556C413.013 291.556 416.199 288.37 416.199 284.444C416.199 280.519 413.013 277.333 409.088 277.333Z" fill="#A4AFC1"/>
<path d="M359.111 352H152.889V124.444C152.889 108.729 165.618 96 181.333 96H330.667C346.382 96 359.111 108.729 359.111 124.444V352Z" fill="#F3F3F1"/>
<path d="M256 288H330.667V352H256V288Z" fill="#2FDF84"/>
<path d="M224 216.889H288V288H224V216.889Z" fill="#2FDF84"/>
<path d="M181.333 288H256V352H181.333V288Z" fill="#2FDF84"/>
<path d="M330.667 416H323.555C315.705 416 309.333 409.628 309.333 401.778V352H344.889V401.778C344.889 409.628 338.517 416 330.667 416Z" fill="#2FDF84"/>
<path d="M188.444 416H181.333C173.483 416 167.111 409.628 167.111 401.778V352H202.667V401.778C202.667 409.628 196.295 416 188.444 416Z" fill="#2FDF84"/>
<path d="M213.333 96H181.333C165.618 96 152.889 108.729 152.889 124.444V352H184.889V124.444C184.889 108.729 197.618 96 213.333 96Z" fill="#D5DBE1"/>
<path d="M256 288H288V352H256V288Z" fill="#00B871"/>
<path d="M224 216.889H256V288H224V216.889Z" fill="#00B871"/>
<path d="M181.333 288H213.333V352H181.333V288Z" fill="#00B871"/>
<path d="M341.333 401.778V352H309.333V401.778C309.333 409.628 315.705 416 323.555 416H330.667C336.128 416 340.736 412.814 343.111 408.292C342.073 406.315 341.333 404.167 341.333 401.778Z" fill="#00B871"/>
<path d="M199.111 401.778V352H167.111V401.778C167.111 409.628 173.483 416 181.333 416H188.444C193.906 416 198.514 412.814 200.889 408.292C199.851 406.315 199.111 404.167 199.111 401.778Z" fill="#00B871"/>
<path d="M359.111 362.667H152.889C147.001 362.667 142.222 357.888 142.222 352V124.444C142.222 102.869 159.758 85.3333 181.333 85.3333H330.667C352.242 85.3333 369.778 102.869 369.778 124.444V352C369.778 357.888 364.999 362.667 359.111 362.667ZM163.556 341.333H348.445V124.444C348.445 114.645 340.466 106.667 330.667 106.667H181.333C171.534 106.667 163.556 114.645 163.556 124.444V341.333Z" fill="black"/>
<path d="M330.667 362.667H256C250.112 362.667 245.333 357.888 245.333 352V288C245.333 282.112 250.112 277.333 256 277.333H330.667C336.555 277.333 341.333 282.112 341.333 288V352C341.333 357.888 336.555 362.667 330.667 362.667ZM266.667 341.333H320V298.667H266.667V341.333Z" fill="black"/>
<path d="M288 298.667H224C218.112 298.667 213.333 293.888 213.333 288V216.889C213.333 211.001 218.112 206.222 224 206.222H288C293.888 206.222 298.667 211.001 298.667 216.889V288C298.667 293.888 293.888 298.667 288 298.667ZM234.667 277.333H277.333V227.556H234.667V277.333Z" fill="black"/>
<path d="M256 362.667H181.333C175.445 362.667 170.667 357.888 170.667 352V288C170.667 282.112 175.445 277.333 181.333 277.333H256C261.888 277.333 266.667 282.112 266.667 288V352C266.667 357.888 261.888 362.667 256 362.667ZM192 341.333H245.333V298.667H192V341.333Z" fill="black"/>
<path d="M245.333 206.222H266.667V248.889H245.333V206.222Z" fill="black"/>
<path d="M209.778 277.333H231.111V320H209.778V277.333Z" fill="black"/>
<path d="M280.889 277.333H302.222V320H280.889V277.333Z" fill="black"/>
<path d="M195.556 120.889H316.444V142.222H195.556V120.889Z" fill="black"/>
<path d="M195.556 156.444H316.444V177.778H195.556V156.444Z" fill="black"/>
<path d="M330.667 426.667H323.556C309.831 426.667 298.667 415.502 298.667 401.778V352C298.667 346.112 303.445 341.333 309.333 341.333H344.889C350.777 341.333 355.556 346.112 355.556 352V401.778C355.556 415.502 344.391 426.667 330.667 426.667ZM320 362.667V401.778C320 403.74 321.593 405.333 323.556 405.333H330.667C332.629 405.333 334.222 403.74 334.222 401.778V362.667H320Z" fill="black"/>
<path d="M188.444 426.667H181.333C167.609 426.667 156.444 415.502 156.444 401.778V352C156.444 346.112 161.223 341.333 167.111 341.333H202.667C208.555 341.333 213.333 346.112 213.333 352V401.778C213.333 415.502 202.169 426.667 188.444 426.667ZM177.778 362.667V401.778C177.778 403.74 179.371 405.333 181.333 405.333H188.444C190.407 405.333 192 403.74 192 401.778V362.667H177.778Z" fill="black"/>
<path d="M206.222 376.889H305.778V398.222H206.222V376.889Z" fill="black"/>
<path d="M124.444 341.333H387.556V362.667H124.444V341.333Z" fill="black"/>
</svg>
