<svg width="512" height="512" viewBox="0 0 512 512" fill="none" xmlns="http://www.w3.org/2000/svg">
<path d="M383.744 55.6658C285.383 57.5004 216.889 7.80799 169.486 8.70399C122.084 9.59999 23.0542 38.6986 27.136 256.74C31.2178 474.78 165.717 504.263 217.856 503.296C461.966 498.731 557.924 52.4089 383.744 55.6658Z" fill="#EFEFEF"/>
<path d="M458.667 216.889C446.905 216.889 437.333 207.317 437.333 195.556C437.333 183.794 446.905 174.222 458.667 174.222C470.428 174.222 480 183.794 480 195.556C480 207.317 470.428 216.889 458.667 216.889ZM458.667 188.444C454.756 188.444 451.556 191.644 451.556 195.556C451.556 199.467 454.756 202.667 458.667 202.667C462.578 202.667 465.778 199.467 465.778 195.556C465.778 191.644 462.578 188.444 458.667 188.444Z" fill="#A4AFC1"/>
<path d="M56.8889 21.3333H71.1111V49.7778H56.8889V21.3333Z" fill="#A4AFC1"/>
<path d="M56.8889 103.111H71.1111V131.556H56.8889V103.111Z" fill="#A4AFC1"/>
<path d="M7.11111 67.5556H35.5556V81.7778H7.11111V67.5556Z" fill="#A4AFC1"/>
<path d="M88.8889 67.5556H117.333V81.7778H88.8889V67.5556Z" fill="#A4AFC1"/>
<path d="M380.757 203.648C378.396 198.713 373.404 195.556 367.929 195.556H295.111V373.333H320H376.889H401.778C409.628 373.333 416 366.962 416 359.111V277.333L380.757 203.648Z" fill="#F3F3F1"/>
<path d="M85.3333 309.333H291.556V373.333H85.3333V309.333Z" fill="#F3F3F1"/>
<path d="M352 280.889H416V277.333L380.757 203.648C378.396 198.713 373.404 195.556 367.929 195.556H337.778V266.667C337.778 274.517 344.149 280.889 352 280.889Z" fill="#2FDF84"/>
<path d="M85.3333 167.111H192C231.268 167.111 263.111 198.955 263.111 238.222C263.111 277.49 231.268 309.333 192 309.333H85.3333V167.111Z" fill="#2FDF84"/>
<path d="M117.333 131.556H174.222V167.111H117.333V131.556Z" fill="#2FDF84"/>
<path d="M348.444 401.778C362.19 401.778 373.333 390.635 373.333 376.889C373.333 363.143 362.19 352 348.444 352C334.699 352 323.556 363.143 323.556 376.889C323.556 390.635 334.699 401.778 348.444 401.778Z" fill="#F3F3F1"/>
<path d="M206.222 401.778C219.968 401.778 231.111 390.635 231.111 376.889C231.111 363.143 219.968 352 206.222 352C192.476 352 181.333 363.143 181.333 376.889C181.333 390.635 192.476 401.778 206.222 401.778Z" fill="#F3F3F1"/>
<path d="M135.111 401.778C148.857 401.778 160 390.635 160 376.889C160 363.143 148.857 352 135.111 352C121.365 352 110.222 363.143 110.222 376.889C110.222 390.635 121.365 401.778 135.111 401.778Z" fill="#F3F3F1"/>
<path d="M295.111 195.556V373.333H320H327.111V195.556H295.111Z" fill="#D5DBE1"/>
<path d="M85.3333 309.333H117.333V373.333H85.3333V309.333Z" fill="#D5DBE1"/>
<path d="M369.778 266.667V195.826C369.152 195.74 368.569 195.556 367.929 195.556H337.778V266.667C337.778 274.517 344.149 280.889 352 280.889H384C376.149 280.889 369.778 274.517 369.778 266.667Z" fill="#00B871"/>
<path d="M85.3333 167.111H117.333V309.333H85.3333V167.111Z" fill="#00B871"/>
<path d="M117.333 131.556H149.333V167.111H117.333V131.556Z" fill="#00B871"/>
<path d="M355.556 376.889C355.556 369.266 359.054 362.539 364.444 357.973C360.107 354.304 354.574 352 348.444 352C334.692 352 323.556 363.15 323.556 376.889C323.556 390.628 334.692 401.778 348.444 401.778C354.574 401.778 360.107 399.474 364.444 395.804C359.054 391.239 355.556 384.512 355.556 376.889Z" fill="#D5DBE1"/>
<path d="M213.333 376.889C213.333 369.266 216.832 362.539 222.222 357.973C217.884 354.304 212.352 352 206.222 352C192.484 352 181.333 363.15 181.333 376.889C181.333 390.628 192.484 401.778 206.222 401.778C212.352 401.778 217.884 399.474 222.222 395.804C216.832 391.239 213.333 384.512 213.333 376.889Z" fill="#D5DBE1"/>
<path d="M142.222 376.889C142.222 369.266 145.721 362.539 151.111 357.973C146.773 354.304 141.241 352 135.111 352C121.372 352 110.222 363.15 110.222 376.889C110.222 390.628 121.372 401.778 135.111 401.778C141.241 401.778 146.773 399.474 151.111 395.804C145.721 391.239 142.222 384.512 142.222 376.889Z" fill="#D5DBE1"/>
<path d="M416 291.556H352C338.276 291.556 327.111 280.391 327.111 266.667V195.556H348.444V266.667C348.444 268.629 350.037 270.222 352 270.222H416V291.556Z" fill="black"/>
<path d="M348.444 412.444C328.832 412.444 312.889 396.501 312.889 376.889C312.889 357.276 328.832 341.333 348.444 341.333C368.057 341.333 384 357.276 384 376.889C384 396.501 368.057 412.444 348.444 412.444ZM348.444 362.667C340.594 362.667 334.222 369.038 334.222 376.889C334.222 384.74 340.594 391.111 348.444 391.111C356.295 391.111 362.667 384.74 362.667 376.889C362.667 369.038 356.295 362.667 348.444 362.667Z" fill="black"/>
<path d="M206.222 412.444C186.61 412.444 170.667 396.501 170.667 376.889C170.667 357.276 186.61 341.333 206.222 341.333C225.835 341.333 241.778 357.276 241.778 376.889C241.778 396.501 225.835 412.444 206.222 412.444ZM206.222 362.667C198.372 362.667 192 369.038 192 376.889C192 384.74 198.372 391.111 206.222 391.111C214.073 391.111 220.444 384.74 220.444 376.889C220.444 369.038 214.073 362.667 206.222 362.667Z" fill="black"/>
<path d="M135.111 412.444C115.499 412.444 99.5555 396.501 99.5555 376.889C99.5555 357.276 115.499 341.333 135.111 341.333C154.724 341.333 170.667 357.276 170.667 376.889C170.667 396.501 154.724 412.444 135.111 412.444ZM135.111 362.667C127.26 362.667 120.889 369.038 120.889 376.889C120.889 384.74 127.26 391.111 135.111 391.111C142.962 391.111 149.333 384.74 149.333 376.889C149.333 369.038 142.962 362.667 135.111 362.667Z" fill="black"/>
<path d="M85.3333 362.667H117.333V384H85.3333V362.667Z" fill="black"/>
<path d="M401.778 384H376.889V362.667H401.778C403.74 362.667 405.333 361.074 405.333 359.111V279.751L371.129 208.242C370.546 207.019 369.294 206.222 367.929 206.222H305.778V362.667H320V384H295.111C289.223 384 284.444 379.221 284.444 373.333V195.556C284.444 189.668 289.223 184.889 295.111 184.889H367.929C377.458 184.889 386.261 190.45 390.372 199.04L425.628 272.74C426.311 274.162 426.667 275.74 426.667 277.333V359.111C426.667 372.836 415.502 384 401.778 384Z" fill="black"/>
<path d="M234.667 362.667H295.111V384H234.667V362.667Z" fill="black"/>
<path d="M85.3333 298.667H302.222V320H85.3333V298.667Z" fill="black"/>
<path d="M192 320H85.3333V298.667H192C225.337 298.667 252.444 271.559 252.444 238.222C252.444 204.885 225.337 177.778 192 177.778H85.3333V156.444H192C237.099 156.444 273.778 193.124 273.778 238.222C273.778 283.321 237.099 320 192 320Z" fill="black"/>
<path d="M174.222 177.778H117.333C111.445 177.778 106.667 172.999 106.667 167.111V131.556C106.667 125.668 111.445 120.889 117.333 120.889H174.222C180.11 120.889 184.889 125.668 184.889 131.556V167.111C184.889 172.999 180.11 177.778 174.222 177.778ZM128 156.444H163.556V142.222H128V156.444Z" fill="black"/>
<path d="M124.444 220.444H202.667V241.778H124.444V220.444Z" fill="black"/>
<path d="M124.444 248.889H174.222V270.222H124.444V248.889Z" fill="black"/>
</svg>
