<svg width="512" height="512" viewBox="0 0 512 512" fill="none" xmlns="http://www.w3.org/2000/svg">
<path d="M119.14 59.264C217.515 59.264 285.07 8.30579 332.473 8.30579C379.876 8.30579 479.431 35.5556 479.431 253.625C479.431 471.694 345.5 503.694 293.362 503.694C49.2089 503.708 -55.0827 59.264 119.14 59.264Z" fill="#EFEFEF"/>
<path d="M148.913 73.3839L169.027 53.2706L179.083 63.3272L158.97 83.4405L148.913 73.3839Z" fill="#A4AFC1"/>
<path d="M91.0858 131.188L111.199 111.074L121.256 121.131L101.142 141.244L91.0858 131.188Z" fill="#A4AFC1"/>
<path d="M91.0986 60.7863L101.155 50.7296L121.269 70.8429L111.212 80.8995L91.0986 60.7863Z" fill="#A4AFC1"/>
<path d="M429.042 161.721C417.28 161.721 407.708 152.149 407.708 140.388C407.708 128.626 417.28 119.054 429.042 119.054C440.804 119.054 450.375 128.626 450.375 140.388C450.375 152.149 440.804 161.721 429.042 161.721ZM429.042 133.276C425.131 133.276 421.931 136.462 421.931 140.388C421.931 144.313 425.131 147.499 429.042 147.499C432.953 147.499 436.153 144.313 436.153 140.388C436.153 136.462 432.953 133.276 429.042 133.276Z" fill="#A4AFC1"/>
<path d="M316.444 416H195.556C187.705 416 181.333 409.628 181.333 401.778V295.111C181.333 287.26 187.705 280.889 195.556 280.889H316.444C324.295 280.889 330.667 287.26 330.667 295.111V401.778C330.667 409.628 324.295 416 316.444 416Z" fill="#F3F3F1"/>
<path d="M231.111 280.889H280.889V323.556H231.111V280.889Z" fill="#F3F3F1"/>
<path d="M380.444 216.889C380.444 150.13 324.722 96 256 96C187.278 96 131.556 150.13 131.556 216.889H380.444Z" fill="#2FDF84"/>
<path d="M213.333 401.778V295.111C213.333 287.26 219.705 280.889 227.556 280.889H195.556C187.705 280.889 181.333 287.26 181.333 295.111V401.778C181.333 409.628 187.705 416 195.556 416H227.556C219.705 416 213.333 409.628 213.333 401.778Z" fill="#D5DBE1"/>
<path d="M231.111 280.889H263.111V323.556H231.111V280.889Z" fill="#D5DBE1"/>
<path d="M272 97.1093C266.752 96.4551 261.433 96 256 96C187.264 96 131.556 150.13 131.556 216.889H163.556C163.556 155.406 210.844 104.747 272 97.1093Z" fill="#00B871"/>
<path d="M316.444 426.667H195.556C181.831 426.667 170.667 415.502 170.667 401.778V295.111C170.667 281.387 181.831 270.222 195.556 270.222H316.444C330.169 270.222 341.333 281.387 341.333 295.111V401.778C341.333 415.502 330.169 426.667 316.444 426.667ZM195.556 291.556C193.593 291.556 192 293.148 192 295.111V401.778C192 403.74 193.593 405.333 195.556 405.333H316.444C318.407 405.333 320 403.74 320 401.778V295.111C320 293.148 318.407 291.556 316.444 291.556H195.556Z" fill="black"/>
<path d="M280.889 334.222H231.111C225.223 334.222 220.444 329.444 220.444 323.556V280.889C220.444 275.001 225.223 270.222 231.111 270.222H280.889C286.777 270.222 291.556 275.001 291.556 280.889V323.556C291.556 329.444 286.777 334.222 280.889 334.222ZM241.778 312.889H270.222V291.556H241.778V312.889Z" fill="black"/>
<path d="M273.778 376.889H302.222V398.222H273.778V376.889Z" fill="black"/>
<path d="M325.123 285.96L367.749 214.806L386.065 225.779L343.439 296.933L325.123 285.96Z" fill="black"/>
<path d="M125.972 225.99L144.221 214.968L186.882 285.603L168.633 296.625L125.972 225.99Z" fill="black"/>
<path d="M196.544 225.163L215.616 215.627L244.046 272.487L224.974 282.023L196.544 225.163Z" fill="black"/>
<path d="M267.641 272.629L296.071 215.769L315.143 225.305L286.713 282.165L267.641 272.629Z" fill="black"/>
<path d="M380.444 227.556H131.556C125.668 227.556 120.889 222.777 120.889 216.889C120.889 144.341 181.504 85.3333 256 85.3333C330.496 85.3333 391.111 144.341 391.111 216.889C391.111 222.777 386.332 227.556 380.444 227.556ZM142.748 206.222H369.252C363.691 150.428 315.036 106.667 256 106.667C196.964 106.667 148.309 150.428 142.748 206.222Z" fill="black"/>
</svg>
