<svg width="512" height="512" viewBox="0 0 512 512" fill="none" xmlns="http://www.w3.org/2000/svg">
<path d="M59.264 392.86C59.264 294.485 8.30579 226.93 8.30579 179.527C8.30579 132.124 35.5556 32.5689 253.625 32.5689C471.694 32.5689 503.694 166.5 503.694 218.638C503.708 462.791 59.264 567.083 59.264 392.86Z" fill="#EFEFEF"/>
<path d="M138.717 73.3827L158.83 53.2695L168.887 63.3261L148.774 83.4394L138.717 73.3827Z" fill="#A4AFC1"/>
<path d="M80.8895 131.201L101.013 111.077L111.069 121.134L90.9462 141.257L80.8895 131.201Z" fill="#A4AFC1"/>
<path d="M80.9025 60.8077L90.9591 50.751L111.082 70.8744L101.026 80.931L80.9025 60.8077Z" fill="#A4AFC1"/>
<path d="M410.169 142.535C398.407 142.535 388.836 132.964 388.836 121.202C388.836 109.44 398.407 99.8684 410.169 99.8684C421.931 99.8684 431.502 109.44 431.502 121.202C431.502 132.964 421.931 142.535 410.169 142.535ZM410.169 114.091C406.258 114.091 403.058 117.276 403.058 121.202C403.058 125.127 406.258 128.313 410.169 128.313C414.08 128.313 417.28 125.127 417.28 121.202C417.28 117.276 414.08 114.091 410.169 114.091Z" fill="#A4AFC1"/>
<path d="M380.444 216.889C380.444 150.13 324.722 96 256 96C187.278 96 131.556 150.13 131.556 216.889H380.444Z" fill="#2FDF84"/>
<path d="M255.943 416L181.333 383.232V299.435L255.943 335.744V416Z" fill="#F3F3F1"/>
<path d="M330.667 383.232L256.057 416V335.744L330.667 299.435V383.232Z" fill="#F3F3F1"/>
<path d="M181.333 299.435L256.057 266.667L330.667 299.435L256.057 335.744L181.333 299.435Z" fill="#F3F3F1"/>
<path d="M272 97.1093C266.752 96.4551 261.433 96 256 96C187.264 96 131.556 150.13 131.556 216.889H163.556C163.556 155.406 210.844 104.747 272 97.1093Z" fill="#00B871"/>
<path d="M213.333 383.232V315.008L181.333 299.435V383.232L255.943 416V401.948L213.333 383.232Z" fill="#D5DBE1"/>
<path d="M288.057 335.744L330.667 315.008V299.435L256.057 335.744V416L288.057 401.948V335.744Z" fill="#D5DBE1"/>
<path d="M213.333 299.435L272.043 273.692L256.057 266.667L181.333 299.435L256.057 335.744L272.043 327.964L213.333 299.435Z" fill="#D5DBE1"/>
<path d="M255.943 426.667C254.478 426.667 253.028 426.368 251.648 425.771L177.038 393.003C173.17 391.296 170.667 387.47 170.667 383.232V299.42C170.667 295.751 172.558 292.324 175.687 290.375C178.816 288.427 182.713 288.228 186.012 289.82L260.622 326.13C264.292 327.908 266.624 331.634 266.624 335.716V415.972C266.624 419.57 264.804 422.926 261.788 424.903C260.011 426.084 257.991 426.667 255.943 426.667ZM192 376.277L245.276 399.673V342.428L192 316.487V376.277Z" fill="black"/>
<path d="M256.057 426.667C254.009 426.667 251.989 426.084 250.226 424.932C247.211 422.955 245.39 419.598 245.39 416V335.744C245.39 331.662 247.723 327.936 251.392 326.158L326.002 289.849C329.287 288.242 333.212 288.455 336.327 290.404C339.442 292.338 341.333 295.751 341.333 299.435V383.246C341.333 387.47 338.83 391.31 334.962 393.017L260.352 425.785C258.972 426.368 257.508 426.667 256.057 426.667ZM266.724 342.414V399.659L320 376.263V316.473L266.724 342.414Z" fill="black"/>
<path d="M185.614 309.205L177.052 289.664L251.776 256.896C254.492 255.701 257.593 255.701 260.352 256.896L334.962 289.664L326.372 309.191L256.057 278.315L185.614 309.205Z" fill="black"/>
<path d="M305.778 344.889H284.444V322.773L218.852 290.987L228.153 271.787L299.179 306.204C303.033 307.826 305.778 311.609 305.778 316.018V344.889Z" fill="black"/>
<path d="M319.576 294.996L373.167 205.539L391.471 216.504L337.88 305.962L319.576 294.996Z" fill="black"/>
<path d="M120.457 216.86L138.718 205.83L192.402 294.714L174.141 305.744L120.457 216.86Z" fill="black"/>
<path d="M191.776 215.627L210.835 206.097L248.801 282.029L229.742 291.559L191.776 215.627Z" fill="black"/>
<path d="M263.079 282.29L301.13 206.358L320.19 215.909L282.139 291.841L263.079 282.29Z" fill="black"/>
<path d="M380.444 227.556H131.556C125.668 227.556 120.889 222.777 120.889 216.889C120.889 144.341 181.504 85.3333 256 85.3333C330.496 85.3333 391.111 144.341 391.111 216.889C391.111 222.777 386.332 227.556 380.444 227.556ZM142.748 206.222H369.252C363.691 150.428 315.036 106.667 256 106.667C196.964 106.667 148.309 150.428 142.748 206.222Z" fill="black"/>
</svg>
