<svg width="512" height="512" viewBox="0 0 512 512" fill="none" xmlns="http://www.w3.org/2000/svg">
<path d="M389.931 55.6658C291.584 57.5004 223.076 7.80799 175.687 8.70399C128.299 9.59999 29.2552 38.6986 33.337 256.74C37.4188 474.78 171.918 504.263 224.057 503.296C468.153 498.731 564.125 52.4089 389.931 55.6658Z" fill="#EFEFEF"/>
<path d="M408.633 273.778C396.871 273.778 387.3 264.206 387.3 252.444C387.3 240.683 396.871 231.111 408.633 231.111C420.395 231.111 429.966 240.683 429.966 252.444C429.966 264.206 420.395 273.778 408.633 273.778ZM408.633 245.333C404.708 245.333 401.522 248.519 401.522 252.444C401.522 256.37 404.708 259.556 408.633 259.556C412.558 259.556 415.744 256.37 415.744 252.444C415.744 248.519 412.558 245.333 408.633 245.333Z" fill="#A4AFC1"/>
<path d="M250.667 8.68979H264.889V37.1342H250.667V8.68979Z" fill="#A4AFC1"/>
<path d="M250.667 90.4676H264.889V118.912H250.667V90.4676Z" fill="#A4AFC1"/>
<path d="M200.889 54.912H229.333V69.1342H200.889V54.912Z" fill="#A4AFC1"/>
<path d="M282.667 54.912H311.111V69.1342H282.667V54.912Z" fill="#A4AFC1"/>
<path d="M408.263 150.329C418.688 140.487 418.46 113.849 408.32 103.694C398.179 93.5538 371.57 93.312 361.728 103.751L301.113 168.149C297.515 172.018 292.139 173.682 286.976 172.558L117.76 136.704C113.749 135.822 109.582 137.045 106.681 139.947C99.8114 146.83 101.205 158.336 109.539 163.356L225.792 224.91C233.913 229.817 235.491 240.939 229.049 247.908L156.643 325.916L116.622 308.437C110.976 305.977 104.405 307.214 100.053 311.566C94.0514 317.568 94.8052 327.509 101.632 332.53L145.294 364.672C147.157 366.037 148.779 367.687 150.144 369.536L179.883 410.311C184.875 417.152 194.802 417.934 200.789 411.932C205.141 407.58 206.379 400.996 203.918 395.349L186.439 355.314L264.306 282.937C271.232 276.523 282.268 278.044 287.218 286.08L351.63 405.177C356.693 413.412 368.128 414.763 374.955 407.922C377.913 404.949 379.136 400.668 378.169 396.572L339.285 225.593C338.048 220.359 339.712 214.869 343.623 211.2L408.263 150.329Z" fill="#2FDF84"/>
<path d="M318.962 172.544C324.124 173.682 329.486 172.004 333.099 168.135L393.714 103.737C395.563 101.788 398.108 100.324 400.91 99.1147C388.608 93.9378 369.692 95.2747 361.714 103.737L301.099 168.135C300.914 168.32 300.686 168.448 300.501 168.633L318.962 172.544Z" fill="#00B871"/>
<path d="M109.539 163.356L225.792 224.91C233.913 229.817 235.491 240.939 229.049 247.908L165.874 315.975L188.643 325.931L261.049 247.922C267.491 240.953 265.927 229.817 257.792 224.924L141.539 163.371C133.589 158.578 132.181 147.954 138.027 141.013L117.76 136.704C113.749 135.822 109.582 137.045 106.681 139.947C99.8115 146.83 101.219 158.336 109.539 163.356Z" fill="#00B871"/>
<path d="M377.614 394.027L319.246 286.094C314.297 278.059 303.246 276.537 296.334 282.951L289.152 289.621L351.659 405.191C356.722 413.426 368.156 414.777 374.983 407.936C377.941 404.964 379.164 400.683 378.197 396.587L377.614 394.027Z" fill="#00B871"/>
<path d="M182.144 369.55C180.793 367.687 179.157 366.052 177.294 364.686L133.632 332.544C127.744 328.206 126.677 320.37 130.247 314.396L116.622 308.437C110.976 305.977 104.405 307.214 100.053 311.566C94.0514 317.568 94.8052 327.495 101.632 332.53L145.294 364.672C147.143 366.037 148.779 367.687 150.144 369.536L179.883 410.311C184.875 417.152 194.802 417.934 200.789 411.932C203.762 408.96 205.141 404.964 205.042 400.924L182.144 369.55Z" fill="#00B871"/>
<path d="M191.047 426.667C190.421 426.667 189.796 426.652 189.156 426.596C182.016 426.041 175.502 422.414 171.278 416.626L141.525 375.836C140.814 374.855 139.961 374.002 138.98 373.276L95.3173 341.12C89.5573 336.882 85.9449 330.354 85.4044 323.228C84.864 316.089 87.4524 309.092 92.5155 304.028C100.011 296.505 111.161 294.4 120.903 298.667L153.97 313.131L221.227 240.668C222.421 239.374 222.421 237.895 222.322 237.141C222.208 236.388 221.81 234.98 220.274 234.055L104.533 172.8C97.2231 168.405 92.7715 161.536 91.8044 153.657C90.8373 145.764 93.5111 138.027 99.1146 132.409C104.619 126.905 112.412 124.615 120.036 126.293L289.152 162.105C290.716 162.46 292.252 161.948 293.291 160.868L353.948 96.4409C360.434 89.5716 371.356 85.5325 383.915 85.3476C396.658 85.4756 408.889 89.2018 415.844 96.1565C422.798 103.111 426.852 115.058 426.667 128.114C426.482 140.686 422.443 151.609 415.588 158.08L350.99 218.965C349.824 220.046 349.355 221.639 349.71 223.132L388.608 394.197C390.414 401.849 388.153 409.828 382.535 415.445C376.946 421.035 369.294 423.652 361.415 422.784C353.579 421.86 346.709 417.479 342.571 410.752L277.86 291.143C277.234 290.148 275.826 289.749 275.072 289.65C274.304 289.55 272.868 289.564 271.588 290.759L199.268 357.988L213.717 391.083C217.97 400.825 215.865 411.975 208.356 419.484C203.733 424.107 197.518 426.667 191.047 426.667ZM110.635 317.852C109.511 317.852 108.43 318.293 107.605 319.118C106.709 320.014 106.652 321.067 106.681 321.621C106.724 322.176 106.951 323.2 107.975 323.954L151.637 356.096C154.368 358.101 156.772 360.519 158.777 363.278L188.516 404.053C189.255 405.063 190.265 405.291 190.805 405.333C191.36 405.348 192.37 405.305 193.252 404.423C194.503 403.172 194.859 401.252 194.148 399.644L176.668 359.609C174.862 355.456 175.858 350.606 179.186 347.52L257.067 275.143C262.727 269.895 270.364 267.506 277.959 268.53C285.596 269.568 292.281 273.934 296.32 280.505L361.031 400.114C361.685 401.152 363.122 401.536 363.89 401.621C364.644 401.678 366.137 401.664 367.431 400.384C367.431 400.356 367.801 398.976 367.787 398.948L328.903 227.968C326.812 219.122 329.671 209.678 336.37 203.42L400.939 142.564C403.044 140.572 405.22 135.239 405.333 127.787C405.447 119.666 403.058 113.508 400.782 111.218C398.507 108.928 392.348 106.837 384.242 106.652C376.818 106.752 371.484 108.942 369.479 111.047L308.864 175.431C302.763 181.973 293.476 184.875 284.672 182.94L115.556 147.143C112.939 148.779 112.91 150.272 113.01 151.054C113.109 151.836 113.508 153.273 115.058 154.226L230.798 215.481C237.938 219.776 242.361 226.46 243.456 234.14C244.551 241.806 242.148 249.472 236.885 255.161L164.466 333.184C161.365 336.512 156.516 337.508 152.377 335.701L112.356 318.208C111.801 317.966 111.218 317.852 110.635 317.852Z" fill="black"/>
</svg>
