<svg width="512" height="512" viewBox="0 0 512 512" fill="none" xmlns="http://www.w3.org/2000/svg">
<g clip-path="url(#clip0_5_5350)">
<path d="M115.399 79.1325C89.7279 174.094 22.8977 226.005 10.5243 271.772C-1.84901 317.54 -1.5219 420.75 208.995 477.668C419.513 534.585 485.362 413.653 498.958 363.307C562.688 127.616 160.867 -89.0595 115.399 79.1325Z" fill="#EFEFEF"/>
<path d="M282.667 49.7778H311.111V64H282.667V49.7778Z" fill="#A4AFC1"/>
<path d="M200.889 49.7778H229.333V64H200.889V49.7778Z" fill="#A4AFC1"/>
<path d="M250.667 0H264.889V28.4444H250.667V0Z" fill="#A4AFC1"/>
<path d="M110.222 174.222C98.4605 174.222 88.8889 164.651 88.8889 152.889C88.8889 141.127 98.4605 131.556 110.222 131.556C121.984 131.556 131.556 141.127 131.556 152.889C131.556 164.651 121.984 174.222 110.222 174.222ZM110.222 145.778C106.297 145.778 103.111 148.964 103.111 152.889C103.111 156.814 106.297 160 110.222 160C114.148 160 117.333 156.814 117.333 152.889C117.333 148.964 114.148 145.778 110.222 145.778Z" fill="#A4AFC1"/>
<path d="M372.907 294.969L256 252.729L139.093 294.969L162.972 398.606C172.743 409.244 186.866 416 202.667 416C221.596 416 238.236 406.372 247.694 391.879C251.449 386.119 260.551 386.119 264.306 391.879C273.763 406.386 290.403 416 309.333 416C325.134 416 339.257 409.244 349.027 398.606L372.907 294.969Z" fill="#F3F3F1"/>
<path d="M209.778 209.778H167.111V284.843L256 252.729V227.556V209.778H209.778Z" fill="#2FDF84"/>
<path d="M302.222 209.778H256V227.556V252.729L344.889 284.843V209.778H302.222Z" fill="#2FDF84"/>
<path d="M209.778 138.667H302.222V209.778H209.778V138.667Z" fill="#2FDF84"/>
<path d="M194.972 398.606L171.093 294.969L272 258.517L256 252.729L139.093 294.969L162.972 398.606C172.743 409.244 186.866 416 202.667 416C208.384 416 213.845 415.033 219.008 413.412C209.678 410.567 201.344 405.532 194.972 398.606Z" fill="#D5DBE1"/>
<path d="M296.306 391.879C292.551 386.119 283.449 386.119 279.694 391.879C277.504 395.236 274.887 398.293 272 401.067C281.628 410.283 294.784 416 309.333 416C314.837 416 320.014 414.919 324.992 413.412C313.06 409.657 302.905 402.005 296.306 391.879Z" fill="#D5DBE1"/>
<path d="M199.111 209.778H167.111V284.843L199.111 273.28V209.778Z" fill="#00B871"/>
<path d="M288 252.729V227.556V209.778H256V227.556V252.729L344.889 284.843V273.28L288 252.729Z" fill="#00B871"/>
<path d="M209.778 138.667H241.778V209.778H209.778V138.667Z" fill="#00B871"/>
<path d="M359.41 401.038L338.617 396.245L360.391 301.781L256 264.064L151.609 301.781L173.383 396.245L152.59 401.038L128.697 297.358C127.488 292.096 130.389 286.763 135.467 284.928L252.373 242.688C254.72 241.835 257.28 241.835 259.627 242.688L376.533 284.928C381.611 286.763 384.512 292.096 383.303 297.358L359.41 401.038Z" fill="black"/>
<path d="M426.667 426.667H416C394.041 426.667 373.874 415.844 362.041 397.696C351.459 415.844 331.292 426.667 309.333 426.667C287.374 426.667 267.207 415.844 255.374 397.696C244.793 415.844 224.626 426.667 202.667 426.667C180.707 426.667 160.54 415.844 148.707 397.696C138.126 415.844 117.959 426.667 95.9999 426.667H85.3333V405.333H95.9999C110.72 405.333 124.217 398.123 132.096 386.048C139.577 374.571 159.104 374.571 166.571 386.048C174.45 398.123 187.947 405.333 202.667 405.333C217.387 405.333 230.883 398.123 238.763 386.048C246.243 374.571 265.771 374.571 273.237 386.048C281.116 398.123 294.613 405.333 309.333 405.333C324.053 405.333 337.55 398.123 345.429 386.048C352.91 374.571 372.437 374.571 379.904 386.048C387.783 398.123 401.28 405.333 416 405.333H426.667V426.667Z" fill="black"/>
<path d="M177.778 284.302H156.444V209.778C156.444 203.89 161.223 199.111 167.111 199.111H256C261.888 199.111 266.667 203.89 266.667 209.778V249.173H245.333V220.444H177.778V284.302Z" fill="black"/>
<path d="M355.555 284.302H334.222V220.444H266.667V249.173H245.333V209.778C245.333 203.89 250.112 199.111 256 199.111H344.889C350.777 199.111 355.555 203.89 355.555 209.778V284.302Z" fill="black"/>
<path d="M312.889 206.222H291.556V149.333H220.444V206.222H199.111V138.667C199.111 132.779 203.89 128 209.778 128H302.222C308.11 128 312.889 132.779 312.889 138.667V206.222Z" fill="black"/>
<path d="M245.333 85.3333H266.667V145.778H245.333V85.3333Z" fill="black"/>
</g>
<defs>
<clipPath id="clip0_5_5350">
<rect width="512" height="512" fill="white"/>
</clipPath>
</defs>
</svg>
