<svg width="512" height="512" viewBox="0 0 512 512" fill="none" xmlns="http://www.w3.org/2000/svg">
<path d="M115.399 79.1325C89.7281 174.094 22.8979 226.005 10.5246 271.772C-1.84876 317.54 -1.52166 420.75 208.996 477.668C419.513 534.585 485.362 413.653 498.958 363.307C562.688 127.616 160.868 -89.0595 115.399 79.1325Z" fill="#EFEFEF"/>
<path d="M83.4224 74.1666L103.536 54.0533L113.592 64.11L93.479 84.2232L83.4224 74.1666Z" fill="#A4AFC1"/>
<path d="M25.5947 131.985L45.708 111.871L55.7646 121.928L35.6514 142.041L25.5947 131.985Z" fill="#A4AFC1"/>
<path d="M25.5977 61.5589L35.6543 51.5023L55.7675 71.6156L45.7109 81.6722L25.5977 61.5589Z" fill="#A4AFC1"/>
<path d="M280.889 103.908C269.127 103.908 259.556 94.336 259.556 82.5742C259.556 70.8125 269.127 61.2409 280.889 61.2409C292.651 61.2409 302.222 70.8125 302.222 82.5742C302.222 94.336 292.651 103.908 280.889 103.908ZM280.889 75.4631C276.964 75.4631 273.778 78.6631 273.778 82.5742C273.778 86.4853 276.964 89.6854 280.889 89.6854C284.814 89.6854 288 86.4853 288 82.5742C288 78.6631 284.814 75.4631 280.889 75.4631Z" fill="#A4AFC1"/>
<path d="M238.222 238.222V296.676L312.889 263.396V245.333V238.222H238.222Z" fill="#2FDF84"/>
<path d="M344.889 238.222H312.889V245.333V263.396L387.555 296.676V238.222H344.889Z" fill="#2FDF84"/>
<path d="M280.889 181.333H344.889V238.222H280.889V181.333Z" fill="#2FDF84"/>
<path d="M253.312 397.909C256.939 393.586 265.728 393.586 269.369 397.909C273.593 402.944 279.424 407.054 286.151 410.169H339.641C346.368 407.054 352.199 402.93 356.423 397.909C360.05 393.586 368.839 393.586 372.48 397.909C376.661 402.873 382.407 406.94 389.021 410.041L415.573 309.191L312.889 263.396L210.205 309.191L236.757 410.041C243.385 406.926 249.131 402.873 253.312 397.909Z" fill="#F3F3F1"/>
<path d="M170.61 245.333L96 212.565V128.768L170.61 165.077V245.333Z" fill="#2FDF84"/>
<path d="M245.333 212.565L170.724 245.333V165.077L245.333 128.768V212.565Z" fill="#2FDF84"/>
<path d="M96 128.768L170.724 96L245.333 128.768L170.724 165.077L96 128.768Z" fill="#F3F3F1"/>
<path d="M270.222 238.222H238.222V296.676L270.222 282.411V238.222Z" fill="#00B871"/>
<path d="M344.889 263.396V245.333V238.222H312.889V245.333V263.396L387.555 296.676V282.411L344.889 263.396Z" fill="#00B871"/>
<path d="M280.889 181.333H312.889V238.222H280.889V181.333Z" fill="#00B871"/>
<path d="M242.205 309.191L328.889 270.535L312.889 263.396L210.205 309.191L236.757 410.041C243.371 406.94 249.131 402.873 253.298 397.909C255.829 394.894 260.821 394.126 264.875 395.307L242.205 309.191Z" fill="#D5DBE1"/>
<path d="M285.312 397.909C283.079 400.569 280.349 402.916 277.319 405.049C280.022 406.969 282.966 408.704 286.151 410.183H318.151C311.424 407.068 305.593 402.944 301.369 397.924C297.728 393.586 288.939 393.586 285.312 397.909Z" fill="#D5DBE1"/>
<path d="M388.423 397.909C386.19 400.555 383.488 402.916 380.473 405.049C383.104 406.898 385.949 408.604 389.021 410.041L392.903 395.307C391.14 395.819 389.518 396.601 388.423 397.909Z" fill="#D5DBE1"/>
<path d="M128 212.565V144.341L96 128.768V212.565L170.61 245.333V231.282L128 212.565Z" fill="#00B871"/>
<path d="M202.724 165.077L245.333 144.341V128.768L170.724 165.077V245.333L202.724 231.282V165.077Z" fill="#00B871"/>
<path d="M128 128.768L186.709 103.026L170.724 96L96 128.768L170.724 165.077L186.709 157.298L128 128.768Z" fill="#D5DBE1"/>
<path d="M170.624 256C169.159 256 167.709 255.701 166.329 255.104L91.7051 222.336C87.8366 220.644 85.3335 216.804 85.3335 212.565V128.768C85.3335 125.084 87.2251 121.671 90.3539 119.723C93.4402 117.76 97.3371 117.589 100.665 119.168L175.289 155.492C178.958 157.284 181.291 161.01 181.291 165.092V245.348C181.291 248.946 179.47 252.302 176.455 254.279C174.692 255.417 172.658 256 170.624 256ZM106.667 205.596L159.957 229.006V171.762L106.667 145.82V205.596Z" fill="black"/>
<path d="M170.71 256C168.662 256 166.642 255.417 164.879 254.265C161.863 252.288 160.043 248.932 160.043 245.333V165.077C160.043 160.996 162.375 157.269 166.045 155.477L240.669 119.154C243.983 117.589 247.879 117.746 250.994 119.708C254.109 121.671 256 125.084 256 128.768V212.58C256 216.818 253.497 220.644 249.629 222.35L175.005 255.118C173.625 255.701 172.175 256 170.71 256ZM181.376 171.748V228.992L234.667 205.582V145.806L181.376 171.748Z" fill="black"/>
<path d="M100.281 138.524L91.7192 118.997L166.429 86.2293C169.159 85.0346 172.274 85.0346 175.005 86.2293L249.629 118.997L241.038 138.524L170.709 107.648L100.281 138.524Z" fill="black"/>
<path d="M220.445 174.222H199.111V152.96L131.499 121.756L140.445 102.4L213.689 136.192C217.629 137.785 220.459 141.611 220.459 146.076V174.222H220.445Z" fill="black"/>
<path d="M399.289 412.885L378.667 407.438L402.958 315.25L312.889 275.072L222.82 315.25L247.111 407.438L226.489 412.885L199.894 311.908C198.557 306.859 201.088 301.568 205.853 299.449L308.537 253.639C311.296 252.388 314.468 252.388 317.227 253.639L419.911 299.449C424.676 301.568 427.207 306.859 425.87 311.908L399.289 412.885Z" fill="black"/>
<path d="M416 426.667C395.165 426.667 375.837 418.489 364.302 404.764C353.052 418.489 333.725 426.667 312.889 426.667C292.053 426.667 272.725 418.489 261.191 404.764C249.941 418.489 230.613 426.667 209.778 426.667V405.333C224.171 405.333 237.724 399.858 245.134 391.04C252.658 382.094 269.995 382.094 277.518 391.04C284.942 399.858 298.496 405.333 312.889 405.333C327.282 405.333 340.836 399.858 348.245 391.04C355.769 382.094 373.106 382.094 380.629 391.04C388.039 399.858 401.593 405.333 415.986 405.333V426.667H416Z" fill="black"/>
<path d="M227.556 262.258H248.889V296.676H227.556V262.258Z" fill="black"/>
<path d="M323.556 263.396H302.222V248.889H279.325V227.556H312.889C318.777 227.556 323.556 232.334 323.556 238.222V263.396Z" fill="black"/>
<path d="M398.222 296.676H376.889V248.889H323.556V263.396H302.222V238.222C302.222 232.334 307.001 227.556 312.889 227.556H387.556C393.444 227.556 398.222 232.334 398.222 238.222V296.676Z" fill="black"/>
<path d="M344.889 248.889H280.889C275.001 248.889 270.222 244.11 270.222 238.222V236.089H280.889V227.556H334.222V192H288V170.667H344.889C350.777 170.667 355.556 175.445 355.556 181.333V238.222C355.556 244.11 350.777 248.889 344.889 248.889Z" fill="black"/>
<path d="M302.222 138.667H323.556V181.333H302.222V138.667Z" fill="black"/>
</svg>
