<svg width="512" height="512" viewBox="0 0 512 512" fill="none" xmlns="http://www.w3.org/2000/svg">
<path d="M190.734 497.764C280.306 457.102 362.894 475.591 406.059 456.007C449.223 436.409 528.612 370.446 438.485 171.876C348.359 -26.6951 213.191 -0.497784 165.703 21.0489C-56.6187 121.956 32.0853 569.771 190.734 497.764Z" fill="#EFEFEF"/>
<path d="M407.111 202.667C395.349 202.667 385.777 193.095 385.777 181.333C385.777 169.572 395.349 160 407.111 160C418.872 160 428.444 169.572 428.444 181.333C428.444 193.095 418.872 202.667 407.111 202.667ZM407.111 174.222C403.2 174.222 400 177.422 400 181.333C400 185.244 403.2 188.444 407.111 188.444C411.022 188.444 414.222 185.244 414.222 181.333C414.222 177.422 411.022 174.222 407.111 174.222Z" fill="#A4AFC1"/>
<path d="M106.667 296.889H120.889V325.333H106.667V296.889Z" fill="#A4AFC1"/>
<path d="M106.667 378.667H120.889V407.111H106.667V378.667Z" fill="#A4AFC1"/>
<path d="M56.8887 343.111H85.3331V357.333H56.8887V343.111Z" fill="#A4AFC1"/>
<path d="M138.667 343.111H167.111V357.333H138.667V343.111Z" fill="#A4AFC1"/>
<path d="M238.222 238.222V296.676L312.889 263.396V245.333V238.222H238.222Z" fill="#2FDF84"/>
<path d="M344.889 238.222H312.889V245.333V263.396L387.555 296.676V238.222H344.889Z" fill="#2FDF84"/>
<path d="M280.889 181.333H344.889V238.222H280.889V181.333Z" fill="#2FDF84"/>
<path d="M253.312 397.909C256.939 393.586 265.728 393.586 269.369 397.909C273.593 402.944 279.424 407.054 286.151 410.169H339.641C346.368 407.054 352.199 402.93 356.423 397.909C360.05 393.586 368.839 393.586 372.48 397.909C376.661 402.873 382.407 406.94 389.021 410.041L415.573 309.191L312.889 263.396L210.205 309.191L236.757 410.041C243.385 406.926 249.131 402.873 253.312 397.909Z" fill="#F3F3F1"/>
<path d="M96 160H245.333V245.333H96V160Z" fill="#2FDF84"/>
<path d="M220.444 96H120.889L96 160H245.333L220.444 96Z" fill="#F3F3F1"/>
<path d="M270.222 238.222H238.222V296.676L270.222 282.411V238.222Z" fill="#00B871"/>
<path d="M344.889 263.396V245.333V238.222H312.889V245.333V263.396L387.555 296.676V282.411L344.889 263.396Z" fill="#00B871"/>
<path d="M280.889 181.333H312.889V238.222H280.889V181.333Z" fill="#00B871"/>
<path d="M242.205 309.191L328.889 270.535L312.889 263.396L210.205 309.191L236.757 410.041C243.371 406.94 249.131 402.873 253.298 397.909C255.829 394.894 260.821 394.126 264.875 395.307L242.205 309.191Z" fill="#D5DBE1"/>
<path d="M285.312 397.909C283.079 400.569 280.349 402.916 277.319 405.049C280.022 406.969 282.966 408.704 286.151 410.183H318.151C311.424 407.068 305.593 402.944 301.369 397.924C297.728 393.586 288.939 393.586 285.312 397.909Z" fill="#D5DBE1"/>
<path d="M388.423 397.909C386.19 400.555 383.488 402.916 380.473 405.049C383.104 406.898 385.949 408.604 389.021 410.041L392.903 395.307C391.14 395.819 389.518 396.601 388.423 397.909Z" fill="#D5DBE1"/>
<path d="M96 160H128V245.333H96V160Z" fill="#00B871"/>
<path d="M120.889 96L96 160H128L152.889 96H120.889Z" fill="#D5DBE1"/>
<path d="M245.333 256H96.0002C90.1122 256 85.3335 251.221 85.3335 245.333V160C85.3335 154.112 90.1122 149.333 96.0002 149.333H245.333C251.221 149.333 256 154.112 256 160V245.333C256 251.221 251.221 256 245.333 256ZM106.667 234.667H234.667V170.667H106.667V234.667Z" fill="black"/>
<path d="M235.392 163.854L213.149 106.667H128.185L105.956 163.854L86.0732 156.132L110.962 92.1315C112.541 88.0213 116.48 85.3333 120.889 85.3333H220.445C224.854 85.3333 228.793 88.0213 230.386 92.1458L255.275 156.146L235.392 163.854Z" fill="black"/>
<path d="M160 96H181.333V160H160V96Z" fill="black"/>
<path d="M399.289 412.885L378.653 407.438L402.944 315.236L312.889 275.072L222.834 315.236L247.125 407.438L226.489 412.885L199.893 311.908C198.557 306.859 201.088 301.568 205.867 299.449L308.551 253.639C311.325 252.388 314.468 252.388 317.241 253.639L419.925 299.449C424.704 301.568 427.236 306.859 425.899 311.908L399.289 412.885Z" fill="black"/>
<path d="M416 426.667C395.165 426.667 375.851 418.489 364.302 404.779C353.038 418.489 333.725 426.667 312.889 426.667C292.053 426.667 272.74 418.489 261.191 404.779C249.927 418.489 230.613 426.667 209.778 426.667V405.333C224.171 405.333 237.724 399.858 245.134 391.026C252.686 382.08 269.98 382.08 277.504 391.026C284.942 399.858 298.496 405.333 312.889 405.333C327.282 405.333 340.836 399.858 348.245 391.026C355.797 382.08 373.092 382.08 380.615 391.026C388.039 399.858 401.607 405.333 415.986 405.333V426.667H416Z" fill="black"/>
<path d="M227.556 288H248.889V296.676H227.556V288Z" fill="black"/>
<path d="M323.556 263.396H302.222V248.889H288V227.556H312.889C318.777 227.556 323.556 232.334 323.556 238.222V263.396Z" fill="black"/>
<path d="M398.222 296.676H376.889V248.889H323.556V263.396H302.222V238.222C302.222 232.334 307.001 227.556 312.889 227.556H387.556C393.444 227.556 398.222 232.334 398.222 238.222V296.676Z" fill="black"/>
<path d="M344.889 248.889H288V227.556H334.222V192H288V170.667H344.889C350.777 170.667 355.556 175.445 355.556 181.333V238.222C355.556 244.11 350.777 248.889 344.889 248.889Z" fill="black"/>
<path d="M302.222 138.667H323.556V181.333H302.222V138.667Z" fill="black"/>
</svg>
