<svg width="512" height="512" viewBox="0 0 512 512" fill="none" xmlns="http://www.w3.org/2000/svg">
<path d="M496.412 289.493C442.624 207.132 448.341 122.709 422.414 83.0151C396.487 43.3209 319.218 -25.1165 136.647 94.1369C-45.9237 213.39 0.511887 343.026 29.0417 386.674C162.56 591.076 591.687 435.356 496.412 289.493Z" fill="#EFEFEF"/>
<path d="M88.3735 59.1633L108.487 39.05L118.543 49.1066L98.4302 69.2199L88.3735 59.1633Z" fill="#A4AFC1"/>
<path d="M30.5459 116.961L50.6592 96.8479L60.7158 106.904L40.6025 127.018L30.5459 116.961Z" fill="#A4AFC1"/>
<path d="M30.5588 46.574L40.6155 36.5173L60.7287 56.6306L50.6721 66.6872L30.5588 46.574Z" fill="#A4AFC1"/>
<path d="M416 202.667C404.238 202.667 394.667 193.095 394.667 181.333C394.667 169.572 404.238 160 416 160C427.762 160 437.333 169.572 437.333 181.333C437.333 193.095 427.762 202.667 416 202.667ZM416 174.222C412.075 174.222 408.889 177.422 408.889 181.333C408.889 185.244 412.075 188.444 416 188.444C419.925 188.444 423.111 185.244 423.111 181.333C423.111 177.422 419.925 174.222 416 174.222Z" fill="#A4AFC1"/>
<path d="M238.222 238.222V296.676L312.889 263.396V245.333V238.222H238.222Z" fill="#2FDF84"/>
<path d="M344.889 238.222H312.889V245.333V263.396L387.556 296.676V238.222H344.889Z" fill="#2FDF84"/>
<path d="M280.889 181.333H344.889V238.222H280.889V181.333Z" fill="#2FDF84"/>
<path d="M253.312 397.909C256.939 393.586 265.728 393.586 269.369 397.909C273.593 402.944 279.424 407.054 286.151 410.169H339.641C346.368 407.054 352.199 402.93 356.423 397.909C360.05 393.586 368.839 393.586 372.48 397.909C376.661 402.873 382.407 406.94 389.02 410.041L415.573 309.191L312.889 263.396L210.204 309.191L236.757 410.041C243.385 406.926 249.131 402.873 253.312 397.909Z" fill="#F3F3F1"/>
<path d="M177.778 259.556C222.942 259.556 259.556 222.942 259.556 177.778C259.556 132.613 222.942 96 177.778 96C132.613 96 96 132.613 96 177.778C96 222.942 132.613 259.556 177.778 259.556Z" fill="#2FDF84"/>
<path d="M270.222 238.222H238.222V296.676L270.222 282.411V238.222Z" fill="#00B871"/>
<path d="M344.889 263.396V245.333V238.222H312.889V245.333V263.396L387.556 296.676V282.411L344.889 263.396Z" fill="#00B871"/>
<path d="M280.889 181.333H312.889V238.222H280.889V181.333Z" fill="#00B871"/>
<path d="M242.204 309.191L328.889 270.535L312.889 263.396L210.204 309.191L236.757 410.041C243.371 406.94 249.131 402.873 253.298 397.909C255.829 394.894 260.821 394.126 264.875 395.307L242.204 309.191Z" fill="#D5DBE1"/>
<path d="M285.312 397.909C283.079 400.569 280.348 402.916 277.319 405.049C280.021 406.969 282.965 408.704 286.151 410.183H318.151C311.424 407.068 305.593 402.944 301.369 397.924C297.728 393.586 288.939 393.586 285.312 397.909Z" fill="#D5DBE1"/>
<path d="M388.423 397.909C386.19 400.555 383.488 402.916 380.473 405.049C383.104 406.898 385.948 408.604 389.02 410.041L392.903 395.307C391.14 395.819 389.518 396.601 388.423 397.909Z" fill="#D5DBE1"/>
<path d="M128 177.778C128 138.098 156.274 105.031 193.778 97.5929C188.601 96.5547 183.253 96 177.778 96C132.608 96 96 132.608 96 177.778C96 222.948 132.608 259.556 177.778 259.556C183.253 259.556 188.601 259.001 193.778 257.963C156.274 250.524 128 217.458 128 177.778Z" fill="#00B871"/>
<path d="M177.778 270.222C126.805 270.222 85.3333 228.75 85.3333 177.778C85.3333 126.805 126.805 85.3333 177.778 85.3333C228.75 85.3333 270.222 126.805 270.222 177.778C270.222 228.75 228.75 270.222 177.778 270.222ZM177.778 106.667C138.567 106.667 106.667 138.567 106.667 177.778C106.667 216.988 138.567 248.889 177.778 248.889C216.988 248.889 248.889 216.988 248.889 177.778C248.889 138.567 216.988 106.667 177.778 106.667Z" fill="black"/>
<path d="M163.555 216.889C160.725 216.889 158.009 215.765 156.018 213.76L127.573 185.316L142.663 170.226L163.043 190.606L205.312 142.308L221.369 156.359L171.591 213.248C169.643 215.467 166.869 216.789 163.911 216.889C163.797 216.889 163.669 216.889 163.555 216.889Z" fill="black"/>
<path d="M399.289 412.885L378.667 407.438L402.958 315.25L312.889 275.072L222.82 315.25L247.111 407.438L226.489 412.885L199.893 311.908C198.556 306.859 201.088 301.568 205.852 299.449L308.537 253.639C311.296 252.388 314.468 252.388 317.227 253.639L419.911 299.449C424.675 301.568 427.207 306.859 425.87 311.908L399.289 412.885Z" fill="black"/>
<path d="M416 426.667C395.164 426.667 375.836 418.489 364.302 404.764C353.052 418.489 333.724 426.667 312.889 426.667C292.053 426.667 272.725 418.489 261.191 404.764C249.941 418.489 230.613 426.667 209.778 426.667V405.333C224.17 405.333 237.724 399.858 245.134 391.04C252.658 382.094 269.994 382.094 277.518 391.04C284.942 399.858 298.496 405.333 312.889 405.333C327.282 405.333 340.835 399.858 348.245 391.04C355.769 382.094 373.106 382.094 380.629 391.04C388.039 399.858 401.593 405.333 415.986 405.333V426.667H416Z" fill="black"/>
<path d="M227.555 286.436H248.889V296.69H227.555V286.436Z" fill="black"/>
<path d="M323.556 263.396H302.222V248.889H286.436V227.556H312.889C318.777 227.556 323.556 232.334 323.556 238.222V263.396Z" fill="black"/>
<path d="M398.222 296.676H376.889V248.889H323.556V263.396H302.222V238.222C302.222 232.334 307.001 227.556 312.889 227.556H387.556C393.444 227.556 398.222 232.334 398.222 238.222V296.676Z" fill="black"/>
<path d="M344.889 248.889H286.436V227.556H334.222V192H302.08V170.667H344.889C350.777 170.667 355.556 175.445 355.556 181.333V238.222C355.556 244.11 350.777 248.889 344.889 248.889Z" fill="black"/>
<path d="M302.222 138.667H323.556V181.333H302.222V138.667Z" fill="black"/>
</svg>
