<svg width="512" height="512" viewBox="0 0 512 512" fill="none" xmlns="http://www.w3.org/2000/svg">
<path d="M496.412 289.493C442.624 207.132 448.341 122.709 422.414 83.0151C396.487 43.3209 319.218 -25.1165 136.647 94.1369C-45.9235 213.39 0.512009 343.026 29.0418 386.674C162.56 591.076 591.687 435.356 496.412 289.493Z" fill="#EFEFEF"/>
<path d="M93.9517 49.5421L114.065 29.4288L124.122 39.4854L104.008 59.5987L93.9517 49.5421Z" fill="#A4AFC1"/>
<path d="M36.1283 107.336L56.2416 87.2225L66.2982 97.2791L46.1849 117.392L36.1283 107.336Z" fill="#A4AFC1"/>
<path d="M36.1412 36.9771L46.1979 26.9204L66.3111 47.0337L56.2545 57.0903L36.1412 36.9771Z" fill="#A4AFC1"/>
<path d="M441.671 283.591C429.909 283.591 420.338 274.02 420.338 262.258C420.338 250.496 429.909 240.924 441.671 240.924C453.433 240.924 463.004 250.496 463.004 262.258C463.004 274.02 453.433 283.591 441.671 283.591ZM441.671 255.147C437.76 255.147 434.56 258.347 434.56 262.258C434.56 266.169 437.76 269.369 441.671 269.369C445.582 269.369 448.782 266.169 448.782 262.258C448.782 258.347 445.582 255.147 441.671 255.147Z" fill="#A4AFC1"/>
<path d="M238.222 238.222V296.676L312.889 263.396V245.333V238.222H238.222Z" fill="#2FDF84"/>
<path d="M344.889 238.222H312.889V245.333V263.396L387.555 296.676V238.222H344.889Z" fill="#2FDF84"/>
<path d="M280.889 181.333H344.889V238.222H280.889V181.333Z" fill="#2FDF84"/>
<path d="M253.312 397.909C256.939 393.586 265.728 393.586 269.369 397.909C273.593 402.944 279.424 407.054 286.151 410.169H339.641C346.368 407.054 352.199 402.93 356.423 397.909C360.05 393.586 368.839 393.586 372.48 397.909C376.661 402.873 382.407 406.94 389.02 410.041L415.573 309.191L312.889 263.396L210.204 309.191L236.757 410.041C243.385 406.926 249.131 402.873 253.312 397.909Z" fill="#F3F3F1"/>
<path d="M231.111 245.333H110.222C102.372 245.333 96 238.962 96 231.111V110.222C96 102.372 102.372 96 110.222 96H231.111C238.962 96 245.333 102.372 245.333 110.222V231.111C245.333 238.962 238.962 245.333 231.111 245.333Z" fill="#2FDF84"/>
<path d="M152.889 96H188.444V145.778H152.889V96Z" fill="#2FDF84"/>
<path d="M270.222 238.222H238.222V296.676L270.222 282.411V238.222Z" fill="#00B871"/>
<path d="M344.889 263.396V245.333V238.222H312.889V245.333V263.396L387.555 296.676V282.411L344.889 263.396Z" fill="#00B871"/>
<path d="M280.889 181.333H312.889V238.222H280.889V181.333Z" fill="#00B871"/>
<path d="M242.204 309.191L328.889 270.535L312.889 263.396L210.204 309.191L236.757 410.041C243.371 406.94 249.131 402.873 253.298 397.909C255.829 394.894 260.821 394.126 264.875 395.307L242.204 309.191Z" fill="#D5DBE1"/>
<path d="M285.312 397.909C283.079 400.569 280.348 402.916 277.319 405.049C280.021 406.969 282.965 408.704 286.151 410.183H318.151C311.424 407.068 305.593 402.944 301.369 397.924C297.728 393.586 288.939 393.586 285.312 397.909Z" fill="#D5DBE1"/>
<path d="M388.423 397.909C386.19 400.555 383.488 402.916 380.473 405.049C383.104 406.898 385.948 408.604 389.02 410.041L392.903 395.307C391.14 395.819 389.518 396.601 388.423 397.909Z" fill="#D5DBE1"/>
<path d="M128 231.111V110.222C128 102.372 134.372 96 142.222 96H110.222C102.372 96 96 102.372 96 110.222V231.111C96 238.962 102.372 245.333 110.222 245.333H142.222C134.372 245.333 128 238.962 128 231.111Z" fill="#00B871"/>
<path d="M231.111 256H110.222C96.4978 256 85.3334 244.836 85.3334 231.111V110.222C85.3334 96.4978 96.4978 85.3333 110.222 85.3333H231.111C244.836 85.3333 256 96.4978 256 110.222V231.111C256 244.836 244.836 256 231.111 256ZM110.222 106.667C108.26 106.667 106.667 108.26 106.667 110.222V231.111C106.667 233.074 108.26 234.667 110.222 234.667H231.111C233.074 234.667 234.667 233.074 234.667 231.111V110.222C234.667 108.26 233.074 106.667 231.111 106.667H110.222Z" fill="black"/>
<path d="M188.445 156.444H152.889C147.001 156.444 142.222 151.666 142.222 145.778V96C142.222 90.112 147.001 85.3333 152.889 85.3333H188.445C194.333 85.3333 199.111 90.112 199.111 96V145.778C199.111 151.666 194.333 156.444 188.445 156.444ZM163.556 135.111H177.778V106.667H163.556V135.111Z" fill="black"/>
<path d="M188.444 199.111H216.889V220.444H188.444V199.111Z" fill="black"/>
<path d="M399.289 412.885L378.653 407.438L402.944 315.236L312.889 275.072L222.834 315.236L247.125 407.438L226.489 412.885L199.893 311.908C198.557 306.859 201.088 301.568 205.867 299.449L308.551 253.639C311.325 252.388 314.468 252.388 317.241 253.639L419.925 299.449C424.704 301.568 427.236 306.859 425.899 311.908L399.289 412.885Z" fill="black"/>
<path d="M416 426.667C395.165 426.667 375.851 418.489 364.302 404.779C353.038 418.489 333.725 426.667 312.889 426.667C292.053 426.667 272.74 418.489 261.191 404.779C249.927 418.489 230.613 426.667 209.778 426.667V405.333C224.171 405.333 237.724 399.858 245.134 391.026C252.686 382.08 269.98 382.08 277.504 391.026C284.942 399.858 298.496 405.333 312.889 405.333C327.282 405.333 340.836 399.858 348.245 391.026C355.797 382.08 373.092 382.08 380.615 391.026C388.039 399.858 401.607 405.333 415.986 405.333V426.667H416Z" fill="black"/>
<path d="M227.556 287.573H248.889V296.69H227.556V287.573Z" fill="black"/>
<path d="M323.556 263.396H302.222V248.889H287.573V227.556H312.889C318.777 227.556 323.556 232.334 323.556 238.222V263.396Z" fill="black"/>
<path d="M398.222 296.676H376.889V248.889H323.556V263.396H302.222V238.222C302.222 232.334 307.001 227.556 312.889 227.556H387.556C393.444 227.556 398.222 232.334 398.222 238.222V296.676Z" fill="black"/>
<path d="M344.889 248.889H287.573V227.556H334.222V192H288V170.667H344.889C350.777 170.667 355.556 175.445 355.556 181.333V238.222C355.556 244.11 350.777 248.889 344.889 248.889Z" fill="black"/>
<path d="M302.222 138.667H323.556V181.333H302.222V138.667Z" fill="black"/>
</svg>
