<svg width="512" height="512" viewBox="0 0 512 512" fill="none" xmlns="http://www.w3.org/2000/svg">
<path d="M15.1183 217.742C67.1005 301.255 59.5343 385.536 84.5938 425.785C109.653 466.034 185.401 536.149 370.532 420.907C555.662 305.664 512.057 175.061 484.509 130.788C355.485 -76.4871 -76.9422 69.8453 15.1183 217.742Z" fill="#EFEFEF"/>
<path d="M400.896 192C389.134 192 379.563 182.428 379.563 170.667C379.563 158.905 389.134 149.333 400.896 149.333C412.658 149.333 422.229 158.905 422.229 170.667C422.229 182.428 412.672 192 400.896 192ZM400.896 163.556C396.985 163.556 393.785 166.756 393.785 170.667C393.785 174.578 396.985 177.778 400.896 177.778C404.807 177.778 408.007 174.578 408.007 170.667C408.007 166.756 404.821 163.556 400.896 163.556Z" fill="#A4AFC1"/>
<path d="M49.7778 0H64.0001V28.4444H49.7778V0Z" fill="#A4AFC1"/>
<path d="M49.7778 81.7778H64.0001V110.222H49.7778V81.7778Z" fill="#A4AFC1"/>
<path d="M0 46.2222H28.4444V60.4445H0V46.2222Z" fill="#A4AFC1"/>
<path d="M81.7778 46.2222H110.222V60.4445H81.7778V46.2222Z" fill="#A4AFC1"/>
<path d="M238.222 238.222V296.676L312.889 263.396V245.333V238.222H238.222Z" fill="#2FDF84"/>
<path d="M344.889 238.222H312.889V245.333V263.396L387.555 296.676V238.222H344.889Z" fill="#2FDF84"/>
<path d="M280.889 181.333H344.889V238.222H280.889V181.333Z" fill="#2FDF84"/>
<path d="M253.312 397.909C256.939 393.586 265.728 393.586 269.369 397.909C273.593 402.944 279.424 407.054 286.151 410.169H339.641C346.368 407.054 352.199 402.93 356.423 397.909C360.05 393.586 368.839 393.586 372.48 397.909C376.661 402.873 382.407 406.94 389.02 410.041L415.573 309.191L312.889 263.396L210.204 309.191L236.757 410.041C243.385 406.926 249.131 402.873 253.312 397.909Z" fill="#F3F3F1"/>
<path d="M216.889 96C199.396 96 184.32 106.482 177.778 121.5C171.236 106.482 156.16 96 138.667 96C115.129 96 96 115.058 96 138.496C96 184.533 177.778 245.333 177.778 245.333C177.778 245.333 259.556 184.533 259.556 138.496C259.556 115.058 240.427 96 216.889 96Z" fill="#2FDF84"/>
<path d="M270.222 238.222H238.222V296.676L270.222 282.411V238.222Z" fill="#00B871"/>
<path d="M344.889 263.396V245.333V238.222H312.889V245.333V263.396L387.555 296.676V282.411L344.889 263.396Z" fill="#00B871"/>
<path d="M280.889 181.333H312.889V238.222H280.889V181.333Z" fill="#00B871"/>
<path d="M242.204 309.191L328.889 270.535L312.889 263.396L210.204 309.191L236.757 410.041C243.371 406.94 249.131 402.873 253.298 397.909C255.829 394.894 260.821 394.126 264.875 395.307L242.204 309.191Z" fill="#D5DBE1"/>
<path d="M285.312 397.909C283.079 400.569 280.348 402.916 277.319 405.049C280.021 406.969 282.965 408.704 286.151 410.183H318.151C311.424 407.068 305.593 402.944 301.369 397.924C297.728 393.586 288.939 393.586 285.312 397.909Z" fill="#D5DBE1"/>
<path d="M388.423 397.909C386.19 400.555 383.488 402.916 380.473 405.049C383.104 406.898 385.948 408.604 389.02 410.041L392.903 395.307C391.14 395.819 389.518 396.601 388.423 397.909Z" fill="#D5DBE1"/>
<path d="M128 138.496C128 120.718 139.022 105.515 154.61 99.1716C149.66 97.1947 144.313 96 138.667 96C115.129 96 96 115.058 96 138.496C96 184.533 177.778 245.333 177.778 245.333C177.778 245.333 184.405 240.37 193.778 232.363C169.984 212.039 128 171.534 128 138.496Z" fill="#00B871"/>
<path d="M209.778 121.5C214.201 111.332 222.592 103.339 232.946 99.1858C227.982 97.1662 222.578 96 216.889 96C208.37 96 200.448 98.5173 193.778 102.812C200.804 107.321 206.421 113.792 209.778 121.5Z" fill="#00B871"/>
<path d="M177.778 256C175.545 256 173.312 255.289 171.42 253.895C162.603 247.353 85.3334 188.459 85.3334 138.496C85.3334 109.184 109.269 85.3333 138.667 85.3333C153.785 85.3333 167.879 91.6764 177.778 102.315C187.676 91.6764 201.771 85.3333 216.889 85.3333C246.286 85.3333 270.222 109.184 270.222 138.496C270.222 188.459 192.953 247.339 184.135 253.881C182.244 255.289 180.011 256 177.778 256ZM138.667 106.667C121.031 106.667 106.667 120.946 106.667 138.496C106.667 168.96 153.244 212.324 177.778 231.851C202.297 212.309 248.889 168.889 248.889 138.496C248.889 120.946 234.524 106.667 216.889 106.667C204.132 106.667 192.612 114.162 187.563 125.767C184.178 133.547 171.392 133.547 168.007 125.767C162.944 114.162 151.424 106.667 138.667 106.667Z" fill="black"/>
<path d="M399.289 412.885L378.653 407.438L402.944 315.236L312.889 275.072L222.834 315.236L247.125 407.438L226.489 412.885L199.893 311.908C198.557 306.859 201.088 301.568 205.867 299.449L308.551 253.639C311.325 252.388 314.468 252.388 317.241 253.639L419.925 299.449C424.704 301.568 427.236 306.859 425.899 311.908L399.289 412.885Z" fill="black"/>
<path d="M416 426.667C395.165 426.667 375.851 418.489 364.302 404.779C353.038 418.489 333.725 426.667 312.889 426.667C292.053 426.667 272.74 418.489 261.191 404.779C249.927 418.489 230.613 426.667 209.778 426.667V405.333C224.171 405.333 237.724 399.858 245.134 391.026C252.686 382.08 269.98 382.08 277.504 391.026C284.942 399.858 298.496 405.333 312.889 405.333C327.282 405.333 340.836 399.858 348.245 391.026C355.797 382.08 373.092 382.08 380.615 391.026C388.039 399.858 401.607 405.333 415.986 405.333V426.667H416Z" fill="black"/>
<path d="M248.889 296.676H227.556V238.222C227.556 232.334 232.334 227.556 238.222 227.556H312.889C318.777 227.556 323.556 232.334 323.556 238.222V263.396H302.222V248.889H248.889V296.676Z" fill="black"/>
<path d="M398.222 296.676H376.889V248.889H323.556V263.396H302.222V238.222C302.222 232.334 307.001 227.556 312.889 227.556H387.556C393.444 227.556 398.222 232.334 398.222 238.222V296.676Z" fill="black"/>
<path d="M344.889 248.889H280.889C275.001 248.889 270.222 244.11 270.222 238.222V181.333C270.222 175.445 275.001 170.667 280.889 170.667H344.889C350.777 170.667 355.556 175.445 355.556 181.333V238.222C355.556 244.11 350.777 248.889 344.889 248.889ZM291.556 227.556H334.222V192H291.556V227.556Z" fill="black"/>
<path d="M302.222 138.667H323.556V181.333H302.222V138.667Z" fill="black"/>
</svg>
