<svg width="512" height="512" viewBox="0 0 512 512" fill="none" xmlns="http://www.w3.org/2000/svg">
<path d="M496.754 292.85C444.231 209.678 451.257 125.34 425.941 85.2622C400.626 45.184 324.423 -24.448 140.032 91.9893C-44.3591 208.427 0.0853338 338.745 27.9324 382.834C158.293 589.269 589.767 440.164 496.754 292.85Z" fill="#EFEFEF"/>
<path d="M175.786 63.8295L175.886 49.6073L204.131 49.805L204.032 64.0272L175.786 63.8295Z" fill="#A4AFC1"/>
<path d="M94.5637 63.2709L94.6633 49.0486L122.909 49.2464L122.809 63.4686L94.5637 63.2709Z" fill="#A4AFC1"/>
<path d="M143.588 0.131958L157.81 0.0324024L158.008 28.2635L143.786 28.3631L143.588 0.131958Z" fill="#A4AFC1"/>
<path d="M407.111 181.134C395.349 181.134 385.778 171.648 385.778 160C385.778 148.352 395.349 138.866 407.111 138.866C418.873 138.866 428.444 148.352 428.444 160C428.444 171.648 418.873 181.134 407.111 181.134ZM407.111 153.088C403.186 153.088 400 156.188 400 160C400 163.812 403.186 166.912 407.111 166.912C411.036 166.912 414.222 163.812 414.222 160C414.222 156.188 411.036 153.088 407.111 153.088Z" fill="#A4AFC1"/>
<path d="M238.222 238.222V296.676L312.889 263.396V245.333V238.222H238.222Z" fill="#2FDF84"/>
<path d="M344.889 238.222H312.889V245.333V263.396L387.556 296.676V238.222H344.889Z" fill="#2FDF84"/>
<path d="M280.889 181.333H344.889V238.222H280.889V181.333Z" fill="#2FDF84"/>
<path d="M253.312 397.909C256.939 393.586 265.728 393.586 269.369 397.909C273.593 402.944 279.424 407.054 286.151 410.169H339.641C346.368 407.054 352.199 402.93 356.423 397.909C360.05 393.586 368.839 393.586 372.48 397.909C376.661 402.873 382.407 406.941 389.02 410.041L415.573 309.191L312.889 263.396L210.204 309.191L236.757 410.041C243.385 406.926 249.131 402.873 253.312 397.909Z" fill="#F3F3F1"/>
<path d="M188.444 231.111H110.222C102.372 231.111 96 224.74 96 216.889V167.111C96 159.26 102.372 152.889 110.222 152.889H188.444C196.295 152.889 202.667 159.26 202.667 167.111V216.889C202.667 224.74 196.295 231.111 188.444 231.111Z" fill="#2FDF84"/>
<path d="M270.222 238.222H238.222V296.676L270.222 282.411V238.222Z" fill="#00B871"/>
<path d="M344.889 263.396V245.333V238.222H312.889V245.333V263.396L387.556 296.676V282.411L344.889 263.396Z" fill="#00B871"/>
<path d="M280.889 181.333H312.889V238.222H280.889V181.333Z" fill="#00B871"/>
<path d="M242.204 309.191L328.889 270.535L312.889 263.396L210.204 309.191L236.757 410.041C243.371 406.941 249.131 402.873 253.298 397.909C255.829 394.894 260.821 394.126 264.875 395.307L242.204 309.191Z" fill="#D5DBE1"/>
<path d="M285.312 397.909C283.079 400.569 280.348 402.916 277.319 405.049C280.021 406.969 282.965 408.704 286.151 410.183H318.151C311.424 407.069 305.593 402.944 301.369 397.924C297.728 393.586 288.939 393.586 285.312 397.909Z" fill="#D5DBE1"/>
<path d="M388.423 397.909C386.19 400.555 383.488 402.916 380.473 405.049C383.104 406.898 385.948 408.605 389.02 410.041L392.903 395.307C391.14 395.819 389.518 396.601 388.423 397.909Z" fill="#D5DBE1"/>
<path d="M128 216.889V167.111C128 159.26 134.372 152.889 142.222 152.889H110.222C102.372 152.889 96 159.26 96 167.111V216.889C96 224.74 102.372 231.111 110.222 231.111H142.222C134.372 231.111 128 224.74 128 216.889Z" fill="#00B871"/>
<path d="M188.444 241.778H110.222C96.4977 241.778 85.3333 230.613 85.3333 216.889V167.111C85.3333 153.387 96.4977 142.222 110.222 142.222H188.444C202.169 142.222 213.333 153.387 213.333 167.111V216.889C213.333 230.613 202.169 241.778 188.444 241.778ZM110.222 163.556C108.259 163.556 106.667 165.148 106.667 167.111V216.889C106.667 218.852 108.259 220.444 110.222 220.444H188.444C190.407 220.444 192 218.852 192 216.889V167.111C192 165.148 190.407 163.556 188.444 163.556H110.222Z" fill="black"/>
<path d="M174.222 163.556H124.444C118.556 163.556 113.778 158.777 113.778 152.889V120.889C113.778 101.276 129.735 85.3333 149.333 85.3333C168.931 85.3333 184.889 101.276 184.889 120.889V152.889C184.889 158.777 180.11 163.556 174.222 163.556ZM135.111 142.222H163.555V120.889C163.555 113.038 157.17 106.667 149.333 106.667C141.497 106.667 135.111 113.038 135.111 120.889V142.222Z" fill="black"/>
<path d="M399.289 412.885L378.667 407.438L402.958 315.25L312.889 275.072L222.82 315.25L247.111 407.438L226.489 412.885L199.893 311.908C198.556 306.859 201.088 301.568 205.852 299.449L308.537 253.639C311.296 252.388 314.468 252.388 317.227 253.639L419.911 299.449C424.675 301.568 427.207 306.859 425.87 311.908L399.289 412.885Z" fill="black"/>
<path d="M416 426.667C395.164 426.667 375.836 418.489 364.302 404.764C353.052 418.489 333.724 426.667 312.889 426.667C292.053 426.667 272.725 418.489 261.191 404.764C249.941 418.489 230.613 426.667 209.778 426.667V405.333C224.17 405.333 237.724 399.858 245.134 391.04C252.658 382.094 269.994 382.094 277.518 391.04C284.942 399.858 298.496 405.333 312.889 405.333C327.282 405.333 340.835 399.858 348.245 391.04C355.769 382.094 373.106 382.094 380.629 391.04C388.039 399.858 401.593 405.333 415.986 405.333V426.667H416Z" fill="black"/>
<path d="M248.889 296.676H227.555V238.222C227.555 232.334 232.334 227.556 238.222 227.556H312.889C318.777 227.556 323.555 232.334 323.555 238.222V263.396H302.222V248.889H248.889V296.676Z" fill="black"/>
<path d="M398.222 296.676H376.889V248.889H323.556V263.396H302.222V238.222C302.222 232.334 307.001 227.556 312.889 227.556H387.556C393.444 227.556 398.222 232.334 398.222 238.222V296.676Z" fill="black"/>
<path d="M344.889 248.889H280.889C275.001 248.889 270.222 244.11 270.222 238.222V181.333C270.222 175.445 275.001 170.667 280.889 170.667H344.889C350.777 170.667 355.556 175.445 355.556 181.333V238.222C355.556 244.11 350.777 248.889 344.889 248.889ZM291.556 227.556H334.222V192H291.556V227.556Z" fill="black"/>
<path d="M302.222 138.667H323.556V181.333H302.222V138.667Z" fill="black"/>
</svg>
