<svg width="512" height="512" viewBox="0 0 512 512" fill="none" xmlns="http://www.w3.org/2000/svg">
<path d="M389.931 55.6658C291.584 57.5004 223.076 7.80799 175.687 8.70399C128.299 9.59999 29.2552 38.6986 33.337 256.74C37.4188 474.78 171.918 504.263 224.057 503.296C468.153 498.731 564.125 52.4089 389.931 55.6658Z" fill="#EFEFEF"/>
<path d="M95.8677 58.2151L115.981 38.1019L126.038 48.1585L105.924 68.2718L95.8677 58.2151Z" fill="#A4AFC1"/>
<path d="M38.04 116.033L58.1634 95.9098L68.22 105.966L48.0967 126.09L38.04 116.033Z" fill="#A4AFC1"/>
<path d="M38.043 45.6501L48.0996 35.5935L68.2129 55.7068L58.1562 65.7634L38.043 45.6501Z" fill="#A4AFC1"/>
<path d="M453.12 277.333C441.358 277.333 431.787 267.762 431.787 256C431.787 244.238 441.358 234.667 453.12 234.667C464.882 234.667 474.453 244.238 474.453 256C474.453 267.762 464.896 277.333 453.12 277.333ZM453.12 248.889C449.195 248.889 446.009 252.089 446.009 256C446.009 259.911 449.195 263.111 453.12 263.111C457.045 263.111 460.231 259.911 460.231 256C460.231 252.089 457.045 248.889 453.12 248.889Z" fill="#A4AFC1"/>
<path d="M238.222 238.222V296.676L312.889 263.396V245.333V238.222H238.222Z" fill="#2FDF84"/>
<path d="M344.889 238.222H312.889V245.333V263.396L387.556 296.676V238.222H344.889Z" fill="#2FDF84"/>
<path d="M280.889 181.333H344.889V238.222H280.889V181.333Z" fill="#2FDF84"/>
<path d="M253.312 397.909C256.939 393.586 265.728 393.586 269.369 397.909C273.593 402.944 279.424 407.054 286.151 410.169H339.641C346.368 407.054 352.199 402.93 356.423 397.909C360.05 393.586 368.839 393.586 372.48 397.909C376.661 402.873 382.407 406.94 389.02 410.041L415.573 309.191L312.889 263.396L210.204 309.191L236.757 410.041C243.385 406.926 249.131 402.873 253.312 397.909Z" fill="#F3F3F1"/>
<path d="M177.778 259.556C222.942 259.556 259.556 222.942 259.556 177.778C259.556 132.613 222.942 96 177.778 96C132.613 96 96 132.613 96 177.778C96 222.942 132.613 259.556 177.778 259.556Z" fill="#2FDF84"/>
<path d="M270.222 238.222H238.222V296.676L270.222 282.411V238.222Z" fill="#00B871"/>
<path d="M344.889 263.396V245.333V238.222H312.889V245.333V263.396L387.556 296.676V282.411L344.889 263.396Z" fill="#00B871"/>
<path d="M280.889 181.333H312.889V238.222H280.889V181.333Z" fill="#00B871"/>
<path d="M242.204 309.191L328.889 270.535L312.889 263.396L210.204 309.191L236.757 410.041C243.371 406.94 249.131 402.873 253.298 397.909C255.829 394.894 260.821 394.126 264.875 395.307L242.204 309.191Z" fill="#D5DBE1"/>
<path d="M285.312 397.909C283.079 400.569 280.348 402.916 277.319 405.049C280.021 406.969 282.965 408.704 286.151 410.183H318.151C311.424 407.068 305.593 402.944 301.369 397.924C297.728 393.586 288.939 393.586 285.312 397.909Z" fill="#D5DBE1"/>
<path d="M388.423 397.909C386.19 400.555 383.488 402.916 380.473 405.049C383.104 406.898 385.948 408.604 389.02 410.041L392.903 395.307C391.14 395.819 389.518 396.601 388.423 397.909Z" fill="#D5DBE1"/>
<path d="M128 177.778C128 138.098 156.274 105.031 193.778 97.5929C188.601 96.5547 183.253 96 177.778 96C132.608 96 96 132.608 96 177.778C96 222.948 132.608 259.556 177.778 259.556C183.253 259.556 188.601 259.001 193.778 257.963C156.274 250.524 128 217.458 128 177.778Z" fill="#00B871"/>
<path d="M177.778 270.222C126.805 270.222 85.3333 228.75 85.3333 177.778C85.3333 126.805 126.805 85.3333 177.778 85.3333C228.75 85.3333 270.222 126.805 270.222 177.778C270.222 228.75 228.75 270.222 177.778 270.222ZM177.778 106.667C138.567 106.667 106.667 138.567 106.667 177.778C106.667 216.988 138.567 248.889 177.778 248.889C216.988 248.889 248.889 216.988 248.889 177.778C248.889 138.567 216.988 106.667 177.778 106.667Z" fill="black"/>
<path d="M188.444 202.667H167.111V199.41C167.111 186.027 174.066 173.255 186.169 164.38C189.867 161.664 192 157.483 192 152.889C192 145.038 185.614 138.667 177.778 138.667C169.941 138.667 163.556 145.038 163.556 152.889H142.222C142.222 133.276 158.18 117.333 177.778 117.333C197.376 117.333 213.333 133.276 213.333 152.889C213.333 164.181 207.9 174.905 198.784 181.589C194.93 184.405 188.444 190.492 188.444 199.41V202.667Z" fill="black"/>
<path d="M399.289 412.885L378.667 407.438L402.958 315.25L312.889 275.072L222.82 315.25L247.111 407.438L226.489 412.885L199.893 311.908C198.556 306.859 201.088 301.568 205.852 299.449L308.537 253.639C311.296 252.388 314.468 252.388 317.227 253.639L419.911 299.449C424.675 301.568 427.207 306.859 425.87 311.908L399.289 412.885Z" fill="black"/>
<path d="M416 426.667C395.164 426.667 375.836 418.489 364.302 404.764C353.052 418.489 333.724 426.667 312.889 426.667C292.053 426.667 272.725 418.489 261.191 404.764C249.941 418.489 230.613 426.667 209.778 426.667V405.333C224.17 405.333 237.724 399.858 245.134 391.04C252.658 382.094 269.994 382.094 277.518 391.04C284.942 399.858 298.496 405.333 312.889 405.333C327.282 405.333 340.835 399.858 348.245 391.04C355.769 382.094 373.106 382.094 380.629 391.04C388.039 399.858 401.593 405.333 415.986 405.333V426.667H416Z" fill="black"/>
<path d="M227.555 286.436H248.889V296.69H227.555V286.436Z" fill="black"/>
<path d="M323.556 263.396H302.222V248.889H286.436V227.556H312.889C318.777 227.556 323.556 232.334 323.556 238.222V263.396Z" fill="black"/>
<path d="M398.222 296.676H376.889V248.889H323.556V263.396H302.222V238.222C302.222 232.334 307.001 227.556 312.889 227.556H387.556C393.444 227.556 398.222 232.334 398.222 238.222V296.676Z" fill="black"/>
<path d="M344.889 248.889H286.436V227.556H334.222V192H302.08V170.667H344.889C350.777 170.667 355.556 175.445 355.556 181.333V238.222C355.556 244.11 350.777 248.889 344.889 248.889Z" fill="black"/>
<path d="M302.222 138.667H323.556V181.333H302.222V138.667Z" fill="black"/>
<path d="M177.778 238.222C174.933 238.222 172.231 237.084 170.24 235.093C169.244 234.098 168.391 232.96 167.964 231.68C167.396 230.4 167.111 228.978 167.111 227.556C167.111 224.711 168.249 221.995 170.24 220.018C174.222 216.036 181.333 216.036 185.316 220.018C187.307 222.009 188.444 224.711 188.444 227.556C188.444 230.4 187.307 233.102 185.316 235.093C184.32 236.075 183.182 236.786 181.902 237.355C180.622 237.924 179.2 238.222 177.778 238.222Z" fill="black"/>
</svg>
