<svg width="512" height="512" viewBox="0 0 512 512" fill="none" xmlns="http://www.w3.org/2000/svg">
<g clip-path="url(#clip0_5_5782)">
<path d="M115.399 79.1324C89.7281 174.094 22.8979 226.005 10.5246 271.772C-1.84876 317.54 -1.52166 420.75 208.996 477.668C419.513 534.585 485.362 413.653 498.958 363.307C562.688 127.616 160.868 -89.0596 115.399 79.1324Z" fill="#EFEFEF"/>
<path d="M197.333 49.7778H225.778V64H197.333V49.7778Z" fill="#A4AFC1"/>
<path d="M115.556 49.7778H144V64H115.556V49.7778Z" fill="#A4AFC1"/>
<path d="M165.333 0H179.556V28.4444H165.333V0Z" fill="#A4AFC1"/>
<path d="M430.222 206.222C418.461 206.222 408.889 196.651 408.889 184.889C408.889 173.127 418.461 163.556 430.222 163.556C441.984 163.556 451.556 173.127 451.556 184.889C451.556 196.651 441.984 206.222 430.222 206.222ZM430.222 177.778C426.297 177.778 423.111 180.978 423.111 184.889C423.111 188.8 426.297 192 430.222 192C434.148 192 437.334 188.8 437.334 184.889C437.334 180.978 434.148 177.778 430.222 177.778Z" fill="#A4AFC1"/>
<path d="M238.222 238.222V296.676L312.889 263.396V245.333V238.222H238.222Z" fill="#2FDF84"/>
<path d="M344.889 238.222H312.889V245.333V263.396L387.555 296.676V238.222H344.889Z" fill="#2FDF84"/>
<path d="M280.889 181.333H344.889V238.222H280.889V181.333Z" fill="#2FDF84"/>
<path d="M253.312 397.909C256.939 393.586 265.728 393.586 269.369 397.909C273.593 402.944 279.424 407.054 286.151 410.169H339.641C346.368 407.054 352.199 402.93 356.423 397.909C360.05 393.586 368.839 393.586 372.48 397.909C376.661 402.873 382.407 406.94 389.021 410.041L415.573 309.191L312.889 263.396L210.205 309.191L236.757 410.041C243.385 406.926 249.131 402.873 253.312 397.909Z" fill="#F3F3F1"/>
<path d="M170.667 245.333C211.904 245.333 245.333 211.904 245.333 170.667C245.333 129.429 211.904 96 170.667 96C129.429 96 96 129.429 96 170.667C96 211.904 129.429 245.333 170.667 245.333Z" fill="#2FDF84"/>
<path d="M270.222 238.222H238.222V296.676L270.222 282.411V238.222Z" fill="#00B871"/>
<path d="M344.889 263.396V245.333V238.222H312.889V245.333V263.396L387.555 296.676V282.411L344.889 263.396Z" fill="#00B871"/>
<path d="M280.889 181.333H312.889V238.222H280.889V181.333Z" fill="#00B871"/>
<path d="M242.205 309.191L328.889 270.535L312.889 263.396L210.205 309.191L236.757 410.041C243.371 406.94 249.131 402.873 253.298 397.909C255.829 394.894 260.821 394.126 264.875 395.307L242.205 309.191Z" fill="#D5DBE1"/>
<path d="M285.312 397.909C283.079 400.569 280.349 402.916 277.319 405.049C280.022 406.969 282.966 408.704 286.151 410.183H318.151C311.424 407.068 305.593 402.944 301.369 397.924C297.728 393.586 288.939 393.586 285.312 397.909Z" fill="#D5DBE1"/>
<path d="M388.423 397.909C386.19 400.555 383.488 402.916 380.473 405.049C383.104 406.898 385.949 408.604 389.021 410.041L392.903 395.307C391.14 395.819 389.518 396.601 388.423 397.909Z" fill="#D5DBE1"/>
<path d="M128 170.667C128 134.94 153.131 105.145 186.667 97.8204C181.504 96.6827 176.171 96 170.667 96C129.436 96 96 129.436 96 170.667C96 211.897 129.436 245.333 170.667 245.333C176.171 245.333 181.504 244.651 186.667 243.513C153.131 236.188 128 206.393 128 170.667Z" fill="#00B871"/>
<path d="M170.667 256C123.605 256 85.3335 217.728 85.3335 170.667C85.3335 123.605 123.605 85.3333 170.667 85.3333C198.67 85.3333 223.915 98.6738 239.901 121.956L222.322 134.044C210.19 116.395 191.844 106.667 170.667 106.667C135.381 106.667 106.667 135.381 106.667 170.667C106.667 205.952 135.381 234.667 170.667 234.667C205.952 234.667 234.667 205.952 234.667 170.667H256C256 217.728 217.728 256 170.667 256Z" fill="black"/>
<path d="M231.111 138.667H199.879V117.333H220.445V96H241.778V128C241.778 133.888 236.999 138.667 231.111 138.667Z" fill="black"/>
<path d="M399.289 412.885L378.667 407.438L402.958 315.25L312.889 275.072L222.82 315.25L247.111 407.438L226.489 412.885L199.894 311.908C198.557 306.859 201.088 301.568 205.853 299.449L308.537 253.639C311.296 252.388 314.468 252.388 317.227 253.639L419.911 299.449C424.676 301.568 427.207 306.859 425.87 311.908L399.289 412.885Z" fill="black"/>
<path d="M416 426.667C395.165 426.667 375.837 418.489 364.302 404.764C353.052 418.489 333.725 426.667 312.889 426.667C292.053 426.667 272.725 418.489 261.191 404.764C249.941 418.489 230.613 426.667 209.778 426.667V405.333C224.171 405.333 237.724 399.858 245.134 391.04C252.658 382.094 269.995 382.094 277.518 391.04C284.942 399.858 298.496 405.333 312.889 405.333C327.282 405.333 340.836 399.858 348.245 391.04C355.769 382.094 373.106 382.094 380.629 391.04C388.039 399.858 401.593 405.333 415.986 405.333V426.667H416Z" fill="black"/>
<path d="M227.556 286.436H248.889V296.69H227.556V286.436Z" fill="black"/>
<path d="M323.556 263.396H302.222V248.889H286.436V227.556H312.889C318.777 227.556 323.556 232.334 323.556 238.222V263.396Z" fill="black"/>
<path d="M398.222 296.676H376.889V248.889H323.556V263.396H302.222V238.222C302.222 232.334 307.001 227.556 312.889 227.556H387.556C393.444 227.556 398.222 232.334 398.222 238.222V296.676Z" fill="black"/>
<path d="M344.889 248.889H286.436V227.556H334.222V192H302.08V170.667H344.889C350.777 170.667 355.556 175.445 355.556 181.333V238.222C355.556 244.11 350.777 248.889 344.889 248.889Z" fill="black"/>
<path d="M302.222 138.667H323.556V181.333H302.222V138.667Z" fill="black"/>
</g>
<defs>
<clipPath id="clip0_5_5782">
<rect width="512" height="512" fill="white"/>
</clipPath>
</defs>
</svg>
