<svg width="512" height="512" viewBox="0 0 512 512" fill="none" xmlns="http://www.w3.org/2000/svg">
<path d="M15.1182 217.742C67.1004 301.255 59.5342 385.536 84.5937 425.785C109.653 466.034 185.401 536.149 370.531 420.907C555.662 305.664 512.057 175.061 484.508 130.788C355.484 -76.4871 -76.9423 69.8453 15.1182 217.742Z" fill="#EFEFEF"/>
<path d="M91.6885 60.936L111.802 40.8227L121.858 50.8793L101.745 70.9926L91.6885 60.936Z" fill="#A4AFC1"/>
<path d="M33.8511 118.744L53.9643 98.6306L64.021 108.687L43.9077 128.801L33.8511 118.744Z" fill="#A4AFC1"/>
<path d="M33.8638 48.371L43.9204 38.3143L64.0337 58.4276L53.977 68.4842L33.8638 48.371Z" fill="#A4AFC1"/>
<path d="M460.757 266.667C448.995 266.667 439.424 257.095 439.424 245.333C439.424 233.572 448.995 224 460.757 224C472.519 224 482.09 233.572 482.09 245.333C482.09 257.095 472.533 266.667 460.757 266.667ZM460.757 238.222C456.846 238.222 453.646 241.422 453.646 245.333C453.646 249.244 456.846 252.444 460.757 252.444C464.668 252.444 467.868 249.244 467.868 245.333C467.868 241.422 464.682 238.222 460.757 238.222Z" fill="#A4AFC1"/>
<path d="M238.222 238.222V296.676L312.889 263.396V245.333V238.222H238.222Z" fill="#2FDF84"/>
<path d="M344.889 238.222H312.889V245.333V263.396L387.555 296.676V238.222H344.889Z" fill="#2FDF84"/>
<path d="M280.889 181.333H344.889V238.222H280.889V181.333Z" fill="#2FDF84"/>
<path d="M253.312 397.909C256.939 393.586 265.728 393.586 269.369 397.909C273.593 402.944 279.424 407.054 286.151 410.169H339.641C346.368 407.054 352.199 402.93 356.423 397.909C360.05 393.586 368.839 393.586 372.48 397.909C376.661 402.873 382.407 406.94 389.021 410.041L415.573 309.191L312.889 263.396L210.205 309.191L236.757 410.041C243.385 406.926 249.131 402.873 253.312 397.909Z" fill="#F3F3F1"/>
<path d="M156.444 216.889C189.827 216.889 216.889 189.827 216.889 156.444C216.889 123.062 189.827 96 156.444 96C123.062 96 96 123.062 96 156.444C96 189.827 123.062 216.889 156.444 216.889Z" fill="#2FDF84"/>
<path d="M270.222 238.222H238.222V296.676L270.222 282.411V238.222Z" fill="#00B871"/>
<path d="M344.889 263.396V245.333V238.222H312.889V245.333V263.396L387.555 296.676V282.411L344.889 263.396Z" fill="#00B871"/>
<path d="M280.889 181.333H312.889V238.222H280.889V181.333Z" fill="#00B871"/>
<path d="M242.205 309.191L328.889 270.535L312.889 263.396L210.205 309.191L236.757 410.041C243.371 406.94 249.131 402.873 253.298 397.909C255.829 394.894 260.821 394.126 264.875 395.307L242.205 309.191Z" fill="#D5DBE1"/>
<path d="M285.312 397.909C283.079 400.569 280.349 402.916 277.319 405.049C280.022 406.969 282.966 408.704 286.151 410.183H318.151C311.424 407.068 305.593 402.944 301.369 397.924C297.728 393.586 288.939 393.586 285.312 397.909Z" fill="#D5DBE1"/>
<path d="M388.423 397.909C386.19 400.555 383.488 402.916 380.473 405.049C383.104 406.898 385.949 408.604 389.021 410.041L392.903 395.307C391.14 395.819 389.518 396.601 388.423 397.909Z" fill="#D5DBE1"/>
<path d="M128 156.444C128 128.64 146.887 105.458 172.444 98.4178C167.31 96.9956 162.02 96 156.444 96C123.065 96 96 123.065 96 156.444C96 189.824 123.065 216.889 156.444 216.889C162.02 216.889 167.31 215.893 172.444 214.471C146.887 207.431 128 184.249 128 156.444Z" fill="#00B871"/>
<path d="M156.445 227.556C117.234 227.556 85.3335 195.655 85.3335 156.444C85.3335 117.234 117.234 85.3333 156.445 85.3333C195.655 85.3333 227.556 117.234 227.556 156.444C227.556 195.655 195.655 227.556 156.445 227.556ZM156.445 106.667C128.996 106.667 106.667 128.996 106.667 156.444C106.667 183.893 128.996 206.222 156.445 206.222C183.894 206.222 206.222 183.893 206.222 156.444C206.222 128.996 183.894 106.667 156.445 106.667Z" fill="black"/>
<path d="M191.528 206.657L206.613 191.572L252.834 237.792L237.749 252.877L191.528 206.657Z" fill="black"/>
<path d="M399.289 412.885L378.653 407.438L402.944 315.236L312.889 275.072L222.834 315.236L247.125 407.438L226.489 412.885L199.893 311.908C198.557 306.859 201.088 301.568 205.867 299.449L308.551 253.639C311.325 252.388 314.468 252.388 317.241 253.639L419.925 299.449C424.704 301.568 427.236 306.859 425.899 311.908L399.289 412.885Z" fill="black"/>
<path d="M416 426.667C395.165 426.667 375.851 418.489 364.302 404.779C353.038 418.489 333.725 426.667 312.889 426.667C292.053 426.667 272.74 418.489 261.191 404.779C249.927 418.489 230.613 426.667 209.778 426.667V405.333C224.171 405.333 237.724 399.858 245.134 391.026C252.686 382.08 269.98 382.08 277.504 391.026C284.942 399.858 298.496 405.333 312.889 405.333C327.282 405.333 340.836 399.858 348.245 391.026C355.797 382.08 373.092 382.08 380.615 391.026C388.039 399.858 401.607 405.333 415.986 405.333V426.667H416Z" fill="black"/>
<path d="M227.556 287.431H248.889V296.676H227.556V287.431Z" fill="black"/>
<path d="M323.556 263.396H302.222V248.889H294.542V227.556H312.889C318.777 227.556 323.556 232.334 323.556 238.222V263.396Z" fill="black"/>
<path d="M398.222 296.676H376.889V248.889H323.556V263.396H302.222V238.222C302.222 232.334 307.001 227.556 312.889 227.556H387.556C393.444 227.556 398.222 232.334 398.222 238.222V296.676Z" fill="black"/>
<path d="M344.889 248.889H294.542V227.556H334.222V192H291.556V209.778H270.222V181.333C270.222 175.445 275.001 170.667 280.889 170.667H344.889C350.777 170.667 355.556 175.445 355.556 181.333V238.222C355.556 244.11 350.777 248.889 344.889 248.889Z" fill="black"/>
<path d="M302.222 138.667H323.556V181.333H302.222V138.667Z" fill="black"/>
</svg>
