<svg width="512" height="512" viewBox="0 0 512 512" fill="none" xmlns="http://www.w3.org/2000/svg">
<path d="M48.953 339.669C135.154 387.072 169.799 464.27 211.328 487.111C252.871 509.952 353.237 534.03 458.311 342.94C563.385 151.851 461.454 59.2782 415.758 34.1475C201.828 -83.4702 -103.708 255.73 48.953 339.669Z" fill="#EFEFEF"/>
<path d="M275.556 109.724C263.794 109.724 254.222 100.153 254.222 88.3911C254.222 76.6294 263.794 67.0578 275.556 67.0578C287.317 67.0578 296.889 76.6294 296.889 88.3911C296.889 100.153 287.317 109.724 275.556 109.724ZM275.556 81.28C271.63 81.28 268.444 84.48 268.444 88.3911C268.444 92.3022 271.63 95.5022 275.556 95.5022C279.481 95.5022 282.667 92.3022 282.667 88.3911C282.667 84.48 279.481 81.28 275.556 81.28Z" fill="#A4AFC1"/>
<path d="M80.8726 302.761L90.9292 292.704L111.042 312.817L100.986 322.874L80.8726 302.761Z" fill="#A4AFC1"/>
<path d="M138.695 360.578L148.751 350.521L168.865 370.635L158.808 380.691L138.695 360.578Z" fill="#A4AFC1"/>
<path d="M78.3525 370.63L98.4658 350.517L108.522 360.574L88.4092 380.687L78.3525 370.63Z" fill="#A4AFC1"/>
<path d="M136.176 312.823L156.289 292.709L166.346 302.766L146.232 322.879L136.176 312.823Z" fill="#A4AFC1"/>
<path d="M238.222 238.222V296.676L312.889 263.396V245.333V238.222H238.222Z" fill="#2FDF84"/>
<path d="M344.889 238.222H312.889V245.333V263.396L387.555 296.676V238.222H344.889Z" fill="#2FDF84"/>
<path d="M280.889 181.333H344.889V238.222H280.889V181.333Z" fill="#2FDF84"/>
<path d="M253.312 397.909C256.939 393.586 265.728 393.586 269.369 397.909C273.593 402.944 279.424 407.054 286.151 410.169H339.641C346.368 407.054 352.199 402.93 356.423 397.909C360.05 393.586 368.839 393.586 372.48 397.909C376.661 402.873 382.407 406.94 389.021 410.041L415.573 309.191L312.889 263.396L210.205 309.191L236.757 410.041C243.385 406.926 249.131 402.873 253.312 397.909Z" fill="#F3F3F1"/>
<path d="M156.444 245.333C156.444 245.333 216.889 218.667 216.889 165.333C216.889 144 216.889 117.333 216.889 117.333L156.444 96L96 117.333V165.333C96 218.667 156.444 245.333 156.444 245.333Z" fill="#2FDF84"/>
<path d="M270.222 238.222H238.222V296.676L270.222 282.411V238.222Z" fill="#00B871"/>
<path d="M344.889 263.396V245.333V238.222H312.889V245.333V263.396L387.555 296.676V282.411L344.889 263.396Z" fill="#00B871"/>
<path d="M280.889 181.333H312.889V238.222H280.889V181.333Z" fill="#00B871"/>
<path d="M242.205 309.191L328.889 270.535L312.889 263.396L210.205 309.191L236.757 410.041C243.371 406.94 249.131 402.873 253.298 397.909C255.829 394.894 260.821 394.126 264.875 395.307L242.205 309.191Z" fill="#D5DBE1"/>
<path d="M285.312 397.909C283.079 400.569 280.349 402.916 277.319 405.049C280.022 406.969 282.966 408.704 286.151 410.183H318.151C311.424 407.068 305.593 402.944 301.369 397.924C297.728 393.586 288.939 393.586 285.312 397.909Z" fill="#D5DBE1"/>
<path d="M388.423 397.909C386.19 400.555 383.488 402.916 380.473 405.049C383.104 406.898 385.949 408.604 389.021 410.041L392.903 395.307C391.14 395.819 389.518 396.601 388.423 397.909Z" fill="#D5DBE1"/>
<path d="M128 165.333C128 133.333 128 117.333 128 117.333L172.444 101.646L156.444 96L96 117.333V165.333C96 218.667 156.444 245.333 156.444 245.333C156.444 245.333 163.356 242.233 172.444 236.188C154.539 224.27 128 200.704 128 165.333Z" fill="#00B871"/>
<path d="M156.445 256C154.98 256 153.501 255.701 152.135 255.104C149.405 253.895 85.3335 224.924 85.3335 165.333V117.333C85.3335 112.811 88.1922 108.772 92.4446 107.278L152.889 85.9449C155.179 85.1342 157.696 85.1342 159.986 85.9449L220.43 107.278C224.697 108.772 227.541 112.811 227.541 117.333V165.333C227.541 224.924 163.47 253.895 160.74 255.104C159.389 255.701 157.91 256 156.445 256ZM106.667 124.871V165.333C106.667 203.207 143.616 226.46 156.445 233.387C169.273 226.46 206.222 203.207 206.222 165.333V124.871L156.445 107.307L106.667 124.871Z" fill="black"/>
<path d="M152.249 199.111C152.05 199.111 151.851 199.111 151.652 199.097C148.651 198.926 145.863 197.518 143.972 195.186L123.278 169.785L139.819 156.316L153.117 172.629L180.964 145.28L195.911 160.498L159.716 196.053C157.71 198.016 155.022 199.111 152.249 199.111Z" fill="black"/>
<path d="M399.289 412.885L378.667 407.438L402.958 315.25L312.889 275.072L222.82 315.25L247.111 407.438L226.489 412.885L199.894 311.908C198.557 306.859 201.088 301.568 205.853 299.449L308.537 253.639C311.296 252.388 314.468 252.388 317.227 253.639L419.911 299.449C424.676 301.568 427.207 306.859 425.87 311.908L399.289 412.885Z" fill="black"/>
<path d="M416 426.667C395.165 426.667 375.837 418.489 364.302 404.764C353.052 418.489 333.725 426.667 312.889 426.667C292.053 426.667 272.725 418.489 261.191 404.764C249.941 418.489 230.613 426.667 209.778 426.667V405.333C224.171 405.333 237.724 399.858 245.134 391.04C252.658 382.094 269.995 382.094 277.518 391.04C284.942 399.858 298.496 405.333 312.889 405.333C327.282 405.333 340.836 399.858 348.245 391.04C355.769 382.094 373.106 382.094 380.629 391.04C388.039 399.858 401.593 405.333 415.986 405.333V426.667H416Z" fill="black"/>
<path d="M248.889 296.676H227.556V238.222C227.556 232.334 232.334 227.556 238.222 227.556H312.889C318.777 227.556 323.556 232.334 323.556 238.222V263.396H302.222V248.889H248.889V296.676Z" fill="black"/>
<path d="M398.222 296.676H376.889V248.889H323.556V263.396H302.222V238.222C302.222 232.334 307.001 227.556 312.889 227.556H387.556C393.444 227.556 398.222 232.334 398.222 238.222V296.676Z" fill="black"/>
<path d="M344.889 248.889H280.889C275.001 248.889 270.222 244.11 270.222 238.222V181.333C270.222 175.445 275.001 170.667 280.889 170.667H344.889C350.777 170.667 355.556 175.445 355.556 181.333V238.222C355.556 244.11 350.777 248.889 344.889 248.889ZM291.556 227.556H334.222V192H291.556V227.556Z" fill="black"/>
<path d="M302.222 138.667H323.556V181.333H302.222V138.667Z" fill="black"/>
</svg>
