<svg width="512" height="512" viewBox="0 0 512 512" fill="none" xmlns="http://www.w3.org/2000/svg">
<path d="M59.2639 392.86C59.2639 294.485 8.30566 226.93 8.30566 179.527C8.30566 132.124 35.5554 32.5688 253.625 32.5688C471.694 32.5688 503.694 166.5 503.694 218.638C503.708 462.791 59.2639 567.083 59.2639 392.86Z" fill="#EFEFEF"/>
<path d="M70.8513 101.816L90.9646 81.7029L101.021 91.7595L80.9079 111.873L70.8513 101.816Z" fill="#A4AFC1"/>
<path d="M13.0137 159.624L33.1269 139.511L43.1836 149.567L23.0703 169.681L13.0137 159.624Z" fill="#A4AFC1"/>
<path d="M13.0125 89.2795L23.0691 79.2229L43.1823 99.3362L33.1257 109.393L13.0125 89.2795Z" fill="#A4AFC1"/>
<path d="M415.573 197.333C403.812 197.333 394.24 187.762 394.24 176C394.24 164.238 403.812 154.667 415.573 154.667C427.335 154.667 436.907 164.238 436.907 176C436.907 187.762 427.335 197.333 415.573 197.333ZM415.573 168.889C411.662 168.889 408.462 172.089 408.462 176C408.462 179.911 411.662 183.111 415.573 183.111C419.484 183.111 422.684 179.911 422.684 176C422.684 172.089 419.484 168.889 415.573 168.889Z" fill="#A4AFC1"/>
<path d="M238.222 238.222V296.676L312.889 263.396V245.333V238.222H238.222Z" fill="#2FDF84"/>
<path d="M344.889 238.222H312.889V245.333V263.396L387.556 296.676V238.222H344.889Z" fill="#2FDF84"/>
<path d="M280.889 181.333H344.889V238.222H280.889V181.333Z" fill="#2FDF84"/>
<path d="M253.312 397.909C256.939 393.586 265.728 393.586 269.369 397.909C273.593 402.944 279.424 407.054 286.151 410.169H339.641C346.368 407.054 352.199 402.93 356.423 397.909C360.05 393.586 368.839 393.586 372.48 397.909C376.661 402.873 382.407 406.94 389.02 410.041L415.573 309.191L312.889 263.396L210.204 309.191L236.757 410.041C243.385 406.926 249.131 402.873 253.312 397.909Z" fill="#F3F3F1"/>
<path d="M177.778 225.152L127.232 259.556L142.734 198.386L96 158.478L156.117 155.065L177.778 96L199.438 155.065L259.556 158.478L212.821 198.386L228.324 259.556L177.778 225.152Z" fill="#2FDF84"/>
<path d="M270.222 238.222H238.222V296.676L270.222 282.411V238.222Z" fill="#00B871"/>
<path d="M344.889 263.396V245.333V238.222H312.889V245.333V263.396L387.556 296.676V282.411L344.889 263.396Z" fill="#00B871"/>
<path d="M280.889 181.333H312.889V238.222H280.889V181.333Z" fill="#00B871"/>
<path d="M242.204 309.191L328.889 270.535L312.889 263.396L210.204 309.191L236.757 410.041C243.371 406.94 249.131 402.873 253.298 397.909C255.829 394.894 260.821 394.126 264.875 395.307L242.204 309.191Z" fill="#D5DBE1"/>
<path d="M285.312 397.909C283.079 400.569 280.348 402.916 277.319 405.049C280.021 406.969 282.965 408.704 286.151 410.183H318.151C311.424 407.068 305.593 402.944 301.369 397.924C297.728 393.586 288.939 393.586 285.312 397.909Z" fill="#D5DBE1"/>
<path d="M388.423 397.909C386.19 400.555 383.488 402.916 380.473 405.049C383.104 406.898 385.948 408.604 389.02 410.041L392.903 395.307C391.14 395.819 389.518 396.601 388.423 397.909Z" fill="#D5DBE1"/>
<path d="M165.902 233.244L174.734 198.386L128 158.478L188.117 155.065L193.778 139.634L177.778 96L156.117 155.065L96 158.478L142.734 198.386L127.232 259.556L165.902 233.244Z" fill="#00B871"/>
<path d="M209.778 225.152L193.778 236.046L228.324 259.556L221.653 233.244L209.778 225.152Z" fill="#00B871"/>
<path d="M228.323 270.222C226.233 270.222 224.128 269.611 222.322 268.373L177.778 238.052L133.234 268.373C129.579 270.876 124.743 270.848 121.116 268.288C117.475 265.742 115.797 261.234 116.892 256.924L130.759 202.183L89.0595 166.571C85.7599 163.74 84.4941 159.175 85.8737 155.051C87.2675 150.912 91.0221 148.053 95.3884 147.797L148.494 144.796L167.751 92.3165C169.301 88.1209 173.312 85.3334 177.778 85.3334C182.243 85.3334 186.254 88.1209 187.79 92.3307L207.047 144.811L260.153 147.812C264.519 148.068 268.274 150.926 269.667 155.065C271.061 159.189 269.795 163.74 266.482 166.585L224.782 202.197L238.649 256.939C239.744 261.248 238.066 265.756 234.425 268.302C232.59 269.582 230.457 270.222 228.323 270.222ZM177.778 214.485C179.868 214.485 181.973 215.097 183.779 216.334L211.072 234.923L202.482 201.017C201.486 197.077 202.795 192.924 205.881 190.279L232.405 167.623L198.841 165.717C194.588 165.461 190.876 162.731 189.426 158.734L177.778 126.976L166.13 158.734C164.665 162.731 160.967 165.476 156.715 165.717L123.15 167.623L149.675 190.279C152.761 192.924 154.083 197.077 153.074 201.017L144.483 234.923L171.776 216.334C173.582 215.097 175.687 214.485 177.778 214.485Z" fill="black"/>
<path d="M399.289 412.885L378.652 407.438L402.944 315.236L312.889 275.072L222.834 315.236L247.125 407.438L226.489 412.885L199.893 311.908C198.556 306.859 201.088 301.568 205.867 299.449L308.551 253.639C311.324 252.388 314.467 252.388 317.241 253.639L419.925 299.449C424.704 301.568 427.235 306.859 425.899 311.908L399.289 412.885Z" fill="black"/>
<path d="M416 426.667C395.164 426.667 375.85 418.489 364.302 404.779C353.038 418.489 333.724 426.667 312.889 426.667C292.053 426.667 272.739 418.489 261.191 404.779C249.927 418.489 230.613 426.667 209.778 426.667V405.333C224.17 405.333 237.724 399.858 245.134 391.026C252.686 382.08 269.98 382.08 277.504 391.026C284.942 399.858 298.496 405.333 312.889 405.333C327.282 405.333 340.835 399.858 348.245 391.026C355.797 382.08 373.091 382.08 380.615 391.026C388.039 399.858 401.607 405.333 415.986 405.333V426.667H416Z" fill="black"/>
<path d="M323.555 263.396H302.222V248.889H266.951V227.556H312.889C318.777 227.556 323.555 232.334 323.555 238.222V263.396Z" fill="black"/>
<path d="M398.222 296.676H376.889V248.889H323.556V263.396H302.222V238.222C302.222 232.334 307.001 227.556 312.889 227.556H387.556C393.444 227.556 398.222 232.334 398.222 238.222V296.676Z" fill="black"/>
<path d="M344.889 248.889H280.889C275.001 248.889 270.222 244.11 270.222 238.222V181.333C270.222 175.445 275.001 170.667 280.889 170.667H344.889C350.777 170.667 355.556 175.445 355.556 181.333V238.222C355.556 244.11 350.777 248.889 344.889 248.889ZM291.556 227.556H334.222V192H291.556V227.556Z" fill="black"/>
<path d="M302.222 138.667H323.556V181.333H302.222V138.667Z" fill="black"/>
</svg>
