<svg width="512" height="512" viewBox="0 0 512 512" fill="none" xmlns="http://www.w3.org/2000/svg">
<path d="M496.412 289.493C442.624 207.132 448.341 122.709 422.414 83.0152C396.487 43.3209 319.218 -25.1164 136.647 94.1369C-45.9235 213.39 0.512009 343.026 29.0418 386.674C162.56 591.076 591.687 435.356 496.412 289.493Z" fill="#EFEFEF"/>
<path d="M142.222 332.231C130.46 332.231 120.889 322.66 120.889 310.898C120.889 299.136 130.46 289.564 142.222 289.564C153.984 289.564 163.556 299.136 163.556 310.898C163.556 322.66 153.984 332.231 142.222 332.231ZM142.222 303.787C138.297 303.787 135.111 306.987 135.111 310.898C135.111 314.809 138.297 318.009 142.222 318.009C146.148 318.009 149.333 314.809 149.333 310.898C149.333 306.987 146.148 303.787 142.222 303.787Z" fill="#A4AFC1"/>
<path d="M226.777 22.8975L236.834 12.8408L256.947 32.9541L246.891 43.0107L226.777 22.8975Z" fill="#A4AFC1"/>
<path d="M284.585 80.715L294.642 70.6583L314.755 90.7716L304.699 100.828L284.585 80.715Z" fill="#A4AFC1"/>
<path d="M224.258 90.7672L244.371 70.654L254.427 80.7106L234.314 100.824L224.258 90.7672Z" fill="#A4AFC1"/>
<path d="M282.081 32.9594L302.194 12.8461L312.251 22.9027L292.138 43.016L282.081 32.9594Z" fill="#A4AFC1"/>
<path d="M238.222 238.222V296.676L312.889 263.396V245.333V238.222H238.222Z" fill="#2FDF84"/>
<path d="M344.889 238.222H312.889V245.333V263.396L387.556 296.676V238.222H344.889Z" fill="#2FDF84"/>
<path d="M280.889 181.333H344.889V238.222H280.889V181.333Z" fill="#2FDF84"/>
<path d="M253.312 397.909C256.939 393.586 265.728 393.586 269.369 397.909C273.593 402.944 279.424 407.054 286.151 410.169H339.641C346.368 407.054 352.199 402.93 356.423 397.909C360.05 393.586 368.839 393.586 372.48 397.909C376.661 402.873 382.407 406.94 389.02 410.041L415.573 309.191L312.889 263.396L210.204 309.191L236.757 410.041C243.385 406.926 249.131 402.873 253.312 397.909Z" fill="#F3F3F1"/>
<path d="M116.238 245.333H110.222C102.372 245.333 96 238.962 96 231.111V155.676C96 147.826 102.372 141.454 110.222 141.454H116.238C124.089 141.454 130.46 147.826 130.46 155.676V231.111C130.46 238.933 124.06 245.333 116.238 245.333Z" fill="#2FDF84"/>
<path d="M219.349 147.94H180.395C180.395 147.94 186.894 138.197 186.894 121.97C186.894 102.485 177.152 96 170.667 96C164.181 96 160.924 99.2427 160.924 115.484C160.924 138.212 130.46 154.439 130.46 154.439V229.106C130.46 229.106 151.182 245.333 199.879 245.333H211.783C224.484 245.333 235.307 236.16 237.397 223.63L244.978 178.176C247.609 162.347 235.406 147.94 219.349 147.94Z" fill="#F3F3F1"/>
<path d="M270.222 238.222H238.222V296.676L270.222 282.411V238.222Z" fill="#00B871"/>
<path d="M344.889 263.396V245.333V238.222H312.889V245.333V263.396L387.556 296.676V282.411L344.889 263.396Z" fill="#00B871"/>
<path d="M280.889 181.333H312.889V238.222H280.889V181.333Z" fill="#00B871"/>
<path d="M242.204 309.191L328.889 270.535L312.889 263.396L210.204 309.191L236.757 410.041C243.371 406.94 249.131 402.873 253.298 397.909C255.829 394.894 260.821 394.126 264.875 395.307L242.204 309.191Z" fill="#D5DBE1"/>
<path d="M285.312 397.909C283.079 400.569 280.348 402.916 277.319 405.049C280.021 406.969 282.965 408.704 286.151 410.183H318.151C311.424 407.068 305.593 402.944 301.369 397.924C297.728 393.586 288.939 393.586 285.312 397.909Z" fill="#D5DBE1"/>
<path d="M388.423 397.909C386.19 400.555 383.488 402.916 380.473 405.049C383.104 406.898 385.948 408.604 389.02 410.041L392.903 395.307C391.14 395.819 389.518 396.601 388.423 397.909Z" fill="#D5DBE1"/>
<path d="M162.46 229.106V154.439C162.46 154.439 176.384 146.844 185.401 134.912C186.254 131.243 186.894 126.962 186.894 121.984C186.894 102.499 177.152 96.0142 170.667 96.0142C164.181 96.0142 160.924 99.2568 160.924 115.499C160.924 138.226 130.46 154.453 130.46 154.453V229.12C130.46 229.12 151.182 245.347 199.879 245.347H211.783C213.618 245.347 215.396 245.106 217.131 244.736C179.072 241.92 162.46 229.106 162.46 229.106Z" fill="#D5DBE1"/>
<path d="M116.238 256H110.222C96.4978 256 85.3333 244.836 85.3333 231.111V155.662C85.3333 141.938 96.4978 130.773 110.222 130.773H116.238C129.963 130.773 141.127 141.938 141.127 155.662V231.111C141.127 244.836 129.963 256 116.238 256ZM110.222 152.107C108.26 152.107 106.667 153.7 106.667 155.662V231.111C106.667 233.074 108.26 234.667 110.222 234.667H116.238C118.172 234.667 119.794 233.045 119.794 231.111V155.662C119.794 153.7 118.201 152.107 116.238 152.107H110.222Z" fill="black"/>
<path d="M211.783 256H199.893C148.11 256 124.857 238.251 123.89 237.497L137.045 220.686C137.131 220.757 156.26 234.652 199.893 234.652H211.783C219.292 234.652 225.65 229.276 226.887 221.867L234.468 176.427C235.207 171.989 233.956 167.452 231.054 164.025C228.139 160.583 223.886 158.606 219.378 158.606H180.423C176.484 158.606 172.871 156.444 171.022 152.974C169.159 149.518 169.372 145.308 171.548 142.023C173.724 138.738 176.256 134.4 176.256 121.97C176.256 112.981 173.796 108.985 172.075 107.449C171.833 109.042 171.634 111.573 171.634 115.456C171.634 143.772 139.207 161.863 135.509 163.826L125.454 145.01C131.897 141.54 150.3 128.668 150.3 115.456C150.258 106.453 150.258 85.3334 170.667 85.3334C183.623 85.3334 197.561 96.8107 197.561 121.97C197.561 127.787 196.864 132.921 195.854 137.273H219.349C230.144 137.273 240.341 141.995 247.31 150.229C254.279 158.45 257.266 169.287 255.488 179.925L247.908 225.365C244.964 243.129 229.774 256 211.783 256Z" fill="black"/>
<path d="M399.289 412.885L378.667 407.438L402.958 315.25L312.889 275.072L222.82 315.25L247.111 407.438L226.489 412.885L199.893 311.908C198.556 306.859 201.088 301.568 205.852 299.449L308.537 253.639C311.296 252.388 314.468 252.388 317.227 253.639L419.911 299.449C424.676 301.568 427.207 306.859 425.87 311.908L399.289 412.885Z" fill="black"/>
<path d="M416 426.667C395.164 426.667 375.836 418.489 364.302 404.765C353.052 418.489 333.724 426.667 312.889 426.667C292.053 426.667 272.725 418.489 261.191 404.765C249.941 418.489 230.613 426.667 209.778 426.667V405.333C224.171 405.333 237.724 399.858 245.134 391.04C252.658 382.094 269.995 382.094 277.518 391.04C284.942 399.858 298.496 405.333 312.889 405.333C327.282 405.333 340.836 399.858 348.245 391.04C355.769 382.094 373.106 382.094 380.629 391.04C388.039 399.858 401.593 405.333 415.986 405.333V426.667H416Z" fill="black"/>
<path d="M227.556 282.738H248.889V296.676H227.556V282.738Z" fill="black"/>
<path d="M323.556 263.396H302.222V248.889H277.76V227.556H312.889C318.777 227.556 323.556 232.334 323.556 238.222V263.396Z" fill="black"/>
<path d="M398.222 296.676H376.889V248.889H323.556V263.396H302.222V238.222C302.222 232.334 307.001 227.556 312.889 227.556H387.556C393.444 227.556 398.222 232.334 398.222 238.222V296.676Z" fill="black"/>
<path d="M344.889 248.889H280.889C275.001 248.889 270.222 244.11 270.222 238.222V222.151H291.556V227.556H334.222V192H287.431V170.667H344.889C350.777 170.667 355.556 175.445 355.556 181.333V238.222C355.556 244.11 350.777 248.889 344.889 248.889Z" fill="black"/>
<path d="M302.222 138.667H323.556V181.333H302.222V138.667Z" fill="black"/>
</svg>
