<svg width="512" height="512" viewBox="0 0 512 512" fill="none" xmlns="http://www.w3.org/2000/svg">
<path d="M190.734 497.764C280.306 457.102 362.894 475.591 406.059 456.007C449.223 436.409 528.612 370.446 438.485 171.876C348.359 -26.6951 213.191 -0.497754 165.703 21.0489C-56.6187 121.956 32.0853 569.771 190.734 497.764Z" fill="#EFEFEF"/>
<path d="M68.4373 148.224C56.6756 148.224 47.104 138.652 47.104 126.891C47.104 115.129 56.6756 105.557 68.4373 105.557C80.1991 105.557 89.7707 115.129 89.7707 126.891C89.7707 138.652 80.1991 148.224 68.4373 148.224ZM68.4373 119.78C64.5262 119.78 61.3262 122.98 61.3262 126.891C61.3262 130.802 64.5262 134.002 68.4373 134.002C72.3484 134.002 75.5484 130.802 75.5484 126.891C75.5484 122.98 72.3484 119.78 68.4373 119.78Z" fill="#A4AFC1"/>
<path d="M437.333 83.5555H451.555V112H437.333V83.5555Z" fill="#A4AFC1"/>
<path d="M437.333 165.333H451.555V193.778H437.333V165.333Z" fill="#A4AFC1"/>
<path d="M387.556 129.778H416V144H387.556V129.778Z" fill="#A4AFC1"/>
<path d="M469.333 129.778H497.778V144H469.333V129.778Z" fill="#A4AFC1"/>
<path d="M238.222 238.222V296.676L312.889 263.396V245.333V238.222H238.222Z" fill="#2FDF84"/>
<path d="M344.889 238.222H312.889V245.333V263.396L387.556 296.676V238.222H344.889Z" fill="#2FDF84"/>
<path d="M280.889 181.333H344.889V238.222H280.889V181.333Z" fill="#2FDF84"/>
<path d="M253.312 397.909C256.939 393.586 265.728 393.586 269.369 397.909C273.593 402.944 279.424 407.054 286.151 410.169H339.641C346.368 407.054 352.199 402.93 356.423 397.909C360.05 393.586 368.839 393.586 372.48 397.909C376.661 402.873 382.407 406.94 389.02 410.041L415.573 309.191L312.889 263.396L210.204 309.191L236.757 410.041C243.385 406.926 249.131 402.873 253.312 397.909Z" fill="#F3F3F1"/>
<path d="M273.778 231.751C273.778 239.218 267.62 245.333 260.096 245.333H109.682C102.158 245.333 96 239.218 96 231.751C96 229.177 96.6827 226.731 98.048 224.697L173.255 102.514C175.588 98.5742 179.968 96 184.889 96C189.81 96 194.19 98.5742 196.508 102.514L271.716 224.697L273.778 231.751Z" fill="#2FDF84"/>
<path d="M270.222 238.222H238.222V296.676L270.222 282.411V238.222Z" fill="#00B871"/>
<path d="M344.889 263.396V245.333V238.222H312.889V245.333V263.396L387.556 296.676V282.411L344.889 263.396Z" fill="#00B871"/>
<path d="M280.889 181.333H312.889V238.222H280.889V181.333Z" fill="#00B871"/>
<path d="M242.204 309.191L328.889 270.535L312.889 263.396L210.204 309.191L236.757 410.041C243.371 406.94 249.131 402.873 253.298 397.909C255.829 394.894 260.821 394.126 264.875 395.307L242.204 309.191Z" fill="#D5DBE1"/>
<path d="M285.312 397.909C283.079 400.569 280.348 402.916 277.319 405.049C280.021 406.969 282.965 408.704 286.151 410.183H318.151C311.424 407.068 305.593 402.944 301.369 397.924C297.728 393.586 288.939 393.586 285.312 397.909Z" fill="#D5DBE1"/>
<path d="M388.423 397.909C386.19 400.555 383.488 402.916 380.473 405.049C383.104 406.898 385.948 408.604 389.02 410.041L392.903 395.307C391.14 395.819 389.518 396.601 388.423 397.909Z" fill="#D5DBE1"/>
<path d="M128 231.751C128 229.177 128.683 226.731 130.048 224.697L200.889 109.625L196.508 102.514C194.19 98.5742 189.81 96 184.889 96C179.968 96 175.588 98.5742 173.269 102.514L98.048 224.697C96.6827 226.731 96 229.177 96 231.751C96 239.218 102.158 245.333 109.682 245.333H141.682C134.158 245.333 128 239.218 128 231.751Z" fill="#00B871"/>
<path d="M399.289 412.885L378.652 407.438L402.944 315.236L312.889 275.072L222.834 315.236L247.125 407.438L226.489 412.885L199.893 311.908C198.556 306.859 201.088 301.568 205.867 299.449L308.551 253.639C311.324 252.388 314.467 252.388 317.241 253.639L419.925 299.449C424.704 301.568 427.235 306.859 425.899 311.908L399.289 412.885Z" fill="black"/>
<path d="M416 426.667C395.164 426.667 375.85 418.489 364.302 404.779C353.038 418.489 333.724 426.667 312.889 426.667C292.053 426.667 272.739 418.489 261.191 404.779C249.927 418.489 230.613 426.667 209.778 426.667V405.333C224.17 405.333 237.724 399.858 245.134 391.026C252.686 382.08 269.98 382.08 277.504 391.026C284.942 399.858 298.496 405.333 312.889 405.333C327.282 405.333 340.835 399.858 348.245 391.026C355.797 382.08 373.091 382.08 380.615 391.026C388.039 399.858 401.607 405.333 415.986 405.333V426.667H416Z" fill="black"/>
<path d="M227.555 288H248.889V296.676H227.555V288Z" fill="black"/>
<path d="M302.222 238.222H323.556V263.396H302.222V238.222Z" fill="black"/>
<path d="M398.222 296.676H376.889V248.889H323.556V263.396H302.222V238.222C302.222 232.334 307.001 227.556 312.889 227.556H387.556C393.444 227.556 398.222 232.334 398.222 238.222V296.676Z" fill="black"/>
<path d="M344.889 248.889H312.889V227.556H334.222V192H295.111V170.667H344.889C350.777 170.667 355.556 175.445 355.556 181.333V238.222C355.556 244.11 350.777 248.889 344.889 248.889Z" fill="black"/>
<path d="M302.222 138.667H323.556V181.333H302.222V138.667Z" fill="black"/>
<path d="M260.096 256H109.682C96.2559 256 85.3333 245.12 85.3333 231.765C85.3333 227.001 86.6701 222.507 89.2017 218.738L164.167 96.9245C168.363 89.8276 176.327 85.3334 184.889 85.3334C193.451 85.3334 201.415 89.8276 205.696 97.0952L280.803 219.093C281.301 219.918 281.685 220.786 281.955 221.724L284.018 228.793C284.302 229.746 284.444 230.756 284.444 231.765C284.444 245.12 273.522 256 260.096 256ZM184.889 106.667C183.637 106.667 182.798 107.349 182.443 107.932L106.667 231.765C106.667 233.33 108.046 234.667 109.682 234.667H260.096C261.39 234.667 262.528 233.828 262.94 232.704L261.888 229.049L187.435 108.103C186.979 107.349 186.14 106.667 184.889 106.667Z" fill="black"/>
<path d="M174.222 142.222H195.556V192H174.222V142.222Z" fill="black"/>
<path d="M184.889 227.556C190.78 227.556 195.556 222.78 195.556 216.889C195.556 210.998 190.78 206.222 184.889 206.222C178.998 206.222 174.222 210.998 174.222 216.889C174.222 222.78 178.998 227.556 184.889 227.556Z" fill="black"/>
</svg>
