<svg width="512" height="512" viewBox="0 0 512 512" fill="none" xmlns="http://www.w3.org/2000/svg">
<path d="M119.14 452.736C217.515 452.736 285.07 503.694 332.473 503.694C379.876 503.694 479.431 476.444 479.431 258.375C479.431 40.3057 345.501 8.2915 293.362 8.2915C49.209 8.2915 -55.0826 452.736 119.14 452.736Z" fill="#EFEFEF"/>
<path d="M86.8411 104.255L106.954 84.1422L117.011 94.1989L96.8977 114.312L86.8411 104.255Z" fill="#A4AFC1"/>
<path d="M29.0134 162.073L49.1267 141.96L59.1833 152.017L39.0701 172.13L29.0134 162.073Z" fill="#A4AFC1"/>
<path d="M29.0305 91.6478L39.0871 81.5912L59.2004 101.704L49.1438 111.761L29.0305 91.6478Z" fill="#A4AFC1"/>
<path d="M416 232.548C404.238 232.548 394.667 222.976 394.667 211.214C394.667 199.452 404.238 189.881 416 189.881C427.762 189.881 437.333 199.452 437.333 211.214C437.333 222.976 427.762 232.548 416 232.548ZM416 204.103C412.075 204.103 408.889 207.303 408.889 211.214C408.889 215.125 412.075 218.325 416 218.325C419.925 218.325 423.111 215.125 423.111 211.214C423.111 207.303 419.925 204.103 416 204.103Z" fill="#A4AFC1"/>
<path d="M416 337.778H96L110.222 416H330.667L401.778 337.778H416Z" fill="#F3F3F1"/>
<path d="M160 252.444H216.889V337.778H160V252.444Z" fill="#2FDF84"/>
<path d="M96 252.444H160V337.778H96V252.444Z" fill="#2FDF84"/>
<path d="M96 167.111H160V252.444H96V167.111Z" fill="#2FDF84"/>
<path d="M252.444 266.667H320V337.778H252.444V266.667Z" fill="#2FDF84"/>
<path d="M320 266.667H387.556V337.778H320V266.667Z" fill="#2FDF84"/>
<path d="M280.889 195.556H344.889V266.667H280.889V195.556Z" fill="#2FDF84"/>
<path d="M96 337.778L110.222 416H142.222L128 337.778H96Z" fill="#D5DBE1"/>
<path d="M160 252.444H192V337.778H160V252.444Z" fill="#00B871"/>
<path d="M96 252.444H128V337.778H96V252.444Z" fill="#00B871"/>
<path d="M96 167.111H128V252.444H96V167.111Z" fill="#00B871"/>
<path d="M252.444 266.667H284.444V337.778H252.444V266.667Z" fill="#00B871"/>
<path d="M320 266.667H352V337.778H320V266.667Z" fill="#00B871"/>
<path d="M280.889 195.556H312.889V266.667H280.889V195.556Z" fill="#00B871"/>
<path d="M330.667 426.667H110.222C105.074 426.667 100.651 422.983 99.7263 417.906L85.5041 339.684C84.9352 336.569 85.7885 333.383 87.8081 330.951C89.8276 328.519 92.8427 327.111 96.0001 327.111H416V348.444H406.5L338.574 423.182C336.541 425.401 333.668 426.667 330.667 426.667ZM119.125 405.333H325.945L377.657 348.444H108.772L119.125 405.333Z" fill="black"/>
<path d="M103.111 362.667H366.222V384H103.111V362.667Z" fill="black"/>
<path d="M216.889 348.444H160C154.112 348.444 149.333 343.666 149.333 337.778V252.444C149.333 246.556 154.112 241.778 160 241.778H216.889C222.777 241.778 227.556 246.556 227.556 252.444V337.778C227.556 343.666 222.777 348.444 216.889 348.444ZM170.667 327.111H206.222V263.111H170.667V327.111Z" fill="black"/>
<path d="M160 348.444H96.0002C90.1122 348.444 85.3335 343.666 85.3335 337.778V252.444C85.3335 246.556 90.1122 241.778 96.0002 241.778H160C165.888 241.778 170.667 246.556 170.667 252.444V337.778C170.667 343.666 165.888 348.444 160 348.444ZM106.667 327.111H149.333V263.111H106.667V327.111Z" fill="black"/>
<path d="M160 263.111H96.0002C90.1122 263.111 85.3335 258.332 85.3335 252.444V167.111C85.3335 161.223 90.1122 156.444 96.0002 156.444H160C165.888 156.444 170.667 161.223 170.667 167.111V252.444C170.667 258.332 165.888 263.111 160 263.111ZM106.667 241.778H149.333V177.778H106.667V241.778Z" fill="black"/>
<path d="M320 348.444H252.444C246.556 348.444 241.778 343.666 241.778 337.778V266.667C241.778 260.779 246.556 256 252.444 256H320C325.888 256 330.667 260.779 330.667 266.667V337.778C330.667 343.666 325.888 348.444 320 348.444ZM263.111 327.111H309.333V277.333H263.111V327.111Z" fill="black"/>
<path d="M387.556 348.444H320C314.112 348.444 309.333 343.666 309.333 337.778V266.667C309.333 260.779 314.112 256 320 256H387.556C393.444 256 398.222 260.779 398.222 266.667V337.778C398.222 343.666 393.444 348.444 387.556 348.444ZM330.667 327.111H376.889V277.333H330.667V327.111Z" fill="black"/>
<path d="M344.889 277.333H280.889C275.001 277.333 270.222 272.555 270.222 266.667V195.556C270.222 189.668 275.001 184.889 280.889 184.889H344.889C350.777 184.889 355.556 189.668 355.556 195.556V266.667C355.556 272.555 350.777 277.333 344.889 277.333ZM291.556 256H334.222V206.222H291.556V256Z" fill="black"/>
</svg>
