<svg width="512" height="512" viewBox="0 0 512 512" fill="none" xmlns="http://www.w3.org/2000/svg">
<path d="M119.139 452.736C217.515 452.736 285.07 503.694 332.473 503.694C379.875 503.694 479.431 476.444 479.431 258.375C479.431 40.3057 345.5 8.2915 293.362 8.2915C49.2088 8.2915 -55.0828 452.736 119.139 452.736Z" fill="#EFEFEF"/>
<path d="M204.444 88.8889H232.889V103.111H204.444V88.8889Z" fill="#A4AFC1"/>
<path d="M122.667 88.8889H151.111V103.111H122.667V88.8889Z" fill="#A4AFC1"/>
<path d="M172.444 39.1111H186.667V67.5555H172.444V39.1111Z" fill="#A4AFC1"/>
<path d="M451.556 202.667C439.794 202.667 430.222 193.095 430.222 181.333C430.222 169.572 439.794 160 451.556 160C463.317 160 472.889 169.572 472.889 181.333C472.889 193.095 463.317 202.667 451.556 202.667ZM451.556 174.222C447.63 174.222 444.444 177.408 444.444 181.333C444.444 185.259 447.63 188.444 451.556 188.444C455.481 188.444 458.667 185.259 458.667 181.333C458.667 177.408 455.481 174.222 451.556 174.222Z" fill="#A4AFC1"/>
<path d="M359.111 195.556H280.889V373.333H320H376.889H416V252.444C416 221.028 390.528 195.556 359.111 195.556Z" fill="#F3F3F1"/>
<path d="M266.667 138.667H85.3335V373.333H163.556H192H248.889H280.889V152.889C280.889 145.038 274.518 138.667 266.667 138.667Z" fill="#F3F3F1"/>
<path d="M348.445 401.778C362.19 401.778 373.333 390.635 373.333 376.889C373.333 363.143 362.19 352 348.445 352C334.699 352 323.556 363.143 323.556 376.889C323.556 390.635 334.699 401.778 348.445 401.778Z" fill="#2FDF84"/>
<path d="M220.445 401.778C234.19 401.778 245.333 390.635 245.333 376.889C245.333 363.143 234.19 352 220.445 352C206.699 352 195.556 363.143 195.556 376.889C195.556 390.635 206.699 401.778 220.445 401.778Z" fill="#2FDF84"/>
<path d="M135.111 401.778C148.857 401.778 160 390.635 160 376.889C160 363.143 148.857 352 135.111 352C121.365 352 110.222 363.143 110.222 376.889C110.222 390.635 121.365 401.778 135.111 401.778Z" fill="#2FDF84"/>
<path d="M352 273.778H416V252.444C416 221.028 390.528 195.556 359.111 195.556H323.556V245.333C323.556 261.049 336.285 273.778 352 273.778Z" fill="#2FDF84"/>
<path d="M280.889 195.556H312.889V373.333H280.889V195.556Z" fill="#D5DBE1"/>
<path d="M85.3335 138.667H117.333V373.333H85.3335V138.667Z" fill="#D5DBE1"/>
<path d="M355.556 376.889C355.556 369.266 359.054 362.539 364.445 357.973C360.107 354.304 354.574 352 348.445 352C334.692 352 323.556 363.15 323.556 376.889C323.556 390.628 334.692 401.778 348.445 401.778C354.574 401.778 360.107 399.474 364.445 395.804C359.054 391.239 355.556 384.512 355.556 376.889Z" fill="#00B871"/>
<path d="M227.556 376.889C227.556 369.266 231.054 362.539 236.445 357.973C232.107 354.304 226.574 352 220.445 352C206.706 352 195.556 363.15 195.556 376.889C195.556 390.628 206.706 401.778 220.445 401.778C226.574 401.778 232.107 399.474 236.445 395.804C231.054 391.239 227.556 384.512 227.556 376.889Z" fill="#00B871"/>
<path d="M142.222 376.889C142.222 369.266 145.721 362.539 151.111 357.973C146.773 354.304 141.241 352 135.111 352C121.372 352 110.222 363.15 110.222 376.889C110.222 390.628 121.372 401.778 135.111 401.778C141.241 401.778 146.773 399.474 151.111 395.804C145.721 391.239 142.222 384.512 142.222 376.889Z" fill="#00B871"/>
<path d="M355.556 245.333V195.556H323.556V245.333C323.556 261.049 336.285 273.778 352 273.778H384C368.285 273.778 355.556 261.049 355.556 245.333Z" fill="#00B871"/>
<path d="M152.889 362.667H202.667V384H152.889V362.667Z" fill="black"/>
<path d="M85.3335 362.667H117.333V384H85.3335V362.667Z" fill="black"/>
<path d="M280.889 384H238.222V362.667H270.222V152.889C270.222 150.926 268.63 149.333 266.667 149.333H85.3335V128H266.667C280.391 128 291.556 139.164 291.556 152.889V373.333C291.556 379.221 286.777 384 280.889 384Z" fill="black"/>
<path d="M416 384H366.222V362.667H405.333V252.444C405.333 226.958 384.597 206.222 359.111 206.222H291.556V362.667H330.667V384H280.889C275.001 384 270.222 379.221 270.222 373.333V195.556C270.222 189.668 275.001 184.889 280.889 184.889H359.111C396.359 184.889 426.667 215.196 426.667 252.444V373.333C426.667 379.221 421.888 384 416 384Z" fill="black"/>
<path d="M426.667 284.444H352C330.425 284.444 312.889 266.908 312.889 245.333V184.889H334.222V245.333C334.222 255.132 342.201 263.111 352 263.111H426.667V284.444Z" fill="black"/>
<path d="M199.111 170.667H220.445V312.889H199.111V170.667Z" fill="black"/>
<path d="M128 170.667H149.333V312.889H128V170.667Z" fill="black"/>
<path d="M348.445 412.444C328.846 412.444 312.889 396.487 312.889 376.889C312.889 357.291 328.846 341.333 348.445 341.333C368.043 341.333 384 357.291 384 376.889C384 396.487 368.043 412.444 348.445 412.444ZM348.445 362.667C340.608 362.667 334.222 369.052 334.222 376.889C334.222 384.725 340.608 391.111 348.445 391.111C356.281 391.111 362.667 384.725 362.667 376.889C362.667 369.052 356.281 362.667 348.445 362.667Z" fill="black"/>
<path d="M220.445 412.444C200.846 412.444 184.889 396.487 184.889 376.889C184.889 357.291 200.846 341.333 220.445 341.333C240.043 341.333 256 357.291 256 376.889C256 396.487 240.043 412.444 220.445 412.444ZM220.445 362.667C212.608 362.667 206.222 369.052 206.222 376.889C206.222 384.725 212.608 391.111 220.445 391.111C228.281 391.111 234.667 384.725 234.667 376.889C234.667 369.052 228.281 362.667 220.445 362.667Z" fill="black"/>
<path d="M135.111 412.444C115.513 412.444 99.5557 396.487 99.5557 376.889C99.5557 357.291 115.513 341.333 135.111 341.333C154.709 341.333 170.667 357.291 170.667 376.889C170.667 396.487 154.709 412.444 135.111 412.444ZM135.111 362.667C127.275 362.667 120.889 369.052 120.889 376.889C120.889 384.725 127.275 391.111 135.111 391.111C142.948 391.111 149.333 384.725 149.333 376.889C149.333 369.052 142.948 362.667 135.111 362.667Z" fill="black"/>
</svg>
