<svg width="512" height="512" viewBox="0 0 512 512" fill="none" xmlns="http://www.w3.org/2000/svg">
<path d="M59.2639 392.86C59.2639 294.485 8.30566 226.93 8.30566 179.527C8.30566 132.124 35.5554 32.5688 253.625 32.5688C471.694 32.5688 503.694 166.5 503.694 218.638C503.708 462.791 59.2639 567.083 59.2639 392.86Z" fill="#EFEFEF"/>
<path d="M109.818 50.9355L129.931 30.8223L139.988 40.8789L119.875 60.9922L109.818 50.9355Z" fill="#A4AFC1"/>
<path d="M51.9902 108.739L72.1035 88.626L82.1601 98.6826L62.0469 118.796L51.9902 108.739Z" fill="#A4AFC1"/>
<path d="M51.9932 38.3563L62.0498 28.2997L82.1631 48.413L72.1064 58.4696L51.9932 38.3563Z" fill="#A4AFC1"/>
<path d="M446.265 316.444C434.503 316.444 424.932 306.873 424.932 295.111C424.932 283.349 434.503 273.778 446.265 273.778C458.027 273.778 467.598 283.349 467.598 295.111C467.598 306.873 458.027 316.444 446.265 316.444ZM446.265 288C442.354 288 439.154 291.186 439.154 295.111C439.154 299.036 442.354 302.222 446.265 302.222C450.176 302.222 453.376 299.036 453.376 295.111C453.376 291.186 450.176 288 446.265 288Z" fill="#A4AFC1"/>
<path d="M277.76 238.222H117.333V288V387.555H167.111H216.605H323.556V288.711V238.222H277.76Z" fill="#F3F3F1"/>
<path d="M359.111 288.711H323.556V387.556H337.778H387.257H416V345.6C416 314.183 390.528 288.711 359.111 288.711Z" fill="#2FDF84"/>
<path d="M192 416C205.746 416 216.889 404.857 216.889 391.111C216.889 377.365 205.746 366.222 192 366.222C178.254 366.222 167.111 377.365 167.111 391.111C167.111 404.857 178.254 416 192 416Z" fill="#F3F3F1"/>
<path d="M362.667 416C376.412 416 387.556 404.857 387.556 391.111C387.556 377.365 376.412 366.222 362.667 366.222C348.921 366.222 337.778 377.365 337.778 391.111C337.778 404.857 348.921 416 362.667 416Z" fill="#F3F3F1"/>
<path d="M177.778 259.556C222.942 259.556 259.556 222.942 259.556 177.778C259.556 132.613 222.942 96 177.778 96C132.613 96 96 132.613 96 177.778C96 222.942 132.613 259.556 177.778 259.556Z" fill="#2FDF84"/>
<path d="M149.333 238.222H117.333V288V387.555H149.333V288V238.222Z" fill="#D5DBE1"/>
<path d="M323.556 288.711V387.556H337.778H355.556V288.711H323.556Z" fill="#00B871"/>
<path d="M199.111 391.111C199.111 383.488 202.61 376.761 208 372.196C203.662 368.526 198.13 366.222 192 366.222C178.262 366.222 167.111 377.372 167.111 391.111C167.111 404.85 178.262 416 192 416C198.13 416 203.662 413.696 208 410.027C202.61 405.461 199.111 398.734 199.111 391.111Z" fill="#D5DBE1"/>
<path d="M369.778 391.111C369.778 383.488 373.277 376.761 378.667 372.196C374.329 368.526 368.796 366.222 362.667 366.222C348.928 366.222 337.778 377.372 337.778 391.111C337.778 404.85 348.928 416 362.667 416C368.796 416 374.329 413.696 378.667 410.027C373.277 405.461 369.778 398.734 369.778 391.111Z" fill="#D5DBE1"/>
<path d="M128 177.778C128 138.098 156.274 105.031 193.778 97.5929C188.601 96.5547 183.253 96 177.778 96C132.608 96 96 132.608 96 177.778C96 222.948 132.608 259.556 177.778 259.556C183.253 259.556 188.601 259.001 193.778 257.963C156.274 250.524 128 217.458 128 177.778Z" fill="#00B871"/>
<path d="M177.778 398.222H117.334C111.446 398.222 106.667 393.444 106.667 387.556V275.769H128V376.889H177.778V398.222Z" fill="black"/>
<path d="M323.556 398.222H205.938V376.889H312.889V248.889H275.769V227.556H323.556C329.444 227.556 334.222 232.334 334.222 238.222V387.556C334.222 393.444 329.444 398.222 323.556 398.222Z" fill="black"/>
<path d="M416 398.222H376.59V376.889H405.334V345.6C405.334 320.114 384.598 299.378 359.111 299.378H334.222V376.889H348.445V398.222H323.556C317.668 398.222 312.889 393.444 312.889 387.556V288.711C312.889 282.823 317.668 278.044 323.556 278.044H359.111C396.359 278.044 426.667 308.352 426.667 345.6V387.556C426.667 393.444 421.888 398.222 416 398.222Z" fill="black"/>
<path d="M192 426.667C172.388 426.667 156.445 410.709 156.445 391.111C156.445 371.513 172.388 355.556 192 355.556C211.613 355.556 227.556 371.513 227.556 391.111C227.556 410.709 211.613 426.667 192 426.667ZM192 376.889C184.15 376.889 177.778 383.275 177.778 391.111C177.778 398.948 184.15 405.333 192 405.333C199.851 405.333 206.223 398.948 206.223 391.111C206.223 383.275 199.851 376.889 192 376.889Z" fill="black"/>
<path d="M362.667 426.667C343.054 426.667 327.111 410.709 327.111 391.111C327.111 371.513 343.054 355.556 362.667 355.556C382.279 355.556 398.222 371.513 398.222 391.111C398.222 410.709 382.279 426.667 362.667 426.667ZM362.667 376.889C354.816 376.889 348.445 383.275 348.445 391.111C348.445 398.948 354.816 405.333 362.667 405.333C370.518 405.333 376.889 398.948 376.889 391.111C376.889 383.275 370.518 376.889 362.667 376.889Z" fill="black"/>
<path d="M177.778 270.222C126.805 270.222 85.3335 228.75 85.3335 177.778C85.3335 126.805 126.805 85.3334 177.778 85.3334C228.75 85.3334 270.222 126.805 270.222 177.778C270.222 228.75 228.75 270.222 177.778 270.222ZM177.778 106.667C138.567 106.667 106.667 138.567 106.667 177.778C106.667 216.988 138.567 248.889 177.778 248.889C216.989 248.889 248.889 216.988 248.889 177.778C248.889 138.567 216.989 106.667 177.778 106.667Z" fill="black"/>
<path d="M170.667 213.333H131.556C125.668 213.333 120.889 208.555 120.889 202.667V188.445C120.889 174.72 132.054 163.556 145.778 163.556C147.741 163.556 149.334 161.963 149.334 160C149.334 158.037 147.741 156.445 145.778 156.445H120.889V135.111H145.778C159.502 135.111 170.667 146.276 170.667 160C170.667 173.725 159.502 184.889 145.778 184.889C143.815 184.889 142.222 186.482 142.222 188.445V192H170.667V213.333Z" fill="black"/>
<path d="M206.222 135.111H227.556V213.333H206.222V135.111Z" fill="black"/>
<path d="M227.556 184.889H202.667C188.942 184.889 177.778 173.725 177.778 160V135.111H199.111V160C199.111 161.963 200.704 163.556 202.667 163.556H227.556V184.889Z" fill="black"/>
</svg>
