<svg width="512" height="512" viewBox="0 0 512 512" fill="none" xmlns="http://www.w3.org/2000/svg">
<path d="M115.399 79.1324C89.7281 174.094 22.8979 226.005 10.5246 271.772C-1.84876 317.54 -1.52166 420.75 208.996 477.668C419.513 534.585 485.362 413.653 498.958 363.307C562.688 127.616 160.868 -89.0596 115.399 79.1324Z" fill="#EFEFEF"/>
<path d="M40.3027 382.024L50.3594 371.967L70.4726 392.08L60.416 402.137L40.3027 382.024Z" fill="#A4AFC1"/>
<path d="M98.1211 439.851L108.178 429.795L128.291 449.908L118.234 459.964L98.1211 439.851Z" fill="#A4AFC1"/>
<path d="M37.7788 449.904L57.8921 429.79L67.9487 439.847L47.8354 459.96L37.7788 449.904Z" fill="#A4AFC1"/>
<path d="M401.778 243.499C390.016 243.499 380.444 233.927 380.444 222.165C380.444 210.404 390.016 200.832 401.778 200.832C413.539 200.832 423.111 210.404 423.111 222.165C423.111 233.927 413.539 243.499 401.778 243.499ZM401.778 215.054C397.852 215.054 394.667 218.24 394.667 222.165C394.667 226.091 397.852 229.276 401.778 229.276C405.703 229.276 408.889 226.091 408.889 222.165C408.889 218.24 405.703 215.054 401.778 215.054Z" fill="#A4AFC1"/>
<path d="M277.76 238.222H117.333V288V387.555H167.111H216.605H323.556V288.711V238.222H277.76Z" fill="#F3F3F1"/>
<path d="M359.111 288.711H323.556V387.556H337.778H387.257H416V345.6C416 314.183 390.528 288.711 359.111 288.711Z" fill="#2FDF84"/>
<path d="M192 416C205.746 416 216.889 404.857 216.889 391.111C216.889 377.365 205.746 366.222 192 366.222C178.254 366.222 167.111 377.365 167.111 391.111C167.111 404.857 178.254 416 192 416Z" fill="#F3F3F1"/>
<path d="M362.667 416C376.412 416 387.556 404.857 387.556 391.111C387.556 377.365 376.412 366.222 362.667 366.222C348.921 366.222 337.778 377.365 337.778 391.111C337.778 404.857 348.921 416 362.667 416Z" fill="#F3F3F1"/>
<path d="M170.61 245.333L96 212.565V128.768L170.61 165.077V245.333Z" fill="#2FDF84"/>
<path d="M245.333 212.565L170.724 245.333V165.077L245.333 128.768V212.565Z" fill="#2FDF84"/>
<path d="M96 128.768L170.724 96L245.333 128.768L170.724 165.077L96 128.768Z" fill="#F3F3F1"/>
<path d="M149.333 238.222H117.333V288V387.555H149.333V288V238.222Z" fill="#D5DBE1"/>
<path d="M323.556 288.711V387.556H337.778H355.556V288.711H323.556Z" fill="#00B871"/>
<path d="M199.111 391.111C199.111 383.488 202.61 376.761 208 372.196C203.662 368.526 198.13 366.222 192 366.222C178.262 366.222 167.111 377.372 167.111 391.111C167.111 404.85 178.262 416 192 416C198.13 416 203.662 413.696 208 410.027C202.61 405.461 199.111 398.734 199.111 391.111Z" fill="#D5DBE1"/>
<path d="M369.778 391.111C369.778 383.488 373.277 376.761 378.667 372.196C374.329 368.526 368.796 366.222 362.667 366.222C348.928 366.222 337.778 377.372 337.778 391.111C337.778 404.85 348.928 416 362.667 416C368.796 416 374.329 413.696 378.667 410.027C373.277 405.461 369.778 398.734 369.778 391.111Z" fill="#D5DBE1"/>
<path d="M128 212.565V144.341L96 128.768V212.565L170.61 245.333V231.282L128 212.565Z" fill="#00B871"/>
<path d="M202.724 165.077L245.333 144.341V128.768L170.724 165.077V245.333L202.724 231.282V165.077Z" fill="#00B871"/>
<path d="M128 128.768L186.709 103.026L170.724 96L96 128.768L170.724 165.077L186.709 157.298L128 128.768Z" fill="#D5DBE1"/>
<path d="M170.624 256C169.159 256 167.709 255.701 166.329 255.104L91.7051 222.336C87.8366 220.629 85.3335 216.804 85.3335 212.565V128.768C85.3335 125.099 87.2251 121.671 90.3397 119.723C93.4544 117.76 97.3371 117.561 100.665 119.168L175.289 155.477C178.958 157.255 181.291 160.981 181.291 165.063V245.319C181.291 248.917 179.47 252.274 176.455 254.251C174.692 255.417 172.658 256 170.624 256ZM106.667 205.611L159.957 229.006V171.762L106.667 145.82V205.611Z" fill="black"/>
<path d="M170.71 256C168.662 256 166.642 255.417 164.879 254.265C161.863 252.288 160.043 248.932 160.043 245.333V165.077C160.043 160.996 162.375 157.269 166.045 155.492L240.669 119.182C243.983 117.575 247.879 117.788 250.994 119.737C254.109 121.671 256 125.084 256 128.768V212.58C256 216.804 253.497 220.644 249.629 222.35L175.005 255.118C173.625 255.701 172.175 256 170.71 256ZM181.376 171.748V228.992L234.667 205.596V145.806L181.376 171.748Z" fill="black"/>
<path d="M100.281 138.539L91.7192 118.997L166.429 86.2294C169.159 85.0347 172.274 85.0347 175.005 86.2294L249.629 118.997L241.038 138.524L170.709 107.648L100.281 138.539Z" fill="black"/>
<path d="M220.445 174.222H199.111V152.96L131.499 121.757L140.445 102.386L213.689 136.192C217.629 137.771 220.459 141.597 220.459 146.077V174.222H220.445Z" fill="black"/>
<path d="M177.778 398.222H117.334C111.446 398.222 106.667 393.444 106.667 387.556V257.849H128V376.889H177.778V398.222Z" fill="black"/>
<path d="M323.556 398.222H205.938V376.889H312.889V248.889H268.658V227.556H323.556C329.444 227.556 334.222 232.334 334.222 238.222V387.556C334.222 393.444 329.444 398.222 323.556 398.222Z" fill="black"/>
<path d="M416 398.222H376.59V376.889H405.334V345.6C405.334 320.114 384.598 299.378 359.111 299.378H334.222V376.889H348.445V398.222H323.556C317.668 398.222 312.889 393.444 312.889 387.556V288.711C312.889 282.823 317.668 278.044 323.556 278.044H359.111C396.359 278.044 426.667 308.352 426.667 345.6V387.556C426.667 393.444 421.888 398.222 416 398.222Z" fill="black"/>
<path d="M192 426.667C172.402 426.667 156.445 410.709 156.445 391.111C156.445 371.513 172.402 355.556 192 355.556C211.599 355.556 227.556 371.513 227.556 391.111C227.556 410.709 211.599 426.667 192 426.667ZM192 376.889C184.164 376.889 177.778 383.275 177.778 391.111C177.778 398.948 184.164 405.333 192 405.333C199.837 405.333 206.223 398.948 206.223 391.111C206.223 383.275 199.837 376.889 192 376.889Z" fill="black"/>
<path d="M362.667 426.667C343.069 426.667 327.111 410.709 327.111 391.111C327.111 371.513 343.069 355.556 362.667 355.556C382.265 355.556 398.222 371.513 398.222 391.111C398.222 410.709 382.265 426.667 362.667 426.667ZM362.667 376.889C354.83 376.889 348.445 383.275 348.445 391.111C348.445 398.948 354.83 405.333 362.667 405.333C370.503 405.333 376.889 398.948 376.889 391.111C376.889 383.275 370.503 376.889 362.667 376.889Z" fill="black"/>
</svg>
