<svg width="512" height="512" viewBox="0 0 512 512" fill="none" xmlns="http://www.w3.org/2000/svg">
<path d="M190.734 497.763C280.306 457.102 362.894 475.591 406.059 456.007C449.223 436.409 528.612 370.446 438.485 171.875C348.359 -26.6952 213.191 -0.497876 165.703 21.0488C-56.6187 121.955 32.0853 569.771 190.734 497.763Z" fill="#EFEFEF"/>
<path d="M378.667 243.499C366.905 243.499 357.333 233.927 357.333 222.165C357.333 210.404 366.905 200.832 378.667 200.832C390.428 200.832 400 210.404 400 222.165C400 233.927 390.428 243.499 378.667 243.499ZM378.667 215.054C374.755 215.054 371.555 218.24 371.555 222.165C371.555 226.091 374.755 229.276 378.667 229.276C382.578 229.276 385.778 226.091 385.778 222.165C385.778 218.24 382.578 215.054 378.667 215.054Z" fill="#A4AFC1"/>
<path d="M49.7778 0H64.0001V28.4444H49.7778V0Z" fill="#A4AFC1"/>
<path d="M49.7778 81.7778H64.0001V110.222H49.7778V81.7778Z" fill="#A4AFC1"/>
<path d="M0 46.2222H28.4444V60.4444H0V46.2222Z" fill="#A4AFC1"/>
<path d="M81.7778 46.2222H110.222V60.4444H81.7778V46.2222Z" fill="#A4AFC1"/>
<path d="M277.76 238.222H117.333V288V387.555H167.111H216.604H323.555V288.711V238.222H277.76Z" fill="#F3F3F1"/>
<path d="M359.111 288.711H323.556V387.556H337.778H387.257H416V345.6C416 314.183 390.528 288.711 359.111 288.711Z" fill="#2FDF84"/>
<path d="M192 416C205.746 416 216.889 404.857 216.889 391.111C216.889 377.365 205.746 366.222 192 366.222C178.254 366.222 167.111 377.365 167.111 391.111C167.111 404.857 178.254 416 192 416Z" fill="#F3F3F1"/>
<path d="M362.667 416C376.412 416 387.556 404.857 387.556 391.111C387.556 377.365 376.412 366.222 362.667 366.222C348.921 366.222 337.778 377.365 337.778 391.111C337.778 404.857 348.921 416 362.667 416Z" fill="#F3F3F1"/>
<path d="M96 160H245.333V245.333H96V160Z" fill="#2FDF84"/>
<path d="M220.444 96H120.889L96 160H245.333L220.444 96Z" fill="#F3F3F1"/>
<path d="M149.333 238.222H117.333V288V387.555H149.333V288V238.222Z" fill="#D5DBE1"/>
<path d="M323.556 288.711V387.556H337.778H355.556V288.711H323.556Z" fill="#00B871"/>
<path d="M199.111 391.111C199.111 383.488 202.61 376.761 208 372.196C203.662 368.526 198.13 366.222 192 366.222C178.261 366.222 167.111 377.372 167.111 391.111C167.111 404.85 178.261 416 192 416C198.13 416 203.662 413.696 208 410.027C202.61 405.461 199.111 398.734 199.111 391.111Z" fill="#D5DBE1"/>
<path d="M369.778 391.111C369.778 383.488 373.277 376.761 378.667 372.196C374.329 368.526 368.796 366.222 362.667 366.222C348.928 366.222 337.778 377.372 337.778 391.111C337.778 404.85 348.928 416 362.667 416C368.796 416 374.329 413.696 378.667 410.027C373.277 405.461 369.778 398.734 369.778 391.111Z" fill="#D5DBE1"/>
<path d="M96 160H128V245.333H96V160Z" fill="#00B871"/>
<path d="M120.889 96L96 160H128L152.889 96H120.889Z" fill="#D5DBE1"/>
<path d="M245.333 256H95.9999C90.1119 256 85.3333 251.221 85.3333 245.333V160C85.3333 154.112 90.1119 149.333 95.9999 149.333H245.333C251.221 149.333 256 154.112 256 160V245.333C256 251.221 251.221 256 245.333 256ZM106.667 234.667H234.667V170.667H106.667V234.667Z" fill="black"/>
<path d="M235.392 163.868L213.148 106.667H128.185L105.955 163.868L86.0728 156.131L110.962 92.1315C112.54 88.0355 116.48 85.3333 120.889 85.3333H220.444C224.853 85.3333 228.793 88.0355 230.386 92.1315L255.275 156.131L235.392 163.868Z" fill="black"/>
<path d="M160 96H181.333V160H160V96Z" fill="black"/>
<path d="M177.778 398.222H117.333C111.445 398.222 106.667 393.443 106.667 387.555V277.333H128V376.889H177.778V398.222Z" fill="black"/>
<path d="M323.556 398.222H205.938V376.889H312.889V248.889H277.333V227.555H323.556C329.444 227.555 334.222 232.334 334.222 238.222V387.555C334.222 393.443 329.444 398.222 323.556 398.222Z" fill="black"/>
<path d="M416 398.222H376.59V376.889H405.333V345.6C405.333 320.114 384.597 299.378 359.111 299.378H334.222V376.889H348.444V398.222H323.556C317.668 398.222 312.889 393.444 312.889 387.556V288.711C312.889 282.823 317.668 278.044 323.556 278.044H359.111C396.359 278.044 426.667 308.352 426.667 345.6V387.556C426.667 393.444 421.888 398.222 416 398.222Z" fill="black"/>
<path d="M192 426.667C172.387 426.667 156.444 410.709 156.444 391.111C156.444 371.513 172.387 355.555 192 355.555C211.612 355.555 227.555 371.513 227.555 391.111C227.555 410.709 211.612 426.667 192 426.667ZM192 376.889C184.149 376.889 177.778 383.275 177.778 391.111C177.778 398.947 184.149 405.333 192 405.333C199.851 405.333 206.222 398.947 206.222 391.111C206.222 383.275 199.851 376.889 192 376.889Z" fill="black"/>
<path d="M362.667 426.667C343.054 426.667 327.111 410.709 327.111 391.111C327.111 371.513 343.054 355.555 362.667 355.555C382.279 355.555 398.222 371.513 398.222 391.111C398.222 410.709 382.279 426.667 362.667 426.667ZM362.667 376.889C354.816 376.889 348.444 383.275 348.444 391.111C348.444 398.947 354.816 405.333 362.667 405.333C370.517 405.333 376.889 398.947 376.889 391.111C376.889 383.275 370.517 376.889 362.667 376.889Z" fill="black"/>
</svg>
