<svg width="512" height="512" viewBox="0 0 512 512" fill="none" xmlns="http://www.w3.org/2000/svg">
<g clip-path="url(#clip0_5_6346)">
<path d="M119.14 59.2639C217.515 59.2639 285.07 8.30566 332.473 8.30566C379.876 8.30566 479.431 35.5554 479.431 253.625C479.431 471.694 345.5 503.694 293.362 503.694C49.2089 503.708 -55.0827 59.2639 119.14 59.2639Z" fill="#EFEFEF"/>
<path d="M49.7778 328.832H64V357.276H49.7778V328.832Z" fill="#A4AFC1"/>
<path d="M49.7778 410.61H64V439.054H49.7778V410.61Z" fill="#A4AFC1"/>
<path d="M0 375.054H28.4444V389.276H0V375.054Z" fill="#A4AFC1"/>
<path d="M459.776 306.631C448.014 306.631 438.443 297.059 438.443 285.298C438.443 273.536 448.014 263.964 459.776 263.964C471.538 263.964 481.109 273.536 481.109 285.298C481.109 297.059 471.538 306.631 459.776 306.631ZM459.776 278.187C455.865 278.187 452.665 281.372 452.665 285.298C452.665 289.223 455.865 292.409 459.776 292.409C463.687 292.409 466.887 289.223 466.887 285.298C466.887 281.372 463.701 278.187 459.776 278.187Z" fill="#A4AFC1"/>
<path d="M277.76 238.222H117.333V288V387.556H167.111H216.604H323.556V288.711V238.222H277.76Z" fill="#F3F3F1"/>
<path d="M359.111 288.711H323.556V387.556H337.778H387.257H416V345.6C416 314.183 390.528 288.711 359.111 288.711Z" fill="#2FDF84"/>
<path d="M192 416C205.746 416 216.889 404.857 216.889 391.111C216.889 377.366 205.746 366.222 192 366.222C178.254 366.222 167.111 377.366 167.111 391.111C167.111 404.857 178.254 416 192 416Z" fill="#F3F3F1"/>
<path d="M362.667 416C376.412 416 387.556 404.857 387.556 391.111C387.556 377.366 376.412 366.222 362.667 366.222C348.921 366.222 337.778 377.366 337.778 391.111C337.778 404.857 348.921 416 362.667 416Z" fill="#F3F3F1"/>
<path d="M252.743 171.136L242.83 126.237C240.555 115.94 232.576 107.876 222.308 105.515L183.936 96.697C179.925 95.7726 175.758 95.7726 171.748 96.697L133.248 105.515C122.994 107.876 115.001 115.94 112.725 126.251L102.812 171.136C102.812 193.294 109.924 220.715 127.559 239.09C139.307 251.335 155.733 259.556 177.849 259.556C199.979 259.556 216.405 251.264 228.139 239.09C245.66 220.914 252.729 194.077 252.729 173.198C252.743 172.715 252.743 171.136 252.743 171.136Z" fill="#2FDF84"/>
<path d="M149.333 238.222H117.333V288V387.556H149.333V288V238.222Z" fill="#D5DBE1"/>
<path d="M323.556 288.711V387.556H337.778H355.556V288.711H323.556Z" fill="#00B871"/>
<path d="M199.111 391.111C199.111 383.488 202.61 376.761 208 372.196C203.662 368.526 198.13 366.222 192 366.222C178.261 366.222 167.111 377.373 167.111 391.111C167.111 404.85 178.261 416 192 416C198.13 416 203.662 413.696 208 410.027C202.61 405.462 199.111 398.734 199.111 391.111Z" fill="#D5DBE1"/>
<path d="M369.778 391.111C369.778 383.488 373.276 376.761 378.667 372.196C374.329 368.526 368.796 366.222 362.667 366.222C348.928 366.222 337.778 377.373 337.778 391.111C337.778 404.85 348.928 416 362.667 416C368.796 416 374.329 413.696 378.667 410.027C373.276 405.462 369.778 398.734 369.778 391.111Z" fill="#D5DBE1"/>
<path d="M159.559 239.09C141.909 220.715 134.812 193.294 134.812 171.136L144.725 126.251C147.001 115.954 154.994 107.876 165.262 105.529L193.849 98.9726L183.964 96.697C179.954 95.7726 175.787 95.7726 171.776 96.697L133.248 105.515C122.994 107.876 115.001 115.94 112.725 126.251L102.812 171.136C102.812 193.294 109.924 220.715 127.559 239.09C139.307 251.335 155.733 259.556 177.849 259.556C183.566 259.556 188.871 258.958 193.835 257.934C179.584 254.99 168.277 248.164 159.559 239.09Z" fill="#00B871"/>
<path d="M147.115 201.956C139.349 201.956 133.049 195.641 133.049 187.876C133.049 180.11 139.349 173.796 147.115 173.796C154.88 173.796 161.18 180.11 161.18 187.876C161.18 195.641 154.88 201.956 147.115 201.956Z" fill="black"/>
<path d="M208.811 201.956C201.045 201.956 194.731 195.641 194.731 187.876C194.731 180.11 201.045 173.796 208.811 173.796C216.576 173.796 222.876 180.11 222.876 187.876C222.876 195.641 216.576 201.956 208.811 201.956Z" fill="black"/>
<path d="M177.863 242.901C177.849 242.901 177.849 242.901 177.863 242.901C167.609 242.901 158.009 238.905 150.784 231.666L143.26 224.114L158.364 209.052L165.902 216.604C169.102 219.819 173.34 221.582 177.863 221.582H177.877C182.386 221.582 186.652 219.819 189.867 216.604L197.39 209.052L212.494 224.128L204.956 231.666C197.703 238.919 188.089 242.901 177.863 242.901Z" fill="black"/>
<path d="M102.386 179.356L89.6142 162.261C90.8516 161.351 120.533 139.662 177.863 139.662C235.193 139.662 264.732 161.351 265.956 162.275L253.156 179.328C252.942 179.186 227.513 160.981 177.863 160.981C127.545 160.995 102.628 179.171 102.386 179.356Z" fill="black"/>
<path d="M177.863 270.222C154.837 270.222 134.798 262.002 119.879 246.471C102.514 228.395 92.16 200.235 92.16 171.136C92.16 170.254 92.2738 169.387 92.4587 168.562L102.3 123.947C105.458 109.696 116.665 98.3893 130.859 95.1325L169.372 86.3005C174.948 85.0489 180.807 85.0347 186.34 86.3005L224.697 95.1182C238.891 98.3893 250.084 109.696 253.241 123.932L263.14 168.832C263.31 169.586 263.396 170.354 263.396 171.136V173.198C263.396 194.802 256.156 225.38 235.833 246.485C220.871 262.016 200.818 270.222 177.863 270.222ZM113.493 172.245C113.764 190.62 119.58 215.367 135.253 231.694C146.204 243.1 160.526 248.889 177.849 248.889C195.129 248.889 209.465 243.1 220.459 231.68C236.373 215.154 242.062 190.635 242.062 173.198V172.302L232.405 128.54C231.04 122.297 226.133 117.333 219.932 115.911L181.561 107.093C179.143 106.539 176.555 106.524 174.151 107.093L135.637 115.911C129.422 117.333 124.516 122.297 123.136 128.54L113.493 172.245Z" fill="black"/>
<path d="M177.778 398.222H117.333C111.445 398.222 106.667 393.444 106.667 387.556V274.631H128V376.889H177.778V398.222Z" fill="black"/>
<path d="M323.556 398.222H205.938V376.889H312.889V248.889H269.369V227.556H323.556C329.444 227.556 334.222 232.334 334.222 238.222V387.556C334.222 393.444 329.444 398.222 323.556 398.222Z" fill="black"/>
<path d="M416 398.222H376.59V376.889H405.333V345.6C405.333 320.114 384.597 299.378 359.111 299.378H334.222V376.889H348.444V398.222H323.556C317.668 398.222 312.889 393.444 312.889 387.556V288.711C312.889 282.823 317.668 278.044 323.556 278.044H359.111C396.359 278.044 426.667 308.352 426.667 345.6V387.556C426.667 393.444 421.888 398.222 416 398.222Z" fill="black"/>
<path d="M192 426.667C172.388 426.667 156.444 410.709 156.444 391.111C156.444 371.513 172.388 355.556 192 355.556C211.612 355.556 227.556 371.513 227.556 391.111C227.556 410.709 211.612 426.667 192 426.667ZM192 376.889C184.149 376.889 177.778 383.275 177.778 391.111C177.778 398.948 184.149 405.333 192 405.333C199.851 405.333 206.222 398.948 206.222 391.111C206.222 383.275 199.851 376.889 192 376.889Z" fill="black"/>
<path d="M362.667 426.667C343.054 426.667 327.111 410.709 327.111 391.111C327.111 371.513 343.054 355.556 362.667 355.556C382.279 355.556 398.222 371.513 398.222 391.111C398.222 410.709 382.279 426.667 362.667 426.667ZM362.667 376.889C354.816 376.889 348.444 383.275 348.444 391.111C348.444 398.948 354.816 405.333 362.667 405.333C370.517 405.333 376.889 398.948 376.889 391.111C376.889 383.275 370.517 376.889 362.667 376.889Z" fill="black"/>
</g>
<defs>
<clipPath id="clip0_5_6346">
<rect width="512" height="512" fill="white"/>
</clipPath>
</defs>
</svg>
