<svg width="512" height="512" viewBox="0 0 512 512" fill="none" xmlns="http://www.w3.org/2000/svg">
<path d="M496.412 289.493C442.624 207.132 448.341 122.709 422.414 83.015C396.487 43.3208 319.218 -25.1165 136.647 94.1368C-45.9235 213.39 0.512009 343.026 29.0418 386.674C162.56 591.076 591.687 435.356 496.412 289.493Z" fill="#EFEFEF"/>
<path d="M81.0497 46.054L101.163 25.9407L111.22 35.9973L91.1064 56.1106L81.0497 46.054Z" fill="#A4AFC1"/>
<path d="M23.2222 103.872L43.3354 83.7586L53.3921 93.8152L33.2788 113.928L23.2222 103.872Z" fill="#A4AFC1"/>
<path d="M23.225 33.4746L33.2816 23.418L53.3949 43.5312L43.3382 53.5879L23.225 33.4746Z" fill="#A4AFC1"/>
<path d="M387.556 243.498C375.794 243.498 366.222 233.927 366.222 222.165C366.222 210.403 375.794 200.832 387.556 200.832C399.317 200.832 408.889 210.403 408.889 222.165C408.889 233.927 399.317 243.498 387.556 243.498ZM387.556 215.054C383.644 215.054 380.444 218.24 380.444 222.165C380.444 226.09 383.644 229.276 387.556 229.276C391.467 229.276 394.667 226.09 394.667 222.165C394.667 218.24 391.467 215.054 387.556 215.054Z" fill="#A4AFC1"/>
<path d="M277.76 238.222H117.333V288V387.555H167.111H216.604H323.556V288.711V238.222H277.76Z" fill="#F3F3F1"/>
<path d="M359.111 288.711H323.556V387.556H337.778H387.257H416V345.6C416 314.183 390.528 288.711 359.111 288.711Z" fill="#2FDF84"/>
<path d="M192 416C205.746 416 216.889 404.857 216.889 391.111C216.889 377.365 205.746 366.222 192 366.222C178.254 366.222 167.111 377.365 167.111 391.111C167.111 404.857 178.254 416 192 416Z" fill="#F3F3F1"/>
<path d="M362.667 416C376.412 416 387.556 404.857 387.556 391.111C387.556 377.365 376.412 366.222 362.667 366.222C348.921 366.222 337.778 377.365 337.778 391.111C337.778 404.857 348.921 416 362.667 416Z" fill="#F3F3F1"/>
<path d="M231.111 245.333H110.222C102.372 245.333 96 238.962 96 231.111V110.222C96 102.372 102.372 96 110.222 96H231.111C238.962 96 245.333 102.372 245.333 110.222V231.111C245.333 238.962 238.962 245.333 231.111 245.333Z" fill="#2FDF84"/>
<path d="M152.889 96H188.444V145.778H152.889V96Z" fill="#2FDF84"/>
<path d="M149.333 238.222H117.333V288V387.555H149.333V288V238.222Z" fill="#D5DBE1"/>
<path d="M323.556 288.711V387.556H337.778H355.556V288.711H323.556Z" fill="#00B871"/>
<path d="M199.111 391.111C199.111 383.488 202.61 376.761 208 372.196C203.662 368.526 198.13 366.222 192 366.222C178.261 366.222 167.111 377.372 167.111 391.111C167.111 404.85 178.261 416 192 416C198.13 416 203.662 413.696 208 410.027C202.61 405.461 199.111 398.734 199.111 391.111Z" fill="#D5DBE1"/>
<path d="M369.778 391.111C369.778 383.488 373.276 376.761 378.667 372.196C374.329 368.526 368.796 366.222 362.667 366.222C348.928 366.222 337.778 377.372 337.778 391.111C337.778 404.85 348.928 416 362.667 416C368.796 416 374.329 413.696 378.667 410.027C373.276 405.461 369.778 398.734 369.778 391.111Z" fill="#D5DBE1"/>
<path d="M128 231.111V110.222C128 102.372 134.372 96 142.222 96H110.222C102.372 96 96 102.372 96 110.222V231.111C96 238.962 102.372 245.333 110.222 245.333H142.222C134.372 245.333 128 238.962 128 231.111Z" fill="#00B871"/>
<path d="M231.111 256H110.222C96.4978 256 85.3333 244.835 85.3333 231.111V110.222C85.3333 96.4977 96.4978 85.3333 110.222 85.3333H231.111C244.836 85.3333 256 96.4977 256 110.222V231.111C256 244.835 244.836 256 231.111 256ZM110.222 106.667C108.26 106.667 106.667 108.259 106.667 110.222V231.111C106.667 233.074 108.26 234.667 110.222 234.667H231.111C233.074 234.667 234.667 233.074 234.667 231.111V110.222C234.667 108.259 233.074 106.667 231.111 106.667H110.222Z" fill="black"/>
<path d="M188.444 156.444H152.889C147.001 156.444 142.222 151.666 142.222 145.778V95.9999C142.222 90.1119 147.001 85.3333 152.889 85.3333H188.444C194.332 85.3333 199.111 90.1119 199.111 95.9999V145.778C199.111 151.666 194.332 156.444 188.444 156.444ZM163.556 135.111H177.778V106.667H163.556V135.111Z" fill="black"/>
<path d="M188.444 199.111H216.889V220.444H188.444V199.111Z" fill="black"/>
<path d="M177.778 398.222H117.333C111.445 398.222 106.667 393.443 106.667 387.555V277.333H128V376.889H177.778V398.222Z" fill="black"/>
<path d="M323.556 398.222H205.938V376.889H312.889V248.889H276.907V227.555H323.556C329.444 227.555 334.222 232.334 334.222 238.222V387.555C334.222 393.443 329.444 398.222 323.556 398.222Z" fill="black"/>
<path d="M416 398.222H376.59V376.889H405.333V345.6C405.333 320.114 384.597 299.378 359.111 299.378H334.222V376.889H348.444V398.222H323.556C317.668 398.222 312.889 393.444 312.889 387.556V288.711C312.889 282.823 317.668 278.044 323.556 278.044H359.111C396.359 278.044 426.667 308.352 426.667 345.6V387.556C426.667 393.444 421.888 398.222 416 398.222Z" fill="black"/>
<path d="M192 426.667C172.388 426.667 156.444 410.709 156.444 391.111C156.444 371.513 172.388 355.555 192 355.555C211.612 355.555 227.556 371.513 227.556 391.111C227.556 410.709 211.612 426.667 192 426.667ZM192 376.889C184.149 376.889 177.778 383.275 177.778 391.111C177.778 398.947 184.149 405.333 192 405.333C199.851 405.333 206.222 398.947 206.222 391.111C206.222 383.275 199.851 376.889 192 376.889Z" fill="black"/>
<path d="M362.667 426.667C343.054 426.667 327.111 410.709 327.111 391.111C327.111 371.513 343.054 355.555 362.667 355.555C382.279 355.555 398.222 371.513 398.222 391.111C398.222 410.709 382.279 426.667 362.667 426.667ZM362.667 376.889C354.816 376.889 348.444 383.275 348.444 391.111C348.444 398.947 354.816 405.333 362.667 405.333C370.517 405.333 376.889 398.947 376.889 391.111C376.889 383.275 370.517 376.889 362.667 376.889Z" fill="black"/>
</svg>
