<svg width="512" height="512" viewBox="0 0 512 512" fill="none" xmlns="http://www.w3.org/2000/svg">
<path d="M389.931 55.6659C291.584 57.5006 223.076 7.80811 175.687 8.70411C128.299 9.60011 29.2552 38.6988 33.337 256.74C37.4188 474.781 171.918 504.263 224.057 503.296C468.153 498.731 564.125 52.409 389.931 55.6659Z" fill="#EFEFEF"/>
<path d="M92.1763 61.6013L112.29 41.4881L122.346 51.5447L102.233 71.658L92.1763 61.6013Z" fill="#A4AFC1"/>
<path d="M34.3486 119.405L54.4619 99.2918L64.5185 109.348L44.4053 129.462L34.3486 119.405Z" fill="#A4AFC1"/>
<path d="M34.3516 49.022L44.4082 38.9653L64.5215 59.0786L54.4648 69.1352L34.3516 49.022Z" fill="#A4AFC1"/>
<path d="M323.556 199.111C311.794 199.111 302.222 189.539 302.222 177.778C302.222 166.016 311.794 156.444 323.556 156.444C335.317 156.444 344.889 166.016 344.889 177.778C344.889 189.539 335.317 199.111 323.556 199.111ZM323.556 170.667C319.63 170.667 316.444 173.852 316.444 177.778C316.444 181.703 319.63 184.889 323.556 184.889C327.481 184.889 330.667 181.703 330.667 177.778C330.667 173.852 327.481 170.667 323.556 170.667Z" fill="#A4AFC1"/>
<path d="M277.76 238.222H117.333V288V387.555H167.111H216.604H323.555V288.711V238.222H277.76Z" fill="#F3F3F1"/>
<path d="M359.111 288.711H323.556V387.556H337.778H387.257H416V345.6C416 314.183 390.528 288.711 359.111 288.711Z" fill="#2FDF84"/>
<path d="M192 416C205.746 416 216.889 404.857 216.889 391.111C216.889 377.365 205.746 366.222 192 366.222C178.254 366.222 167.111 377.365 167.111 391.111C167.111 404.857 178.254 416 192 416Z" fill="#F3F3F1"/>
<path d="M362.667 416C376.412 416 387.556 404.857 387.556 391.111C387.556 377.365 376.412 366.222 362.667 366.222C348.921 366.222 337.778 377.365 337.778 391.111C337.778 404.857 348.921 416 362.667 416Z" fill="#F3F3F1"/>
<path d="M177.778 259.556C222.942 259.556 259.556 222.942 259.556 177.778C259.556 132.613 222.942 96 177.778 96C132.613 96 96 132.613 96 177.778C96 222.942 132.613 259.556 177.778 259.556Z" fill="#2FDF84"/>
<path d="M149.333 238.222H117.333V288V387.555H149.333V288V238.222Z" fill="#D5DBE1"/>
<path d="M323.556 288.711V387.556H337.778H355.556V288.711H323.556Z" fill="#00B871"/>
<path d="M199.111 391.111C199.111 383.488 202.61 376.761 208 372.196C203.662 368.526 198.13 366.222 192 366.222C178.261 366.222 167.111 377.372 167.111 391.111C167.111 404.85 178.261 416 192 416C198.13 416 203.662 413.696 208 410.027C202.61 405.461 199.111 398.734 199.111 391.111Z" fill="#D5DBE1"/>
<path d="M369.778 391.111C369.778 383.488 373.277 376.761 378.667 372.196C374.329 368.526 368.796 366.222 362.667 366.222C348.928 366.222 337.778 377.372 337.778 391.111C337.778 404.85 348.928 416 362.667 416C368.796 416 374.329 413.696 378.667 410.027C373.277 405.461 369.778 398.734 369.778 391.111Z" fill="#D5DBE1"/>
<path d="M128 177.778C128 138.098 156.274 105.031 193.778 97.5929C188.601 96.5547 183.253 96 177.778 96C132.608 96 96 132.608 96 177.778C96 222.948 132.608 259.556 177.778 259.556C183.253 259.556 188.601 259.001 193.778 257.963C156.274 250.524 128 217.458 128 177.778Z" fill="#00B871"/>
<path d="M177.778 398.222H117.333C111.445 398.222 106.667 393.443 106.667 387.555V267.378H128V376.889H177.778V398.222Z" fill="black"/>
<path d="M323.556 398.222H205.924V376.889H312.889V248.889H270.222V227.555H323.556C329.444 227.555 334.222 232.334 334.222 238.222V387.555C334.222 393.443 329.444 398.222 323.556 398.222Z" fill="black"/>
<path d="M416 398.222H376.59V376.889H405.333V345.6C405.333 320.114 384.597 299.378 359.111 299.378H334.222V376.889H348.444V398.222H323.556C317.668 398.222 312.889 393.444 312.889 387.556V288.711C312.889 282.823 317.668 278.044 323.556 278.044H359.111C396.359 278.044 426.667 308.352 426.667 345.6V387.556C426.667 393.444 421.888 398.222 416 398.222Z" fill="black"/>
<path d="M192 426.667C172.402 426.667 156.444 410.709 156.444 391.111C156.444 371.513 172.402 355.555 192 355.555C211.598 355.555 227.555 371.513 227.555 391.111C227.555 410.709 211.598 426.667 192 426.667ZM192 376.889C184.163 376.889 177.778 383.275 177.778 391.111C177.778 398.947 184.163 405.333 192 405.333C199.836 405.333 206.222 398.947 206.222 391.111C206.222 383.275 199.836 376.889 192 376.889Z" fill="black"/>
<path d="M362.667 426.667C343.068 426.667 327.111 410.709 327.111 391.111C327.111 371.513 343.068 355.555 362.667 355.555C382.265 355.555 398.222 371.513 398.222 391.111C398.222 410.709 382.265 426.667 362.667 426.667ZM362.667 376.889C354.83 376.889 348.444 383.275 348.444 391.111C348.444 398.947 354.83 405.333 362.667 405.333C370.503 405.333 376.889 398.947 376.889 391.111C376.889 383.275 370.503 376.889 362.667 376.889Z" fill="black"/>
<path d="M177.778 270.222C126.805 270.222 85.3333 228.75 85.3333 177.778C85.3333 126.805 126.805 85.3333 177.778 85.3333C228.75 85.3333 270.222 126.805 270.222 177.778C270.222 228.75 228.75 270.222 177.778 270.222ZM177.778 106.667C138.567 106.667 106.667 138.567 106.667 177.778C106.667 216.988 138.567 248.889 177.778 248.889C216.988 248.889 248.889 216.988 248.889 177.778C248.889 138.567 216.988 106.667 177.778 106.667Z" fill="black"/>
<path d="M143.403 100.764H164.736V254.777H143.403V100.764Z" fill="black"/>
<path d="M190.82 100.764H212.153V254.777H190.82V100.764Z" fill="black"/>
<path d="M100.764 143.403H254.777V164.736H100.764V143.403Z" fill="black"/>
<path d="M100.764 190.82H254.777V212.153H100.764V190.82Z" fill="black"/>
</svg>
