<svg width="512" height="512" viewBox="0 0 512 512" fill="none" xmlns="http://www.w3.org/2000/svg">
<path d="M15.1182 217.742C67.1004 301.255 59.5342 385.536 84.5937 425.785C109.653 466.034 185.401 536.149 370.531 420.907C555.662 305.664 512.057 175.061 484.508 130.788C355.484 -76.4871 -76.9423 69.8454 15.1182 217.742Z" fill="#EFEFEF"/>
<path d="M450.091 322.276C438.329 322.276 428.757 312.704 428.757 300.942C428.757 289.18 438.329 279.609 450.091 279.609C461.852 279.609 471.424 289.18 471.424 300.942C471.424 312.704 461.867 322.276 450.091 322.276ZM450.091 293.831C446.18 293.831 442.98 297.017 442.98 300.942C442.98 304.868 446.18 308.053 450.091 308.053C454.002 308.053 457.202 304.868 457.202 300.942C457.202 297.017 454.016 293.831 450.091 293.831Z" fill="#A4AFC1"/>
<path d="M98.1799 61.7495L118.293 41.6363L128.35 51.6929L108.237 71.8061L98.1799 61.7495Z" fill="#A4AFC1"/>
<path d="M40.3625 119.557L60.4758 99.4441L70.5324 109.501L50.4192 129.614L40.3625 119.557Z" fill="#A4AFC1"/>
<path d="M40.3552 49.1846L50.4119 39.1279L70.5251 59.2412L60.4685 69.2978L40.3552 49.1846Z" fill="#A4AFC1"/>
<path d="M98.1731 107.055L108.23 96.9981L128.343 117.111L118.286 127.168L98.1731 107.055Z" fill="#A4AFC1"/>
<path d="M277.76 238.222H117.333V288V387.555H167.111H216.604H323.555V288.711V238.222H277.76Z" fill="#F3F3F1"/>
<path d="M359.111 288.711H323.556V387.556H337.778H387.257H416V345.6C416 314.183 390.528 288.711 359.111 288.711Z" fill="#2FDF84"/>
<path d="M192 416C205.746 416 216.889 404.857 216.889 391.111C216.889 377.365 205.746 366.222 192 366.222C178.254 366.222 167.111 377.365 167.111 391.111C167.111 404.857 178.254 416 192 416Z" fill="#F3F3F1"/>
<path d="M362.667 416C376.412 416 387.556 404.857 387.556 391.111C387.556 377.365 376.412 366.222 362.667 366.222C348.921 366.222 337.778 377.365 337.778 391.111C337.778 404.857 348.921 416 362.667 416Z" fill="#F3F3F1"/>
<path d="M216.889 96C199.396 96 184.32 106.482 177.778 121.5C171.236 106.482 156.16 96 138.667 96C115.129 96 96 115.058 96 138.496C96 184.533 177.778 245.333 177.778 245.333C177.778 245.333 259.556 184.533 259.556 138.496C259.556 115.058 240.427 96 216.889 96Z" fill="#2FDF84"/>
<path d="M149.333 238.222H117.333V288V387.555H149.333V288V238.222Z" fill="#D5DBE1"/>
<path d="M323.556 288.711V387.556H337.778H355.556V288.711H323.556Z" fill="#00B871"/>
<path d="M199.111 391.111C199.111 383.488 202.61 376.761 208 372.196C203.662 368.526 198.13 366.222 192 366.222C178.261 366.222 167.111 377.372 167.111 391.111C167.111 404.85 178.261 416 192 416C198.13 416 203.662 413.696 208 410.027C202.61 405.461 199.111 398.734 199.111 391.111Z" fill="#D5DBE1"/>
<path d="M369.778 391.111C369.778 383.488 373.277 376.761 378.667 372.196C374.329 368.526 368.796 366.222 362.667 366.222C348.928 366.222 337.778 377.372 337.778 391.111C337.778 404.85 348.928 416 362.667 416C368.796 416 374.329 413.696 378.667 410.027C373.277 405.461 369.778 398.734 369.778 391.111Z" fill="#D5DBE1"/>
<path d="M128 138.496C128 120.718 139.022 105.515 154.61 99.1716C149.66 97.1947 144.313 96 138.667 96C115.129 96 96 115.058 96 138.496C96 184.533 177.778 245.333 177.778 245.333C177.778 245.333 184.405 240.37 193.778 232.363C169.984 212.039 128 171.534 128 138.496Z" fill="#00B871"/>
<path d="M209.778 121.5C214.201 111.332 222.592 103.339 232.946 99.1858C227.982 97.1662 222.578 96 216.889 96C208.37 96 200.448 98.5173 193.778 102.812C200.804 107.321 206.421 113.792 209.778 121.5Z" fill="#00B871"/>
<path d="M177.778 256C175.545 256 173.312 255.303 171.42 253.895C162.603 247.339 85.3333 188.444 85.3333 138.496C85.3333 109.184 109.269 85.3333 138.667 85.3333C153.785 85.3333 167.879 91.6764 177.778 102.315C187.676 91.6764 201.771 85.3333 216.889 85.3333C246.286 85.3333 270.222 109.184 270.222 138.496C270.222 188.444 192.953 247.339 184.135 253.895C182.243 255.303 180.011 256 177.778 256ZM138.667 106.667C121.031 106.667 106.667 120.946 106.667 138.496C106.667 168.903 153.259 212.309 177.778 231.851C202.297 212.309 248.889 168.903 248.889 138.496C248.889 120.946 234.524 106.667 216.889 106.667C204.131 106.667 192.611 114.162 187.563 125.753C184.178 133.547 171.392 133.547 168.007 125.753C162.944 114.162 151.424 106.667 138.667 106.667Z" fill="black"/>
<path d="M177.778 398.222H117.333C111.445 398.222 106.667 393.443 106.667 387.555V239.36H128V376.889H177.778V398.222Z" fill="black"/>
<path d="M323.556 398.222H205.938V376.889H312.889V248.889H239.644V227.555H323.556C329.444 227.555 334.222 232.334 334.222 238.222V387.555C334.222 393.443 329.444 398.222 323.556 398.222Z" fill="black"/>
<path d="M416 398.222H376.59V376.889H405.333V345.6C405.333 320.114 384.597 299.378 359.111 299.378H334.222V376.889H348.444V398.222H323.556C317.668 398.222 312.889 393.444 312.889 387.556V288.711C312.889 282.823 317.668 278.044 323.556 278.044H359.111C396.359 278.044 426.667 308.352 426.667 345.6V387.556C426.667 393.444 421.888 398.222 416 398.222Z" fill="black"/>
<path d="M192 426.667C172.387 426.667 156.444 410.709 156.444 391.111C156.444 371.513 172.387 355.555 192 355.555C211.612 355.555 227.555 371.513 227.555 391.111C227.555 410.709 211.612 426.667 192 426.667ZM192 376.889C184.149 376.889 177.778 383.275 177.778 391.111C177.778 398.947 184.149 405.333 192 405.333C199.851 405.333 206.222 398.947 206.222 391.111C206.222 383.275 199.851 376.889 192 376.889Z" fill="black"/>
<path d="M362.667 426.667C343.054 426.667 327.111 410.709 327.111 391.111C327.111 371.513 343.054 355.555 362.667 355.555C382.279 355.555 398.222 371.513 398.222 391.111C398.222 410.709 382.279 426.667 362.667 426.667ZM362.667 376.889C354.816 376.889 348.444 383.275 348.444 391.111C348.444 398.947 354.816 405.333 362.667 405.333C370.517 405.333 376.889 398.947 376.889 391.111C376.889 383.275 370.517 376.889 362.667 376.889Z" fill="black"/>
</svg>
