<svg width="512" height="512" viewBox="0 0 512 512" fill="none" xmlns="http://www.w3.org/2000/svg">
<path d="M496.754 292.85C444.231 209.678 451.257 125.34 425.941 85.2622C400.626 45.184 324.423 -24.448 140.032 91.9893C-44.3591 208.427 0.0853338 338.745 27.9324 382.834C158.293 589.269 589.767 440.164 496.754 292.85Z" fill="#EFEFEF"/>
<path d="M109.823 53.0454L129.936 32.9322L139.993 42.9888L119.879 63.102L109.823 53.0454Z" fill="#A4AFC1"/>
<path d="M51.9854 110.853L72.0986 90.74L82.1552 100.797L62.042 120.91L51.9854 110.853Z" fill="#A4AFC1"/>
<path d="M51.998 40.4805L62.0547 30.4238L82.1679 50.5371L72.1113 60.5937L51.998 40.4805Z" fill="#A4AFC1"/>
<path d="M401.778 252.444C390.016 252.444 380.445 242.873 380.445 231.111C380.445 219.349 390.016 209.778 401.778 209.778C413.54 209.778 423.111 219.349 423.111 231.111C423.111 242.873 413.54 252.444 401.778 252.444ZM401.778 224C397.853 224 394.667 227.186 394.667 231.111C394.667 235.036 397.853 238.222 401.778 238.222C405.703 238.222 408.889 235.036 408.889 231.111C408.889 227.186 405.703 224 401.778 224Z" fill="#A4AFC1"/>
<path d="M277.76 238.222H117.333V288V387.555H167.111H216.605H323.556V288.711V238.222H277.76Z" fill="#F3F3F1"/>
<path d="M359.111 288.711H323.556V387.556H337.778H387.257H416V345.6C416 314.183 390.528 288.711 359.111 288.711Z" fill="#2FDF84"/>
<path d="M192 416C205.746 416 216.889 404.857 216.889 391.111C216.889 377.365 205.746 366.222 192 366.222C178.254 366.222 167.111 377.365 167.111 391.111C167.111 404.857 178.254 416 192 416Z" fill="#F3F3F1"/>
<path d="M362.667 416C376.412 416 387.556 404.857 387.556 391.111C387.556 377.365 376.412 366.222 362.667 366.222C348.921 366.222 337.778 377.365 337.778 391.111C337.778 404.857 348.921 416 362.667 416Z" fill="#F3F3F1"/>
<path d="M188.444 231.111H110.222C102.372 231.111 96 224.74 96 216.889V167.111C96 159.26 102.372 152.889 110.222 152.889H188.444C196.295 152.889 202.667 159.26 202.667 167.111V216.889C202.667 224.74 196.295 231.111 188.444 231.111Z" fill="#2FDF84"/>
<path d="M149.333 238.222H117.333V288V387.555H149.333V288V238.222Z" fill="#D5DBE1"/>
<path d="M323.556 288.711V387.556H337.778H355.556V288.711H323.556Z" fill="#00B871"/>
<path d="M199.111 391.111C199.111 383.488 202.61 376.761 208 372.196C203.662 368.526 198.13 366.222 192 366.222C178.262 366.222 167.111 377.372 167.111 391.111C167.111 404.85 178.262 416 192 416C198.13 416 203.662 413.696 208 410.027C202.61 405.461 199.111 398.734 199.111 391.111Z" fill="#D5DBE1"/>
<path d="M369.778 391.111C369.778 383.488 373.277 376.761 378.667 372.196C374.329 368.526 368.796 366.222 362.667 366.222C348.928 366.222 337.778 377.372 337.778 391.111C337.778 404.85 348.928 416 362.667 416C368.796 416 374.329 413.696 378.667 410.027C373.277 405.461 369.778 398.734 369.778 391.111Z" fill="#D5DBE1"/>
<path d="M128 216.889V167.111C128 159.26 134.372 152.889 142.222 152.889H110.222C102.372 152.889 96 159.26 96 167.111V216.889C96 224.74 102.372 231.111 110.222 231.111H142.222C134.372 231.111 128 224.74 128 216.889Z" fill="#00B871"/>
<path d="M188.445 241.778H110.222C96.4979 241.778 85.3335 230.613 85.3335 216.889V167.111C85.3335 153.387 96.4979 142.222 110.222 142.222H188.445C202.169 142.222 213.333 153.387 213.333 167.111V216.889C213.333 230.613 202.169 241.778 188.445 241.778ZM110.222 163.556C108.26 163.556 106.667 165.148 106.667 167.111V216.889C106.667 218.852 108.26 220.444 110.222 220.444H188.445C190.407 220.444 192 218.852 192 216.889V167.111C192 165.148 190.407 163.556 188.445 163.556H110.222Z" fill="black"/>
<path d="M174.222 163.555H124.444C118.556 163.555 113.778 158.777 113.778 152.889V120.889C113.778 101.291 129.735 85.3333 149.333 85.3333C168.932 85.3333 184.889 101.291 184.889 120.889V152.889C184.889 158.777 180.11 163.555 174.222 163.555ZM135.111 142.222H163.556V120.889C163.556 113.052 157.17 106.667 149.333 106.667C141.497 106.667 135.111 113.052 135.111 120.889V142.222Z" fill="black"/>
<path d="M177.778 398.222H117.334C111.446 398.222 106.667 393.444 106.667 387.556V263.111H128V376.889H177.778V398.222Z" fill="black"/>
<path d="M323.556 398.222H205.938V376.889H312.889V248.889H230.542V227.555H323.556C329.444 227.555 334.222 232.334 334.222 238.222V387.555C334.222 393.443 329.444 398.222 323.556 398.222Z" fill="black"/>
<path d="M416 398.222H376.59V376.889H405.334V345.6C405.334 320.114 384.598 299.378 359.111 299.378H334.222V376.889H348.445V398.222H323.556C317.668 398.222 312.889 393.444 312.889 387.556V288.711C312.889 282.823 317.668 278.044 323.556 278.044H359.111C396.359 278.044 426.667 308.352 426.667 345.6V387.556C426.667 393.444 421.888 398.222 416 398.222Z" fill="black"/>
<path d="M192 426.667C172.402 426.667 156.445 410.709 156.445 391.111C156.445 371.513 172.402 355.555 192 355.555C211.599 355.555 227.556 371.513 227.556 391.111C227.556 410.709 211.599 426.667 192 426.667ZM192 376.889C184.164 376.889 177.778 383.275 177.778 391.111C177.778 398.947 184.164 405.333 192 405.333C199.837 405.333 206.223 398.947 206.223 391.111C206.223 383.275 199.837 376.889 192 376.889Z" fill="black"/>
<path d="M362.667 426.667C343.069 426.667 327.111 410.709 327.111 391.111C327.111 371.513 343.069 355.555 362.667 355.555C382.265 355.555 398.222 371.513 398.222 391.111C398.222 410.709 382.265 426.667 362.667 426.667ZM362.667 376.889C354.83 376.889 348.445 383.275 348.445 391.111C348.445 398.947 354.83 405.333 362.667 405.333C370.503 405.333 376.889 398.947 376.889 391.111C376.889 383.275 370.503 376.889 362.667 376.889Z" fill="black"/>
</svg>
