<svg width="512" height="512" viewBox="0 0 512 512" fill="none" xmlns="http://www.w3.org/2000/svg">
<path d="M119.139 59.2639C217.515 59.2639 285.07 8.30566 332.473 8.30566C379.875 8.30566 479.431 35.5554 479.431 253.625C479.431 471.694 345.5 503.694 293.362 503.694C49.2088 503.708 -55.0828 59.2639 119.139 59.2639Z" fill="#EFEFEF"/>
<path d="M183.111 50.3325H211.556V64.5547H183.111V50.3325Z" fill="#A4AFC1"/>
<path d="M101.333 50.3325H129.778V64.5547H101.333V50.3325Z" fill="#A4AFC1"/>
<path d="M151.111 0.554688H165.334V28.9991H151.111V0.554688Z" fill="#A4AFC1"/>
<path d="M400.981 250.667C389.22 250.667 379.648 241.095 379.648 229.333C379.648 217.572 389.22 208 400.981 208C412.743 208 422.315 217.572 422.315 229.333C422.315 241.095 412.743 250.667 400.981 250.667ZM400.981 222.222C397.07 222.222 393.87 225.422 393.87 229.333C393.87 233.244 397.07 236.444 400.981 236.444C404.892 236.444 408.092 233.244 408.092 229.333C408.092 225.422 404.907 222.222 400.981 222.222Z" fill="#A4AFC1"/>
<path d="M277.76 238.222H117.333V288V387.555H167.111H216.605H323.556V288.711V238.222H277.76Z" fill="#F3F3F1"/>
<path d="M359.111 288.711H323.556V387.556H337.778H387.257H416V345.6C416 314.183 390.528 288.711 359.111 288.711Z" fill="#2FDF84"/>
<path d="M192 416C205.746 416 216.889 404.857 216.889 391.111C216.889 377.365 205.746 366.222 192 366.222C178.254 366.222 167.111 377.365 167.111 391.111C167.111 404.857 178.254 416 192 416Z" fill="#F3F3F1"/>
<path d="M362.667 416C376.412 416 387.556 404.857 387.556 391.111C387.556 377.365 376.412 366.222 362.667 366.222C348.921 366.222 337.778 377.365 337.778 391.111C337.778 404.857 348.921 416 362.667 416Z" fill="#F3F3F1"/>
<path d="M216.889 157.326C216.889 207.829 156.444 259.556 156.444 259.556C156.444 259.556 96 207.844 96 157.326C96 123.463 123.065 96 156.444 96C189.824 96 216.889 123.463 216.889 157.326Z" fill="#2FDF84"/>
<path d="M156.444 174.222C166.263 174.222 174.222 166.263 174.222 156.445C174.222 146.626 166.263 138.667 156.444 138.667C146.626 138.667 138.667 146.626 138.667 156.445C138.667 166.263 146.626 174.222 156.444 174.222Z" fill="#F3F3F1"/>
<path d="M149.333 238.222H117.333V288V387.555H149.333V288V238.222Z" fill="#D5DBE1"/>
<path d="M323.556 288.711V387.556H337.778H355.556V288.711H323.556Z" fill="#00B871"/>
<path d="M199.111 391.111C199.111 383.488 202.61 376.761 208 372.196C203.662 368.526 198.13 366.222 192 366.222C178.262 366.222 167.111 377.372 167.111 391.111C167.111 404.85 178.262 416 192 416C198.13 416 203.662 413.696 208 410.027C202.61 405.461 199.111 398.734 199.111 391.111Z" fill="#D5DBE1"/>
<path d="M369.778 391.111C369.778 383.488 373.277 376.761 378.667 372.196C374.329 368.526 368.796 366.222 362.667 366.222C348.928 366.222 337.778 377.372 337.778 391.111C337.778 404.85 348.928 416 362.667 416C368.796 416 374.329 413.696 378.667 410.027C373.277 405.461 369.778 398.734 369.778 391.111Z" fill="#D5DBE1"/>
<path d="M128 157.326C128 129.109 146.887 105.6 172.444 98.4462C167.31 97.0098 162.02 96 156.444 96C123.065 96 96 123.463 96 157.326C96 207.829 156.444 259.556 156.444 259.556C156.444 259.556 163.356 253.596 172.444 243.883C154.539 224.768 128 190.834 128 157.326Z" fill="#00B871"/>
<path d="M156.445 270.222C153.97 270.222 151.495 269.369 149.518 267.662C146.887 265.415 85.3335 212.124 85.3335 157.326C85.3335 117.632 117.234 85.3333 156.445 85.3333C195.655 85.3333 227.556 117.632 227.556 157.326C227.556 212.124 166.002 265.415 163.371 267.662C161.394 269.369 158.919 270.222 156.445 270.222ZM156.445 106.667C128.996 106.667 106.667 129.394 106.667 157.326C106.667 192.626 141.312 230.243 156.445 244.992C171.577 230.243 206.222 192.626 206.222 157.326C206.222 129.394 183.894 106.667 156.445 106.667Z" fill="black"/>
<path d="M156.444 184.889C140.757 184.889 128 172.132 128 156.444C128 140.757 140.757 128 156.444 128C172.132 128 184.889 140.757 184.889 156.444C184.889 172.132 172.132 184.889 156.444 184.889ZM156.444 149.333C152.533 149.333 149.333 152.533 149.333 156.444C149.333 160.356 152.533 163.556 156.444 163.556C160.356 163.556 163.556 160.356 163.556 156.444C163.556 152.533 160.356 149.333 156.444 149.333Z" fill="black"/>
<path d="M167.111 398.222H117.334C111.446 398.222 106.667 393.444 106.667 387.556V288H128V376.889H167.111V398.222Z" fill="black"/>
<path d="M323.556 398.222H216.604V376.889H312.889V248.889H227.556V227.555H323.556C329.444 227.555 334.222 232.334 334.222 238.222V387.555C334.222 393.443 329.444 398.222 323.556 398.222Z" fill="black"/>
<path d="M416 398.222H387.257V376.889H405.334V345.6C405.334 320.114 384.598 299.378 359.111 299.378H334.222V376.889H337.778V398.222H323.556C317.668 398.222 312.889 393.444 312.889 387.556V288.711C312.889 282.823 317.668 278.044 323.556 278.044H359.111C396.359 278.044 426.667 308.352 426.667 345.6V387.556C426.667 393.444 421.888 398.222 416 398.222Z" fill="black"/>
<path d="M192 426.667C172.388 426.667 156.445 410.723 156.445 391.111C156.445 371.499 172.388 355.555 192 355.555C211.613 355.555 227.556 371.499 227.556 391.111C227.556 410.723 211.613 426.667 192 426.667ZM192 376.889C184.15 376.889 177.778 383.26 177.778 391.111C177.778 398.962 184.15 405.333 192 405.333C199.851 405.333 206.223 398.962 206.223 391.111C206.223 383.26 199.851 376.889 192 376.889Z" fill="black"/>
<path d="M362.667 426.667C343.054 426.667 327.111 410.723 327.111 391.111C327.111 371.499 343.054 355.555 362.667 355.555C382.279 355.555 398.222 371.499 398.222 391.111C398.222 410.723 382.279 426.667 362.667 426.667ZM362.667 376.889C354.816 376.889 348.445 383.26 348.445 391.111C348.445 398.962 354.816 405.333 362.667 405.333C370.518 405.333 376.889 398.962 376.889 391.111C376.889 383.26 370.518 376.889 362.667 376.889Z" fill="black"/>
</svg>
