<svg width="512" height="512" viewBox="0 0 512 512" fill="none" xmlns="http://www.w3.org/2000/svg">
<path d="M119.139 452.736C217.515 452.736 285.07 503.694 332.473 503.694C379.875 503.694 479.431 476.444 479.431 258.375C479.431 40.3057 345.5 8.2915 293.362 8.2915C49.2088 8.2915 -55.0828 452.736 119.139 452.736Z" fill="#EFEFEF"/>
<path d="M109.81 45.5662L129.923 25.4529L139.98 35.5095L119.867 55.6228L109.81 45.5662Z" fill="#A4AFC1"/>
<path d="M51.9824 103.384L72.0957 83.271L82.1523 93.3276L62.0391 113.441L51.9824 103.384Z" fill="#A4AFC1"/>
<path d="M51.9995 33.0012L62.0561 22.9446L82.1694 43.0579L72.1128 53.1145L51.9995 33.0012Z" fill="#A4AFC1"/>
<path d="M387.556 248.889C375.794 248.889 366.222 239.318 366.222 227.556C366.222 215.794 375.794 206.222 387.556 206.222C399.317 206.222 408.889 215.794 408.889 227.556C408.889 239.318 399.317 248.889 387.556 248.889ZM387.556 220.445C383.63 220.445 380.444 223.63 380.444 227.556C380.444 231.481 383.63 234.667 387.556 234.667C391.481 234.667 394.667 231.481 394.667 227.556C394.667 223.63 391.481 220.445 387.556 220.445Z" fill="#A4AFC1"/>
<path d="M277.76 238.222H117.333V288V387.555H167.111H216.605H323.556V288.711V238.222H277.76Z" fill="#F3F3F1"/>
<path d="M359.111 288.711H323.556V387.556H337.778H387.257H416V345.6C416 314.183 390.528 288.711 359.111 288.711Z" fill="#2FDF84"/>
<path d="M192 416C205.746 416 216.889 404.857 216.889 391.111C216.889 377.365 205.746 366.222 192 366.222C178.254 366.222 167.111 377.365 167.111 391.111C167.111 404.857 178.254 416 192 416Z" fill="#F3F3F1"/>
<path d="M362.667 416C376.412 416 387.556 404.857 387.556 391.111C387.556 377.365 376.412 366.222 362.667 366.222C348.921 366.222 337.778 377.365 337.778 391.111C337.778 404.857 348.921 416 362.667 416Z" fill="#F3F3F1"/>
<path d="M177.778 259.556C222.942 259.556 259.556 222.942 259.556 177.778C259.556 132.613 222.942 96 177.778 96C132.613 96 96 132.613 96 177.778C96 222.942 132.613 259.556 177.778 259.556Z" fill="#2FDF84"/>
<path d="M149.333 238.222H117.333V288V387.555H149.333V288V238.222Z" fill="#D5DBE1"/>
<path d="M323.556 288.711V387.556H337.778H355.556V288.711H323.556Z" fill="#00B871"/>
<path d="M199.111 391.111C199.111 383.488 202.61 376.761 208 372.196C203.662 368.526 198.13 366.222 192 366.222C178.262 366.222 167.111 377.372 167.111 391.111C167.111 404.85 178.262 416 192 416C198.13 416 203.662 413.696 208 410.027C202.61 405.461 199.111 398.734 199.111 391.111Z" fill="#D5DBE1"/>
<path d="M369.778 391.111C369.778 383.488 373.277 376.761 378.667 372.196C374.329 368.526 368.796 366.222 362.667 366.222C348.928 366.222 337.778 377.372 337.778 391.111C337.778 404.85 348.928 416 362.667 416C368.796 416 374.329 413.696 378.667 410.027C373.277 405.461 369.778 398.734 369.778 391.111Z" fill="#D5DBE1"/>
<path d="M128 177.778C128 138.098 156.274 105.031 193.778 97.5929C188.601 96.5547 183.253 96 177.778 96C132.608 96 96 132.608 96 177.778C96 222.948 132.608 259.556 177.778 259.556C183.253 259.556 188.601 259.001 193.778 257.963C156.274 250.524 128 217.458 128 177.778Z" fill="#00B871"/>
<path d="M177.778 270.222C126.805 270.222 85.3335 228.75 85.3335 177.778C85.3335 126.805 126.805 85.3333 177.778 85.3333C228.75 85.3333 270.222 126.805 270.222 177.778C270.222 228.75 228.75 270.222 177.778 270.222ZM177.778 106.667C138.567 106.667 106.667 138.567 106.667 177.778C106.667 216.988 138.567 248.889 177.778 248.889C216.989 248.889 248.889 216.988 248.889 177.778C248.889 138.567 216.989 106.667 177.778 106.667Z" fill="black"/>
<path d="M188.444 202.667H167.111V199.395C167.111 186.012 174.066 173.241 186.183 164.38C189.881 161.664 192 157.483 192 152.889C192 145.052 185.614 138.667 177.778 138.667C169.941 138.667 163.556 145.052 163.556 152.889H142.222C142.222 133.291 158.18 117.333 177.778 117.333C197.376 117.333 213.333 133.291 213.333 152.889C213.333 164.167 207.9 174.891 198.798 181.575C194.93 184.405 188.444 190.478 188.444 199.395V202.667Z" fill="black"/>
<path d="M177.778 398.222H117.334C111.446 398.222 106.667 393.443 106.667 387.555V275.769H128V376.889H177.778V398.222Z" fill="black"/>
<path d="M323.556 398.222H205.938V376.889H312.889V248.889H275.769V227.555H323.556C329.444 227.555 334.222 232.334 334.222 238.222V387.555C334.222 393.443 329.444 398.222 323.556 398.222Z" fill="black"/>
<path d="M416 398.222H376.59V376.889H405.334V345.6C405.334 320.114 384.598 299.378 359.111 299.378H334.222V376.889H348.445V398.222H323.556C317.668 398.222 312.889 393.444 312.889 387.556V288.711C312.889 282.823 317.668 278.044 323.556 278.044H359.111C396.359 278.044 426.667 308.352 426.667 345.6V387.556C426.667 393.444 421.888 398.222 416 398.222Z" fill="black"/>
<path d="M192 426.667C172.402 426.667 156.445 410.709 156.445 391.111C156.445 371.513 172.402 355.555 192 355.555C211.599 355.555 227.556 371.513 227.556 391.111C227.556 410.709 211.599 426.667 192 426.667ZM192 376.889C184.164 376.889 177.778 383.275 177.778 391.111C177.778 398.947 184.164 405.333 192 405.333C199.837 405.333 206.223 398.947 206.223 391.111C206.223 383.275 199.837 376.889 192 376.889Z" fill="black"/>
<path d="M362.667 426.667C343.069 426.667 327.111 410.709 327.111 391.111C327.111 371.513 343.069 355.555 362.667 355.555C382.265 355.555 398.222 371.513 398.222 391.111C398.222 410.709 382.265 426.667 362.667 426.667ZM362.667 376.889C354.83 376.889 348.445 383.275 348.445 391.111C348.445 398.947 354.83 405.333 362.667 405.333C370.503 405.333 376.889 398.947 376.889 391.111C376.889 383.275 370.503 376.889 362.667 376.889Z" fill="black"/>
<path d="M177.778 238.222C174.934 238.222 172.231 237.084 170.24 235.093C168.249 233.102 167.111 230.4 167.111 227.556C167.111 226.133 167.396 224.853 167.965 223.431C168.534 222.151 169.245 221.013 170.24 220.018C171.236 219.022 172.374 218.311 173.654 217.742C176.356 216.604 179.2 216.604 181.902 217.742C183.182 218.311 184.32 219.022 185.316 220.018C186.311 221.013 187.022 222.151 187.591 223.431C188.16 224.853 188.445 226.133 188.445 227.556C188.445 230.4 187.307 233.102 185.316 235.093C183.325 237.084 180.622 238.222 177.778 238.222Z" fill="black"/>
</svg>
