<svg width="512" height="512" viewBox="0 0 512 512" fill="none" xmlns="http://www.w3.org/2000/svg">
<path d="M190.734 497.763C280.306 457.102 362.894 475.591 406.059 456.007C449.223 436.409 528.612 370.446 438.485 171.875C348.359 -26.6952 213.191 -0.497876 165.703 21.0488C-56.6187 121.955 32.0853 569.771 190.734 497.763Z" fill="#EFEFEF"/>
<path d="M429.308 283.455L439.365 273.398L459.478 293.511L449.422 303.568L429.308 283.455Z" fill="#A4AFC1"/>
<path d="M371.486 225.546L381.543 215.49L401.656 235.603L391.6 245.659L371.486 225.546Z" fill="#A4AFC1"/>
<path d="M431.833 235.699L451.946 215.586L462.002 225.643L441.889 245.756L431.833 235.699Z" fill="#A4AFC1"/>
<path d="M133.333 62.009C121.572 62.009 112 52.4374 112 40.6756C112 28.9138 121.572 19.3423 133.333 19.3423C145.095 19.3423 154.667 28.9138 154.667 40.6756C154.667 52.4374 145.095 62.009 133.333 62.009ZM133.333 33.5645C129.408 33.5645 126.222 36.7503 126.222 40.6756C126.222 44.601 129.408 47.7867 133.333 47.7867C137.259 47.7867 140.444 44.601 140.444 40.6756C140.444 36.7503 137.259 33.5645 133.333 33.5645Z" fill="#A4AFC1"/>
<path d="M277.76 238.222H117.333V288V387.555H167.111H216.604H323.555V288.711V238.222H277.76Z" fill="#F3F3F1"/>
<path d="M359.111 288.711H323.556V387.556H337.778H387.257H416V345.6C416 314.183 390.528 288.711 359.111 288.711Z" fill="#2FDF84"/>
<path d="M192 416C205.746 416 216.889 404.857 216.889 391.111C216.889 377.365 205.746 366.222 192 366.222C178.254 366.222 167.111 377.365 167.111 391.111C167.111 404.857 178.254 416 192 416Z" fill="#F3F3F1"/>
<path d="M362.667 416C376.412 416 387.556 404.857 387.556 391.111C387.556 377.365 376.412 366.222 362.667 366.222C348.921 366.222 337.778 377.365 337.778 391.111C337.778 404.857 348.921 416 362.667 416Z" fill="#F3F3F1"/>
<path d="M170.667 245.333C211.904 245.333 245.333 211.904 245.333 170.667C245.333 129.429 211.904 96 170.667 96C129.429 96 96 129.429 96 170.667C96 211.904 129.429 245.333 170.667 245.333Z" fill="#2FDF84"/>
<path d="M149.333 238.222H117.333V288V387.555H149.333V288V238.222Z" fill="#D5DBE1"/>
<path d="M323.556 288.711V387.556H337.778H355.556V288.711H323.556Z" fill="#00B871"/>
<path d="M199.111 391.111C199.111 383.488 202.61 376.761 208 372.196C203.662 368.526 198.13 366.222 192 366.222C178.261 366.222 167.111 377.372 167.111 391.111C167.111 404.85 178.261 416 192 416C198.13 416 203.662 413.696 208 410.027C202.61 405.461 199.111 398.734 199.111 391.111Z" fill="#D5DBE1"/>
<path d="M369.778 391.111C369.778 383.488 373.277 376.761 378.667 372.196C374.329 368.526 368.796 366.222 362.667 366.222C348.928 366.222 337.778 377.372 337.778 391.111C337.778 404.85 348.928 416 362.667 416C368.796 416 374.329 413.696 378.667 410.027C373.277 405.461 369.778 398.734 369.778 391.111Z" fill="#D5DBE1"/>
<path d="M128 170.667C128 134.94 153.131 105.145 186.667 97.8204C181.504 96.6827 176.171 96 170.667 96C129.436 96 96 129.436 96 170.667C96 211.897 129.436 245.333 170.667 245.333C176.171 245.333 181.504 244.651 186.667 243.513C153.131 236.188 128 206.393 128 170.667Z" fill="#00B871"/>
<path d="M170.667 256C123.605 256 85.3333 217.728 85.3333 170.667C85.3333 123.605 123.605 85.3333 170.667 85.3333C198.67 85.3333 223.915 98.6737 239.9 121.955L222.322 134.044C210.19 116.395 191.843 106.667 170.667 106.667C135.381 106.667 106.667 135.381 106.667 170.667C106.667 205.952 135.381 234.667 170.667 234.667C205.952 234.667 234.667 205.952 234.667 170.667H256C256 217.728 217.728 256 170.667 256Z" fill="black"/>
<path d="M231.111 138.667H199.879V117.333H220.444V96H241.778V128C241.778 133.888 236.999 138.667 231.111 138.667Z" fill="black"/>
<path d="M177.778 398.222H117.333C111.445 398.222 106.667 393.443 106.667 387.555V275.769H128V376.889H177.778V398.222Z" fill="black"/>
<path d="M323.556 398.222H205.938V376.889H312.889V248.889H268.658V227.555H323.556C329.444 227.555 334.222 232.334 334.222 238.222V387.555C334.222 393.443 329.444 398.222 323.556 398.222Z" fill="black"/>
<path d="M416 398.222H376.59V376.889H405.333V345.6C405.333 320.114 384.597 299.378 359.111 299.378H334.222V376.889H348.444V398.222H323.556C317.668 398.222 312.889 393.444 312.889 387.556V288.711C312.889 282.823 317.668 278.044 323.556 278.044H359.111C396.359 278.044 426.667 308.352 426.667 345.6V387.556C426.667 393.444 421.888 398.222 416 398.222Z" fill="black"/>
<path d="M192 426.667C172.402 426.667 156.444 410.709 156.444 391.111C156.444 371.513 172.402 355.555 192 355.555C211.598 355.555 227.555 371.513 227.555 391.111C227.555 410.709 211.598 426.667 192 426.667ZM192 376.889C184.163 376.889 177.778 383.275 177.778 391.111C177.778 398.947 184.163 405.333 192 405.333C199.836 405.333 206.222 398.947 206.222 391.111C206.222 383.275 199.836 376.889 192 376.889Z" fill="black"/>
<path d="M362.667 426.667C343.068 426.667 327.111 410.709 327.111 391.111C327.111 371.513 343.068 355.555 362.667 355.555C382.265 355.555 398.222 371.513 398.222 391.111C398.222 410.709 382.265 426.667 362.667 426.667ZM362.667 376.889C354.83 376.889 348.444 383.275 348.444 391.111C348.444 398.947 354.83 405.333 362.667 405.333C370.503 405.333 376.889 398.947 376.889 391.111C376.889 383.275 370.503 376.889 362.667 376.889Z" fill="black"/>
</svg>
