<svg width="512" height="512" viewBox="0 0 512 512" fill="none" xmlns="http://www.w3.org/2000/svg">
<path d="M496.412 289.493C442.624 207.132 448.341 122.709 422.414 83.015C396.487 43.3208 319.218 -25.1165 136.647 94.1368C-45.9235 213.39 0.512009 343.026 29.0418 386.674C162.56 591.076 591.687 435.356 496.412 289.493Z" fill="#EFEFEF"/>
<path d="M33.7014 381.969L43.758 371.912L63.8713 392.026L53.8147 402.082L33.7014 381.969Z" fill="#A4AFC1"/>
<path d="M91.4341 439.91L101.491 429.854L121.614 449.977L111.557 460.034L91.4341 439.91Z" fill="#A4AFC1"/>
<path d="M31.1489 449.892L51.2622 429.778L61.3188 439.835L41.2056 459.948L31.1489 449.892Z" fill="#A4AFC1"/>
<path d="M416 249.515C404.238 249.515 394.667 239.943 394.667 228.181C394.667 216.419 404.238 206.848 416 206.848C427.762 206.848 437.333 216.419 437.333 228.181C437.333 239.943 427.762 249.515 416 249.515ZM416 221.07C412.089 221.07 408.889 224.256 408.889 228.181C408.889 232.107 412.089 235.292 416 235.292C419.911 235.292 423.111 232.107 423.111 228.181C423.111 224.256 419.911 221.07 416 221.07Z" fill="#A4AFC1"/>
<path d="M277.76 238.222H117.333V288V387.555H167.111H216.604H323.556V288.711V238.222H277.76Z" fill="#F3F3F1"/>
<path d="M359.111 288.711H323.556V387.556H337.778H387.257H416V345.6C416 314.183 390.528 288.711 359.111 288.711Z" fill="#2FDF84"/>
<path d="M192 416C205.746 416 216.889 404.857 216.889 391.111C216.889 377.365 205.746 366.222 192 366.222C178.254 366.222 167.111 377.365 167.111 391.111C167.111 404.857 178.254 416 192 416Z" fill="#F3F3F1"/>
<path d="M362.667 416C376.412 416 387.556 404.857 387.556 391.111C387.556 377.365 376.412 366.222 362.667 366.222C348.921 366.222 337.778 377.365 337.778 391.111C337.778 404.857 348.921 416 362.667 416Z" fill="#F3F3F1"/>
<path d="M156.444 216.889C189.827 216.889 216.889 189.827 216.889 156.444C216.889 123.062 189.827 96 156.444 96C123.062 96 96 123.062 96 156.444C96 189.827 123.062 216.889 156.444 216.889Z" fill="#2FDF84"/>
<path d="M149.333 238.222H117.333V288V387.555H149.333V288V238.222Z" fill="#D5DBE1"/>
<path d="M323.556 288.711V387.556H337.778H355.556V288.711H323.556Z" fill="#00B871"/>
<path d="M199.111 391.111C199.111 383.488 202.61 376.761 208 372.196C203.662 368.526 198.13 366.222 192 366.222C178.261 366.222 167.111 377.372 167.111 391.111C167.111 404.85 178.261 416 192 416C198.13 416 203.662 413.696 208 410.027C202.61 405.461 199.111 398.734 199.111 391.111Z" fill="#D5DBE1"/>
<path d="M369.778 391.111C369.778 383.488 373.277 376.761 378.667 372.196C374.329 368.526 368.796 366.222 362.667 366.222C348.928 366.222 337.778 377.372 337.778 391.111C337.778 404.85 348.928 416 362.667 416C368.796 416 374.329 413.696 378.667 410.027C373.277 405.461 369.778 398.734 369.778 391.111Z" fill="#D5DBE1"/>
<path d="M128 156.444C128 128.64 146.887 105.458 172.444 98.4178C167.31 96.9956 162.02 96 156.444 96C123.065 96 96 123.065 96 156.444C96 189.824 123.065 216.889 156.444 216.889C162.02 216.889 167.31 215.893 172.444 214.471C146.887 207.431 128 184.249 128 156.444Z" fill="#00B871"/>
<path d="M156.444 227.555C117.234 227.555 85.3334 195.655 85.3334 156.444C85.3334 117.234 117.234 85.3333 156.444 85.3333C195.655 85.3333 227.556 117.234 227.556 156.444C227.556 195.655 195.655 227.555 156.444 227.555ZM156.444 106.667C128.996 106.667 106.667 128.995 106.667 156.444C106.667 183.893 128.996 206.222 156.444 206.222C183.893 206.222 206.222 183.893 206.222 156.444C206.222 128.995 183.893 106.667 156.444 106.667Z" fill="black"/>
<path d="M191.528 206.657L206.613 191.572L252.833 237.792L237.748 252.877L191.528 206.657Z" fill="black"/>
<path d="M177.778 398.222H117.333C111.445 398.222 106.667 393.443 106.667 387.555V241.209H128V376.889H177.778V398.222Z" fill="black"/>
<path d="M323.556 398.222H205.938V376.889H312.889V248.889H276.765V227.555H323.556C329.444 227.555 334.222 232.334 334.222 238.222V387.555C334.222 393.443 329.444 398.222 323.556 398.222Z" fill="black"/>
<path d="M416 398.222H376.59V376.889H405.333V345.6C405.333 320.114 384.597 299.378 359.111 299.378H334.222V376.889H348.444V398.222H323.556C317.668 398.222 312.889 393.444 312.889 387.556V288.711C312.889 282.823 317.668 278.044 323.556 278.044H359.111C396.359 278.044 426.667 308.352 426.667 345.6V387.556C426.667 393.444 421.888 398.222 416 398.222Z" fill="black"/>
<path d="M192 426.667C172.388 426.667 156.444 410.709 156.444 391.111C156.444 371.513 172.388 355.555 192 355.555C211.612 355.555 227.556 371.513 227.556 391.111C227.556 410.709 211.612 426.667 192 426.667ZM192 376.889C184.149 376.889 177.778 383.275 177.778 391.111C177.778 398.947 184.149 405.333 192 405.333C199.851 405.333 206.222 398.947 206.222 391.111C206.222 383.275 199.851 376.889 192 376.889Z" fill="black"/>
<path d="M362.667 426.667C343.054 426.667 327.111 410.709 327.111 391.111C327.111 371.513 343.054 355.555 362.667 355.555C382.279 355.555 398.222 371.513 398.222 391.111C398.222 410.709 382.279 426.667 362.667 426.667ZM362.667 376.889C354.816 376.889 348.445 383.275 348.445 391.111C348.445 398.947 354.816 405.333 362.667 405.333C370.517 405.333 376.889 398.947 376.889 391.111C376.889 383.275 370.517 376.889 362.667 376.889Z" fill="black"/>
</svg>
