<svg width="512" height="512" viewBox="0 0 512 512" fill="none" xmlns="http://www.w3.org/2000/svg">
<path d="M48.9529 339.669C135.154 387.072 169.799 464.27 211.328 487.111C252.871 509.952 353.237 534.03 458.311 342.94C563.385 151.851 461.454 59.2782 415.758 34.1475C201.828 -83.4702 -103.708 255.73 48.9529 339.669Z" fill="#EFEFEF"/>
<path d="M46.2222 277.333C34.4604 277.333 24.8889 267.762 24.8889 256C24.8889 244.238 34.4604 234.667 46.2222 234.667C57.984 234.667 67.5556 244.238 67.5556 256C67.5556 267.762 57.984 277.333 46.2222 277.333ZM46.2222 248.889C42.2969 248.889 39.1111 252.075 39.1111 256C39.1111 259.925 42.2969 263.111 46.2222 263.111C50.1476 263.111 53.3333 259.925 53.3333 256C53.3333 252.075 50.1476 248.889 46.2222 248.889Z" fill="#A4AFC1"/>
<path d="M354.789 154.464L364.846 144.407L384.959 164.52L374.902 174.577L354.789 154.464Z" fill="#A4AFC1"/>
<path d="M412.625 212.358L422.682 202.302L442.795 222.415L432.739 232.471L412.625 212.358Z" fill="#A4AFC1"/>
<path d="M352.293 222.4L372.407 202.287L382.463 212.344L362.35 232.457L352.293 222.4Z" fill="#A4AFC1"/>
<path d="M410.111 164.593L430.224 144.479L440.281 154.536L420.168 174.649L410.111 164.593Z" fill="#A4AFC1"/>
<path d="M277.76 238.222H117.333V288V387.555H167.111H216.604H323.556V288.711V238.222H277.76Z" fill="#F3F3F1"/>
<path d="M359.111 288.711H323.556V387.556H337.778H387.257H416V345.6C416 314.183 390.528 288.711 359.111 288.711Z" fill="#2FDF84"/>
<path d="M192 416C205.746 416 216.889 404.857 216.889 391.111C216.889 377.365 205.746 366.222 192 366.222C178.254 366.222 167.111 377.365 167.111 391.111C167.111 404.857 178.254 416 192 416Z" fill="#F3F3F1"/>
<path d="M362.667 416C376.412 416 387.556 404.857 387.556 391.111C387.556 377.365 376.412 366.222 362.667 366.222C348.921 366.222 337.778 377.365 337.778 391.111C337.778 404.857 348.921 416 362.667 416Z" fill="#F3F3F1"/>
<path d="M156.444 245.333C156.444 245.333 216.889 218.667 216.889 165.333C216.889 144 216.889 117.333 216.889 117.333L156.444 96L96 117.333V165.333C96 218.667 156.444 245.333 156.444 245.333Z" fill="#2FDF84"/>
<path d="M149.333 238.222H117.333V288V387.555H149.333V288V238.222Z" fill="#D5DBE1"/>
<path d="M323.556 288.711V387.556H337.778H355.556V288.711H323.556Z" fill="#00B871"/>
<path d="M199.111 391.111C199.111 383.488 202.61 376.761 208 372.196C203.662 368.526 198.13 366.222 192 366.222C178.261 366.222 167.111 377.372 167.111 391.111C167.111 404.85 178.261 416 192 416C198.13 416 203.662 413.696 208 410.027C202.61 405.461 199.111 398.734 199.111 391.111Z" fill="#D5DBE1"/>
<path d="M369.778 391.111C369.778 383.488 373.276 376.761 378.667 372.196C374.329 368.526 368.796 366.222 362.667 366.222C348.928 366.222 337.778 377.372 337.778 391.111C337.778 404.85 348.928 416 362.667 416C368.796 416 374.329 413.696 378.667 410.027C373.276 405.461 369.778 398.734 369.778 391.111Z" fill="#D5DBE1"/>
<path d="M128 165.333C128 133.333 128 117.333 128 117.333L172.444 101.646L156.444 96L96 117.333V165.333C96 218.667 156.444 245.333 156.444 245.333C156.444 245.333 163.356 242.233 172.444 236.188C154.539 224.27 128 200.704 128 165.333Z" fill="#00B871"/>
<path d="M156.444 256C154.98 256 153.5 255.701 152.135 255.09C149.404 253.895 85.3333 224.939 85.3333 165.333V117.333C85.3333 112.811 88.192 108.772 92.4444 107.278L152.889 85.9448C155.179 85.1199 157.696 85.1199 159.986 85.9448L220.43 107.278C224.697 108.772 227.541 112.811 227.541 117.333V165.333C227.541 224.939 163.47 253.895 160.74 255.09C159.388 255.701 157.909 256 156.444 256ZM106.667 124.885V165.333C106.667 203.221 143.616 226.46 156.444 233.401C169.273 226.475 206.222 203.221 206.222 165.333V124.885L156.444 107.307L106.667 124.885Z" fill="black"/>
<path d="M152.249 199.111C152.05 199.111 151.851 199.111 151.652 199.097C148.651 198.926 145.863 197.504 143.972 195.186L123.278 169.785L139.819 156.316L153.116 172.629L180.964 145.28L195.911 160.498L159.716 196.053C157.71 198.016 155.022 199.111 152.249 199.111Z" fill="black"/>
<path d="M177.778 398.222H117.333C111.445 398.222 106.667 393.444 106.667 387.556V261.547H128V376.889H177.778V398.222Z" fill="black"/>
<path d="M323.556 398.222H205.938V376.889H312.889V248.889H222.436V227.555H323.556C329.444 227.555 334.222 232.334 334.222 238.222V387.555C334.222 393.443 329.444 398.222 323.556 398.222Z" fill="black"/>
<path d="M416 398.222H376.59V376.889H405.333V345.6C405.333 320.114 384.597 299.378 359.111 299.378H334.222V376.889H348.444V398.222H323.556C317.668 398.222 312.889 393.444 312.889 387.556V288.711C312.889 282.823 317.668 278.044 323.556 278.044H359.111C396.359 278.044 426.667 308.352 426.667 345.6V387.556C426.667 393.444 421.888 398.222 416 398.222Z" fill="black"/>
<path d="M192 426.667C172.402 426.667 156.444 410.709 156.444 391.111C156.444 371.513 172.402 355.555 192 355.555C211.598 355.555 227.556 371.513 227.556 391.111C227.556 410.709 211.598 426.667 192 426.667ZM192 376.889C184.164 376.889 177.778 383.275 177.778 391.111C177.778 398.947 184.164 405.333 192 405.333C199.836 405.333 206.222 398.947 206.222 391.111C206.222 383.275 199.836 376.889 192 376.889Z" fill="black"/>
<path d="M362.667 426.667C343.068 426.667 327.111 410.709 327.111 391.111C327.111 371.513 343.068 355.555 362.667 355.555C382.265 355.555 398.222 371.513 398.222 391.111C398.222 410.709 382.265 426.667 362.667 426.667ZM362.667 376.889C354.83 376.889 348.444 383.275 348.444 391.111C348.444 398.947 354.83 405.333 362.667 405.333C370.503 405.333 376.889 398.947 376.889 391.111C376.889 383.275 370.503 376.889 362.667 376.889Z" fill="black"/>
</svg>
