<svg width="512" height="512" viewBox="0 0 512 512" fill="none" xmlns="http://www.w3.org/2000/svg">
<g clip-path="url(#clip0_5_6703)">
<path d="M59.264 392.86C59.264 294.485 8.30579 226.93 8.30579 179.527C8.30579 132.124 35.5556 32.5688 253.625 32.5688C471.694 32.5688 503.694 166.5 503.694 218.638C503.708 462.791 59.264 567.083 59.264 392.86Z" fill="#EFEFEF"/>
<path d="M204.444 49.7778H232.889V64.0001H204.444V49.7778Z" fill="#A4AFC1"/>
<path d="M122.667 49.7778H151.111V64.0001H122.667V49.7778Z" fill="#A4AFC1"/>
<path d="M172.444 0H186.667V28.4444H172.444V0Z" fill="#A4AFC1"/>
<path d="M387.556 259.556C375.794 259.556 366.222 249.984 366.222 238.222C366.222 226.46 375.794 216.889 387.556 216.889C399.317 216.889 408.889 226.46 408.889 238.222C408.889 249.984 399.317 259.556 387.556 259.556ZM387.556 231.111C383.645 231.111 380.445 234.297 380.445 238.222C380.445 242.148 383.645 245.333 387.556 245.333C391.467 245.333 394.667 242.148 394.667 238.222C394.667 234.297 391.467 231.111 387.556 231.111Z" fill="#A4AFC1"/>
<path d="M277.76 238.222H117.333V288V387.555H167.111H216.604H323.556V288.711V238.222H277.76Z" fill="#F3F3F1"/>
<path d="M359.111 288.711H323.556V387.556H337.778H387.257H416V345.6C416 314.183 390.528 288.711 359.111 288.711Z" fill="#2FDF84"/>
<path d="M192 416C205.746 416 216.889 404.857 216.889 391.111C216.889 377.365 205.746 366.222 192 366.222C178.254 366.222 167.111 377.365 167.111 391.111C167.111 404.857 178.254 416 192 416Z" fill="#F3F3F1"/>
<path d="M362.667 416C376.412 416 387.556 404.857 387.556 391.111C387.556 377.365 376.412 366.222 362.667 366.222C348.921 366.222 337.778 377.365 337.778 391.111C337.778 404.857 348.921 416 362.667 416Z" fill="#F3F3F1"/>
<path d="M177.778 225.152L127.232 259.556L142.734 198.386L96 158.478L156.117 155.065L177.778 96L199.438 155.065L259.556 158.478L212.821 198.386L228.324 259.556L177.778 225.152Z" fill="#2FDF84"/>
<path d="M149.333 238.222H117.333V288V387.555H149.333V288V238.222Z" fill="#D5DBE1"/>
<path d="M323.556 288.711V387.556H337.778H355.556V288.711H323.556Z" fill="#00B871"/>
<path d="M199.111 391.111C199.111 383.488 202.61 376.761 208 372.196C203.662 368.526 198.13 366.222 192 366.222C178.261 366.222 167.111 377.372 167.111 391.111C167.111 404.85 178.261 416 192 416C198.13 416 203.662 413.696 208 410.027C202.61 405.461 199.111 398.734 199.111 391.111Z" fill="#D5DBE1"/>
<path d="M369.778 391.111C369.778 383.488 373.276 376.761 378.667 372.196C374.329 368.526 368.796 366.222 362.667 366.222C348.928 366.222 337.778 377.372 337.778 391.111C337.778 404.85 348.928 416 362.667 416C368.796 416 374.329 413.696 378.667 410.027C373.276 405.461 369.778 398.734 369.778 391.111Z" fill="#D5DBE1"/>
<path d="M165.902 233.244L174.734 198.386L128 158.478L188.117 155.065L193.778 139.634L177.778 96L156.117 155.065L96 158.478L142.734 198.386L127.232 259.556L165.902 233.244Z" fill="#00B871"/>
<path d="M209.778 225.152L193.778 236.046L228.324 259.556L221.653 233.245L209.778 225.152Z" fill="#00B871"/>
<path d="M228.324 270.222C226.233 270.222 224.128 269.611 222.322 268.373L177.778 238.066L133.234 268.373C129.579 270.848 124.743 270.834 121.116 268.288C117.476 265.742 115.797 261.219 116.892 256.939L130.759 202.183L89.0595 166.585C85.76 163.755 84.4942 159.189 85.8738 155.065C87.2675 150.94 91.0222 148.067 95.3884 147.826L148.494 144.825L167.751 92.3448C169.301 88.1208 173.312 85.3333 177.778 85.3333C182.244 85.3333 186.254 88.1208 187.79 92.3306L207.047 144.811L260.153 147.811C264.519 148.067 268.274 150.926 269.668 155.051C271.061 159.189 269.796 163.74 266.482 166.571L224.782 202.169L238.649 256.924C239.744 261.219 238.066 265.742 234.425 268.274C232.59 269.582 230.457 270.222 228.324 270.222ZM177.778 214.499C179.868 214.499 181.973 215.111 183.78 216.348L211.072 234.923L202.482 201.003C201.486 197.077 202.795 192.91 205.881 190.279L232.405 167.623L198.841 165.717C194.588 165.475 190.876 162.731 189.426 158.734L177.778 126.976L166.13 158.734C164.665 162.731 160.967 165.475 156.715 165.717L123.15 167.623L149.675 190.279C152.761 192.924 154.084 197.077 153.074 201.003L144.484 234.923L171.776 216.348C173.582 215.111 175.687 214.499 177.778 214.499Z" fill="black"/>
<path d="M177.778 398.222H117.333C111.445 398.222 106.667 393.443 106.667 387.555V290.275H128V376.889H177.778V398.222Z" fill="black"/>
<path d="M323.556 398.222H205.938V376.889H312.889V248.889H256.284V227.555H323.556C329.444 227.555 334.222 232.334 334.222 238.222V387.555C334.222 393.443 329.444 398.222 323.556 398.222Z" fill="black"/>
<path d="M416 398.222H376.59V376.889H405.333V345.6C405.333 320.114 384.597 299.378 359.111 299.378H334.222V376.889H348.444V398.222H323.556C317.668 398.222 312.889 393.444 312.889 387.556V288.711C312.889 282.823 317.668 278.044 323.556 278.044H359.111C396.359 278.044 426.667 308.352 426.667 345.6V387.556C426.667 393.444 421.888 398.222 416 398.222Z" fill="black"/>
<path d="M192 426.667C172.388 426.667 156.444 410.709 156.444 391.111C156.444 371.513 172.388 355.555 192 355.555C211.612 355.555 227.556 371.513 227.556 391.111C227.556 410.709 211.612 426.667 192 426.667ZM192 376.889C184.149 376.889 177.778 383.275 177.778 391.111C177.778 398.947 184.149 405.333 192 405.333C199.851 405.333 206.222 398.947 206.222 391.111C206.222 383.275 199.851 376.889 192 376.889Z" fill="black"/>
<path d="M362.667 426.667C343.054 426.667 327.111 410.709 327.111 391.111C327.111 371.513 343.054 355.555 362.667 355.555C382.279 355.555 398.222 371.513 398.222 391.111C398.222 410.709 382.279 426.667 362.667 426.667ZM362.667 376.889C354.816 376.889 348.444 383.275 348.444 391.111C348.444 398.947 354.816 405.333 362.667 405.333C370.517 405.333 376.889 398.947 376.889 391.111C376.889 383.275 370.517 376.889 362.667 376.889Z" fill="black"/>
</g>
<defs>
<clipPath id="clip0_5_6703">
<rect width="512" height="512" fill="white"/>
</clipPath>
</defs>
</svg>
