<svg width="512" height="512" viewBox="0 0 512 512" fill="none" xmlns="http://www.w3.org/2000/svg">
<path d="M496.412 289.493C442.624 207.132 448.341 122.709 422.414 83.015C396.487 43.3208 319.218 -25.1165 136.647 94.1368C-45.9237 213.39 0.511887 343.026 29.0417 386.674C162.56 591.076 591.687 435.356 496.412 289.493Z" fill="#EFEFEF"/>
<path d="M387.556 252.444C375.794 252.444 366.222 242.873 366.222 231.111C366.222 219.349 375.794 209.778 387.556 209.778C399.317 209.778 408.889 219.349 408.889 231.111C408.889 242.873 399.317 252.444 387.556 252.444ZM387.556 224C383.63 224 380.444 227.186 380.444 231.111C380.444 235.036 383.63 238.222 387.556 238.222C391.481 238.222 394.667 235.036 394.667 231.111C394.667 227.186 391.481 224 387.556 224Z" fill="#A4AFC1"/>
<path d="M33.2002 90.488L43.2568 80.4314L63.3701 100.545L53.3135 110.601L33.2002 90.488Z" fill="#A4AFC1"/>
<path d="M30.676 158.382L50.7893 138.269L60.8459 148.325L40.7327 168.439L30.676 158.382Z" fill="#A4AFC1"/>
<path d="M88.5037 100.564L108.617 80.4509L118.674 90.5076L98.5603 110.621L88.5037 100.564Z" fill="#A4AFC1"/>
<path d="M277.76 238.222H117.333V288V387.555H167.111H216.604H323.555V288.711V238.222H277.76Z" fill="#F3F3F1"/>
<path d="M359.111 288.711H323.556V387.556H337.778H387.257H416V345.6C416 314.183 390.528 288.711 359.111 288.711Z" fill="#2FDF84"/>
<path d="M192 416C205.746 416 216.889 404.857 216.889 391.111C216.889 377.365 205.746 366.222 192 366.222C178.254 366.222 167.111 377.365 167.111 391.111C167.111 404.857 178.254 416 192 416Z" fill="#F3F3F1"/>
<path d="M362.667 416C376.412 416 387.556 404.857 387.556 391.111C387.556 377.365 376.412 366.222 362.667 366.222C348.921 366.222 337.778 377.365 337.778 391.111C337.778 404.857 348.921 416 362.667 416Z" fill="#F3F3F1"/>
<path d="M116.238 245.333H110.222C102.372 245.333 96 238.962 96 231.111V155.676C96 147.826 102.372 141.454 110.222 141.454H116.238C124.089 141.454 130.46 147.826 130.46 155.676V231.111C130.46 238.933 124.06 245.333 116.238 245.333Z" fill="#2FDF84"/>
<path d="M219.349 147.94H180.395C180.395 147.94 186.894 138.197 186.894 121.97C186.894 102.485 177.152 96 170.667 96C164.181 96 160.924 99.2427 160.924 115.484C160.924 138.212 130.46 154.439 130.46 154.439V229.106C130.46 229.106 151.182 245.333 199.879 245.333H211.783C224.484 245.333 235.307 236.16 237.397 223.63L244.978 178.176C247.609 162.347 235.406 147.94 219.349 147.94Z" fill="#F3F3F1"/>
<path d="M149.333 238.222H117.333V288V387.555H149.333V288V238.222Z" fill="#D5DBE1"/>
<path d="M323.555 288.711V387.555H337.778H355.555V288.711H323.555Z" fill="#00B871"/>
<path d="M199.111 391.111C199.111 383.488 202.61 376.761 208 372.196C203.662 368.526 198.13 366.222 192 366.222C178.261 366.222 167.111 377.372 167.111 391.111C167.111 404.85 178.261 416 192 416C198.13 416 203.662 413.696 208 410.027C202.61 405.461 199.111 398.734 199.111 391.111Z" fill="#D5DBE1"/>
<path d="M369.778 391.111C369.778 383.488 373.277 376.761 378.667 372.196C374.329 368.526 368.796 366.222 362.667 366.222C348.928 366.222 337.778 377.372 337.778 391.111C337.778 404.85 348.928 416 362.667 416C368.796 416 374.329 413.696 378.667 410.027C373.277 405.461 369.778 398.734 369.778 391.111Z" fill="#D5DBE1"/>
<path d="M162.46 229.106V154.439C162.46 154.439 176.384 146.844 185.401 134.912C186.254 131.243 186.894 126.962 186.894 121.984C186.894 102.499 177.152 96.0142 170.667 96.0142C164.181 96.0142 160.924 99.2568 160.924 115.499C160.924 138.226 130.46 154.453 130.46 154.453V229.12C130.46 229.12 151.182 245.347 199.879 245.347H211.783C213.618 245.347 215.396 245.106 217.131 244.736C179.072 241.92 162.46 229.106 162.46 229.106Z" fill="#D5DBE1"/>
<path d="M116.238 256H110.222C96.4977 256 85.3333 244.836 85.3333 231.111V155.676C85.3333 141.952 96.4977 130.788 110.222 130.788H116.238C129.963 130.788 141.127 141.952 141.127 155.676V231.111C141.127 244.836 129.963 256 116.238 256ZM110.222 152.121C108.259 152.121 106.667 153.714 106.667 155.676V231.111C106.667 233.074 108.259 234.667 110.222 234.667H116.238C118.172 234.667 119.794 233.045 119.794 231.111V155.676C119.794 153.714 118.201 152.121 116.238 152.121H110.222Z" fill="black"/>
<path d="M211.783 256H199.893C148.11 256 124.857 238.251 123.89 237.497L137.045 220.7C137.131 220.757 156.259 234.652 199.893 234.652H211.783C219.292 234.652 225.65 229.276 226.887 221.867L234.467 176.412C235.207 171.975 233.955 167.452 231.054 164.011C228.139 160.569 223.886 158.606 219.378 158.606H180.423C176.498 158.606 172.871 156.444 171.022 152.974C169.173 149.504 169.372 145.294 171.548 142.023C173.724 138.752 176.256 134.4 176.256 121.97C176.256 112.996 173.795 108.985 172.075 107.449C171.833 109.056 171.634 111.588 171.634 115.47C171.634 143.772 139.207 161.877 135.509 163.84L125.454 145.024C131.897 141.554 150.3 128.668 150.3 115.47C150.3 106.453 150.3 85.3191 170.709 85.3191C183.666 85.3191 197.603 96.7822 197.603 121.956C197.603 127.772 196.907 132.907 195.897 137.259H219.392C230.187 137.259 240.37 141.98 247.353 150.215C254.322 158.45 257.308 169.273 255.531 179.911L247.95 225.365C244.963 243.129 229.76 256 211.783 256Z" fill="black"/>
<path d="M177.778 398.222H117.333C111.445 398.222 106.667 393.443 106.667 387.555V277.333H128V376.889H177.778V398.222Z" fill="black"/>
<path d="M323.556 398.222H205.938V376.889H312.889V248.889H267.093V227.556H323.556C329.444 227.556 334.222 232.334 334.222 238.222V387.556C334.222 393.444 329.444 398.222 323.556 398.222Z" fill="black"/>
<path d="M416 398.222H376.59V376.889H405.333V345.6C405.333 320.114 384.597 299.378 359.111 299.378H334.222V376.889H348.444V398.222H323.556C317.668 398.222 312.889 393.444 312.889 387.556V288.711C312.889 282.823 317.668 278.044 323.556 278.044H359.111C396.359 278.044 426.667 308.352 426.667 345.6V387.556C426.667 393.444 421.888 398.222 416 398.222Z" fill="black"/>
<path d="M192 426.667C172.402 426.667 156.444 410.709 156.444 391.111C156.444 371.513 172.402 355.556 192 355.556C211.598 355.556 227.555 371.513 227.555 391.111C227.555 410.709 211.598 426.667 192 426.667ZM192 376.889C184.163 376.889 177.778 383.275 177.778 391.111C177.778 398.948 184.163 405.333 192 405.333C199.836 405.333 206.222 398.948 206.222 391.111C206.222 383.275 199.836 376.889 192 376.889Z" fill="black"/>
<path d="M362.667 426.667C343.068 426.667 327.111 410.709 327.111 391.111C327.111 371.513 343.068 355.556 362.667 355.556C382.265 355.556 398.222 371.513 398.222 391.111C398.222 410.709 382.265 426.667 362.667 426.667ZM362.667 376.889C354.83 376.889 348.444 383.275 348.444 391.111C348.444 398.948 354.83 405.333 362.667 405.333C370.503 405.333 376.889 398.948 376.889 391.111C376.889 383.275 370.503 376.889 362.667 376.889Z" fill="black"/>
</svg>
