<svg width="512" height="512" viewBox="0 0 512 512" fill="none" xmlns="http://www.w3.org/2000/svg">
<path d="M119.14 59.2639C217.515 59.2639 285.07 8.30566 332.473 8.30566C379.876 8.30566 479.431 35.5554 479.431 253.625C479.431 471.694 345.501 503.694 293.362 503.694C49.209 503.708 -55.0826 59.2639 119.14 59.2639Z" fill="#EFEFEF"/>
<path d="M92.1677 73.3687L112.281 53.2554L122.338 63.312L102.224 83.4253L92.1677 73.3687Z" fill="#A4AFC1"/>
<path d="M34.3401 131.187L54.4634 111.063L64.52 121.12L44.3967 141.243L34.3401 131.187Z" fill="#A4AFC1"/>
<path d="M34.343 60.8037L44.3996 50.7471L64.523 70.8704L54.4663 80.927L34.343 60.8037Z" fill="#A4AFC1"/>
<path d="M337.778 195.556C326.016 195.556 316.445 185.984 316.445 174.222C316.445 162.46 326.016 152.889 337.778 152.889C349.54 152.889 359.111 162.46 359.111 174.222C359.111 185.984 349.54 195.556 337.778 195.556ZM337.778 167.111C333.867 167.111 330.667 170.297 330.667 174.222C330.667 178.148 333.867 181.333 337.778 181.333C341.689 181.333 344.889 178.148 344.889 174.222C344.889 170.297 341.689 167.111 337.778 167.111Z" fill="#A4AFC1"/>
<path d="M277.76 238.222H117.333V288V387.555H167.111H216.604H323.555V288.711V238.222H277.76Z" fill="#F3F3F1"/>
<path d="M359.111 288.711H323.556V387.556H337.778H387.257H416V345.6C416 314.183 390.528 288.711 359.111 288.711Z" fill="#2FDF84"/>
<path d="M192 416C205.746 416 216.889 404.857 216.889 391.111C216.889 377.365 205.746 366.222 192 366.222C178.254 366.222 167.111 377.365 167.111 391.111C167.111 404.857 178.254 416 192 416Z" fill="#F3F3F1"/>
<path d="M362.667 416C376.412 416 387.556 404.857 387.556 391.111C387.556 377.365 376.412 366.222 362.667 366.222C348.921 366.222 337.778 377.365 337.778 391.111C337.778 404.857 348.921 416 362.667 416Z" fill="#F3F3F1"/>
<path d="M177.778 259.556C222.942 259.556 259.556 222.942 259.556 177.778C259.556 132.613 222.942 96 177.778 96C132.613 96 96 132.613 96 177.778C96 222.942 132.613 259.556 177.778 259.556Z" fill="#2FDF84"/>
<path d="M149.333 238.222H117.333V288V387.555H149.333V288V238.222Z" fill="#D5DBE1"/>
<path d="M323.556 288.711V387.556H337.778H355.556V288.711H323.556Z" fill="#00B871"/>
<path d="M199.111 391.111C199.111 383.488 202.61 376.761 208 372.196C203.662 368.526 198.13 366.222 192 366.222C178.261 366.222 167.111 377.372 167.111 391.111C167.111 404.85 178.261 416 192 416C198.13 416 203.662 413.696 208 410.027C202.61 405.461 199.111 398.734 199.111 391.111Z" fill="#D5DBE1"/>
<path d="M369.778 391.111C369.778 383.488 373.277 376.761 378.667 372.196C374.329 368.526 368.796 366.222 362.667 366.222C348.928 366.222 337.778 377.372 337.778 391.111C337.778 404.85 348.928 416 362.667 416C368.796 416 374.329 413.696 378.667 410.027C373.277 405.461 369.778 398.734 369.778 391.111Z" fill="#D5DBE1"/>
<path d="M128 177.778C128 138.098 156.274 105.031 193.778 97.5929C188.601 96.5547 183.253 96 177.778 96C132.608 96 96 132.608 96 177.778C96 222.948 132.608 259.556 177.778 259.556C183.253 259.556 188.601 259.001 193.778 257.963C156.274 250.524 128 217.458 128 177.778Z" fill="#00B871"/>
<path d="M177.778 270.222C126.805 270.222 85.3333 228.75 85.3333 177.778C85.3333 126.805 126.805 85.3333 177.778 85.3333C228.75 85.3333 270.222 126.805 270.222 177.778C270.222 228.75 228.75 270.222 177.778 270.222ZM177.778 106.667C138.567 106.667 106.667 138.567 106.667 177.778C106.667 216.988 138.567 248.889 177.778 248.889C216.988 248.889 248.889 216.988 248.889 177.778C248.889 138.567 216.988 106.667 177.778 106.667Z" fill="black"/>
<path d="M202.667 228.423L166.684 192.441C164.679 190.436 163.555 187.719 163.555 184.889V128H184.889V180.466L217.756 213.333L202.667 228.423Z" fill="black"/>
<path d="M177.778 398.222H117.333C111.445 398.222 106.667 393.443 106.667 387.555V275.769H128V376.889H177.778V398.222Z" fill="black"/>
<path d="M323.556 398.222H205.938V376.889H312.889V248.889H275.769V227.555H323.556C329.444 227.555 334.222 232.334 334.222 238.222V387.555C334.222 393.443 329.444 398.222 323.556 398.222Z" fill="black"/>
<path d="M416 398.222H376.59V376.889H405.333V345.6C405.333 320.114 384.597 299.378 359.111 299.378H334.222V376.889H348.444V398.222H323.556C317.668 398.222 312.889 393.444 312.889 387.556V288.711C312.889 282.823 317.668 278.044 323.556 278.044H359.111C396.359 278.044 426.667 308.352 426.667 345.6V387.556C426.667 393.444 421.888 398.222 416 398.222Z" fill="black"/>
<path d="M192 426.667C172.387 426.667 156.444 410.709 156.444 391.111C156.444 371.513 172.387 355.555 192 355.555C211.612 355.555 227.555 371.513 227.555 391.111C227.555 410.709 211.612 426.667 192 426.667ZM192 376.889C184.149 376.889 177.778 383.275 177.778 391.111C177.778 398.947 184.149 405.333 192 405.333C199.851 405.333 206.222 398.947 206.222 391.111C206.222 383.275 199.851 376.889 192 376.889Z" fill="black"/>
<path d="M362.667 426.667C343.054 426.667 327.111 410.709 327.111 391.111C327.111 371.513 343.054 355.555 362.667 355.555C382.279 355.555 398.222 371.513 398.222 391.111C398.222 410.709 382.279 426.667 362.667 426.667ZM362.667 376.889C354.816 376.889 348.444 383.275 348.444 391.111C348.444 398.947 354.816 405.333 362.667 405.333C370.517 405.333 376.889 398.947 376.889 391.111C376.889 383.275 370.517 376.889 362.667 376.889Z" fill="black"/>
</svg>
