<svg width="512" height="512" viewBox="0 0 512 512" fill="none" xmlns="http://www.w3.org/2000/svg">
<path d="M383.744 55.6659C285.383 57.5006 216.889 7.80811 169.486 8.70411C122.084 9.60011 23.0543 38.6988 27.1361 256.74C31.2179 474.781 165.717 504.263 217.856 503.296C461.966 498.731 557.924 52.409 383.744 55.6659Z" fill="#EFEFEF"/>
<path d="M387.556 245.333C375.794 245.333 366.222 235.762 366.222 224C366.222 212.238 375.794 202.667 387.556 202.667C399.317 202.667 408.889 212.238 408.889 224C408.889 235.762 399.317 245.333 387.556 245.333ZM387.556 216.889C383.644 216.889 380.444 220.075 380.444 224C380.444 227.925 383.644 231.111 387.556 231.111C391.467 231.111 394.667 227.925 394.667 224C394.667 220.075 391.467 216.889 387.556 216.889Z" fill="#A4AFC1"/>
<path d="M49.7778 0H64.0001V28.4444H49.7778V0Z" fill="#A4AFC1"/>
<path d="M49.7778 81.7778H64.0001V110.222H49.7778V81.7778Z" fill="#A4AFC1"/>
<path d="M0 46.2222H28.4444V60.4444H0V46.2222Z" fill="#A4AFC1"/>
<path d="M81.7778 46.2222H110.222V60.4444H81.7778V46.2222Z" fill="#A4AFC1"/>
<path d="M277.76 238.222H117.333V288V387.555H167.111H216.605H323.556V288.711V238.222H277.76Z" fill="#F3F3F1"/>
<path d="M359.111 288.711H323.556V387.556H337.778H387.257H416V345.6C416 314.183 390.528 288.711 359.111 288.711Z" fill="#2FDF84"/>
<path d="M192 416C205.746 416 216.889 404.857 216.889 391.111C216.889 377.365 205.746 366.222 192 366.222C178.254 366.222 167.111 377.365 167.111 391.111C167.111 404.857 178.254 416 192 416Z" fill="#F3F3F1"/>
<path d="M362.667 416C376.412 416 387.556 404.857 387.556 391.111C387.556 377.365 376.412 366.222 362.667 366.222C348.921 366.222 337.778 377.365 337.778 391.111C337.778 404.857 348.921 416 362.667 416Z" fill="#F3F3F1"/>
<path d="M273.778 231.751C273.778 239.218 267.62 245.333 260.096 245.333H109.682C102.158 245.333 96 239.218 96 231.751C96 229.177 96.6827 226.731 98.048 224.697L173.255 102.514C175.588 98.5742 179.968 96 184.889 96C189.81 96 194.19 98.5742 196.508 102.514L271.716 224.697L273.778 231.751Z" fill="#2FDF84"/>
<path d="M149.333 238.222H117.333V288V387.555H149.333V288V238.222Z" fill="#D5DBE1"/>
<path d="M323.556 288.711V387.556H337.778H355.556V288.711H323.556Z" fill="#00B871"/>
<path d="M199.111 391.111C199.111 383.488 202.61 376.761 208 372.196C203.662 368.526 198.13 366.222 192 366.222C178.262 366.222 167.111 377.372 167.111 391.111C167.111 404.85 178.262 416 192 416C198.13 416 203.662 413.696 208 410.027C202.61 405.461 199.111 398.734 199.111 391.111Z" fill="#D5DBE1"/>
<path d="M369.778 391.111C369.778 383.488 373.277 376.761 378.667 372.196C374.329 368.526 368.796 366.222 362.667 366.222C348.928 366.222 337.778 377.372 337.778 391.111C337.778 404.85 348.928 416 362.667 416C368.796 416 374.329 413.696 378.667 410.027C373.277 405.461 369.778 398.734 369.778 391.111Z" fill="#D5DBE1"/>
<path d="M128 231.751C128 229.177 128.683 226.731 130.048 224.697L200.889 109.625L196.508 102.514C194.19 98.5742 189.81 96 184.889 96C179.968 96 175.588 98.5742 173.269 102.514L98.048 224.697C96.6827 226.731 96 229.177 96 231.751C96 239.218 102.158 245.333 109.682 245.333H141.682C134.158 245.333 128 239.218 128 231.751Z" fill="#00B871"/>
<path d="M260.096 256H109.682C96.2562 256 85.3335 245.12 85.3335 231.751C85.3335 227.001 86.6704 222.492 89.2019 218.723L164.167 96.9101C168.349 89.8417 176.313 85.3333 184.889 85.3333C193.465 85.3333 201.429 89.8417 205.71 97.095L280.804 219.107C281.301 219.918 281.686 220.8 281.956 221.724L284.018 228.793C284.302 229.746 284.445 230.755 284.445 231.751C284.445 245.12 273.522 256 260.096 256ZM184.889 106.667C183.637 106.667 182.798 107.349 182.457 107.932L106.667 231.751C106.667 233.33 108.046 234.667 109.682 234.667H260.096C261.39 234.667 262.528 233.827 262.941 232.704L261.888 229.063L187.435 108.117C186.98 107.349 186.141 106.667 184.889 106.667Z" fill="black"/>
<path d="M174.222 142.222H195.556V192H174.222V142.222Z" fill="black"/>
<path d="M184.889 227.556C190.78 227.556 195.556 222.78 195.556 216.889C195.556 210.998 190.78 206.222 184.889 206.222C178.998 206.222 174.222 210.998 174.222 216.889C174.222 222.78 178.998 227.556 184.889 227.556Z" fill="black"/>
<path d="M177.778 398.222H117.334C111.446 398.222 106.667 393.443 106.667 387.555V277.333H128V376.889H177.778V398.222Z" fill="black"/>
<path d="M323.556 398.222H205.938V376.889H312.889V248.889H305.351V227.555H323.556C329.444 227.555 334.222 232.334 334.222 238.222V387.555C334.222 393.443 329.444 398.222 323.556 398.222Z" fill="black"/>
<path d="M416 398.222H376.59V376.889H405.334V345.6C405.334 320.114 384.598 299.378 359.111 299.378H334.222V376.889H348.445V398.222H323.556C317.668 398.222 312.889 393.444 312.889 387.556V288.711C312.889 282.823 317.668 278.044 323.556 278.044H359.111C396.359 278.044 426.667 308.352 426.667 345.6V387.556C426.667 393.444 421.888 398.222 416 398.222Z" fill="black"/>
<path d="M192 426.667C172.388 426.667 156.445 410.709 156.445 391.111C156.445 371.513 172.388 355.555 192 355.555C211.613 355.555 227.556 371.513 227.556 391.111C227.556 410.709 211.613 426.667 192 426.667ZM192 376.889C184.15 376.889 177.778 383.275 177.778 391.111C177.778 398.947 184.15 405.333 192 405.333C199.851 405.333 206.223 398.947 206.223 391.111C206.223 383.275 199.851 376.889 192 376.889Z" fill="black"/>
<path d="M362.667 426.667C343.054 426.667 327.111 410.709 327.111 391.111C327.111 371.513 343.054 355.555 362.667 355.555C382.279 355.555 398.222 371.513 398.222 391.111C398.222 410.709 382.279 426.667 362.667 426.667ZM362.667 376.889C354.816 376.889 348.445 383.275 348.445 391.111C348.445 398.947 354.816 405.333 362.667 405.333C370.518 405.333 376.889 398.947 376.889 391.111C376.889 383.275 370.518 376.889 362.667 376.889Z" fill="black"/>
</svg>
