<svg width="128" height="69" viewBox="0 0 128 69" fill="none" xmlns="http://www.w3.org/2000/svg">
<g clip-path="url(#clip0_21_506)">
<path d="M26.4715 39.5415C26.6696 39.5415 26.8016 39.5415 26.9996 39.6075H37.0997C37.2977 39.6075 37.4298 39.6075 37.6278 39.5415C37.9579 39.4755 38.354 39.4095 38.684 39.2774C40.4004 38.5513 41.3246 36.5709 40.9945 34.8545C40.6644 33.4022 39.5422 32.214 38.1559 31.8179C37.9579 31.7519 37.8258 31.7519 37.6278 31.6859C37.4298 31.6859 37.2977 31.6859 37.0997 31.6199H26.9996C26.5376 31.6199 26.4055 31.6199 25.9434 31.7519C25.6134 31.8179 25.2833 32.016 24.9532 32.214C23.5669 33.0722 22.7748 34.7885 23.1049 36.3728C23.4349 38.0232 24.8872 39.2774 26.4715 39.5415Z" fill="#00B871"/>
<path d="M3.43266 7.85374C3.56468 7.91975 3.76272 7.91975 3.96076 7.91975H14.0608C14.2589 7.91975 14.3909 7.91975 14.5889 7.85374C14.919 7.78772 15.3151 7.72171 15.6451 7.58968C17.3615 6.86354 18.2857 4.88313 17.9556 3.16679C17.6255 1.71449 16.5033 0.526249 15.117 0.130169C14.919 0.0641557 14.787 0.0641557 14.5889 -0.0018577C14.3909 -0.0018577 14.2589 -0.0018577 14.0608 -0.0678711H3.96076C3.49867 -0.0018577 3.36664 -0.00185769 2.90455 0.130169C2.57448 0.196182 2.24441 0.394223 1.91435 0.592263C0.462052 1.45044 -0.264095 3.16679 0.0659718 4.75111C0.396039 6.40144 1.78232 7.6557 3.43266 7.85374Z" fill="#00B871"/>
<path d="M12.2796 31.8179C12.0816 31.7519 11.9495 31.7519 11.7515 31.6859C11.5535 31.6859 11.4214 31.6859 11.2234 31.6199H5.74428C5.28218 31.6199 5.15016 31.6199 4.68806 31.7519C4.35799 31.8179 4.02793 32.016 3.69786 32.214C2.31158 33.0722 1.51942 34.7885 1.84948 36.3728C2.17955 37.9572 3.56583 39.2774 5.21617 39.4755C5.41421 39.4755 5.54624 39.4755 5.74428 39.5415H11.2234C11.4214 39.5415 11.5535 39.5415 11.7515 39.4755C12.0816 39.4095 12.4776 39.3434 12.8077 39.2114C14.5241 38.4853 15.4482 36.5049 15.1182 34.7885C14.7881 33.4022 13.6659 32.214 12.2796 31.8179Z" fill="#00B871"/>
<path d="M32.0176 61.1289C31.8196 61.0629 31.6876 61.0629 31.4895 60.9969C31.2915 60.9969 31.1595 60.9969 30.9614 60.9309H25.4823C25.0202 60.9309 24.8882 60.9309 24.4261 61.0629C24.096 61.1289 23.766 61.327 23.4359 61.525C22.0496 62.3832 21.2575 64.0996 21.5875 65.6839C21.9176 67.2682 23.3039 68.5885 24.9542 68.7865C25.1522 68.7865 25.2843 68.7865 25.4823 68.8525H30.9614C31.1595 68.8525 31.2915 68.8525 31.4895 68.7865C31.8196 68.7205 32.2157 68.6545 32.5457 68.5225C34.2621 67.7963 35.1863 65.8159 34.8562 64.0995C34.5261 62.7133 33.4039 61.525 32.0176 61.1289Z" fill="#00B871"/>
<path d="M127.999 18.6838V18.6177C127.999 18.5517 127.999 18.4197 127.999 18.3537C127.933 17.7596 127.603 17.1654 127.207 16.7033C127.009 16.4393 126.877 16.3733 126.679 16.2413C126.613 16.2413 126.613 16.1752 126.547 16.1752C126.547 16.1752 126.481 16.1752 126.481 16.1092L99.2835 0.398034C99.1514 0.33202 99.0194 0.266007 98.8874 0.199993C98.4913 0.0679666 98.4253 0.0679665 97.9632 0.00195312C97.8312 0.00195312 97.6992 0.00195312 97.5671 0.00195312C97.5011 0.00195312 97.5011 0.00195312 97.4351 0.00195312H30.9596C30.4975 0.00195312 30.3655 0.00195312 29.9034 0.13398C29.5733 0.199993 29.2432 0.398034 28.9132 0.596074C27.5269 1.45425 26.7347 3.1706 27.0648 4.75492C27.3949 6.33924 28.7811 7.65951 30.4315 7.85755C30.6295 7.85755 30.7615 7.85755 30.9596 7.92356H49.3113C49.5093 7.92356 49.7734 7.98958 49.9714 7.98958C50.1035 7.98958 50.2355 8.05559 50.3675 8.05559C51.7538 8.45167 52.876 9.63991 53.2061 11.0922C53.6022 12.8086 52.612 14.789 50.8956 15.5151C50.5656 15.6471 50.2355 15.7792 49.8394 15.7792C49.6414 15.7792 49.5093 15.7792 49.3113 15.8452H3.9601C3.498 15.8452 3.36598 15.8452 2.90388 15.9772C2.57381 16.0432 2.24375 16.2413 1.91368 16.4393C0.527399 17.2975 -0.264762 19.0138 0.0653049 20.5981C0.395372 22.1825 1.78165 23.5027 3.43199 23.7008C3.63003 23.7008 3.76206 23.7008 3.9601 23.7668H58.6192C58.8172 23.7668 59.0813 23.8328 59.2793 23.8328C59.4114 23.8328 59.5434 23.8988 59.6754 23.8988C61.0617 24.2949 62.1839 25.4831 62.514 26.9354C62.9101 28.6518 61.9199 30.6322 60.2035 31.3583C59.8735 31.4904 59.5434 31.6224 59.1473 31.6224C58.9493 31.6224 58.8172 31.6224 58.6192 31.6884H50.4335C49.9714 31.6884 49.8394 31.6884 49.3773 31.8204C49.0473 31.8864 48.7172 32.0845 48.3871 32.2825C47.0008 33.1407 46.2087 34.857 46.5387 36.4414C46.8688 38.0257 48.2551 39.346 49.9054 39.544C50.1035 39.544 50.2355 39.544 50.4335 39.61H70.4356C72.218 39.61 73.6042 38.1577 73.6042 36.4414V25.2191C73.6042 24.757 74.1324 24.4929 74.5284 24.691L88.5233 32.8106C92.286 34.9891 94.5965 39.0159 94.5965 43.3728V50.4362C94.5965 54.9251 89.7115 57.7637 85.8167 55.5192L74.3304 48.8519C73.9343 48.6538 73.6703 48.2578 73.5382 47.7957C73.2742 46.3434 71.9539 45.2872 70.4356 45.2872H20.3974C19.9353 45.2872 19.8033 45.2872 19.3412 45.4192C19.0112 45.4852 18.6811 45.6832 18.351 45.8813C16.9647 46.7395 16.1726 48.4558 16.5026 50.0401C16.8327 51.6245 18.219 52.9447 19.8693 53.1428C20.0674 53.1428 20.1994 53.1428 20.3974 53.2088H54.1963C54.3943 53.2088 54.6584 53.2748 54.8564 53.2748C54.9885 53.2748 55.1205 53.3408 55.2525 53.3408C56.6388 53.7369 57.761 54.9251 58.0911 56.3774C58.4872 58.0938 57.497 60.0742 55.7806 60.8003C55.4506 60.9323 55.1205 61.0644 54.7244 61.0644C54.5264 61.0644 54.3943 61.0644 54.1963 61.1304H44.2283C43.7662 61.1304 43.6342 61.1304 43.1721 61.2624C42.842 61.3284 42.5119 61.5265 42.1819 61.7245C40.7956 62.5827 40.0034 64.299 40.3335 65.8833C40.6636 67.4677 42.0498 68.7879 43.7002 68.986C43.8982 68.986 44.0302 68.986 44.2283 69.052H97.5671H97.6331C97.6991 69.052 97.6992 69.052 97.7652 69.052C97.8312 69.052 97.8972 69.052 97.9632 69.052C98.0292 69.052 98.0952 69.052 98.2273 69.052C98.4253 68.986 98.6893 68.986 98.8874 68.854C98.9534 68.854 99.0194 68.7879 99.0854 68.7219C99.3495 68.5899 99.5475 68.4579 99.7456 68.3258L126.481 52.8127C126.613 52.7467 126.745 52.6807 126.877 52.5486C127.339 52.1526 127.735 51.6245 127.933 51.0303C128.065 50.6342 128.065 50.5022 128.065 50.1061V18.7498C127.999 18.7498 127.999 18.7498 127.999 18.6838ZM98.8214 7.26343L117.965 18.2877C118.295 18.4857 118.295 19.0138 117.965 19.2119L114.202 21.3903C113.542 21.7864 112.75 21.7864 112.156 21.3903L93.0782 10.3661C92.6821 10.102 92.6821 9.5739 93.0782 9.30985L96.7089 7.19742C97.3691 6.86735 98.1612 6.86735 98.8214 7.26343ZM96.7089 30.3021L77.6311 19.2779C77.235 19.0138 77.235 18.4857 77.6311 18.2217L81.2618 16.1092C81.9219 15.7131 82.7141 15.7131 83.3742 16.1092L102.518 27.1335C102.848 27.3315 102.848 27.8596 102.518 28.0577L98.7554 30.2361C98.1612 30.6322 97.3691 30.6322 96.7089 30.3021ZM121.86 47.5316C121.86 48.0597 121.596 48.5218 121.134 48.7859L102.98 59.282C102.056 59.8101 100.868 59.15 100.868 58.0277V37.0355C100.868 36.5074 101.132 36.0453 101.594 35.7812L106.479 32.9426C106.479 36.5734 106.479 41.7884 106.479 44.363C106.479 45.0891 107.271 45.5512 107.865 45.1551L115.457 40.7982C115.919 40.5342 116.249 40.0061 116.249 39.478V27.3315L119.748 25.3511C120.672 24.823 121.86 25.4831 121.86 26.6054V47.5316Z" fill="#2FDF84"/>
</g>
<defs>
<clipPath id="clip0_21_506">
<rect width="128" height="68.918" fill="white"/>
</clipPath>
</defs>
</svg>
