<svg width="128" height="69" fill="none" xmlns="http://www.w3.org/2000/svg"><g clip-path="url(#a)"><path d="M26.471 39.541c.199 0 .33 0 .529.067h10.1c.198 0 .33 0 .528-.066.33-.067.726-.133 1.056-.265 1.716-.726 2.64-2.706 2.31-4.422-.33-1.453-1.452-2.641-2.838-3.037-.198-.066-.33-.066-.528-.132-.198 0-.33 0-.528-.066H27c-.462 0-.595 0-1.057.132-.33.066-.66.264-.99.462-1.386.858-2.178 2.575-1.848 4.159.33 1.65 1.782 2.904 3.366 3.169ZM3.433 7.854c.132.066.33.066.528.066h10.1c.198 0 .33 0 .528-.066.33-.066.726-.132 1.056-.264 1.716-.726 2.64-2.707 2.31-4.423-.33-1.453-1.452-2.64-2.838-3.037-.198-.066-.33-.066-.528-.132-.198 0-.33 0-.528-.066H3.96c-.462.066-.594.066-1.056.198-.33.066-.66.264-.99.462C.461 1.45-.266 3.167.065 4.752c.33 1.65 1.716 2.904 3.367 3.102Zm8.847 23.964c-.198-.066-.33-.066-.528-.132-.199 0-.33 0-.529-.066H5.744c-.462 0-.594 0-1.056.132-.33.066-.66.264-.99.462-1.386.858-2.179 2.575-1.849 4.159.33 1.584 1.717 2.904 3.367 3.102.198 0 .33 0 .528.066h5.48c.197 0 .33 0 .527-.066.33-.066.727-.132 1.057-.264 1.716-.726 2.64-2.706 2.31-4.422-.33-1.387-1.452-2.575-2.838-2.971Zm19.736 29.311c-.198-.066-.33-.066-.528-.132-.198 0-.33 0-.528-.066h-5.479c-.462 0-.594 0-1.056.132-.33.066-.66.264-.99.462-1.387.858-2.179 2.575-1.849 4.159.33 1.584 1.717 2.904 3.367 3.103.198 0 .33 0 .528.066h5.48c.197 0 .33 0 .527-.066.33-.067.727-.133 1.056-.265 1.717-.726 2.641-2.706 2.311-4.422-.33-1.387-1.452-2.575-2.839-2.971Z" fill="#2FDF84"/><path d="M127.999 18.684v-.33c-.066-.594-.396-1.189-.792-1.65-.198-.265-.33-.33-.528-.463-.066 0-.066-.066-.132-.066 0 0-.066 0-.066-.066L99.284.398 98.886.2c-.396-.132-.462-.132-.924-.198H30.96c-.463 0-.595 0-1.057.132-.33.066-.66.264-.99.462-1.386.858-2.178 2.575-1.848 4.159.33 1.584 1.716 2.905 3.366 3.103.198 0 .33 0 .529.066h18.35c.198 0 .462.066.66.066.133 0 .265.066.397.066 1.386.396 2.508 1.584 2.838 3.036.396 1.717-.594 3.697-2.31 4.423-.33.132-.66.264-1.057.264-.198 0-.33 0-.528.066H3.961c-.463 0-.595 0-1.057.132-.33.066-.66.264-.99.462-1.387.858-2.179 2.575-1.849 4.16.33 1.584 1.717 2.904 3.367 3.102.198 0 .33 0 .528.066h54.66c.197 0 .461.066.66.066.131 0 .263.066.395.066 1.387.396 2.509 1.584 2.839 3.036.396 1.717-.594 3.697-2.31 4.423-.33.132-.66.264-1.057.264-.198 0-.33 0-.528.066h-8.185c-.463 0-.595 0-1.057.132-.33.066-.66.264-.99.462-1.386.859-2.178 2.575-1.848 4.16.33 1.584 1.716 2.904 3.366 3.102.198 0 .33 0 .529.066h20.002a3.17 3.17 0 0 0 3.168-3.169V25.22c0-.462.528-.726.924-.528l13.995 8.12a12.196 12.196 0 0 1 6.074 10.562v7.063c0 4.49-4.885 7.328-8.78 5.083L74.33 48.852c-.396-.198-.66-.594-.792-1.056-.264-1.453-1.584-2.509-3.102-2.509H20.397c-.462 0-.594 0-1.056.132-.33.066-.66.264-.99.462-1.386.858-2.178 2.575-1.848 4.16.33 1.583 1.716 2.904 3.366 3.102.198 0 .33 0 .528.066h33.8c.197 0 .461.066.66.066.132 0 .264.066.395.066 1.387.396 2.509 1.584 2.84 3.036.395 1.717-.595 3.697-2.311 4.423-.33.132-.66.264-1.057.264-.198 0-.33 0-.528.066h-9.968c-.462 0-.594 0-1.056.132-.33.066-.66.264-.99.462-1.386.859-2.179 2.575-1.849 4.16.33 1.584 1.717 2.904 3.367 3.102.198 0 .33 0 .528.066h53.999c.198-.066.462-.066.66-.198.066 0 .132-.066.198-.132.265-.132.463-.264.66-.396l26.736-15.513c.132-.066.264-.132.396-.264.462-.396.858-.925 1.056-1.519.132-.396.132-.528.132-.924V18.75c-.066 0-.066 0-.066-.066ZM98.821 7.264l19.144 11.024c.33.198.33.726 0 .924l-3.763 2.178c-.66.396-1.452.396-2.046 0L93.078 10.366a.618.618 0 0 1 0-1.056l3.63-2.113a2.189 2.189 0 0 1 2.113.066ZM96.71 30.301 77.63 19.278a.618.618 0 0 1 0-1.056l3.63-2.113a2.026 2.026 0 0 1 2.113 0l19.144 11.024c.33.198.33.727 0 .925l-3.763 2.178c-.594.396-1.386.396-2.046.066Zm25.151 17.23c0 .528-.264.99-.726 1.254L102.98 59.282c-.924.528-2.112-.132-2.112-1.254V37.036c0-.529.264-.99.726-1.255l4.885-2.838v11.42c0 .726.792 1.188 1.386.792l7.592-4.357c.462-.264.792-.792.792-1.32V27.331l3.499-1.98c.924-.528 2.112.132 2.112 1.254v20.927Z" fill="#00B871"/></g><defs><clipPath id="a"><path fill="#fff" d="M0 0h128v68.918H0z"/></clipPath></defs></svg>