<svg width="66" height="36" fill="none" xmlns="http://www.w3.org/2000/svg"><g clip-path="url(#a)"><path d="M13.517 20.191c.101 0 .169 0 .27.034h5.157c.101 0 .169 0 .27-.034.168-.034.37-.067.54-.135.876-.37 1.348-1.382 1.179-2.258a2.113 2.113 0 0 0-1.45-1.55c-.1-.035-.168-.035-.27-.068-.1 0-.168 0-.269-.034h-5.157c-.236 0-.304 0-.54.067-.168.034-.337.135-.505.236-.708.439-1.113 1.315-.944 2.124.169.843.91 1.483 1.72 1.618ZM1.753 4.01c.067.034.168.034.27.034H7.18c.1 0 .168 0 .27-.034.168-.033.37-.067.539-.134.876-.371 1.348-1.382 1.18-2.259a2.113 2.113 0 0 0-1.45-1.55c-.101-.034-.169-.034-.27-.068-.1 0-.168 0-.27-.034H2.023C1.786 0 1.72 0 1.483.067 1.314.1 1.146.2.977.303a2.017 2.017 0 0 0-.943 2.123A2.006 2.006 0 0 0 1.753 4.01ZM6.27 16.247c-.101-.034-.169-.034-.27-.067-.1 0-.168 0-.27-.034H2.934c-.236 0-.304 0-.54.067-.168.034-.337.135-.505.236-.708.439-1.113 1.315-.944 2.124.169.809.876 1.483 1.72 1.584.1 0 .168 0 .269.034H5.73c.1 0 .168 0 .27-.034.168-.033.37-.067.539-.135.876-.37 1.348-1.382 1.18-2.258a2.123 2.123 0 0 0-1.45-1.517Zm10.079 14.967c-.102-.034-.169-.034-.27-.067-.101 0-.168 0-.27-.034h-2.797c-.236 0-.304 0-.54.067-.168.034-.337.135-.505.236-.708.439-1.113 1.315-.944 2.124.168.809.876 1.483 1.719 1.584.101 0 .168 0 .27.034h2.797c.102 0 .169 0 .27-.034.168-.034.37-.067.54-.135.876-.37 1.348-1.382 1.18-2.258a2.123 2.123 0 0 0-1.45-1.517Z" fill="#00B871"/><path d="M65.36 9.54v-.168c-.034-.304-.202-.607-.404-.843-.102-.135-.169-.168-.27-.236-.034 0-.034-.034-.068-.034 0 0-.033 0-.033-.033L50.697.203l-.202-.1c-.203-.068-.236-.068-.472-.102H15.809c-.236 0-.303 0-.54.067-.168.034-.337.135-.505.236-.708.439-1.112 1.315-.944 2.124.169.809.877 1.483 1.72 1.584.1 0 .168 0 .269.034h9.37c.102 0 .237.034.338.034.067 0 .135.033.202.033.708.203 1.281.81 1.45 1.551.202.876-.304 1.888-1.18 2.258-.169.068-.337.135-.54.135-.1 0-.168 0-.27.034H2.023c-.236 0-.303 0-.54.067-.168.034-.336.135-.505.236C.27 8.833-.135 9.71.033 10.518c.169.809.877 1.483 1.72 1.584.1 0 .168 0 .27.034h27.91c.1 0 .236.034.337.034.067 0 .135.033.202.033.708.203 1.28.81 1.45 1.55.202.877-.304 1.889-1.18 2.26-.169.067-.337.134-.54.134-.1 0-.168 0-.27.034h-4.18c-.235 0-.302 0-.538.067-.169.034-.338.135-.506.236-.708.438-1.112 1.315-.944 2.124.169.809.877 1.483 1.72 1.584.1 0 .168 0 .269.034h10.213c.91 0 1.618-.742 1.618-1.618v-5.73c0-.236.27-.371.472-.27l7.147 4.146a6.227 6.227 0 0 1 3.1 5.393v3.607c0 2.292-2.494 3.742-4.482 2.596l-5.866-3.405c-.202-.101-.337-.303-.404-.54-.135-.74-.81-1.28-1.585-1.28h-25.55c-.236 0-.304 0-.54.067-.168.034-.337.135-.505.236-.708.438-1.113 1.315-.944 2.124.168.809.876 1.483 1.719 1.584.101 0 .168 0 .27.034h17.258c.101 0 .236.033.337.033.068 0 .135.034.203.034a2.113 2.113 0 0 1 1.449 1.55c.202.877-.303 1.889-1.18 2.26-.168.067-.337.134-.54.134-.1 0-.168 0-.269.034h-5.09c-.236 0-.303 0-.54.067-.168.034-.336.135-.505.236-.708.438-1.112 1.315-.944 2.124.169.809.877 1.483 1.72 1.584.1 0 .168 0 .27.034h27.572c.1-.034.236-.034.337-.101.033 0 .067-.034.1-.068.136-.067.237-.135.338-.202l13.652-7.921a.702.702 0 0 0 .202-.135c.236-.202.438-.472.54-.775.067-.203.067-.27.067-.473V9.575c-.034 0-.034 0-.034-.035ZM50.461 3.71l9.775 5.63c.169.1.169.37 0 .471l-1.921 1.112c-.337.203-.742.203-1.045 0l-9.742-5.629a.316.316 0 0 1 0-.54l1.854-1.078a1.117 1.117 0 0 1 1.079.034Zm-1.079 11.764-9.741-5.63a.316.316 0 0 1 0-.539l1.854-1.078a1.035 1.035 0 0 1 1.078 0l9.776 5.63c.168.1.168.37 0 .471l-1.922 1.112c-.303.203-.708.203-1.045.034Zm12.843 8.798c0 .27-.135.505-.37.64l-9.27 5.36a.724.724 0 0 1-1.08-.64V18.91c0-.27.136-.505.372-.64l2.494-1.45v5.832c0 .37.405.607.708.404l3.877-2.224a.81.81 0 0 0 .404-.674v-6.203l1.787-1.011a.724.724 0 0 1 1.078.64V24.27Z" fill="#F4FBF7"/></g><defs><clipPath id="a"><path fill="#fff" d="M0 0h65.36v35.191H0z"/></clipPath></defs></svg>