<svg width="512" height="512" fill="none" xmlns="http://www.w3.org/2000/svg"><path d="M496.412 289.493c-53.788-82.361-48.071-166.784-73.998-206.478-25.927-39.694-103.196-108.132-285.767 11.122C-45.923 213.39.512 343.026 29.042 386.674c133.518 204.402 562.645 48.682 467.37-97.181Z" fill="#EFEFEF"/><path d="m81.05 46.054 20.113-20.113 10.057 10.056-20.114 20.114L81.05 46.054Zm-57.828 57.818 20.113-20.113 10.057 10.056-20.113 20.113-10.057-10.056Zm.003-70.397 10.057-10.057 20.113 20.113-10.057 10.057-20.113-20.113Zm364.331 210.023c-11.762 0-21.334-9.571-21.334-21.333 0-11.762 9.572-21.333 21.334-21.333 11.761 0 21.333 9.571 21.333 21.333 0 11.762-9.572 21.333-21.333 21.333Zm0-28.444c-3.912 0-7.112 3.186-7.112 7.111s3.2 7.111 7.112 7.111c3.911 0 7.111-3.186 7.111-7.111s-3.2-7.111-7.111-7.111Z" fill="#A4AFC1"/><path d="M277.76 238.222H117.333v149.333h206.223V238.222H277.76Z" fill="#F3F3F1"/><path d="M359.111 288.711h-35.555v98.845H416V345.6c0-31.417-25.472-56.889-56.889-56.889Z" fill="#2FDF84"/><path d="M192 416c13.746 0 24.889-11.143 24.889-24.889 0-13.746-11.143-24.889-24.889-24.889-13.746 0-24.889 11.143-24.889 24.889C167.111 404.857 178.254 416 192 416Zm170.667 0c13.745 0 24.889-11.143 24.889-24.889 0-13.746-11.144-24.889-24.889-24.889-13.746 0-24.889 11.143-24.889 24.889 0 13.746 11.143 24.889 24.889 24.889Z" fill="#F3F3F1"/><path d="M231.111 245.333H110.222c-7.85 0-14.222-6.371-14.222-14.222V110.222C96 102.372 102.372 96 110.222 96h120.889c7.851 0 14.222 6.372 14.222 14.222v120.889c0 7.851-6.371 14.222-14.222 14.222Z" fill="#2FDF84"/><path d="M152.889 96h35.555v49.778h-35.555V96Z" fill="#2FDF84"/><path d="M149.333 238.222h-32v149.333h32V238.222Z" fill="#D5DBE1"/><path d="M323.556 288.711v98.845h32v-98.845h-32Z" fill="#00B871"/><path d="M199.111 391.111c0-7.623 3.499-14.35 8.889-18.915-4.338-3.67-9.87-5.974-16-5.974-13.739 0-24.889 11.15-24.889 24.889C167.111 404.85 178.261 416 192 416c6.13 0 11.662-2.304 16-5.973-5.39-4.566-8.889-11.293-8.889-18.916Zm170.667 0c0-7.623 3.498-14.35 8.889-18.915-4.338-3.67-9.871-5.974-16-5.974-13.739 0-24.889 11.15-24.889 24.889 0 13.739 11.15 24.889 24.889 24.889 6.129 0 11.662-2.304 16-5.973-5.391-4.566-8.889-11.293-8.889-18.916Z" fill="#D5DBE1"/><path d="M128 231.111V110.222c0-7.85 6.372-14.222 14.222-14.222h-32C102.372 96 96 102.372 96 110.222v120.889c0 7.851 6.372 14.222 14.222 14.222h32c-7.85 0-14.222-6.371-14.222-14.222Z" fill="#00B871"/><path d="M231.111 256H110.222c-13.724 0-24.889-11.165-24.889-24.889V110.222c0-13.724 11.165-24.889 24.889-24.889h120.889c13.725 0 24.889 11.165 24.889 24.889v120.889C256 244.835 244.836 256 231.111 256ZM110.222 106.667a3.556 3.556 0 0 0-3.555 3.555v120.889a3.557 3.557 0 0 0 3.555 3.556h120.889a3.557 3.557 0 0 0 3.556-3.556V110.222a3.556 3.556 0 0 0-3.556-3.555H110.222Z" fill="#000"/><path d="M188.444 156.444h-35.555c-5.888 0-10.667-4.778-10.667-10.666V96c0-5.888 4.779-10.667 10.667-10.667h35.555c5.888 0 10.667 4.779 10.667 10.667v49.778c0 5.888-4.779 10.666-10.667 10.666Zm-24.888-21.333h14.222v-28.444h-14.222v28.444Zm24.888 64h28.445v21.333h-28.445v-21.333Zm-10.666 199.111h-60.445c-5.888 0-10.666-4.779-10.666-10.667V277.333H128v99.556h49.778v21.333Zm145.778 0H205.938v-21.333h106.951v-128h-35.982v-21.334h46.649c5.888 0 10.666 4.779 10.666 10.667v149.333c0 5.888-4.778 10.667-10.666 10.667Z" fill="#000"/><path d="M416 398.222h-39.41v-21.333h28.743V345.6c0-25.486-20.736-46.222-46.222-46.222h-24.889v77.511h14.222v21.333h-24.888c-5.888 0-10.667-4.778-10.667-10.666v-98.845c0-5.888 4.779-10.667 10.667-10.667h35.555c37.248 0 67.556 30.308 67.556 67.556v41.956c0 5.888-4.779 10.666-10.667 10.666Zm-224 28.445c-19.612 0-35.556-15.958-35.556-35.556s15.944-35.556 35.556-35.556c19.612 0 35.556 15.958 35.556 35.556S211.612 426.667 192 426.667Zm0-49.778c-7.851 0-14.222 6.386-14.222 14.222 0 7.836 6.371 14.222 14.222 14.222 7.851 0 14.222-6.386 14.222-14.222 0-7.836-6.371-14.222-14.222-14.222Z" fill="#000"/><path d="M362.667 426.667c-19.613 0-35.556-15.958-35.556-35.556s15.943-35.556 35.556-35.556c19.612 0 35.555 15.958 35.555 35.556s-15.943 35.556-35.555 35.556Zm0-49.778c-7.851 0-14.223 6.386-14.223 14.222 0 7.836 6.372 14.222 14.223 14.222 7.85 0 14.222-6.386 14.222-14.222 0-7.836-6.372-14.222-14.222-14.222Z" fill="#000"/></svg>