<svg width="512" height="512" fill="none" xmlns="http://www.w3.org/2000/svg"><g clip-path="url(#a)"><path d="M496.412 289.493c-53.788-82.361-48.071-166.784-73.998-206.478-25.927-39.694-103.196-108.131-285.767 11.122C-45.923 213.39.512 343.026 29.042 386.674c133.518 204.402 562.645 48.682 467.37-97.181Z" fill="#EFEFEF"/><path d="M373.333 174.222c-11.761 0-21.333-9.571-21.333-21.333 0-11.762 9.572-21.333 21.333-21.333 11.762 0 21.334 9.571 21.334 21.333 0 11.762-9.572 21.333-21.334 21.333Zm0-28.444c-3.925 0-7.111 3.2-7.111 7.111 0 3.911 3.186 7.111 7.111 7.111 3.926 0 7.111-3.2 7.111-7.111 0-3.911-3.185-7.111-7.111-7.111ZM2.506 10.07 12.562.014l20.114 20.113-10.057 10.057L2.506 10.07Zm57.808 57.775L70.37 57.79l20.114 20.113-10.057 10.056-20.113-20.113ZM-.004 77.936l20.113-20.113 10.057 10.056-20.113 20.114L-.004 77.936Zm57.838-57.814L77.947.01l10.056 10.057L67.89 30.179 57.834 20.122Z" fill="#A4AFC1"/><path d="M295.111 224h113.778v99.556H295.111V224Z" fill="#2FDF84"/><path d="M295.111 224h113.778v99.556H295.111V224Zm-113.778 0h113.778v99.556H181.333V224Zm0-99.556h113.778V224H181.333v-99.556Z" fill="#2FDF84"/><path d="M181.333 124.444h113.778V224H181.333v-99.556Zm-71.111 28.445h42.667v170.667h-42.667V152.889Z" fill="#2FDF84"/><path d="M96 323.556h320v13.454c0 15.488-9.429 29.426-23.822 35.171a47.104 47.104 0 0 0-29.597 43.591v.214H96v-92.43Z" fill="#F3F3F1"/><path d="M295.111 224h32v99.556h-32V224Zm-113.778 0h32v99.556h-32V224Zm0-99.556h32V224h-32v-99.556Z" fill="#00B871"/><path d="M96 323.556h32V416H96v-92.444Z" fill="#D5DBE1"/><path d="M408.889 334.222H295.111c-5.888 0-10.667-4.778-10.667-10.666V224c0-5.888 4.779-10.667 10.667-10.667h113.778c5.888 0 10.666 4.779 10.666 10.667v99.556c0 5.888-4.778 10.666-10.666 10.666Zm-103.111-21.333h92.444v-78.222h-92.444v78.222Z" fill="#000"/><path d="M320 252.444h21.333v42.667H320v-42.667Z" fill="#000"/><path d="M408.889 334.222H295.111c-5.888 0-10.667-4.778-10.667-10.666V224c0-5.888 4.779-10.667 10.667-10.667h113.778c5.888 0 10.666 4.779 10.666 10.667v99.556c0 5.888-4.778 10.666-10.666 10.666Zm-103.111-21.333h92.444v-78.222h-92.444v78.222Z" fill="#000"/><path d="M362.667 252.444H384v42.667h-21.333v-42.667Zm-42.667 0h21.333v42.667H320v-42.667Zm-24.889 81.778H181.333c-5.888 0-10.666-4.778-10.666-10.666V224c0-5.888 4.778-10.667 10.666-10.667h113.778c5.888 0 10.667 4.779 10.667 10.667v99.556c0 5.888-4.779 10.666-10.667 10.666ZM192 312.889h92.444v-78.222H192v78.222Z" fill="#000"/><path d="M206.222 252.444h21.334v42.667h-21.334v-42.667Z" fill="#000"/><path d="M295.111 334.222H181.333c-5.888 0-10.666-4.778-10.666-10.666V224c0-5.888 4.778-10.667 10.666-10.667h113.778c5.888 0 10.667 4.779 10.667 10.667v99.556c0 5.888-4.779 10.666-10.667 10.666ZM192 312.889h92.444v-78.222H192v78.222Z" fill="#000"/><path d="M248.889 252.444h21.333v42.667h-21.333v-42.667Zm-42.667 0h21.334v42.667h-21.334v-42.667Zm88.889-17.777H181.333c-5.888 0-10.666-4.779-10.666-10.667v-99.556c0-5.888 4.778-10.666 10.666-10.666h113.778c5.888 0 10.667 4.778 10.667 10.666V224c0 5.888-4.779 10.667-10.667 10.667ZM192 213.333h92.444v-78.222H192v78.222Z" fill="#000"/><path d="M206.222 152.889h21.334v42.667h-21.334v-42.667Z" fill="#000"/><path d="M295.111 234.667H181.333c-5.888 0-10.666-4.779-10.666-10.667v-99.556c0-5.888 4.778-10.666 10.666-10.666h113.778c5.888 0 10.667 4.778 10.667 10.666V224c0 5.888-4.779 10.667-10.667 10.667ZM192 213.333h92.444v-78.222H192v78.222Z" fill="#000"/><path d="M248.889 152.889h21.333v42.667h-21.333v-42.667Zm-42.667 0h21.334v42.667h-21.334v-42.667Zm-53.333 181.333h-42.667c-5.888 0-10.667-4.778-10.667-10.666V152.889c0-5.888 4.779-10.667 10.667-10.667h42.667c5.888 0 10.666 4.779 10.666 10.667v170.667c0 5.888-4.778 10.666-10.666 10.666Zm-32-21.333h21.333V163.556h-21.333v149.333Z" fill="#000"/><path d="M120.889 85.333h21.333v78.223h-21.333V85.333Zm241.706 341.334H96c-5.888 0-10.667-4.779-10.667-10.667v-92.444c0-5.888 4.779-10.667 10.667-10.667h320c5.888 0 10.667 4.779 10.667 10.667v13.454c0 19.968-11.99 37.674-30.521 45.084-13.867 5.561-22.841 18.788-22.884 33.721-.014 5.874-4.793 10.852-10.667 10.852Zm-255.928-21.334H352.91c3.584-19.342 16.654-35.584 35.3-43.036 10.396-4.153 17.123-14.08 17.123-25.273v-2.802H106.667v71.111Z" fill="#000"/><path d="M96 355.556h306.233v21.333H96v-21.333Z" fill="#000"/></g><defs><clipPath id="a"><path fill="#fff" d="M0 0h512v512H0z"/></clipPath></defs></svg>