<svg width="512" height="512" fill="none" xmlns="http://www.w3.org/2000/svg"><path d="M119.139 59.264c98.376 0 165.931-50.958 213.334-50.958 47.402 0 146.958 27.25 146.958 245.319S345.5 503.694 293.362 503.694c-244.153.014-348.445-444.43-174.223-444.43Z" fill="#EFEFEF"/><path d="M183.111 50.333h28.445v14.222h-28.445V50.332Zm-81.778 0h28.445v14.222h-28.445V50.332ZM151.111.555h14.223v28.444h-14.223V.555Zm249.87 250.112c-11.761 0-21.333-9.572-21.333-21.334 0-11.761 9.572-21.333 21.333-21.333 11.762 0 21.334 9.572 21.334 21.333 0 11.762-9.572 21.334-21.334 21.334Zm0-28.445c-3.911 0-7.111 3.2-7.111 7.111 0 3.911 3.2 7.111 7.111 7.111 3.911 0 7.111-3.2 7.111-7.111 0-3.911-3.185-7.111-7.111-7.111Z" fill="#A4AFC1"/><path d="M277.76 238.222H117.333v149.333h206.223V238.222H277.76Z" fill="#F3F3F1"/><path d="M359.111 288.711h-35.555v98.845H416V345.6c0-31.417-25.472-56.889-56.889-56.889Z" fill="#2FDF84"/><path d="M192 416c13.746 0 24.889-11.143 24.889-24.889 0-13.746-11.143-24.889-24.889-24.889-13.746 0-24.889 11.143-24.889 24.889C167.111 404.857 178.254 416 192 416Zm170.667 0c13.745 0 24.889-11.143 24.889-24.889 0-13.746-11.144-24.889-24.889-24.889-13.746 0-24.889 11.143-24.889 24.889 0 13.746 11.143 24.889 24.889 24.889Z" fill="#F3F3F1"/><path d="M216.889 157.326c0 50.503-60.445 102.23-60.445 102.23S96 207.844 96 157.326C96 123.463 123.065 96 156.444 96c33.38 0 60.445 27.463 60.445 61.326Z" fill="#2FDF84"/><path d="M156.444 174.222c9.819 0 17.778-7.959 17.778-17.777 0-9.819-7.959-17.778-17.778-17.778-9.818 0-17.777 7.959-17.777 17.778 0 9.818 7.959 17.777 17.777 17.777Z" fill="#F3F3F1"/><path d="M149.333 238.222h-32v149.333h32V238.222Z" fill="#D5DBE1"/><path d="M323.556 288.711v98.845h32v-98.845h-32Z" fill="#00B871"/><path d="M199.111 391.111c0-7.623 3.499-14.35 8.889-18.915-4.338-3.67-9.87-5.974-16-5.974-13.738 0-24.889 11.15-24.889 24.889C167.111 404.85 178.262 416 192 416c6.13 0 11.662-2.304 16-5.973-5.39-4.566-8.889-11.293-8.889-18.916Zm170.667 0c0-7.623 3.499-14.35 8.889-18.915-4.338-3.67-9.871-5.974-16-5.974-13.739 0-24.889 11.15-24.889 24.889 0 13.739 11.15 24.889 24.889 24.889 6.129 0 11.662-2.304 16-5.973-5.39-4.566-8.889-11.293-8.889-18.916Z" fill="#D5DBE1"/><path d="M128 157.326c0-28.217 18.887-51.726 44.444-58.88-5.134-1.436-10.424-2.446-16-2.446C123.065 96 96 123.463 96 157.326c0 50.503 60.444 102.23 60.444 102.23s6.912-5.96 16-15.673C154.539 224.768 128 190.834 128 157.326Z" fill="#00B871"/><path d="M156.445 270.222a10.58 10.58 0 0 1-6.927-2.56c-2.631-2.247-64.184-55.538-64.184-110.336 0-39.694 31.9-71.993 71.111-71.993 39.21 0 71.111 32.299 71.111 71.993 0 54.798-61.554 108.089-64.185 110.336a10.58 10.58 0 0 1-6.926 2.56Zm0-163.555c-27.449 0-49.778 22.727-49.778 50.659 0 35.3 34.645 72.917 49.778 87.666 15.132-14.749 49.777-52.366 49.777-87.666 0-27.932-22.328-50.659-49.777-50.659Z" fill="#000"/><path d="M156.444 184.889c-15.687 0-28.444-12.757-28.444-28.445C128 140.757 140.757 128 156.444 128c15.688 0 28.445 12.757 28.445 28.444 0 15.688-12.757 28.445-28.445 28.445Zm0-35.556c-3.911 0-7.111 3.2-7.111 7.111 0 3.912 3.2 7.112 7.111 7.112 3.912 0 7.112-3.2 7.112-7.112 0-3.911-3.2-7.111-7.112-7.111Zm10.667 248.889h-49.777c-5.888 0-10.667-4.778-10.667-10.666V288H128v88.889h39.111v21.333Zm156.445 0H216.604v-21.333h96.285v-128h-85.333v-21.334h96c5.888 0 10.666 4.779 10.666 10.667v149.333c0 5.888-4.778 10.667-10.666 10.667Z" fill="#000"/><path d="M416 398.222h-28.743v-21.333h18.077V345.6c0-25.486-20.736-46.222-46.223-46.222h-24.889v77.511h3.556v21.333h-14.222c-5.888 0-10.667-4.778-10.667-10.666v-98.845c0-5.888 4.779-10.667 10.667-10.667h35.555c37.248 0 67.556 30.308 67.556 67.556v41.956c0 5.888-4.779 10.666-10.667 10.666Zm-224 28.445c-19.612 0-35.555-15.944-35.555-35.556 0-19.612 15.943-35.556 35.555-35.556 19.613 0 35.556 15.944 35.556 35.556 0 19.612-15.943 35.556-35.556 35.556Zm0-49.778c-7.85 0-14.222 6.371-14.222 14.222 0 7.851 6.372 14.222 14.222 14.222 7.851 0 14.223-6.371 14.223-14.222 0-7.851-6.372-14.222-14.223-14.222Z" fill="#000"/><path d="M362.667 426.667c-19.613 0-35.556-15.944-35.556-35.556 0-19.612 15.943-35.556 35.556-35.556 19.612 0 35.555 15.944 35.555 35.556 0 19.612-15.943 35.556-35.555 35.556Zm0-49.778c-7.851 0-14.222 6.371-14.222 14.222 0 7.851 6.371 14.222 14.222 14.222 7.851 0 14.222-6.371 14.222-14.222 0-7.851-6.371-14.222-14.222-14.222Z" fill="#000"/></svg>