<svg width="512" height="512" fill="none" xmlns="http://www.w3.org/2000/svg"><path d="M383.744 55.666C285.383 57.5 216.889 7.808 169.486 8.704 122.084 9.6 23.054 38.699 27.136 256.74c4.082 218.04 138.581 247.523 190.72 246.556 244.11-4.565 340.068-450.887 165.888-447.63Z" fill="#EFEFEF"/><path d="M428.402 202.667c-11.762 0-21.334-9.572-21.334-21.334 0-11.761 9.572-21.333 21.334-21.333s21.333 9.572 21.333 21.333c0 11.762-9.571 21.334-21.333 21.334Zm0-28.445c-3.911 0-7.111 3.186-7.111 7.111 0 3.926 3.2 7.111 7.111 7.111 3.911 0 7.111-3.185 7.111-7.111 0-3.925-3.2-7.111-7.111-7.111ZM49.778 0H64v28.444H49.778V0Zm0 81.778H64v28.444H49.778V81.778ZM0 46.222h28.444v14.222H0V46.222Zm81.778 0h28.444v14.222H81.778V46.222Z" fill="#A4AFC1"/><path d="M359.111 216.889v-35.556H96v163.556c0 7.851 6.372 14.222 14.222 14.222h248.889V216.889Z" fill="#F3F3F1"/><path d="M316.174 103.367A14.23 14.23 0 0 0 303.716 96H148.153c-5.348 0-10.254 3-12.672 7.765L96 181.333h263.111l-42.937-77.966Zm95.531 165.035c5.788-5.476 5.66-20.267.028-25.913-5.632-5.632-20.423-5.774-25.884.028l-33.678 35.769a8.31 8.31 0 0 1-7.851 2.446l-93.995-19.911a6.648 6.648 0 0 0-6.144 1.807c-3.811 3.825-3.043 10.211 1.593 13.013l64.583 34.19c4.509 2.717 5.391 8.903 1.807 12.772l-40.221 43.335-22.229-9.714a8.315 8.315 0 0 0-9.202 1.735c-3.328 3.328-2.916 8.861.882 11.648l24.249 17.863a12.433 12.433 0 0 1 2.688 2.702l16.526 22.656c2.773 3.798 8.291 4.239 11.619.896a8.308 8.308 0 0 0 1.736-9.216l-9.714-22.243 43.264-40.206c3.84-3.556 9.984-2.717 12.729 1.749l35.783 66.162c2.816 4.579 9.159 5.319 12.956 1.522a6.753 6.753 0 0 0 1.792-6.301l-21.603-94.99a8.308 8.308 0 0 1 2.417-7.993l35.869-33.806Z" fill="#2FDF84"/><path d="M128 344.889V181.333H96v163.556c0 7.851 6.372 14.222 14.222 14.222h32c-7.85 0-14.222-6.371-14.222-14.222Z" fill="#D5DBE1"/><path d="M180.153 96h-32c-5.348 0-10.254 3-12.672 7.765L96 181.333h32l39.481-77.568A14.228 14.228 0 0 1 180.153 96Zm65.593 179.641 64.583 34.19c4.508 2.717 5.39 8.903 1.806 12.772l-31.132 33.55c.227.071.469-.014.682.071l22.23 9.714 40.22-43.335c3.584-3.869 2.702-10.055-1.806-12.772l-64.583-34.19c-3.47-2.091-4.779-6.215-3.598-9.757l-23.837-5.048a6.644 6.644 0 0 0-6.144 1.806c-3.826 3.811-3.043 10.211 1.579 12.999Zm130.574 5.106a8.314 8.314 0 0 0 7.851-2.447l30.009-31.886c-.655-1.507-1.437-2.901-2.447-3.925-5.632-5.632-20.423-5.774-25.884.028l-31.588 33.551 22.059 4.679Zm-87.836 101.546.924-.853-16.043-11.804c-1.465-1.081-2.261-2.603-2.702-4.224l-20.978-9.174a8.315 8.315 0 0 0-9.201 1.735c-3.328 3.328-2.916 8.847.881 11.648l24.249 17.863a12.438 12.438 0 0 1 2.688 2.703l16.526 22.656c2.774 3.811 8.292 4.238 11.62.896a8.307 8.307 0 0 0 1.735-9.216l-9.699-22.23Zm87.978-38.457c-2.745-4.465-8.889-5.304-12.729-1.749l-13.454 12.501 29.966 55.41c2.816 4.58 9.159 5.319 12.957 1.522a6.751 6.751 0 0 0 1.792-6.3l-10.638-46.806-7.894-14.578Z" fill="#00B871"/><path d="M206.222 369.778h-96c-13.724 0-24.889-11.165-24.889-24.889V181.333c0-5.888 4.779-10.666 10.667-10.666h263.111c5.888 0 10.667 4.778 10.667 10.666v35.556h-21.334V192H106.667v152.889a3.557 3.557 0 0 0 3.555 3.556h96v21.333Z" fill="#000"/><path d="m349.767 186.482-42.951-77.966a3.533 3.533 0 0 0-3.115-1.849H148.153a3.54 3.54 0 0 0-3.172 1.948L105.5 186.169l-19-9.671 39.48-77.568c4.267-8.391 12.772-13.597 22.173-13.597h155.563a24.872 24.872 0 0 1 21.802 12.886l42.951 77.966-18.702 10.297Z" fill="#000"/><path d="M216.889 96h21.333v85.333h-21.333V96Zm74.155 330.667c-.47 0-.939-.015-1.423-.057a18.288 18.288 0 0 1-13.397-7.467l-16.526-22.656-24.647-18.261a18.343 18.343 0 0 1-7.424-13.412 18.333 18.333 0 0 1 5.333-14.364c5.561-5.575 13.852-7.111 21.02-3.968l15.289 6.684 32.982-35.555-61.469-32.541c-5.561-3.328-8.846-8.419-9.557-14.25-.725-5.846 1.266-11.563 5.419-15.716a17.348 17.348 0 0 1 15.971-4.693l92.701 19.626 32.796-34.83c4.452-4.736 11.762-7.538 20.011-7.651 8.419-.569 16.341 2.56 21.162 7.395 4.836 4.821 7.524 12.544 7.41 21.191-.128 8.249-2.915 15.545-7.651 20.025l-34.93 32.91 21.319 93.767c1.365 5.86-.37 11.933-4.651 16.214-4.11 4.138-9.728 6.158-15.616 5.433-5.802-.683-10.908-3.926-13.966-8.903l-34.418-63.616-35.47 32.981 6.684 15.317c3.115 7.083 1.508 15.531-3.968 21.021a18.39 18.39 0 0 1-12.984 5.376Zm93.553-19.072c.015 0 .015.014.015.028l-.015-.028Zm-47.232-78.393c.868 0 1.721.057 2.603.185 5.646.768 10.596 3.996 13.596 8.86l26.354 48.697-16.896-74.354c-1.55-6.499.555-13.497 5.518-18.147l35.784-33.735c1.464-1.977 1.351-8.861-.171-10.752-1.778-1.408-8.733-1.48-10.624-.015l-33.565 35.655c-4.508 4.836-11.349 6.998-17.92 5.547l-73.671-15.602 46.976 24.861c5.433 3.257 8.704 8.206 9.515 13.895a18.838 18.838 0 0 1-4.878 15.559l-40.221 43.349a10.709 10.709 0 0 1-12.089 2.518l-.028-.015 4.309 3.172a23.079 23.079 0 0 1 5.021 5.035l1.536 2.119a10.693 10.693 0 0 1 2.716-11.563l43.264-40.22a18.903 18.903 0 0 1 12.871-5.049Zm46.407-21.462.015.043c-.015 0-.015-.028-.015-.043Zm-135.665-36.465h.042-.042Zm98.389-.982h.028c-.014.015-.014.015-.028 0Z" fill="#000"/></svg>