<svg width="512" height="512" fill="none" xmlns="http://www.w3.org/2000/svg"><path d="M119.14 59.264c98.375 0 165.93-50.958 213.333-50.958 47.403 0 146.958 27.25 146.958 245.319S345.5 503.694 293.362 503.694c-244.153.014-348.445-444.43-174.222-444.43Z" fill="#EFEFEF"/><path d="m148.913 73.384 20.114-20.113 10.056 10.056-20.113 20.114-10.057-10.057Zm-57.827 57.804 20.113-20.114 10.057 10.057-20.114 20.113-10.056-10.056Zm.013-70.402 10.056-10.056 20.114 20.113-10.057 10.056-20.113-20.113Zm337.943 100.935c-11.762 0-21.334-9.572-21.334-21.333 0-11.762 9.572-21.334 21.334-21.334s21.333 9.572 21.333 21.334c0 11.761-9.571 21.333-21.333 21.333Zm0-28.445c-3.911 0-7.111 3.186-7.111 7.112 0 3.925 3.2 7.111 7.111 7.111 3.911 0 7.111-3.186 7.111-7.111 0-3.926-3.2-7.112-7.111-7.112Z" fill="#A4AFC1"/><path d="M316.444 416H195.556c-7.851 0-14.223-6.372-14.223-14.222V295.111c0-7.851 6.372-14.222 14.223-14.222h120.888c7.851 0 14.223 6.371 14.223 14.222v106.667c0 7.85-6.372 14.222-14.223 14.222Z" fill="#F3F3F1"/><path d="M231.111 280.889h49.778v42.667h-49.778v-42.667Z" fill="#F3F3F1"/><path d="M380.444 216.889C380.444 150.13 324.722 96 256 96c-68.722 0-124.444 54.13-124.444 120.889h248.888Z" fill="#2FDF84"/><path d="M213.333 401.778V295.111c0-7.851 6.372-14.222 14.223-14.222h-32c-7.851 0-14.223 6.371-14.223 14.222v106.667c0 7.85 6.372 14.222 14.223 14.222h32c-7.851 0-14.223-6.372-14.223-14.222Zm17.778-120.889h32v42.667h-32v-42.667Z" fill="#D5DBE1"/><path d="M272 97.11c-5.248-.655-10.567-1.11-16-1.11-68.736 0-124.444 54.13-124.444 120.889h32c0-61.483 47.288-112.142 108.444-119.78Z" fill="#00B871"/><path d="M316.444 426.667H195.556c-13.725 0-24.889-11.165-24.889-24.889V295.111c0-13.724 11.164-24.889 24.889-24.889h120.888c13.725 0 24.889 11.165 24.889 24.889v106.667c0 13.724-11.164 24.889-24.889 24.889ZM195.556 291.556a3.556 3.556 0 0 0-3.556 3.555v106.667a3.557 3.557 0 0 0 3.556 3.555h120.888a3.557 3.557 0 0 0 3.556-3.555V295.111a3.556 3.556 0 0 0-3.556-3.555H195.556Z" fill="#000"/><path d="M280.889 334.222h-49.778c-5.888 0-10.667-4.778-10.667-10.666v-42.667c0-5.888 4.779-10.667 10.667-10.667h49.778c5.888 0 10.667 4.779 10.667 10.667v42.667c0 5.888-4.779 10.666-10.667 10.666Zm-39.111-21.333h28.444v-21.333h-28.444v21.333Zm32 64h28.444v21.333h-28.444v-21.333Zm51.345-90.929 42.626-71.154 18.316 10.973-42.626 71.154-18.316-10.973Zm-199.151-59.97 18.249-11.022 42.661 70.635-18.249 11.022-42.661-70.635Z" fill="#000"/><path d="m196.544 225.163 19.072-9.536 28.43 56.86-19.072 9.536-28.43-56.86Zm71.097 47.466 28.43-56.86 19.072 9.536-28.43 56.86-19.072-9.536Z" fill="#000"/><path d="M380.444 227.556H131.556c-5.888 0-10.667-4.779-10.667-10.667 0-72.548 60.615-131.556 135.111-131.556 74.496 0 135.111 59.008 135.111 131.556 0 5.888-4.779 10.667-10.667 10.667Zm-237.696-21.334h226.504c-5.561-55.794-54.216-99.555-113.252-99.555-59.036 0-107.691 43.761-113.252 99.555Z" fill="#000"/></svg>