<svg width="64" height="64" fill="none" xmlns="http://www.w3.org/2000/svg"><circle cx="32" cy="32" r="30" fill="#F4FBF7" stroke="#2FDF84" stroke-width="4"/><path d="m42.613 29.332-10.197-5.848A3.611 3.611 0 0 0 27 26.65v11.74a3.61 3.61 0 0 0 5.416 3.124l10.197-5.848a3.612 3.612 0 0 0 0-6.25v-.084Zm-1.055 4.423L31.36 39.688a1.52 1.52 0 0 1-1.499 0 1.499 1.499 0 0 1-.75-1.298V26.609a1.5 1.5 0 0 1 .75-1.299 1.6 1.6 0 0 1 .75-.2c.262.005.52.074.75.2l10.197 5.89a1.499 1.499 0 0 1 0 2.598v-.043Z" fill="#00B871"/></svg>