<svg width="512" height="512" fill="none" xmlns="http://www.w3.org/2000/svg"><path d="M115.399 79.132c-25.671 94.962-92.501 146.873-104.875 192.64C-1.849 317.54-1.522 420.75 208.996 477.668c210.517 56.917 276.366-64.015 289.962-114.361 63.73-235.691-338.09-452.367-383.559-284.175Z" fill="#EFEFEF"/><path d="M435.541 174.222c-11.761 0-21.333-9.571-21.333-21.333 0-11.762 9.572-21.333 21.333-21.333 11.762 0 21.334 9.571 21.334 21.333 0 11.762-9.572 21.333-21.334 21.333Zm0-28.444c-3.925 0-7.111 3.2-7.111 7.111 0 3.911 3.186 7.111 7.111 7.111 3.926 0 7.111-3.2 7.111-7.111 0-3.911-3.185-7.111-7.111-7.111ZM36.867 71.26l10.057-10.057 20.113 20.114L56.98 91.373 36.867 71.26Zm-2.514 67.89 20.113-20.113 10.057 10.056-20.113 20.114-10.057-10.057ZM92.17 81.322l20.114-20.113 10.057 10.056-20.114 20.114-10.056-10.057Z" fill="#A4AFC1"/><path d="M295.111 216.889v156.444h106.667c7.851 0 14.222-6.371 14.222-14.222V216.889H295.111Z" fill="#F3F3F1"/><path d="M238.222 138.667H85.333v234.666h167.111V152.889c0-7.851-6.371-14.222-14.222-14.222Z" fill="#2FDF84"/><path d="M348.444 401.778c13.746 0 24.889-11.143 24.889-24.889 0-13.746-11.143-24.889-24.889-24.889-13.745 0-24.888 11.143-24.888 24.889 0 13.746 11.143 24.889 24.888 24.889Zm-142.222 0c13.746 0 24.889-11.143 24.889-24.889 0-13.746-11.143-24.889-24.889-24.889-13.745 0-24.889 11.143-24.889 24.889 0 13.746 11.144 24.889 24.889 24.889Zm-85.333 0c13.746 0 24.889-11.143 24.889-24.889 0-13.746-11.143-24.889-24.889-24.889C107.143 352 96 363.143 96 376.889c0 13.746 11.143 24.889 24.889 24.889Z" fill="#F3F3F1"/><path d="M344.889 259.556H416v49.777h-71.111v-49.777Zm-35.556-120.889h-14.222v78.222h92.445c0-43.207-35.015-78.222-78.223-78.222Z" fill="#2FDF84"/><path d="M295.111 216.889v156.444h32V216.889h-32Z" fill="#D5DBE1"/><path d="M85.333 138.667h32v234.666h-32V138.667Z" fill="#00B871"/><path d="M355.556 376.889c0-7.623 3.498-14.35 8.888-18.916-4.337-3.669-9.87-5.973-16-5.973-13.752 0-24.888 11.15-24.888 24.889 0 13.739 11.136 24.889 24.888 24.889 6.13 0 11.663-2.304 16-5.974-5.39-4.565-8.888-11.292-8.888-18.915Zm-142.223 0c0-7.623 3.499-14.35 8.889-18.916-4.338-3.669-9.87-5.973-16-5.973-13.738 0-24.889 11.15-24.889 24.889 0 13.739 11.151 24.889 24.889 24.889 6.13 0 11.662-2.304 16-5.974-5.39-4.565-8.889-11.292-8.889-18.915Zm-85.333 0c0-7.623 3.499-14.35 8.889-18.916-4.338-3.669-9.87-5.973-16-5.973C107.15 352 96 363.15 96 376.889c0 13.739 11.15 24.889 24.889 24.889 6.13 0 11.662-2.304 16-5.974-5.39-4.565-8.889-11.292-8.889-18.915Z" fill="#D5DBE1"/><path d="M344.889 259.556h32v49.777h-32v-49.777Zm-35.556-120.889h-14.222v78.222h32v-76.117c-5.717-1.323-11.648-2.105-17.778-2.105Z" fill="#00B871"/><path d="M184.889 181.333h21.333v120.889h-21.333V181.333Zm-71.111 0h21.333v120.889h-21.333V181.333Zm234.666 231.111c-19.598 0-35.555-15.943-35.555-35.555 0-19.613 15.957-35.556 35.555-35.556 19.599 0 35.556 15.943 35.556 35.556 0 19.612-15.957 35.555-35.556 35.555Zm0-49.777c-7.836 0-14.222 6.371-14.222 14.222 0 7.851 6.386 14.222 14.222 14.222 7.837 0 14.223-6.371 14.223-14.222 0-7.851-6.386-14.222-14.223-14.222Zm-142.222 49.777c-19.598 0-35.555-15.943-35.555-35.555 0-19.613 15.957-35.556 35.555-35.556 19.599 0 35.556 15.943 35.556 35.556 0 19.612-15.957 35.555-35.556 35.555Zm0-49.777c-7.836 0-14.222 6.371-14.222 14.222 0 7.851 6.386 14.222 14.222 14.222 7.837 0 14.223-6.371 14.223-14.222 0-7.851-6.386-14.222-14.223-14.222Zm-85.333 49.777c-19.598 0-35.556-15.943-35.556-35.555 0-19.613 15.958-35.556 35.556-35.556s35.555 15.943 35.555 35.556c0 19.612-15.957 35.555-35.555 35.555Zm0-49.777c-7.837 0-14.222 6.371-14.222 14.222 0 7.851 6.385 14.222 14.222 14.222 7.836 0 14.222-6.371 14.222-14.222 0-7.851-6.386-14.222-14.222-14.222ZM416 320h-71.111c-5.888 0-10.667-4.779-10.667-10.667v-49.777c0-5.888 4.779-10.667 10.667-10.667H416v21.333h-60.444v28.445H416V320Z" fill="#000"/><path d="M149.333 362.667h28.445V384h-28.445v-21.333ZM252.445 384H224v-21.333h17.778V152.889a3.557 3.557 0 0 0-3.556-3.556H85.333V128h152.889c13.725 0 24.889 11.164 24.889 24.889v220.444c0 5.888-4.778 10.667-10.666 10.667Zm149.333 0h-24.889v-21.333h24.889a3.557 3.557 0 0 0 3.555-3.556V227.556h-99.555v135.111H320V384h-24.889c-5.888 0-10.667-4.779-10.667-10.667V216.889c0-5.888 4.779-10.667 10.667-10.667H416c5.888 0 10.667 4.779 10.667 10.667v142.222c0 13.725-11.165 24.889-24.889 24.889Z" fill="#000"/><path d="M398.222 216.889h-21.333c0-37.248-30.308-67.556-67.556-67.556h-3.555v67.556h-21.334v-78.222c0-5.888 4.779-10.667 10.667-10.667h14.222c49.01 0 88.889 39.879 88.889 88.889ZM248.889 362.667h42.667V384h-42.667v-21.333Z" fill="#000"/></svg>